<svg width="23" height="29" viewBox="0 0 23 29" fill="none" xmlns="http://www.w3.org/2000/svg">
<path d="M16.8137 0.263062C16.8787 0.263062 16.9438 0.263062 17.0125 0.263062C17.172 2.23352 16.4199 3.70584 15.5058 4.77204C14.6089 5.83089 13.3807 6.85783 11.3943 6.70201C11.2618 4.75977 12.0152 3.39665 12.928 2.3329C13.7746 1.34154 15.3267 0.459371 16.8137 0.263062Z" fill="black"/>
<path d="M22.8269 20.7725C22.8269 20.7921 22.8269 20.8093 22.8269 20.8277C22.2686 22.5184 21.4723 23.9674 20.5006 25.3121C19.6135 26.5329 18.5265 28.1758 16.5854 28.1758C14.9082 28.1758 13.7942 27.0973 12.0752 27.0679C10.2569 27.0384 9.25697 27.9697 7.59448 28.204C7.4043 28.204 7.21413 28.204 7.02763 28.204C5.80684 28.0273 4.82161 27.0605 4.10385 26.1894C1.98739 23.6153 0.351887 20.2903 0.0476074 16.0353C0.0476074 15.6181 0.0476074 15.2022 0.0476074 14.785C0.176435 11.7398 1.65612 9.26381 3.62289 8.06387C4.66088 7.42587 6.0878 6.88234 7.67668 7.12527C8.35763 7.23079 9.0533 7.4639 9.66309 7.69457C10.241 7.91664 10.9636 8.31049 11.6483 8.28963C12.112 8.27613 12.5734 8.03443 13.0408 7.86388C14.4101 7.36943 15.7524 6.80259 17.5216 7.06883C19.6479 7.39029 21.157 8.33503 22.0895 9.79262C20.2908 10.9374 18.8688 12.6624 19.1117 15.6083C19.3276 18.2842 20.8834 19.8498 22.8269 20.7725Z" fill="black"/>
</svg>
