<svg width="23" height="23" viewBox="0 0 23 23" fill="none" xmlns="http://www.w3.org/2000/svg">
<g clip-path="url(#clip0_213_291)">
<ellipse cx="11.5" cy="16.5" rx="6.5" ry="4.5" fill="#A6D4FF"/>
<path d="M11.5 0.000732422C5.14939 0.000732422 0 5.14911 0 11.5002C0 17.8513 5.14888 22.9997 11.5 22.9997C17.8516 22.9997 23 17.8513 23 11.5002C23 5.14911 17.8516 0.000732422 11.5 0.000732422ZM11.5 3.43922C13.6014 3.43922 15.3042 5.14254 15.3042 7.24291C15.3042 9.34379 13.6014 11.0466 11.5 11.0466C9.39963 11.0466 7.69681 9.34379 7.69681 7.24291C7.69681 5.14254 9.39963 3.43922 11.5 3.43922ZM11.4975 19.9931C9.40165 19.9931 7.48212 19.2299 6.00156 17.9665C5.64089 17.6589 5.43277 17.2078 5.43277 16.7345C5.43277 14.6043 7.15681 12.8995 9.28749 12.8995H13.7135C15.8447 12.8995 17.5622 14.6043 17.5622 16.7345C17.5622 17.2083 17.3551 17.6584 16.9939 17.966C15.5138 19.2299 13.5938 19.9931 11.4975 19.9931Z" fill="#3882C7"/>
</g>
<defs>
<clipPath id="clip0_213_291">
<rect width="23" height="23" fill="white"/>
</clipPath>
</defs>
</svg>
