<svg width="11" height="19" viewBox="0 0 11 19" fill="none" xmlns="http://www.w3.org/2000/svg">
<path d="M0.298666 10.2414L8.63094 18.6965C8.82366 18.8922 9.08091 19 9.35522 19C9.62953 19 9.88679 18.8922 10.0795 18.6965L10.6931 18.074C11.0924 17.6683 11.0924 17.009 10.6931 16.604L3.6963 9.50394L10.7009 2.39599C10.8936 2.20028 11 1.93937 11 1.66117C11 1.38266 10.8936 1.12176 10.7009 0.925894L10.0873 0.303534C9.8944 0.107821 9.63729 0 9.36298 0C9.08868 0 8.83142 0.107821 8.6387 0.303534L0.298666 8.76634C0.105494 8.96268 -0.000605583 9.22481 2.86102e-06 9.50348C-0.000605583 9.78322 0.105494 10.0452 0.298666 10.2414Z" fill="white" fill-opacity="0.62"/>
</svg>
