<svg width="14" height="14" viewBox="0 0 14 14" fill="none" xmlns="http://www.w3.org/2000/svg">
<path d="M13.9828 10.5589L13.326 13.3172C13.244 13.7269 12.9156 14 12.5051 14C5.60952 13.9727 0 8.37411 0 1.49195C0 1.0823 0.246272 0.754573 0.656725 0.672643L3.42044 0.0171991C3.80353 -0.0647314 4.21398 0.15375 4.37817 0.508782L5.66425 3.48559C5.80107 3.84062 5.71898 4.25027 5.41798 4.46876L3.94035 5.6704C4.87071 7.5548 6.40307 9.08417 8.31851 10.0127L9.52251 8.53797C9.74142 8.26487 10.1519 8.15563 10.5076 8.29218L13.4902 9.57576C13.8459 9.76693 14.0649 10.1766 13.9828 10.5589Z" fill="#3882C7"/>
</svg>
