<svg width="112" height="97" viewBox="0 0 112 97" fill="none" xmlns="http://www.w3.org/2000/svg">
<path d="M44.4358 18.1569C44.0718 17.8818 43.5404 17.8507 43.1467 18.0813C42.624 17.0252 41.1676 16.559 40.129 17.1154C39.8582 15.9773 38.7367 15.1026 37.5669 15.1166C36.3971 15.1305 35.2972 16.0321 35.0538 17.1764C35.0152 17.3582 34.9895 17.5574 34.8594 17.6902C34.6481 17.9061 34.2954 17.8337 33.9942 17.8102C33.0467 17.7363 32.0935 18.4014 31.8359 19.316L44.8824 19.2686C44.9966 18.827 44.8 18.432 44.4358 18.1569Z" fill="white"/>
<path d="M102.436 41.267C102.072 40.9919 101.541 40.9606 101.147 41.1914C100.624 40.1353 99.168 39.6691 98.1293 40.2255C97.8584 39.0875 96.7369 38.2127 95.5671 38.2267C94.3974 38.2407 93.2974 39.1422 93.0538 40.2865C93.0152 40.4683 92.9895 40.6676 92.8594 40.8004C92.6481 41.0163 92.2954 40.9438 91.9942 40.9203C91.0467 40.8465 90.0935 41.5115 89.8359 42.4261L102.882 42.3787C102.997 41.9371 102.8 41.5421 102.436 41.267Z" fill="white"/>
<path d="M32.1569 49.5142C31.7929 49.2391 31.2616 49.208 30.8679 49.4386C30.3451 48.3825 28.8887 47.9163 27.85 48.4727C27.5791 47.3346 26.4576 46.4599 25.2878 46.4739C24.1181 46.4878 23.0181 47.3894 22.7745 48.5337C22.7359 48.7155 22.7102 48.9147 22.5801 49.0475C22.3688 49.2634 22.0159 49.191 21.7149 49.1675C20.7674 49.0936 19.8142 49.7587 19.5566 50.6733L32.6031 50.6259C32.7175 50.1843 32.5209 49.7893 32.1569 49.5142Z" fill="white"/>
<path d="M71.7455 25.2421C71.5338 25.082 71.2248 25.0638 70.9956 25.1982C70.6917 24.5839 69.8444 24.3126 69.2401 24.6364C69.0825 23.9745 68.4303 23.4656 67.7498 23.4738C67.0693 23.482 66.4295 24.0064 66.2878 24.6719C66.2652 24.7777 66.2504 24.8936 66.1748 24.9707C66.0518 25.0962 65.8467 25.0541 65.6716 25.0406C65.1205 24.9976 64.5659 25.3844 64.416 25.9166L72.0053 25.8889C72.0718 25.632 71.9574 25.4021 71.7455 25.2421Z" fill="white"/>
<path d="M28.7875 8.2415C28.5758 8.08145 28.2668 8.06328 28.0376 8.19761C27.7336 7.58335 26.8864 7.31202 26.2821 7.63588C26.1245 6.97396 25.4721 6.46499 24.7918 6.4732C24.1112 6.4814 23.4715 7.00588 23.3298 7.67135C23.3072 7.77709 23.2924 7.89303 23.2168 7.97039C23.094 8.09586 22.8887 8.05374 22.7136 8.04022C22.1625 7.99722 21.6081 8.38404 21.458 8.91628L29.0473 8.88857C29.1136 8.63121 28.9992 8.40133 28.7875 8.2415Z" fill="white"/>
<path d="M80.0515 12.8173C79.7411 12.5828 79.2885 12.5564 78.9529 12.7528C78.5073 11.8526 77.2659 11.4554 76.3805 11.9295C76.1496 10.9595 75.1937 10.214 74.1966 10.2259C73.1995 10.2379 72.262 11.0062 72.0543 11.9816C72.0213 12.1366 71.9996 12.3064 71.8887 12.4196C71.7087 12.6036 71.4079 12.5418 71.1512 12.5218C70.3436 12.4589 69.5312 13.0257 69.3115 13.8053L80.4319 13.7648C80.5294 13.3884 80.3618 13.0519 80.0515 12.8173Z" fill="white"/>
<path d="M97.9361 21.4334C97.5063 21.1087 96.879 21.0719 96.4141 21.3441C95.797 20.097 94.0772 19.5468 92.8507 20.2038C92.5308 18.86 91.2067 17.8272 89.8255 17.8436C88.4442 17.8602 87.1454 18.9247 86.8579 20.2758C86.8122 20.4907 86.7821 20.7258 86.6285 20.8826C86.3791 21.1373 85.9625 21.0519 85.607 21.0242C84.4884 20.9369 83.3627 21.7223 83.0586 22.8023L98.4635 22.7462C98.5983 22.2248 98.366 21.7584 97.9361 21.4334Z" fill="white"/>
<path d="M95.0162 56.9907C94.5864 56.6659 93.959 56.6291 93.4942 56.9013C92.877 55.6542 91.1573 55.104 89.9307 55.761C89.6109 54.4172 88.2868 53.3844 86.9055 53.4008C85.5243 53.4175 84.2255 54.482 83.938 55.8331C83.8923 56.0479 83.8622 56.2831 83.7085 56.4398C83.4592 56.6947 83.0426 56.6092 82.6871 56.5814C81.5685 56.4941 80.4428 57.2795 80.1387 58.3595L95.5436 58.3034C95.6781 57.7818 95.446 57.3154 95.0162 56.9907Z" fill="white"/>
<path d="M27.9354 32.0105C27.3989 31.6053 26.6162 31.5592 26.0358 31.899C25.2657 30.3428 23.1197 29.6558 21.589 30.4758C21.1898 28.7988 19.5374 27.51 17.8139 27.5306C16.0901 27.5515 14.4695 28.8798 14.1106 30.5658C14.0536 30.8338 14.0157 31.1273 13.8242 31.3231C13.5129 31.6409 12.9931 31.5343 12.5493 31.4997C11.1534 31.3909 9.74865 32.3709 9.36914 33.7187L28.5933 33.6487C28.7615 32.9978 28.4718 32.4157 27.9354 32.0105Z" fill="white"/>
<path d="M98.6584 67.0975H58.5915C57.875 67.0975 57.292 66.5145 57.292 65.798V7.43661C57.292 6.72015 57.875 6.13715 58.5915 6.13715H98.6584C99.3749 6.13715 99.9579 6.71993 99.9579 7.43661V65.7978C99.9581 66.5145 99.3751 67.0975 98.6584 67.0975ZM58.5915 6.19256C57.9054 6.19256 57.3474 6.75074 57.3474 7.43661V65.7978C57.3474 66.4839 57.9056 67.0418 58.5915 67.0418H98.6584C99.3445 67.0418 99.9025 66.4837 99.9025 65.7978V7.43661C99.9025 6.75074 99.3443 6.19256 98.6584 6.19256H58.5915Z" fill="white"/>
<path d="M52.4555 67.0975H12.3883C11.6719 67.0975 11.0889 66.5145 11.0889 65.798V7.43664C11.0889 6.72018 11.6717 6.13718 12.3883 6.13718H52.4555C53.172 6.13718 53.755 6.71996 53.755 7.43664V65.7978C53.755 66.5145 53.172 67.0975 52.4555 67.0975ZM12.3883 6.1926C11.7025 6.1926 11.1443 6.75077 11.1443 7.43664V65.7978C11.1443 66.4839 11.7025 67.0419 12.3883 67.0419H52.4555C53.1416 67.0419 53.6996 66.4837 53.6996 65.7978V7.43664C53.6996 6.75077 53.1414 6.1926 52.4555 6.1926H12.3883Z" fill="white"/>
<path d="M111.091 80.635H0.25293V80.6904H111.091V80.635Z" fill="white"/>
<path d="M15.2671 83.797H11.707V83.8524H15.2671V83.797Z" fill="white"/>
<path d="M49.8819 83.1962H38.0156V83.2516H49.8819V83.1962Z" fill="white"/>
<path d="M23.524 85.8564H15.4883V85.9118H23.524V85.8564Z" fill="white"/>
<path d="M93.6972 83.1674H84.123V83.2228H93.6972V83.1674Z" fill="white"/>
<path d="M97.0761 83.1674H95.6729V83.2228H97.0761V83.1674Z" fill="white"/>
<path d="M82.2947 84.5484H70.3486V84.6039H82.2947V84.5484Z" fill="white"/>
<path d="M101.972 95.297C101.972 96.0478 81.2417 96.6563 55.6697 96.6563C30.0976 96.6563 9.36719 96.0478 9.36719 95.297C9.36719 94.5462 30.0974 93.9377 55.6697 93.9377C81.2419 93.9377 101.972 94.5462 101.972 95.297Z" fill="#F5F5F5"/>
<path d="M27.3734 93.0605C27.4253 92.7564 27.4772 92.4525 27.5291 92.1483C27.5448 92.0561 27.5599 91.9546 27.479 91.8819C27.4532 91.8586 27.4218 91.8444 27.3894 91.8391C27.1899 91.8054 27.0436 92.0463 26.8512 92.0444C26.7368 91.8714 26.8636 91.6256 26.9986 91.474C27.138 91.3175 27.3072 91.1222 27.2418 90.9029C27.2092 90.7937 27.1245 90.7176 27.0279 90.689C26.8605 90.6392 26.6993 90.7096 26.5453 90.7786C26.4457 90.5013 26.753 90.2831 26.9336 90.0431C27.044 89.8961 26.9359 89.6693 26.77 89.7004C26.5632 89.7394 26.3566 89.7782 26.15 89.8172C26.0895 89.8285 26.027 89.8256 25.9696 89.801C25.739 89.7026 25.7865 89.3907 25.8924 89.1878C25.9337 89.1087 25.9824 89.0305 26.0226 88.9493C26.095 88.8032 26.0099 88.6159 25.8647 88.6093C25.7302 88.6031 25.5949 88.6142 25.4626 88.6425C25.3309 88.3827 25.5777 88.0868 25.8035 87.9385C25.9095 87.8689 26.0265 87.7835 26.1148 87.682C26.2484 87.5284 26.1733 87.263 25.9873 87.2298C25.8383 87.2032 25.6892 87.1766 25.54 87.15C25.4998 87.1429 25.4602 87.1289 25.4258 87.1039C25.258 86.9815 25.3453 86.7399 25.4599 86.598C25.4941 86.5559 25.5315 86.5138 25.5663 86.4699C25.6557 86.357 25.5905 86.1742 25.4588 86.1662L25.3221 86.158C25.407 85.9762 25.4748 85.7838 25.5244 85.5852C25.585 85.3431 25.3988 85.1146 25.1871 85.1702L24.9029 85.2449C24.8661 85.2544 24.8273 85.2642 24.7916 85.25C24.747 85.2323 24.7182 85.1806 24.7074 85.1274C24.6315 84.757 25.2358 84.5604 25.1684 84.1877C25.1194 83.9164 24.7887 83.9131 24.5564 83.9765C24.5739 83.6282 24.6278 83.2824 24.716 82.9488C24.741 82.8539 24.6796 82.7581 24.5943 82.7599C24.4777 82.7626 24.3613 82.765 24.2447 82.7677C24.2073 82.7686 24.1656 82.7677 24.1379 82.7384C24.1148 82.7145 24.1071 82.6763 24.1048 82.6407C24.0924 82.4383 24.2192 82.2638 24.27 82.0696C24.321 81.8757 24.211 81.5901 24.0443 81.6511C23.8213 81.5458 23.6675 81.7065 23.603 81.4729C23.5912 81.4308 23.587 81.3857 23.5908 81.3416C23.6132 81.0794 23.8315 80.9165 23.8852 80.6702C23.9173 80.523 23.8852 80.3685 23.8528 80.2213C23.8419 80.1719 23.8289 80.1184 23.7936 80.0881C23.7581 80.0575 23.7103 80.0581 23.6675 80.0453C23.4556 79.9814 23.4394 79.6372 23.4981 79.3922C23.5429 79.2056 23.5979 78.9874 23.5533 78.8145C23.5291 78.7208 23.4438 78.6678 23.3622 78.692C23.2738 78.7183 23.1895 78.7624 23.1142 78.8223C23.0044 78.5884 23.0707 78.2861 22.9477 78.0533C22.9178 77.9966 22.8761 77.948 22.8249 77.9179C22.6371 77.8072 22.4771 77.9999 22.4516 78.1965C22.4316 78.3512 22.474 78.5066 22.5159 78.6554C22.3999 78.588 22.2536 78.6886 22.2002 78.8258C22.1468 78.9631 22.1603 79.1211 22.1749 79.2707C22.2022 79.5501 22.2292 79.8294 22.2565 80.1087C22.1667 79.9511 21.9346 80.0109 21.8515 80.1736C21.7684 80.3361 21.7921 80.5416 21.8298 80.7256C21.871 80.9275 21.9083 81.2774 21.8433 81.4766C21.58 81.6158 21.5529 81.2643 21.3414 81.3055C21.239 81.3255 21.1628 81.4248 21.1439 81.5431C21.0925 81.8688 21.1953 82.1825 21.1856 82.489C20.9819 82.4174 20.7535 82.6746 20.8087 82.9133C20.8424 83.059 20.9539 83.1678 20.961 83.3274C20.9639 83.3937 20.9395 83.4604 20.8908 83.4954C20.7784 83.5759 20.7088 83.3952 20.5926 83.4903C20.5432 83.5307 20.5179 83.6012 20.5219 83.671C20.5332 83.8632 20.6851 83.9845 20.7046 84.174C20.7117 84.2431 20.6913 84.3143 20.6465 84.3604C20.576 84.4327 20.5144 84.3826 20.4487 84.3746C20.2953 84.3558 20.1903 84.5757 20.2178 84.7519C20.2452 84.9281 20.353 85.07 20.4354 85.2212C20.5179 85.3726 20.5764 85.571 20.4997 85.7264C20.3669 85.6182 20.308 85.4187 20.1608 85.324C20.1045 85.2879 20.0375 85.2739 19.9775 85.3001C19.8515 85.3544 19.8358 85.5291 19.8449 85.6734C19.868 86.0374 19.9655 86.3947 20.1273 86.7077C19.9438 86.8767 19.7363 86.3169 19.519 86.4661C19.4561 86.5093 19.4248 86.5947 19.4301 86.6796C19.4636 87.1992 19.6336 87.7046 19.9096 88.1149C19.84 88.0307 19.7298 87.9917 19.6328 88.0238C19.5175 88.0617 19.4313 88.1954 19.4319 88.3344C19.433 88.5326 19.5827 88.6789 19.6762 88.8447C19.7695 89.0105 19.7653 89.3033 19.5971 89.3357C19.4233 89.369 19.339 89.0885 19.1843 88.991C19.001 88.8755 18.7631 89.073 18.7212 89.3102C18.6793 89.5476 18.7727 89.7877 18.8788 89.9961C18.985 90.2044 19.1094 90.411 19.1389 90.6505C19.0894 90.6822 19.1225 90.6609 19.0732 90.6928C18.8137 90.4549 18.5361 90.7398 18.6226 91.0182C18.6587 91.1346 18.6975 91.2543 18.6975 91.3709L18.6895 91.5509C18.6842 91.8511 18.4428 92.1177 18.1843 92.1091C17.9782 92.1022 17.7649 92.1667 17.674 92.3817C17.5681 92.6318 17.6585 92.9756 17.8846 93.0935C17.9471 93.1261 18.0081 93.1647 18.0575 93.2199C18.2624 93.4487 18.1016 93.6016 18.0495 93.7825C17.9839 94.0104 18.1076 94.27 18.2894 94.385C18.471 94.5003 18.6924 94.4965 18.8946 94.4458C19.0251 94.413 19.1577 94.3618 19.2894 94.3877C19.5346 94.5054 19.3432 94.8197 19.5778 95.1112C19.6328 95.1795 19.7447 95.2498 19.8223 95.2746C20.1003 95.3635 20.2891 95.2524 20.4423 95.0654C20.5113 94.9811 20.6001 94.8989 20.6926 94.8596C20.797 94.8155 20.9058 94.9111 20.9032 95.0401C20.8985 95.2635 20.9163 95.4868 21.0368 95.6761C21.1118 95.7933 21.2279 95.8711 21.3536 95.868C21.6015 95.8618 21.7249 95.5734 21.8267 95.3298C21.9519 95.0301 22.1887 94.687 22.5236 95.0079C22.6043 95.0853 22.6531 95.1964 22.6764 95.315C22.7267 95.5719 23.0013 95.9412 23.2239 95.7789C23.4077 95.6448 23.3562 95.2629 23.6178 95.2012C23.695 95.1831 23.7754 95.2039 23.8437 95.2496C24.1201 95.4349 24.1603 95.8731 24.4664 96.0157C24.5739 96.0658 24.7 96.0387 24.7761 95.9374C24.8665 95.8171 24.8122 95.6989 24.8016 95.579C24.7776 95.3072 24.9847 95.072 25.2077 94.9853C25.4309 94.8989 25.6725 94.9162 25.9062 94.8851C26.1398 94.8541 26.3903 94.7543 26.5078 94.5178C26.5512 94.4303 26.5734 94.3296 26.6204 94.2447C26.7572 93.9973 27.0474 93.9572 27.2987 93.9206C27.5499 93.8843 27.8445 93.7823 27.9163 93.5003C27.9977 93.1782 27.6069 92.8603 27.3734 93.0605Z" fill="#167CDC"/>
<g opacity="0.3">
<path d="M27.3734 93.0605C27.4253 92.7564 27.4772 92.4525 27.5291 92.1483C27.5448 92.0561 27.5599 91.9546 27.479 91.8819C27.4532 91.8586 27.4218 91.8444 27.3894 91.8391C27.1899 91.8054 27.0436 92.0463 26.8512 92.0444C26.7368 91.8714 26.8636 91.6256 26.9986 91.474C27.138 91.3175 27.3072 91.1222 27.2418 90.9029C27.2092 90.7937 27.1245 90.7176 27.0279 90.689C26.8605 90.6392 26.6993 90.7096 26.5453 90.7786C26.4457 90.5013 26.753 90.2831 26.9336 90.0431C27.044 89.8961 26.9359 89.6693 26.77 89.7004C26.5632 89.7394 26.3566 89.7782 26.15 89.8172C26.0895 89.8285 26.027 89.8256 25.9696 89.801C25.739 89.7026 25.7865 89.3907 25.8924 89.1878C25.9337 89.1087 25.9824 89.0305 26.0226 88.9493C26.095 88.8032 26.0099 88.6159 25.8647 88.6093C25.7302 88.6031 25.5949 88.6142 25.4626 88.6425C25.3309 88.3827 25.5777 88.0868 25.8035 87.9385C25.9095 87.8689 26.0265 87.7835 26.1148 87.682C26.2484 87.5284 26.1733 87.263 25.9873 87.2298C25.8383 87.2032 25.6892 87.1766 25.54 87.15C25.4998 87.1429 25.4602 87.1289 25.4258 87.1039C25.258 86.9815 25.3453 86.7399 25.4599 86.598C25.4941 86.5559 25.5315 86.5138 25.5663 86.4699C25.6557 86.357 25.5905 86.1742 25.4588 86.1662L25.3221 86.158C25.407 85.9762 25.4748 85.7838 25.5244 85.5852C25.585 85.3431 25.3988 85.1146 25.1871 85.1702L24.9029 85.2449C24.8661 85.2544 24.8273 85.2642 24.7916 85.25C24.747 85.2323 24.7182 85.1806 24.7074 85.1274C24.6315 84.757 25.2358 84.5604 25.1684 84.1877C25.1194 83.9164 24.7887 83.9131 24.5564 83.9765C24.5739 83.6282 24.6278 83.2824 24.716 82.9488C24.741 82.8539 24.6796 82.7581 24.5943 82.7599C24.4777 82.7626 24.3613 82.765 24.2447 82.7677C24.2073 82.7686 24.1656 82.7677 24.1379 82.7384C24.1148 82.7145 24.1071 82.6763 24.1048 82.6407C24.0924 82.4383 24.2192 82.2638 24.27 82.0696C24.321 81.8757 24.211 81.5901 24.0443 81.6511C23.8213 81.5458 23.6675 81.7065 23.603 81.4729C23.5912 81.4308 23.587 81.3857 23.5908 81.3416C23.6132 81.0794 23.8315 80.9165 23.8852 80.6702C23.9173 80.523 23.8852 80.3685 23.8528 80.2213C23.8419 80.1719 23.8289 80.1184 23.7936 80.0881C23.7581 80.0575 23.7103 80.0581 23.6675 80.0453C23.4556 79.9814 23.4394 79.6372 23.4981 79.3922C23.5429 79.2056 23.5979 78.9874 23.5533 78.8145C23.5291 78.7208 23.4438 78.6678 23.3622 78.692C23.2738 78.7183 23.1895 78.7624 23.1142 78.8223C23.0044 78.5884 23.0707 78.2861 22.9477 78.0533C22.9178 77.9966 22.8761 77.948 22.8249 77.9179C22.6371 77.8072 22.4771 77.9999 22.4516 78.1965C22.4316 78.3512 22.474 78.5066 22.5159 78.6554C22.3999 78.588 22.2536 78.6886 22.2002 78.8258C22.1468 78.9631 22.1603 79.1211 22.1749 79.2707C22.2022 79.5501 22.2292 79.8294 22.2565 80.1087C22.1667 79.9511 21.9346 80.0109 21.8515 80.1736C21.7684 80.3361 21.7921 80.5416 21.8298 80.7256C21.871 80.9275 21.9083 81.2774 21.8433 81.4766C21.58 81.6158 21.5529 81.2643 21.3414 81.3055C21.239 81.3255 21.1628 81.4248 21.1439 81.5431C21.0925 81.8688 21.1953 82.1825 21.1856 82.489C20.9819 82.4174 20.7535 82.6746 20.8087 82.9133C20.8424 83.059 20.9539 83.1678 20.961 83.3274C20.9639 83.3937 20.9395 83.4604 20.8908 83.4954C20.7784 83.5759 20.7088 83.3952 20.5926 83.4903C20.5432 83.5307 20.5179 83.6012 20.5219 83.671C20.5332 83.8632 20.6851 83.9845 20.7046 84.174C20.7117 84.2431 20.6913 84.3143 20.6465 84.3604C20.576 84.4327 20.5144 84.3826 20.4487 84.3746C20.2953 84.3558 20.1903 84.5757 20.2178 84.7519C20.2452 84.9281 20.353 85.07 20.4354 85.2212C20.5179 85.3726 20.5764 85.571 20.4997 85.7264C20.3669 85.6182 20.308 85.4187 20.1608 85.324C20.1045 85.2879 20.0375 85.2739 19.9775 85.3001C19.8515 85.3544 19.8358 85.5291 19.8449 85.6734C19.868 86.0374 19.9655 86.3947 20.1273 86.7077C19.9438 86.8767 19.7363 86.3169 19.519 86.4661C19.4561 86.5093 19.4248 86.5947 19.4301 86.6796C19.4636 87.1992 19.6336 87.7046 19.9096 88.1149C19.84 88.0307 19.7298 87.9917 19.6328 88.0238C19.5175 88.0617 19.4313 88.1954 19.4319 88.3344C19.433 88.5326 19.5827 88.6789 19.6762 88.8447C19.7695 89.0105 19.7653 89.3033 19.5971 89.3357C19.4233 89.369 19.339 89.0885 19.1843 88.991C19.001 88.8755 18.7631 89.073 18.7212 89.3102C18.6793 89.5476 18.7727 89.7877 18.8788 89.9961C18.985 90.2044 19.1094 90.411 19.1389 90.6505C19.0894 90.6822 19.1225 90.6609 19.0732 90.6928C18.8137 90.4549 18.5361 90.7398 18.6226 91.0182C18.6587 91.1346 18.6975 91.2543 18.6975 91.3709L18.6895 91.5509C18.6842 91.8511 18.4428 92.1177 18.1843 92.1091C17.9782 92.1022 17.7649 92.1667 17.674 92.3817C17.5681 92.6318 17.6585 92.9756 17.8846 93.0935C17.9471 93.1261 18.0081 93.1647 18.0575 93.2199C18.2624 93.4487 18.1016 93.6016 18.0495 93.7825C17.9839 94.0104 18.1076 94.27 18.2894 94.385C18.471 94.5003 18.6924 94.4965 18.8946 94.4458C19.0251 94.413 19.1577 94.3618 19.2894 94.3877C19.5346 94.5054 19.3432 94.8197 19.5778 95.1112C19.6328 95.1795 19.7447 95.2498 19.8223 95.2746C20.1003 95.3635 20.2891 95.2524 20.4423 95.0654C20.5113 94.9811 20.6001 94.8989 20.6926 94.8596C20.797 94.8155 20.9058 94.9111 20.9032 95.0401C20.8985 95.2635 20.9163 95.4868 21.0368 95.6761C21.1118 95.7933 21.2279 95.8711 21.3536 95.868C21.6015 95.8618 21.7249 95.5734 21.8267 95.3298C21.9519 95.0301 22.1887 94.687 22.5236 95.0079C22.6043 95.0853 22.6531 95.1964 22.6764 95.315C22.7267 95.5719 23.0013 95.9412 23.2239 95.7789C23.4077 95.6448 23.3562 95.2629 23.6178 95.2012C23.695 95.1831 23.7754 95.2039 23.8437 95.2496C24.1201 95.4349 24.1603 95.8731 24.4664 96.0157C24.5739 96.0658 24.7 96.0387 24.7761 95.9374C24.8665 95.8171 24.8122 95.6989 24.8016 95.579C24.7776 95.3072 24.9847 95.072 25.2077 94.9853C25.4309 94.8989 25.6725 94.9162 25.9062 94.8851C26.1398 94.8541 26.3903 94.7543 26.5078 94.5178C26.5512 94.4303 26.5734 94.3296 26.6204 94.2447C26.7572 93.9973 27.0474 93.9572 27.2987 93.9206C27.5499 93.8843 27.8445 93.7823 27.9163 93.5003C27.9977 93.1782 27.6069 92.8603 27.3734 93.0605Z" fill="black"/>
</g>
<path d="M21.4012 93.0606C21.4531 92.7564 21.5049 92.4525 21.5568 92.1484C21.5725 92.0561 21.5876 91.9546 21.5067 91.8819C21.481 91.8586 21.4495 91.8444 21.4172 91.8391C21.2176 91.8054 21.0713 92.0464 20.8789 92.0444C20.7643 91.8715 20.8913 91.6257 21.0263 91.474C21.1658 91.3175 21.3349 91.1222 21.2695 90.903C21.2369 90.7937 21.1523 90.7177 21.0556 90.6891C20.8882 90.6392 20.7271 90.7097 20.573 90.7786C20.4735 90.5013 20.7807 90.2832 20.9612 90.0431C21.0716 89.8961 20.9634 89.6694 20.7976 89.7004C20.591 89.7394 20.3841 89.7782 20.1775 89.8172C20.117 89.8285 20.0545 89.8257 19.9971 89.801C19.7666 89.7026 19.814 89.3907 19.9197 89.1879C19.961 89.1088 20.0097 89.0305 20.0499 88.9494C20.1223 88.8033 20.0372 88.616 19.8922 88.6093C19.7577 88.6031 19.6225 88.6142 19.4899 88.6426C19.3582 88.3828 19.605 88.0868 19.8311 87.9385C19.937 87.8689 20.0541 87.7836 20.1423 87.682C20.276 87.5284 20.2008 87.2631 20.0148 87.2298C19.8656 87.2032 19.7167 87.1766 19.5675 87.15C19.5274 87.1429 19.4877 87.129 19.4533 87.1039C19.2855 86.9816 19.3729 86.7399 19.4875 86.5981C19.5216 86.5559 19.5591 86.5138 19.5939 86.4699C19.6832 86.3571 19.618 86.1742 19.4864 86.1662L19.3496 86.158C19.4345 85.9763 19.5023 85.7838 19.552 85.5852C19.6125 85.3431 19.4263 85.1146 19.2146 85.1702L18.9304 85.2449C18.8936 85.2545 18.8548 85.2642 18.8191 85.25C18.7746 85.2323 18.7457 85.1807 18.7349 85.1275C18.6591 84.757 19.2634 84.5604 19.196 84.1878C19.147 83.9164 18.8162 83.9131 18.5839 83.9765C18.6014 83.6283 18.6553 83.2825 18.7435 82.9488C18.7686 82.854 18.7072 82.7582 18.6218 82.76C18.5052 82.7626 18.3888 82.7651 18.2722 82.7677C18.2348 82.7686 18.1931 82.7677 18.1652 82.7385C18.1421 82.7145 18.1344 82.6764 18.1321 82.6407C18.1197 82.4383 18.2465 82.2639 18.2973 82.0697C18.3483 81.8757 18.2383 81.5902 18.0716 81.6511C17.8486 81.5459 17.6948 81.7066 17.6303 81.4729C17.6185 81.4308 17.6143 81.3858 17.6181 81.3417C17.6402 81.0794 17.8588 80.9165 17.9125 80.6702C17.9446 80.523 17.9125 80.3685 17.8801 80.2213C17.8692 80.1719 17.8562 80.1185 17.8209 80.0881C17.7854 80.0575 17.7376 80.0582 17.6948 80.0453C17.4829 79.9815 17.4667 79.6372 17.5254 79.3923C17.5702 79.2056 17.6252 78.9875 17.5806 78.8146C17.5565 78.7208 17.4711 78.6678 17.3895 78.692C17.3011 78.7184 17.2168 78.7625 17.1415 78.8223C17.0317 78.5885 17.098 78.2861 16.975 78.0533C16.9451 77.9966 16.9032 77.9481 16.8522 77.9179C16.6644 77.8073 16.5044 77.9999 16.4789 78.1966C16.4589 78.3513 16.5013 78.5067 16.5432 78.6554C16.4272 78.588 16.2809 78.6887 16.2275 78.8259C16.1741 78.9631 16.1876 79.1212 16.2022 79.2708C16.2295 79.5501 16.2565 79.8294 16.2838 80.1087C16.194 79.9511 15.9619 80.011 15.8788 80.1737C15.7959 80.3362 15.8194 80.5417 15.8571 80.7256C15.8983 80.9276 15.9356 81.2774 15.8706 81.4767C15.6073 81.6159 15.5802 81.2643 15.3687 81.3055C15.2663 81.3255 15.1901 81.4248 15.1712 81.5432C15.1198 81.8688 15.2227 82.1825 15.2129 82.4891C15.0092 82.4175 14.7809 82.6746 14.8361 82.9134C14.8697 83.059 14.9812 83.1678 14.9883 83.3275C14.9912 83.3937 14.9668 83.4605 14.9181 83.4955C14.8057 83.5759 14.7361 83.3953 14.6199 83.4904C14.5707 83.5307 14.5452 83.6012 14.5492 83.6711C14.5605 83.8632 14.7124 83.9845 14.7319 84.174C14.739 84.2432 14.7186 84.3144 14.6738 84.3605C14.6033 84.4327 14.5417 84.3826 14.4761 84.3746C14.3227 84.3558 14.2176 84.5757 14.2451 84.7519C14.2726 84.9282 14.3805 85.07 14.4627 85.2212C14.5452 85.3726 14.6037 85.571 14.527 85.7264C14.3943 85.6182 14.3353 85.4187 14.1881 85.3241C14.1318 85.288 14.0648 85.274 14.0048 85.3001C13.8789 85.3545 13.8631 85.5291 13.8722 85.6734C13.8953 86.0374 13.9928 86.3948 14.1546 86.7078C13.9711 86.8767 13.7636 86.317 13.5463 86.4662C13.4834 86.5094 13.4521 86.5947 13.4575 86.6796C13.4909 87.1992 13.6609 87.7047 13.9369 88.115C13.8673 88.0307 13.7572 87.9917 13.6601 88.0239C13.5448 88.0618 13.4586 88.1954 13.4592 88.3344C13.4603 88.5326 13.61 88.6789 13.7035 88.8447C13.7968 89.0106 13.7926 89.3034 13.6244 89.3357C13.4506 89.369 13.3663 89.0886 13.2116 88.991C13.0283 88.8756 12.7904 89.0731 12.7485 89.3103C12.7066 89.5477 12.8 89.7877 12.9061 89.9961C13.0121 90.2045 13.1367 90.4111 13.1662 90.6505C13.117 90.6822 13.1498 90.6609 13.1006 90.6928C12.841 90.455 12.5634 90.7398 12.6499 91.0183C12.686 91.1346 12.7248 91.2543 12.7248 91.371L12.7168 91.551C12.7115 91.8511 12.4701 92.1178 12.2116 92.1091C12.0055 92.1023 11.7922 92.1668 11.7013 92.3818C11.5954 92.6318 11.686 92.9757 11.9119 93.0936C11.9744 93.1262 12.0354 93.1648 12.0848 93.2199C12.2897 93.4487 12.1289 93.6017 12.0769 93.7826C12.0112 94.0104 12.1352 94.27 12.3167 94.3851C12.4983 94.5003 12.7197 94.4966 12.9219 94.4458C13.0524 94.413 13.185 94.3618 13.3167 94.3877C13.5619 94.5054 13.3706 94.8198 13.6051 95.1113C13.6601 95.1796 13.772 95.2498 13.8496 95.2747C14.1276 95.3636 14.3164 95.2525 14.4696 95.0654C14.5386 94.9812 14.6275 94.8989 14.7199 94.8597C14.8243 94.8156 14.9331 94.9111 14.9305 95.0401C14.9258 95.2636 14.9436 95.4868 15.0642 95.6761C15.1391 95.7934 15.2552 95.8712 15.3809 95.8681C15.6288 95.8619 15.7522 95.5735 15.854 95.3299C15.9792 95.0302 16.2162 94.687 16.5509 95.008C16.6316 95.0853 16.6804 95.1964 16.7037 95.315C16.754 95.5719 17.0286 95.9412 17.2512 95.779C17.435 95.6449 17.3835 95.2629 17.6449 95.2013C17.7223 95.1831 17.8025 95.2039 17.8708 95.2496C18.1472 95.4349 18.1873 95.8732 18.4935 96.0157C18.601 96.0658 18.7271 96.0388 18.8034 95.9375C18.8938 95.8171 18.8395 95.6989 18.8289 95.579C18.8049 95.3072 19.0118 95.072 19.235 94.9854C19.4582 94.8989 19.6998 94.9162 19.9335 94.8852C20.1671 94.8541 20.4176 94.7544 20.5351 94.5179C20.5786 94.4303 20.6007 94.3297 20.6477 94.2447C20.7845 93.9974 21.0747 93.9572 21.326 93.9207C21.5772 93.8843 21.8718 93.7823 21.9436 93.5004C22.0254 93.1783 21.6346 92.8604 21.4012 93.0606Z" fill="#167CDC"/>
<path d="M94.0904 92.9279C94.1423 92.6238 94.1942 92.3199 94.246 92.0157C94.2618 91.9235 94.2768 91.822 94.1959 91.7493C94.1702 91.726 94.1387 91.7118 94.1064 91.7065C93.9069 91.673 93.7606 91.9138 93.5682 91.912C93.4535 91.7391 93.5806 91.4933 93.7156 91.3416C93.855 91.1849 94.0241 90.9898 93.9587 90.7706C93.9262 90.6613 93.8415 90.5853 93.7448 90.5567C93.5775 90.5068 93.4163 90.5773 93.2622 90.6465C93.1627 90.3691 93.4699 90.151 93.6504 89.9109C93.761 89.764 93.6526 89.5372 93.4868 89.5682C93.2802 89.6072 93.0734 89.646 92.8668 89.685C92.8063 89.6964 92.7437 89.6935 92.6863 89.6691C92.4558 89.5707 92.5032 89.2588 92.609 89.0559C92.6502 88.9768 92.699 88.8985 92.7391 88.8174C92.8116 88.6713 92.7265 88.484 92.5815 88.4774C92.4469 88.4712 92.3117 88.4822 92.1791 88.5106C92.0475 88.2508 92.2942 87.9549 92.5203 87.8066C92.6263 87.737 92.7433 87.6516 92.8315 87.5501C92.9652 87.3965 92.89 87.1311 92.7041 87.0979C92.5551 87.0713 92.4059 87.0447 92.2569 87.0181C92.2168 87.011 92.1771 86.997 92.1428 86.972C91.975 86.8496 92.0623 86.608 92.1769 86.4661C92.2111 86.424 92.2485 86.3819 92.2833 86.338C92.3727 86.2251 92.3075 86.0423 92.1758 86.0343L92.039 86.0261C92.1239 85.8443 92.1918 85.6519 92.2414 85.4533C92.3019 85.2112 92.1157 84.9826 91.904 85.0383L91.6198 85.113C91.5833 85.1227 91.5442 85.1323 91.5086 85.1181C91.464 85.1004 91.4352 85.0487 91.4243 84.9955C91.3485 84.6251 91.9528 84.4285 91.8856 84.0558C91.8366 83.7845 91.5059 83.7812 91.2736 83.8446C91.2911 83.4963 91.345 83.1505 91.4332 82.8169C91.4582 82.722 91.3968 82.6262 91.3115 82.628C91.1949 82.6307 91.0785 82.6331 90.9619 82.6358C90.9245 82.6367 90.8828 82.6358 90.8551 82.6065C90.832 82.5823 90.8243 82.5444 90.822 82.5087C90.8094 82.3064 90.9364 82.1319 90.9872 81.9377C91.0382 81.7437 90.9282 81.4582 90.7615 81.519C90.5387 81.4137 90.3847 81.5746 90.3202 81.3407C90.3084 81.2986 90.3042 81.2536 90.308 81.2095C90.3301 80.9473 90.5487 80.7843 90.6024 80.538C90.6345 80.3909 90.6024 80.2363 90.57 80.0892C90.5591 80.0397 90.546 79.9863 90.5108 79.9559C90.4753 79.9251 90.4275 79.926 90.3847 79.9131C90.1727 79.8493 90.1566 79.505 90.2153 79.2601C90.2601 79.0734 90.3151 78.8553 90.2705 78.6824C90.2463 78.5886 90.161 78.5354 90.0794 78.5598C89.991 78.5862 89.9065 78.6303 89.8314 78.6902C89.7216 78.4563 89.7879 78.1539 89.6651 77.9212C89.6352 77.8644 89.5933 77.8159 89.5423 77.7857C89.3545 77.6753 89.1945 77.8677 89.169 78.0644C89.149 78.2191 89.1914 78.3745 89.2333 78.523C89.1174 78.4556 88.971 78.5563 88.9176 78.6935C88.8642 78.8307 88.8777 78.989 88.8924 79.1386C88.9196 79.4179 88.9467 79.6972 88.9739 79.9765C88.8841 79.8189 88.6521 79.8788 88.5689 80.0415C88.486 80.204 88.5095 80.4097 88.5472 80.5935C88.5884 80.7954 88.6257 81.1452 88.5607 81.3445C88.2974 81.4837 88.2703 81.1321 88.0588 81.1734C87.9564 81.1933 87.8802 81.2926 87.8613 81.4112C87.8097 81.7369 87.9128 82.0505 87.903 82.3569C87.6993 82.2853 87.471 82.5424 87.5264 82.7812C87.5601 82.9266 87.6716 83.0359 87.6787 83.1953C87.6816 83.2616 87.6572 83.3283 87.6084 83.3633C87.496 83.4438 87.4264 83.2631 87.3102 83.3582C87.2608 83.3986 87.2355 83.469 87.2395 83.5389C87.2508 83.7313 87.4027 83.8523 87.4222 84.0419C87.4293 84.111 87.4089 84.1822 87.3641 84.2283C87.2936 84.3005 87.232 84.2504 87.1664 84.2425C87.013 84.2236 86.9079 84.4435 86.9354 84.6198C86.9629 84.796 87.0708 84.9379 87.1531 85.089C87.2355 85.2405 87.2941 85.4389 87.2174 85.5942C87.0846 85.4861 87.0256 85.2866 86.8784 85.1919C86.8221 85.1558 86.7552 85.1418 86.6951 85.168C86.5692 85.2223 86.5535 85.397 86.5625 85.5413C86.5856 85.9053 86.6831 86.2626 86.845 86.5756C86.6614 86.7445 86.4539 86.1848 86.2367 86.334C86.1737 86.3772 86.1425 86.4628 86.1478 86.5475C86.1813 87.0668 86.3513 87.5725 86.6273 87.9828C86.5577 87.8986 86.4475 87.8595 86.3504 87.8917C86.2351 87.9296 86.1489 88.0633 86.1496 88.2023C86.1507 88.4004 86.3003 88.5467 86.3938 88.7126C86.4872 88.8784 86.483 89.1712 86.3147 89.2036C86.1409 89.2368 86.0567 88.9564 85.9019 88.8589C85.7186 88.7434 85.4808 88.9409 85.4389 89.1781C85.397 89.4155 85.4903 89.6556 85.5965 89.8639C85.7024 90.0723 85.827 90.2789 85.8565 90.5183C85.8071 90.5502 85.8401 90.529 85.7909 90.5607C85.5313 90.323 85.2538 90.6077 85.3402 90.8861C85.3764 91.0025 85.4151 91.1219 85.4151 91.2388L85.4072 91.4188C85.4018 91.7189 85.1604 91.9856 84.902 91.977C84.6958 91.9701 84.4826 92.0346 84.3917 92.2496C84.2859 92.4997 84.3764 92.8435 84.6023 92.9614C84.6648 92.994 84.7257 93.0326 84.7752 93.0878C84.98 93.3165 84.8193 93.4695 84.7672 93.6504C84.7016 93.8783 84.8253 94.1378 85.007 94.2529C85.1886 94.3679 85.41 94.3644 85.6122 94.3136C85.7428 94.2808 85.8753 94.2296 86.007 94.2556C86.2522 94.3733 86.0609 94.6878 86.2954 94.9791C86.3504 95.0474 86.4623 95.1177 86.5399 95.1425C86.8179 95.2314 87.0068 95.1205 87.16 94.9332C87.2289 94.849 87.3178 94.7667 87.4102 94.7275C87.5146 94.6834 87.6235 94.7789 87.6208 94.9079C87.6162 95.1314 87.6339 95.3546 87.7545 95.5439C87.8292 95.6612 87.9456 95.739 88.0713 95.7359C88.3191 95.7299 88.4426 95.4413 88.5443 95.1977C88.6696 94.898 88.9065 94.5548 89.2413 94.8758C89.322 94.9532 89.3707 95.0642 89.394 95.1826C89.4443 95.4395 89.7192 95.8088 89.9415 95.6466C90.1253 95.5125 90.0739 95.1305 90.3355 95.0689C90.4126 95.0507 90.4931 95.0715 90.5613 95.1172C90.8378 95.3025 90.8779 95.7408 91.184 95.8833C91.2915 95.9334 91.4177 95.9064 91.4939 95.8051C91.5844 95.6847 91.5301 95.5665 91.5194 95.4466C91.4955 95.1748 91.7023 94.9396 91.9255 94.8532C92.1488 94.7667 92.3904 94.784 92.624 94.753C92.8577 94.722 93.1082 94.6222 93.2257 94.3857C93.2691 94.2981 93.2913 94.1975 93.3383 94.1126C93.475 93.8652 93.7654 93.8251 94.0166 93.7885C94.2678 93.7521 94.5624 93.6502 94.6342 93.3682C94.7147 93.0454 94.3236 92.7275 94.0904 92.9279Z" fill="#167CDC"/>
<g opacity="0.3">
<path d="M94.0904 92.9279C94.1423 92.6238 94.1942 92.3199 94.246 92.0157C94.2618 91.9235 94.2768 91.822 94.1959 91.7493C94.1702 91.726 94.1387 91.7118 94.1064 91.7065C93.9069 91.673 93.7606 91.9138 93.5682 91.912C93.4535 91.7391 93.5806 91.4933 93.7156 91.3416C93.855 91.1849 94.0241 90.9898 93.9587 90.7706C93.9262 90.6613 93.8415 90.5853 93.7448 90.5567C93.5775 90.5068 93.4163 90.5773 93.2622 90.6465C93.1627 90.3691 93.4699 90.151 93.6504 89.9109C93.761 89.764 93.6526 89.5372 93.4868 89.5682C93.2802 89.6072 93.0734 89.646 92.8668 89.685C92.8063 89.6964 92.7437 89.6935 92.6863 89.6691C92.4558 89.5707 92.5032 89.2588 92.609 89.0559C92.6502 88.9768 92.699 88.8985 92.7391 88.8174C92.8116 88.6713 92.7265 88.484 92.5815 88.4774C92.4469 88.4712 92.3117 88.4822 92.1791 88.5106C92.0475 88.2508 92.2942 87.9549 92.5203 87.8066C92.6263 87.737 92.7433 87.6516 92.8315 87.5501C92.9652 87.3965 92.89 87.1311 92.7041 87.0979C92.5551 87.0713 92.4059 87.0447 92.2569 87.0181C92.2168 87.011 92.1771 86.997 92.1428 86.972C91.975 86.8496 92.0623 86.608 92.1769 86.4661C92.2111 86.424 92.2485 86.3819 92.2833 86.338C92.3727 86.2251 92.3075 86.0423 92.1758 86.0343L92.039 86.0261C92.1239 85.8443 92.1918 85.6519 92.2414 85.4533C92.3019 85.2112 92.1157 84.9826 91.904 85.0383L91.6198 85.113C91.5833 85.1227 91.5442 85.1323 91.5086 85.1181C91.464 85.1004 91.4352 85.0487 91.4243 84.9955C91.3485 84.6251 91.9528 84.4285 91.8856 84.0558C91.8366 83.7845 91.5059 83.7812 91.2736 83.8446C91.2911 83.4963 91.345 83.1505 91.4332 82.8169C91.4582 82.722 91.3968 82.6262 91.3115 82.628C91.1949 82.6307 91.0785 82.6331 90.9619 82.6358C90.9245 82.6367 90.8828 82.6358 90.8551 82.6065C90.832 82.5823 90.8243 82.5444 90.822 82.5087C90.8094 82.3064 90.9364 82.1319 90.9872 81.9377C91.0382 81.7437 90.9282 81.4582 90.7615 81.519C90.5387 81.4137 90.3847 81.5746 90.3202 81.3407C90.3084 81.2986 90.3042 81.2536 90.308 81.2095C90.3301 80.9473 90.5487 80.7843 90.6024 80.538C90.6345 80.3909 90.6024 80.2363 90.57 80.0892C90.5591 80.0397 90.546 79.9863 90.5108 79.9559C90.4753 79.9251 90.4275 79.926 90.3847 79.9131C90.1727 79.8493 90.1566 79.505 90.2153 79.2601C90.2601 79.0734 90.3151 78.8553 90.2705 78.6824C90.2463 78.5886 90.161 78.5354 90.0794 78.5598C89.991 78.5862 89.9065 78.6303 89.8314 78.6902C89.7216 78.4563 89.7879 78.1539 89.6651 77.9212C89.6352 77.8644 89.5933 77.8159 89.5423 77.7857C89.3545 77.6753 89.1945 77.8677 89.169 78.0644C89.149 78.2191 89.1914 78.3745 89.2333 78.523C89.1174 78.4556 88.971 78.5563 88.9176 78.6935C88.8642 78.8307 88.8777 78.989 88.8924 79.1386C88.9196 79.4179 88.9467 79.6972 88.9739 79.9765C88.8841 79.8189 88.6521 79.8788 88.5689 80.0415C88.486 80.204 88.5095 80.4097 88.5472 80.5935C88.5884 80.7954 88.6257 81.1452 88.5607 81.3445C88.2974 81.4837 88.2703 81.1321 88.0588 81.1734C87.9564 81.1933 87.8802 81.2926 87.8613 81.4112C87.8097 81.7369 87.9128 82.0505 87.903 82.3569C87.6993 82.2853 87.471 82.5424 87.5264 82.7812C87.5601 82.9266 87.6716 83.0359 87.6787 83.1953C87.6816 83.2616 87.6572 83.3283 87.6084 83.3633C87.496 83.4438 87.4264 83.2631 87.3102 83.3582C87.2608 83.3986 87.2355 83.469 87.2395 83.5389C87.2508 83.7313 87.4027 83.8523 87.4222 84.0419C87.4293 84.111 87.4089 84.1822 87.3641 84.2283C87.2936 84.3005 87.232 84.2504 87.1664 84.2425C87.013 84.2236 86.9079 84.4435 86.9354 84.6198C86.9629 84.796 87.0708 84.9379 87.1531 85.089C87.2355 85.2405 87.2941 85.4389 87.2174 85.5942C87.0846 85.4861 87.0256 85.2866 86.8784 85.1919C86.8221 85.1558 86.7552 85.1418 86.6951 85.168C86.5692 85.2223 86.5535 85.397 86.5625 85.5413C86.5856 85.9053 86.6831 86.2626 86.845 86.5756C86.6614 86.7445 86.4539 86.1848 86.2367 86.334C86.1737 86.3772 86.1425 86.4628 86.1478 86.5475C86.1813 87.0668 86.3513 87.5725 86.6273 87.9828C86.5577 87.8986 86.4475 87.8595 86.3504 87.8917C86.2351 87.9296 86.1489 88.0633 86.1496 88.2023C86.1507 88.4004 86.3003 88.5467 86.3938 88.7126C86.4872 88.8784 86.483 89.1712 86.3147 89.2036C86.1409 89.2368 86.0567 88.9564 85.9019 88.8589C85.7186 88.7434 85.4808 88.9409 85.4389 89.1781C85.397 89.4155 85.4903 89.6556 85.5965 89.8639C85.7024 90.0723 85.827 90.2789 85.8565 90.5183C85.8071 90.5502 85.8401 90.529 85.7909 90.5607C85.5313 90.323 85.2538 90.6077 85.3402 90.8861C85.3764 91.0025 85.4151 91.1219 85.4151 91.2388L85.4072 91.4188C85.4018 91.7189 85.1604 91.9856 84.902 91.977C84.6958 91.9701 84.4826 92.0346 84.3917 92.2496C84.2859 92.4997 84.3764 92.8435 84.6023 92.9614C84.6648 92.994 84.7257 93.0326 84.7752 93.0878C84.98 93.3165 84.8193 93.4695 84.7672 93.6504C84.7016 93.8783 84.8253 94.1378 85.007 94.2529C85.1886 94.3679 85.41 94.3644 85.6122 94.3136C85.7428 94.2808 85.8753 94.2296 86.007 94.2556C86.2522 94.3733 86.0609 94.6878 86.2954 94.9791C86.3504 95.0474 86.4623 95.1177 86.5399 95.1425C86.8179 95.2314 87.0068 95.1205 87.16 94.9332C87.2289 94.849 87.3178 94.7667 87.4102 94.7275C87.5146 94.6834 87.6235 94.7789 87.6208 94.9079C87.6162 95.1314 87.6339 95.3546 87.7545 95.5439C87.8292 95.6612 87.9456 95.739 88.0713 95.7359C88.3191 95.7299 88.4426 95.4413 88.5443 95.1977C88.6696 94.898 88.9065 94.5548 89.2413 94.8758C89.322 94.9532 89.3707 95.0642 89.394 95.1826C89.4443 95.4395 89.7192 95.8088 89.9415 95.6466C90.1253 95.5125 90.0739 95.1305 90.3355 95.0689C90.4126 95.0507 90.4931 95.0715 90.5613 95.1172C90.8378 95.3025 90.8779 95.7408 91.184 95.8833C91.2915 95.9334 91.4177 95.9064 91.4939 95.8051C91.5844 95.6847 91.5301 95.5665 91.5194 95.4466C91.4955 95.1748 91.7023 94.9396 91.9255 94.8532C92.1488 94.7667 92.3904 94.784 92.624 94.753C92.8577 94.722 93.1082 94.6222 93.2257 94.3857C93.2691 94.2981 93.2913 94.1975 93.3383 94.1126C93.475 93.8652 93.7654 93.8251 94.0166 93.7885C94.2678 93.7521 94.5624 93.6502 94.6342 93.3682C94.7147 93.0454 94.3236 92.7275 94.0904 92.9279Z" fill="black"/>
</g>
<path d="M100.061 92.7952C100.113 92.491 100.165 92.1871 100.217 91.883C100.233 91.7908 100.248 91.6892 100.167 91.6165C100.141 91.5933 100.11 91.5791 100.077 91.5737C99.8779 91.5403 99.7316 91.781 99.5392 91.779C99.4248 91.6061 99.5516 91.3603 99.6866 91.2086C99.8261 91.0519 99.9952 90.8569 99.9298 90.6376C99.8972 90.5283 99.8125 90.4523 99.7159 90.4237C99.5485 90.3738 99.3874 90.4443 99.2333 90.5135C99.1338 90.2362 99.441 90.018 99.6215 89.778C99.7318 89.631 99.6237 89.4042 99.4579 89.4352C99.2513 89.4743 99.0444 89.5131 98.8378 89.5521C98.7773 89.5634 98.7148 89.5605 98.6574 89.5359C98.4268 89.4375 98.4743 89.1256 98.58 88.9227C98.6212 88.8436 98.67 88.7653 98.7101 88.6842C98.7826 88.5381 98.6975 88.3508 98.5525 88.3442C98.418 88.338 98.2828 88.349 98.1504 88.3774C98.0187 88.1176 98.2655 87.8217 98.4913 87.6734C98.5973 87.6038 98.7144 87.5184 98.8026 87.4169C98.9363 87.2633 98.8611 86.9979 98.6751 86.9647C98.5262 86.9381 98.377 86.9115 98.228 86.8849C98.1879 86.8778 98.1482 86.8638 98.1138 86.8388C97.946 86.7164 98.0334 86.4748 98.148 86.3329C98.1821 86.2906 98.2196 86.2487 98.2544 86.2048C98.3437 86.0919 98.2785 85.9091 98.1469 85.9011L98.0101 85.8929C98.095 85.7111 98.1628 85.5187 98.2125 85.3201C98.273 85.078 98.0868 84.8494 97.8751 84.9051L97.5909 84.9798C97.5543 84.9895 97.5153 84.9991 97.4796 84.9849C97.4351 84.9672 97.4062 84.9155 97.3954 84.8623C97.3196 84.4919 97.9239 84.2953 97.8567 83.9226C97.8077 83.6513 97.477 83.648 97.2446 83.7114C97.2622 83.3631 97.316 83.0173 97.4043 82.6837C97.4293 82.5888 97.3679 82.493 97.2825 82.4948C97.1659 82.4975 97.0496 82.4999 96.933 82.5026C96.8955 82.5034 96.8538 82.5026 96.8261 82.4733C96.8031 82.4491 96.7953 82.4112 96.7931 82.3755C96.7805 82.1732 96.9075 81.9987 96.9582 81.8047C97.0092 81.6108 96.8993 81.3252 96.7326 81.386C96.5098 81.2807 96.3557 81.4414 96.2912 81.2078C96.2795 81.1656 96.2753 81.1206 96.279 81.0765C96.3012 80.8143 96.5198 80.6514 96.5734 80.4051C96.6056 80.2579 96.5734 80.1034 96.541 79.9562C96.5302 79.9067 96.5171 79.8533 96.4819 79.823C96.4464 79.7921 96.3985 79.793 96.3557 79.7802C96.1438 79.7163 96.1276 79.3721 96.1864 79.1271C96.2311 78.9405 96.2861 78.7223 96.2416 78.5494C96.2174 78.4557 96.1321 78.4025 96.0505 78.4268C95.962 78.4532 95.8776 78.4973 95.8024 78.5572C95.6927 78.3233 95.759 78.0209 95.6362 77.7882C95.6062 77.7314 95.5643 77.6829 95.5134 77.6527C95.3256 77.5424 95.1656 77.7348 95.1401 77.9314C95.1201 78.0861 95.1624 78.2415 95.2043 78.3903C95.0884 78.3229 94.9421 78.4235 94.8887 78.5607C94.8353 78.6979 94.8488 78.8562 94.8634 79.0059C94.8907 79.2852 94.9177 79.5645 94.945 79.8438C94.8552 79.6862 94.6231 79.746 94.54 79.9087C94.4571 80.0712 94.4806 80.2767 94.5183 80.4607C94.5595 80.6627 94.5967 81.0125 94.5318 81.2117C94.2684 81.3507 94.2414 80.9994 94.0299 81.0406C93.9275 81.0606 93.8512 81.1599 93.8324 81.2785C93.7807 81.6041 93.8838 81.9178 93.8741 82.2241C93.6704 82.1525 93.442 82.4097 93.4972 82.6484C93.5309 82.7938 93.6424 82.9029 93.6495 83.0625C93.6524 83.1288 93.628 83.1955 93.5792 83.2305C93.4668 83.311 93.3972 83.1303 93.2811 83.2254C93.2317 83.2658 93.2064 83.3363 93.2104 83.4061C93.2217 83.5985 93.3735 83.7196 93.393 83.9091C93.4001 83.978 93.3797 84.0494 93.335 84.0955C93.2645 84.1678 93.2028 84.1179 93.1372 84.1097C92.9838 84.0909 92.8787 84.3108 92.9062 84.487C92.9337 84.6632 93.0417 84.8051 93.1239 84.9563C93.2064 85.1077 93.2649 85.3061 93.1882 85.4615C93.0554 85.3533 92.9965 85.1536 92.8493 85.0591C92.793 85.023 92.726 85.009 92.6659 85.035C92.54 85.0893 92.5243 85.264 92.5334 85.4083C92.5564 85.7723 92.654 86.1296 92.8158 86.4426C92.6322 86.6115 92.4248 86.0518 92.2075 86.201C92.1446 86.2442 92.1133 86.3296 92.1186 86.4145C92.1521 86.9341 92.3221 87.4395 92.5981 87.8498C92.5285 87.7656 92.4183 87.7266 92.3212 87.7587C92.206 87.7966 92.1197 87.9303 92.1204 88.0693C92.1215 88.2675 92.2711 88.4138 92.3647 88.5796C92.458 88.7454 92.4538 89.0384 92.2855 89.0706C92.1117 89.1038 92.0275 88.8234 91.8728 88.7259C91.6895 88.6104 91.4516 88.8079 91.4097 89.0451C91.3678 89.2825 91.4611 89.5226 91.5673 89.731C91.6735 89.9393 91.7979 90.1459 91.8273 90.3853C91.7779 90.417 91.8109 90.3958 91.7617 90.4277C91.5021 90.19 91.2246 90.4747 91.3111 90.7531C91.3472 90.8695 91.386 90.989 91.386 91.1058L91.378 91.2858C91.3727 91.5859 91.1313 91.8526 90.8728 91.844C90.6666 91.8371 90.4534 91.9016 90.3625 92.1166C90.2565 92.3667 90.347 92.7105 90.5731 92.8284C90.6356 92.861 90.6966 92.8996 90.746 92.9548C90.9508 93.1836 90.7901 93.3365 90.738 93.5174C90.6724 93.7453 90.7963 94.0049 90.9779 94.1199C91.1594 94.2352 91.3809 94.2314 91.5831 94.1806C91.7136 94.1478 91.8462 94.0966 91.9779 94.1226C92.223 94.2403 92.0317 94.5546 92.2663 94.8461C92.3212 94.9142 92.4332 94.9847 92.5108 95.0095C92.7887 95.0984 92.9776 94.9873 93.1308 94.8002C93.1997 94.716 93.2886 94.6338 93.3811 94.5945C93.4855 94.5504 93.5943 94.6459 93.5917 94.775C93.587 94.9984 93.6047 95.2216 93.7253 95.411C93.8 95.5282 93.9164 95.606 94.0421 95.6029C94.2899 95.5967 94.4134 95.3083 94.5152 95.0647C94.6404 94.765 94.8771 94.4218 95.2121 94.7428C95.2928 94.8202 95.3416 94.9312 95.3648 95.0498C95.4152 95.3068 95.6898 95.6761 95.9124 95.5138C96.0961 95.3797 96.0447 94.9977 96.3061 94.9361C96.3834 94.9179 96.4637 94.9388 96.532 94.9844C96.8084 95.1698 96.8485 95.608 97.1546 95.7506C97.2622 95.8007 97.3883 95.7736 97.4645 95.6723C97.555 95.5519 97.5007 95.4338 97.49 95.3139C97.4661 95.0421 97.6729 94.8069 97.8961 94.7204C98.1192 94.6338 98.361 94.6513 98.5946 94.6202C98.8283 94.5892 99.0788 94.4894 99.1963 94.2529C99.2397 94.1654 99.2619 94.0647 99.3089 93.9798C99.4457 93.7324 99.7361 93.6923 99.9872 93.6557C100.238 93.6194 100.533 93.5174 100.605 93.2354C100.686 92.9127 100.295 92.5948 100.061 92.7952Z" fill="#167CDC"/>
<path d="M59.9498 21.0204H50.5166V65.0509H59.9498V21.0204Z" fill="#167CDC"/>
<path opacity="0.7" d="M59.9496 66.0181L50.5166 65.0509V21.0204H59.9496V66.0181Z" fill="white"/>
<path opacity="0.5" d="M50.5166 21.4706L59.9496 22.1438V21.0612L50.5166 21.1711V21.4706Z" fill="#167CDC"/>
<path d="M48.541 19.8885L55.1622 0L61.9238 19.8885H48.541Z" fill="#167CDC"/>
<path d="M48.541 19.8885L50.4782 21.1714L59.8753 21.1051L61.9238 19.8885H48.541Z" fill="#167CDC"/>
<path opacity="0.7" d="M48.541 19.8885L55.1622 0L61.9238 19.8885H48.541Z" fill="white"/>
<path opacity="0.7" d="M48.541 19.8885L50.4782 21.1714L59.8753 21.1051L61.9238 19.8885H48.541Z" fill="white"/>
<path opacity="0.3" d="M48.541 19.8885L50.4782 21.1714L59.8753 21.1051L61.9238 19.8885H48.541Z" fill="#167CDC"/>
<path d="M53.7853 6.68021C53.7853 6.68021 49.25 18.8921 49.8984 19.0089C50.5468 19.1255 56.9379 19.0089 56.5212 19.0089C56.1044 19.0089 50.9638 19.0477 50.8248 18.3089C50.6858 17.57 53.7853 6.68021 53.7853 6.68021Z" fill="white"/>
<g opacity="0.4">
<path d="M55.5904 7.24238C55.8085 7.21002 56.0861 7.21401 56.2322 7.45541C56.3337 7.623 56.4556 7.77928 56.5208 7.95861C56.8584 8.88766 57.196 9.8167 57.5338 10.746C58.0517 12.1707 58.5715 13.6031 58.804 15.0757C58.8439 15.3291 58.8451 15.6395 58.5877 15.7707C58.3418 15.8959 58.0158 15.7687 57.8007 15.602C57.2042 15.1394 57.01 14.4278 56.8464 13.7634C56.3528 11.757 55.8591 9.75064 55.3652 7.74425C55.3652 7.74425 55.3127 7.28361 55.5904 7.24238Z" fill="white"/>
</g>
<path opacity="0.4" d="M59.4557 17.2162C59.4557 17.4802 59.1721 17.6941 58.8226 17.6941C58.4728 17.6941 58.1895 17.4802 58.1895 17.2162C58.1895 16.9522 58.473 16.7383 58.8226 16.7383C59.1721 16.7383 59.4557 16.9522 59.4557 17.2162Z" fill="white"/>
<path d="M51.082 22.1121V63.5914C51.082 63.5914 51.4904 63.7628 51.6262 63.0201C51.7624 62.2773 52.2656 25.2156 51.082 22.1121Z" fill="white"/>
<g opacity="0.4">
<path d="M58.5037 29.2561C58.4742 28.138 58.5826 25.2511 58.4799 24.2719C58.3773 23.2928 58.1904 22.5001 57.9847 22.5325C57.7788 22.5648 57.3385 23.4595 57.3864 24.5583V28.4545C57.456 37.987 57.5259 47.5193 57.5957 57.0518C57.6054 58.384 57.6194 59.7926 57.7546 60.9005C57.8898 62.0084 58.1922 62.6152 58.3829 61.7885C58.5165 61.2093 58.5484 60.1863 58.5686 59.2588C58.7865 49.2998 58.7646 39.1838 58.5037 29.2561Z" fill="white"/>
</g>
<g opacity="0.2">
<path d="M56.3125 31.5021C55.4557 32.3999 55.1128 33.5612 54.8545 34.6909C54.5963 35.8206 54.3899 36.9844 53.7415 37.9976C53.0931 39.0109 51.8836 39.863 50.5137 39.8457V46.7496C51.8834 46.7669 53.0931 45.9148 53.7415 44.9015C54.3899 43.8882 54.5963 42.7244 54.8545 41.5948C55.1128 40.4651 55.4557 39.3037 56.3125 38.406C57.1693 37.5082 58.6747 36.9502 59.9468 37.3767V30.4729C58.6747 30.0464 57.1693 30.6045 56.3125 31.5021Z" fill="white"/>
</g>
<path opacity="0.2" d="M54.4451 33.5411C54.4451 33.9829 54.0186 34.3409 53.4926 34.3409C52.9665 34.3409 52.54 33.9827 52.54 33.5411C52.54 33.0993 52.9665 32.7413 53.4926 32.7413C54.0186 32.7413 54.4451 33.0993 54.4451 33.5411Z" fill="white"/>
<path d="M55.1607 24.6949C54.0902 25.5776 54.4114 30.327 54.4114 30.327H55.1607H55.9099C55.9099 30.327 56.2311 25.5776 55.1607 24.6949Z" fill="#263238"/>
<path opacity="0.3" d="M50.4404 41.4159L54.7629 32.7779C54.8948 32.5143 55.2718 32.5176 55.3991 32.7834L59.9452 41.11V45.4783H50.512L50.4404 41.4159Z" fill="#167CDC"/>
<path d="M60.7886 47.4084H50.085V91.439H60.7886V47.4084Z" fill="#167CDC"/>
<path opacity="0.7" d="M60.7886 47.4084H50.085V91.439H60.7886V47.4084Z" fill="white"/>
<g opacity="0.2">
<path d="M56.6169 48.9424C55.6519 49.8402 55.2655 51.0016 54.9747 52.1312C54.6838 53.2609 54.4513 54.4247 53.7209 55.438C52.9905 56.4512 51.628 57.3034 50.085 57.2861V64.1899C51.628 64.2072 52.9905 63.3551 53.7209 62.3418C54.4513 61.3285 54.6838 60.1647 54.9747 59.0351C55.2655 57.9054 55.6519 56.7438 56.6169 55.8463C57.5818 54.9485 59.3552 54.4524 60.7883 54.8791V47.9659C59.3554 47.5394 57.582 48.0449 56.6169 48.9424Z" fill="white"/>
</g>
<path d="M47.8438 46.2765L54.9163 35.2262L63.029 46.2765H47.8438Z" fill="#167CDC"/>
<path d="M47.8438 46.2766L50.0419 47.5594L60.7045 47.4931L63.029 46.2766H47.8438Z" fill="#167CDC"/>
<path opacity="0.7" d="M47.8438 46.2765L54.9163 35.2262L63.029 46.2765H47.8438Z" fill="white"/>
<path opacity="0.7" d="M47.8438 46.2766L50.0419 47.5594L60.7045 47.4931L63.029 46.2766H47.8438Z" fill="white"/>
<path opacity="0.3" d="M47.8438 46.2766L50.0419 47.5594L60.7045 47.4931L63.029 46.2766H47.8438Z" fill="#167CDC"/>
<path d="M53.78 38.2071C53.78 38.2071 49.446 45.377 50.0944 45.4936C50.7428 45.6102 57.134 45.4936 56.7172 45.4936C56.3005 45.4936 51.1598 45.5324 51.0208 44.7936C50.8818 44.0547 53.78 38.2071 53.78 38.2071Z" fill="white"/>
<g opacity="0.4">
<path d="M54.7802 38.0659C54.9757 37.9642 55.2395 37.8775 55.4563 38.0579C55.6069 38.1832 55.7731 38.2911 55.8933 38.4394C56.5155 39.2075 57.1378 39.9757 57.76 40.744C58.7141 41.9217 59.6728 43.1066 60.3727 44.4229C60.493 44.6492 60.5952 44.9425 60.3948 45.1502C60.2033 45.3488 59.8535 45.3349 59.5959 45.2475C58.881 45.0046 58.4656 44.3954 58.0943 43.8206C56.9733 42.0849 55.852 40.3494 54.731 38.6137C54.731 38.6137 54.5313 38.1954 54.7802 38.0659Z" fill="white"/>
</g>
<path d="M50.8906 48.1929V89.6722C50.8906 89.6722 51.299 89.8436 51.4351 89.101C51.5712 88.3581 52.0744 51.2964 50.8906 48.1929Z" fill="white"/>
<g opacity="0.4">
<path d="M60.0349 55.0731C60.0056 53.9549 60.1138 51.0681 60.0112 50.0889C59.9085 49.1098 59.7217 48.3171 59.5159 48.3494C59.3102 48.3818 58.87 49.2765 58.9176 50.3753V54.2715C58.9875 63.804 59.0571 73.3363 59.1269 82.8688C59.1367 84.201 59.1508 85.6095 59.2858 86.7175C59.4211 87.8254 59.7234 88.4321 59.9141 87.6055C60.0477 87.0263 60.0797 86.0032 60.0998 85.0758C60.3175 75.1168 60.2956 65.001 60.0349 55.0731Z" fill="white"/>
</g>
<path d="M55.3569 51.1738C54.2865 51.7021 54.6077 54.5444 54.6077 54.5444H55.3569H56.1062C56.1062 54.5444 56.4274 51.7021 55.3569 51.1738Z" fill="#263238"/>
<path opacity="0.2" d="M54.2557 50.2159C54.2557 50.6577 53.8292 51.0157 53.3031 51.0157C52.7771 51.0157 52.3506 50.6575 52.3506 50.2159C52.3506 49.7744 52.7771 49.4161 53.3031 49.4161C53.8292 49.4161 54.2557 49.7744 54.2557 50.2159Z" fill="white"/>
<path opacity="0.3" d="M56.9406 54.5444H53.7744V55.1396H56.9406V54.5444Z" fill="#167CDC"/>
<path opacity="0.3" d="M56.7404 30.327H53.5742V30.9222H56.7404V30.327Z" fill="#167CDC"/>
<path opacity="0.5" d="M50.043 47.5594L60.7894 48.3486V47.4492L50.043 47.5594Z" fill="#167CDC"/>
<path d="M33.288 35.6353H26.1543V68.9332H33.288V35.6353Z" fill="#167CDC"/>
<path opacity="0.7" d="M33.288 69.6645L26.1543 68.9332V35.6353H33.288V69.6645Z" fill="white"/>
<path opacity="0.5" d="M26.1543 35.9758L33.288 36.4848V35.6661L26.1543 35.7493V35.9758Z" fill="#167CDC"/>
<path d="M24.6602 34.7792L29.3739 23.1864L34.7808 34.7792H24.6602Z" fill="#167CDC"/>
<path d="M24.6602 34.7792L26.1252 35.7495L33.2315 35.6994L34.7808 34.7792H24.6602Z" fill="#167CDC"/>
<path opacity="0.7" d="M24.6602 34.7792L29.3739 23.1864L34.7808 34.7792H24.6602Z" fill="white"/>
<path opacity="0.7" d="M24.6602 34.7792L26.1252 35.7495L33.2315 35.6994L34.7808 34.7792H24.6602Z" fill="white"/>
<path opacity="0.3" d="M24.6602 34.7792L26.1252 35.7495L33.2315 35.6994L34.7808 34.7792H24.6602Z" fill="#167CDC"/>
<path d="M28.2081 27.7911C28.1731 27.8793 25.196 34.0259 25.6864 34.1142C26.1767 34.2024 31.0099 34.1142 30.6947 34.1142C30.3795 34.1142 26.4919 34.1436 26.3869 33.5848C26.282 33.0257 28.2081 27.7911 28.2081 27.7911Z" fill="white"/>
<g opacity="0.4">
<path d="M29.5874 26.4005C29.7507 26.3675 29.9607 26.3597 30.0804 26.5362C30.1637 26.6588 30.2619 26.7718 30.3182 26.9048C30.6097 27.5931 30.9015 28.2817 31.193 28.97C31.6401 30.0254 32.089 31.087 32.3226 32.19C32.3627 32.3798 32.3758 32.6141 32.1865 32.7234C32.0058 32.8278 31.7545 32.7444 31.5856 32.627C31.1167 32.3011 30.9422 31.7713 30.7926 31.2758C30.3408 29.78 29.8891 28.2841 29.4371 26.7885C29.4371 26.7885 29.3792 26.4424 29.5874 26.4005Z" fill="white"/>
</g>
<path opacity="0.4" d="M32.2982 34.0055C32.5626 34.0055 32.777 33.8438 32.777 33.6442C32.777 33.4446 32.5626 33.2829 32.2982 33.2829C32.0337 33.2829 31.8193 33.4446 31.8193 33.6442C31.8193 33.8438 32.0337 34.0055 32.2982 34.0055Z" fill="white"/>
<path d="M26.582 36.4608V67.8294C26.582 67.8294 26.8908 67.9591 26.9937 67.3974C27.0965 66.8357 27.4772 38.8079 26.582 36.4608Z" fill="white"/>
<g opacity="0.4">
<path d="M32.1944 41.8635C32.1723 41.018 32.2541 38.8347 32.1765 38.0943C32.0989 37.354 31.9575 36.7543 31.8018 36.7787C31.6462 36.8031 31.3133 37.4799 31.3494 38.3107V41.2572C31.4022 48.4661 31.4549 55.6748 31.5077 62.8837C31.515 63.8912 31.5256 64.9563 31.6278 65.7943C31.73 66.6322 31.9588 67.0908 32.1029 66.4659C32.204 66.0279 32.2281 65.2543 32.2434 64.5529C32.4081 57.0212 32.3915 49.3712 32.1944 41.8635Z" fill="white"/>
</g>
<g opacity="0.2">
<path d="M30.5366 43.562C29.8886 44.241 29.6292 45.1193 29.4339 45.9736C29.2386 46.8279 29.0826 47.708 28.5922 48.4743C28.1019 49.2406 27.1873 49.8851 26.1514 49.872V55.0931C27.1873 55.1062 28.1019 54.4618 28.5922 53.6954C29.0826 52.9291 29.2386 52.0491 29.4339 51.1947C29.6292 50.3404 29.8886 49.4621 30.5366 48.7831C31.1845 48.1041 32.3228 47.682 33.2849 48.0048V42.7837C32.323 42.4611 31.1845 42.8832 30.5366 43.562Z" fill="white"/>
</g>
<path opacity="0.2" d="M29.1255 45.104C29.1255 45.438 28.8029 45.7089 28.405 45.7089C28.0071 45.7089 27.6846 45.438 27.6846 45.104C27.6846 44.7699 28.0071 44.499 28.405 44.499C28.8029 44.499 29.1255 44.7699 29.1255 45.104Z" fill="white"/>
<path d="M29.6662 38.414C28.8567 39.0817 29.0996 42.6733 29.0996 42.6733H29.6662H30.2328C30.2328 42.6733 30.4758 39.0817 29.6662 38.414Z" fill="#263238"/>
<path opacity="0.3" d="M26.0957 51.0593L29.3645 44.5267C29.4643 44.3274 29.7496 44.3298 29.8458 44.5309L33.2838 50.8278V54.1312H26.15L26.0957 51.0593Z" fill="#167CDC"/>
<path d="M33.9197 55.591H25.8252V88.8889H33.9197V55.591Z" fill="#167CDC"/>
<path opacity="0.7" d="M33.9197 55.591H25.8252V88.8889H33.9197V55.591Z" fill="white"/>
<g opacity="0.2">
<path d="M30.7652 56.7513C30.0355 57.4303 29.7433 58.3086 29.5232 59.1629C29.3033 60.0172 29.1273 60.8973 28.5749 61.6636C28.0224 62.4299 26.9921 63.0744 25.8252 63.0613V68.2824C26.9921 68.2955 28.0224 67.6511 28.5749 66.8847C29.1273 66.1184 29.3031 65.2384 29.5232 64.384C29.7431 63.5297 30.0355 62.6514 30.7652 61.9724C31.495 61.2934 32.8361 60.9183 33.9199 61.2411V56.0131C32.8361 55.6901 31.495 56.0723 30.7652 56.7513Z" fill="white"/>
</g>
<path d="M24.1309 54.7351L29.4792 46.3784L35.6145 54.7351H24.1309Z" fill="#167CDC"/>
<path d="M24.1309 54.7351L25.7932 55.7052L33.8567 55.6551L35.6145 54.7351H24.1309Z" fill="#167CDC"/>
<path opacity="0.7" d="M24.1309 54.7351L29.4792 46.3784L35.6145 54.7351H24.1309Z" fill="white"/>
<path opacity="0.7" d="M24.1309 54.7351L25.7932 55.7052L33.8567 55.6551L35.6145 54.7351H24.1309Z" fill="white"/>
<path opacity="0.3" d="M24.1309 54.7351L25.7932 55.7052L33.8567 55.6551L35.6145 54.7351H24.1309Z" fill="#167CDC"/>
<path d="M28.6203 48.6326C28.6203 48.6326 25.3429 54.0548 25.8332 54.143C26.3236 54.2312 31.1567 54.143 30.8415 54.143C30.5263 54.143 26.6388 54.1725 26.5337 53.6136C26.4284 53.0548 28.6203 48.6326 28.6203 48.6326Z" fill="white"/>
<g opacity="0.4">
<path d="M29.3759 48.5257C29.5237 48.4488 29.7232 48.3832 29.8873 48.5197C30.0012 48.6146 30.1269 48.6962 30.2178 48.8084C30.6884 49.3892 31.1588 49.9702 31.6294 50.5512C32.351 51.4419 33.0759 52.3379 33.6052 53.3332C33.6963 53.5043 33.7735 53.726 33.6221 53.8834C33.4773 54.0337 33.2126 54.0231 33.0178 53.957C32.4771 53.7735 32.163 53.3126 31.8821 52.8779C31.0342 51.5653 30.1865 50.2528 29.3386 48.9403C29.3386 48.9403 29.1874 48.6237 29.3759 48.5257Z" fill="white"/>
</g>
<path d="M26.4355 56.1842V87.5526C26.4355 87.5526 26.7443 87.6823 26.8472 87.1206C26.9501 86.5591 27.3307 58.5313 26.4355 56.1842Z" fill="white"/>
<g opacity="0.4">
<path d="M33.3497 61.3874C33.3275 60.5419 33.4093 58.3586 33.3317 57.6182C33.2542 56.8778 33.113 56.2782 32.9571 56.3026C32.8015 56.327 32.4685 57.0037 32.5047 57.8346V60.7811C32.5574 67.99 32.6102 75.1986 32.663 82.4075C32.6703 83.4151 32.6809 84.4802 32.7833 85.3181C32.8855 86.1561 33.1141 86.6147 33.2584 85.9898C33.3595 85.5518 33.3836 84.7781 33.3989 84.0768C33.5634 76.5453 33.5468 68.8953 33.3497 61.3874Z" fill="white"/>
</g>
<path d="M29.8147 58.4386C29.0051 58.8381 29.248 60.9876 29.248 60.9876H29.8147H30.3813C30.3813 60.9876 30.6242 58.8381 29.8147 58.4386Z" fill="#263238"/>
<path opacity="0.2" d="M28.9819 57.7144C28.9819 58.0484 28.6594 58.3193 28.2615 58.3193C27.8636 58.3193 27.541 58.0484 27.541 57.7144C27.541 57.3803 27.8636 57.1094 28.2615 57.1094C28.6594 57.1094 28.9819 57.3801 28.9819 57.7144Z" fill="white"/>
<path opacity="0.3" d="M31.0137 60.9874H28.6191V61.4374H31.0137V60.9874Z" fill="#167CDC"/>
<path opacity="0.3" d="M30.8601 42.6733H28.4658V43.1233H30.8601V42.6733Z" fill="#167CDC"/>
<path opacity="0.5" d="M25.7949 55.7051L33.9215 56.3019V55.622L25.7949 55.7051Z" fill="#167CDC"/>
<path opacity="0.3" d="M25.8291 65.4724C25.8291 65.43 27.91 65.4724 27.91 65.4724V67.0181H28.4761V65.4535H31.3457V67.0181H31.686V65.4724H33.9236V68.2823H25.8808L25.8291 65.4724Z" fill="#167CDC"/>
<path d="M85.5302 35.6189H78.3965V68.9167H85.5302V35.6189Z" fill="#167CDC"/>
<path opacity="0.7" d="M85.5302 69.648L78.3965 68.9167V35.6189H85.5302V69.648Z" fill="white"/>
<path opacity="0.5" d="M78.3965 35.9594L85.5302 36.4683V35.6497L78.3965 35.7328V35.9594Z" fill="#167CDC"/>
<path d="M76.9023 34.763L81.6161 23.17L87.0229 34.763H76.9023Z" fill="#167CDC"/>
<path d="M76.9023 34.763L78.3674 35.733L85.4737 35.6829L87.0229 34.763H76.9023Z" fill="#167CDC"/>
<path opacity="0.7" d="M76.9023 34.763L81.6161 23.17L87.0229 34.763H76.9023Z" fill="white"/>
<path opacity="0.7" d="M76.9023 34.763L78.3674 35.733L85.4737 35.6829L87.0229 34.763H76.9023Z" fill="white"/>
<path opacity="0.3" d="M76.9023 34.763L78.3674 35.733L85.4737 35.6829L87.0229 34.763H76.9023Z" fill="#167CDC"/>
<path d="M80.4513 27.7747C80.4162 27.8629 77.4394 34.0095 77.9295 34.0977C78.4198 34.186 83.253 34.0977 82.9378 34.0977C82.6226 34.0977 78.7351 34.1272 78.63 33.5684C78.5249 33.0095 80.4513 27.7747 80.4513 27.7747Z" fill="white"/>
<g opacity="0.4">
<path d="M81.8315 26.3841C81.9949 26.3511 82.2048 26.3433 82.3245 26.5198C82.4076 26.6423 82.5061 26.7554 82.5624 26.8884C82.8539 27.5767 83.1456 28.2652 83.4371 28.9535C83.8842 30.0092 84.3331 31.0705 84.5668 32.1736C84.6069 32.3634 84.62 32.5977 84.4307 32.707C84.25 32.8114 83.9986 32.728 83.8297 32.6105C83.3608 32.2847 83.1864 31.7549 83.0368 31.2594C82.585 29.7635 82.133 28.2679 81.6812 26.772C81.6812 26.772 81.6234 26.4262 81.8315 26.3841Z" fill="white"/>
</g>
<path opacity="0.4" d="M84.5413 33.9891C84.8058 33.9891 85.0201 33.8273 85.0201 33.6278C85.0201 33.4282 84.8058 33.2664 84.5413 33.2664C84.2769 33.2664 84.0625 33.4282 84.0625 33.6278C84.0625 33.8273 84.2769 33.9891 84.5413 33.9891Z" fill="white"/>
<path d="M78.8252 36.4446V67.813C78.8252 67.813 79.134 67.9427 79.2369 67.381C79.3399 66.8192 79.7203 38.7915 78.8252 36.4446Z" fill="white"/>
<g opacity="0.4">
<path d="M84.4386 41.847C84.4164 41.0016 84.4982 38.8183 84.4206 38.0779C84.343 37.3375 84.2018 36.7379 84.046 36.7622C83.8904 36.7866 83.5574 37.4634 83.5935 38.2942V41.2408C83.6463 48.4496 83.6991 55.6583 83.7518 62.8672C83.7591 63.8747 83.7698 64.9399 83.8722 65.7778C83.9744 66.6157 84.2032 67.0744 84.3472 66.4495C84.4483 66.0114 84.4725 65.2378 84.4878 64.5364C84.6523 57.005 84.6356 49.355 84.4386 41.847Z" fill="white"/>
</g>
<g opacity="0.2">
<path d="M82.7807 43.5455C82.1327 44.2245 81.8734 45.1028 81.6781 45.9571C81.4828 46.8115 81.3267 47.6915 80.8364 48.4579C80.346 49.2242 79.4314 49.8686 78.3955 49.8555V55.0767C79.4314 55.0897 80.346 54.4453 80.8364 53.679C81.3267 52.9127 81.4828 52.0326 81.6781 51.1783C81.8734 50.3239 82.1327 49.4457 82.7807 48.7667C83.4287 48.0877 84.567 47.6656 85.529 47.9884V42.7672C84.5672 42.4447 83.4287 42.8668 82.7807 43.5455Z" fill="white"/>
</g>
<path opacity="0.2" d="M80.6472 45.6925C81.0451 45.6925 81.3676 45.4216 81.3676 45.0875C81.3676 44.7534 81.0451 44.4826 80.6472 44.4826C80.2493 44.4826 79.9268 44.7534 79.9268 45.0875C79.9268 45.4216 80.2493 45.6925 80.6472 45.6925Z" fill="white"/>
<path d="M81.9094 38.3976C81.0998 39.0653 81.3428 42.6569 81.3428 42.6569H81.9094H82.476C82.476 42.6569 82.7189 39.0653 81.9094 38.3976Z" fill="#263238"/>
<path opacity="0.3" d="M78.3408 51.0428L81.6096 44.5103C81.7094 44.311 81.9947 44.3134 82.0909 44.5145L85.5289 50.8114V54.1148H78.3951L78.3408 51.0428Z" fill="#167CDC"/>
<path d="M86.1707 55.5747H78.0762V88.8726H86.1707V55.5747Z" fill="#167CDC"/>
<path opacity="0.7" d="M86.1707 55.5747H78.0762V88.8726H86.1707V55.5747Z" fill="white"/>
<g opacity="0.2">
<path d="M83.0182 56.7348C82.2884 57.4138 81.9962 58.292 81.7761 59.1464C81.556 60.0007 81.3802 60.8808 80.8278 61.6471C80.2754 62.4134 79.245 63.0578 78.0781 63.0448V68.2659C79.245 68.279 80.2754 67.6346 80.8278 66.8682C81.3802 66.1019 81.556 65.2218 81.7761 64.3675C81.996 63.5132 82.2882 62.6349 83.0182 61.9559C83.7479 61.2769 85.0891 60.9018 86.1728 61.2244V55.9964C85.0891 55.6736 83.7479 56.0558 83.0182 56.7348Z" fill="white"/>
</g>
<path d="M76.3818 54.7186L81.7304 46.3619L87.8657 54.7186H76.3818Z" fill="#167CDC"/>
<path d="M76.3818 54.7187L78.0442 55.6887L86.1079 55.6386L87.8657 54.7187H76.3818Z" fill="#167CDC"/>
<path opacity="0.7" d="M76.3818 54.7186L81.7304 46.3619L87.8657 54.7186H76.3818Z" fill="white"/>
<path opacity="0.7" d="M76.3818 54.7187L78.0442 55.6887L86.1079 55.6386L87.8657 54.7187H76.3818Z" fill="white"/>
<path opacity="0.3" d="M76.3818 54.7187L78.0442 55.6887L86.1079 55.6386L87.8657 54.7187H76.3818Z" fill="#167CDC"/>
<path d="M80.8694 48.6161C80.8694 48.6161 77.5919 54.0383 78.0822 54.1265C78.5726 54.2148 83.4058 54.1265 83.0905 54.1265C82.7753 54.1265 78.8878 54.156 78.7827 53.5972C78.6774 53.0383 80.8694 48.6161 80.8694 48.6161Z" fill="white"/>
<g opacity="0.4">
<path d="M81.6239 48.5095C81.7718 48.4326 81.9713 48.367 82.1353 48.5035C82.2493 48.5984 82.3749 48.68 82.4658 48.7921C82.9364 49.3732 83.4068 49.954 83.8775 50.535C84.599 51.4257 85.3239 52.3217 85.8535 53.317C85.9446 53.4881 86.0217 53.7098 85.8703 53.8672C85.7253 54.0175 85.4609 54.0068 85.266 53.9408C84.7254 53.7572 84.4113 53.2964 84.1304 52.8617C83.2825 51.5491 82.4348 50.2366 81.5869 48.924C81.5867 48.9236 81.4355 48.6073 81.6239 48.5095Z" fill="white"/>
</g>
<path d="M78.6846 56.168V87.5364C78.6846 87.5364 78.9934 87.6661 79.0962 87.1043C79.1991 86.5426 79.5797 58.5148 78.6846 56.168Z" fill="white"/>
<g opacity="0.4">
<path d="M85.6007 61.3711C85.5785 60.5257 85.6603 58.3424 85.5827 57.602C85.5051 56.8616 85.3637 56.2619 85.2081 56.2863C85.0525 56.3107 84.7195 56.9875 84.7557 57.8183V60.7648C84.8084 67.9737 84.8612 75.1824 84.9139 82.3913C84.9212 83.3988 84.9319 84.464 85.0343 85.3019C85.1365 86.1398 85.365 86.5985 85.5093 85.9736C85.6104 85.5355 85.6346 84.7619 85.6499 84.0603C85.8144 76.5289 85.7977 68.8788 85.6007 61.3711Z" fill="white"/>
</g>
<path d="M82.0617 58.4222C81.2522 58.8216 81.4951 60.9712 81.4951 60.9712H82.0617H82.6283C82.6283 60.9712 82.8713 58.8216 82.0617 58.4222Z" fill="#263238"/>
<path opacity="0.2" d="M81.228 57.698C81.228 58.032 80.9055 58.3029 80.5076 58.3029C80.1096 58.3029 79.7871 58.032 79.7871 57.698C79.7871 57.3639 80.1096 57.093 80.5076 57.093C80.9055 57.093 81.228 57.3639 81.228 57.698Z" fill="white"/>
<path opacity="0.3" d="M83.2566 60.971H80.8623V61.421H83.2566V60.971Z" fill="#167CDC"/>
<path opacity="0.3" d="M83.1053 42.6568H80.7109V43.1068H83.1053V42.6568Z" fill="#167CDC"/>
<path opacity="0.5" d="M78.0391 55.6887L86.1659 56.2855V55.6056L78.0391 55.6887Z" fill="#167CDC"/>
<path opacity="0.3" d="M86.1648 65.2482C86.1648 65.2059 84.0839 65.2482 84.0839 65.2482V66.794H83.5178V65.2294H80.6482V66.794H80.3079V65.2482H78.0703V68.0582H86.1131L86.1648 65.2482Z" fill="#167CDC"/>
<path d="M45.499 51.2665H37.5781V95.297H45.499V51.2665Z" fill="#167CDC"/>
<path opacity="0.7" d="M45.499 51.2665H37.5781V95.297H45.499V51.2665Z" fill="white"/>
<path d="M35.9199 50.1346L41.1539 34.8051L47.1573 50.1346H35.9199Z" fill="#167CDC"/>
<path d="M35.8027 50.1346L37.5473 51.4174L45.4381 51.3509L47.1581 50.1346H35.8027Z" fill="#167CDC"/>
<path opacity="0.7" d="M35.9199 50.1346L41.1539 34.8051L47.1573 50.1346H35.9199Z" fill="white"/>
<path opacity="0.7" d="M35.8027 50.1346L37.5473 51.4174L45.4381 51.3509L47.1581 50.1346H35.8027Z" fill="white"/>
<path opacity="0.3" d="M35.8027 50.1346L37.5473 51.4174L45.4381 51.3509L47.1581 50.1346H35.8027Z" fill="#167CDC"/>
<path d="M39.8605 40.8936C39.8217 41.0102 36.5161 49.1379 37.0605 49.2545C37.605 49.3712 42.9715 49.2545 42.6217 49.2545C42.2717 49.2545 37.955 49.2933 37.8384 48.5545C37.7218 47.8159 39.8605 40.8936 39.8605 40.8936Z" fill="white"/>
<g opacity="0.4">
<path d="M41.3907 39.055C41.5721 39.0114 41.8051 39.0009 41.9383 39.2344C42.0307 39.3964 42.1398 39.546 42.2023 39.7218C42.5259 40.632 42.8498 41.5422 43.1735 42.4526C43.6698 43.8483 44.1683 45.252 44.4277 46.7106C44.4723 46.9615 44.4867 47.2714 44.2767 47.4157C44.0761 47.5536 43.797 47.4437 43.6095 47.2883C43.089 46.8573 42.895 46.1568 42.729 45.5018C42.2273 43.5238 41.7257 41.5458 41.224 39.568C41.224 39.568 41.1598 39.1107 41.3907 39.055Z" fill="white"/>
</g>
<path opacity="0.4" d="M44.9342 48.6334C44.9342 48.8974 44.6962 49.1113 44.4027 49.1113C44.109 49.1113 43.8711 48.8974 43.8711 48.6334C43.8711 48.3694 44.1092 48.1555 44.4027 48.1555C44.6962 48.1555 44.9342 48.3696 44.9342 48.6334Z" fill="white"/>
<path d="M38.0547 52.3582V93.8375C38.0547 93.8375 38.3974 94.0088 38.5118 93.2662C38.6259 92.5234 39.0485 55.4617 38.0547 52.3582Z" fill="white"/>
<g opacity="0.4">
<path d="M44.288 59.5022C44.2634 58.3841 44.3543 55.4972 44.2681 54.518C44.1818 53.5389 44.0251 52.7462 43.8522 52.7785C43.6793 52.8109 43.3098 53.7056 43.3497 54.8044V58.7006C43.4082 68.2331 43.4667 77.7654 43.5252 87.2979C43.5334 88.6301 43.5452 90.0387 43.6587 91.1466C43.7722 92.2545 44.026 92.8612 44.1863 92.0346C44.2984 91.4554 44.3253 90.4324 44.3423 89.5049C44.5252 79.5456 44.5068 69.4299 44.288 59.5022Z" fill="white"/>
</g>
<g opacity="0.2">
<path d="M42.4472 61.7482C41.7279 62.646 41.4399 63.8073 41.2231 64.937C41.0063 66.0666 40.833 67.2304 40.2885 68.2437C39.7441 69.257 38.7284 70.1091 37.5781 70.0918V76.9957C38.7284 77.013 39.7439 76.1609 40.2885 75.1476C40.833 74.1343 41.0063 72.9705 41.2231 71.8409C41.4399 70.7112 41.7279 69.5496 42.4472 68.652C43.1666 67.7543 44.4306 67.1961 45.499 67.6228V60.7189C44.4308 60.2922 43.1666 60.8504 42.4472 61.7482Z" fill="white"/>
</g>
<path opacity="0.2" d="M40.8799 63.7869C40.8799 64.2287 40.5219 64.5867 40.0801 64.5867C39.6383 64.5867 39.2803 64.2287 39.2803 63.7869C39.2803 63.3451 39.6385 62.9871 40.0801 62.9871C40.5219 62.9871 40.8799 63.3453 40.8799 63.7869Z" fill="white"/>
<path d="M41.4796 55.4531C40.5807 55.9813 40.8505 58.8236 40.8505 58.8236H41.4796H42.1087C42.1087 58.8236 42.3785 55.9813 41.4796 55.4531Z" fill="#263238"/>
<path d="M41.4796 62.1018C40.5807 62.63 40.8505 65.4724 40.8505 65.4724H41.4796H42.1087C42.1087 65.4724 42.3785 62.63 41.4796 62.1018Z" fill="#263238"/>
<path opacity="0.3" d="M50.0862 57.365H52.2212V59.1032H52.805V57.365H55.6713V58.9684H56.153V57.365H59.0115V58.8615H59.6495V57.365H60.79V59.8504H50.0791L50.0862 57.365Z" fill="#167CDC"/>
<path d="M73.6377 49.9067H65.7168V93.9372H73.6377V49.9067Z" fill="#167CDC"/>
<path opacity="0.7" d="M73.6377 49.9067H65.7168V93.9372H73.6377V49.9067Z" fill="white"/>
<path d="M64.0605 48.7748L69.2943 33.4453L75.2979 48.7748H64.0605Z" fill="#167CDC"/>
<path d="M63.9434 48.7748L65.6879 50.0577L73.5785 49.9914L75.2987 48.7748H63.9434Z" fill="#167CDC"/>
<path opacity="0.7" d="M64.0605 48.7748L69.2943 33.4453L75.2979 48.7748H64.0605Z" fill="white"/>
<path opacity="0.7" d="M63.9434 48.7748L65.6879 50.0577L73.5785 49.9914L75.2987 48.7748H63.9434Z" fill="white"/>
<path opacity="0.3" d="M63.9434 48.7748L65.6879 50.0577L73.5785 49.9914L75.2987 48.7748H63.9434Z" fill="#167CDC"/>
<path d="M68.0012 39.5341C67.9624 39.6507 64.6567 47.7784 65.2012 47.895C65.7456 48.0116 71.1121 47.895 70.7623 47.895C70.4123 47.895 66.0956 47.9338 65.979 47.195C65.8622 46.4561 68.0012 39.5341 68.0012 39.5341Z" fill="white"/>
<g opacity="0.4">
<path d="M69.5315 37.6953C69.7128 37.6516 69.9458 37.6412 70.0791 37.8746C70.1715 38.0367 70.2806 38.1863 70.3431 38.3621C70.6667 39.2723 70.9906 40.1825 71.3142 41.0929C71.8106 42.4886 72.3091 43.8922 72.5685 45.3508C72.613 45.6018 72.6274 45.9117 72.4175 46.056C72.2169 46.1939 71.9378 46.0839 71.7503 45.9285C71.2298 45.4976 71.0358 44.7971 70.8698 44.1421C70.3681 42.164 69.8665 40.186 69.3648 38.2082C69.3648 38.2082 69.3003 37.7509 69.5315 37.6953Z" fill="white"/>
</g>
<path opacity="0.4" d="M73.0749 47.2736C73.0749 47.5377 72.8368 47.7516 72.5433 47.7516C72.2496 47.7516 72.0117 47.5377 72.0117 47.2736C72.0117 47.0096 72.2498 46.7957 72.5433 46.7957C72.837 46.7959 73.0749 47.0099 73.0749 47.2736Z" fill="white"/>
<path d="M66.1943 50.9985V92.4777C66.1943 92.4777 66.537 92.6491 66.6514 91.9065C66.7658 91.1636 67.1883 54.1019 66.1943 50.9985Z" fill="white"/>
<g opacity="0.4">
<path d="M72.4296 58.1424C72.405 57.0243 72.4959 54.1374 72.4097 53.1582C72.3234 52.1791 72.1667 51.3864 71.9938 51.4187C71.8209 51.4511 71.4514 52.3458 71.4913 53.4446V57.3408C71.5498 66.8733 71.6083 76.4056 71.6668 85.9381C71.675 87.2703 71.6868 88.6789 71.8003 89.7868C71.9138 90.8947 72.1676 91.5014 72.3279 90.6748C72.44 90.0956 72.4669 89.0725 72.4839 88.1451C72.667 78.1858 72.6486 68.0701 72.4296 58.1424Z" fill="white"/>
</g>
<g opacity="0.2">
<path d="M70.5861 60.3884C69.8668 61.2862 69.5788 62.4476 69.3618 63.5772C69.145 64.7069 68.9717 65.8707 68.4272 66.884C67.8828 67.8972 66.8671 68.7494 65.7168 68.7321V75.6359C66.8671 75.6532 67.8828 74.8011 68.4272 73.7878C68.9717 72.7746 69.145 71.6108 69.3618 70.4811C69.5786 69.3514 69.8666 68.1899 70.5861 67.2923C71.3055 66.3945 72.5695 65.8363 73.6379 66.2631V59.3592C72.5695 58.9325 71.3055 59.4906 70.5861 60.3884Z" fill="white"/>
</g>
<path opacity="0.2" d="M69.0176 62.4272C69.0176 62.869 68.6594 63.227 68.2178 63.227C67.776 63.227 67.418 62.8688 67.418 62.4272C67.418 61.9856 67.7762 61.6274 68.2178 61.6274C68.6594 61.6274 69.0176 61.9856 69.0176 62.4272Z" fill="white"/>
<path d="M69.6182 54.0933C68.7194 54.6215 68.9891 57.4639 68.9891 57.4639H69.6182H70.2474C70.2474 57.4639 70.5171 54.6215 69.6182 54.0933Z" fill="#263238"/>
<path d="M69.6182 60.742C68.7194 61.2703 68.9891 64.1126 68.9891 64.1126H69.6182H70.2474C70.2474 64.1126 70.5171 61.2703 69.6182 60.742Z" fill="#263238"/>
<path d="M63.552 58.0941V59.7276H62.0448V58.0941H60.6272H60.1371H60.1169V59.7276H58.6297V58.0941H58.6095H56.722H56.7018V59.7276H55.2146V58.0941H55.1944H53.3068H53.2867V59.7276H51.7994V58.0941H51.7793H50.7115H49.8715V59.7276H48.3644V58.0941H47.2764C47.2764 58.0941 47.2764 61.0577 47.2764 62.1853V62.6127V72.8504H64.0614V62.6127V62.1853V58.0941H63.552Z" fill="#167CDC"/>
<path opacity="0.6" d="M63.552 58.0941V59.7276H62.0448V58.0941H60.6272H60.1371H60.1169V59.7276H58.6297V58.0941H58.6095H56.722H56.7018V59.7276H55.2146V58.0941H55.1944H53.3068H53.2867V59.7276H51.7994V58.0941H51.7793H50.7115H49.8715V59.7276H48.3644V58.0941H47.2764C47.2764 58.0941 47.2764 61.0577 47.2764 62.1853V62.6127V72.8504H64.0614V62.6127V62.1853V58.0941H63.552Z" fill="white"/>
<path d="M85.9037 70.8493H33.9678V95.297H85.9037V70.8493Z" fill="#167CDC"/>
<path opacity="0.6" d="M86.1879 70.8493H34.252V95.297H86.1879V70.8493Z" fill="white"/>
<g opacity="0.2">
<path d="M60.862 89.1611C61.3882 88.3471 62.1198 87.819 63.0481 87.5484C64.3121 87.1797 65.6457 87.1549 66.9521 87.1977C69.6259 87.2852 72.3902 87.5608 74.9561 86.6089C76.1662 86.16 77.3065 85.4637 78.1119 84.4392C78.3735 84.1064 77.9059 83.6325 77.6417 83.969C76.0518 85.9918 73.3385 86.5657 70.8977 86.6373C68.2274 86.7158 65.4462 86.1403 62.8353 86.9177C61.7538 87.2398 60.9008 87.878 60.2881 88.8254C60.0546 89.1859 60.6301 89.5195 60.862 89.1611Z" fill="white"/>
</g>
<path opacity="0.3" d="M37.0917 70.8493L35.1427 72.7056L36.0356 95.297H33.9696L33.4121 70.8493H37.5776" fill="#167CDC"/>
<path opacity="0.3" d="M74.5592 70.8493L76.5081 72.7056L75.6154 95.297H77.6812L78.2387 70.8493H74.0732" fill="#167CDC"/>
<g opacity="0.2">
<path d="M71.308 70.8852C70.8518 72.5347 69.3451 73.7395 67.708 74.2387C66.0709 74.7382 64.3128 74.6342 62.6174 74.4014C60.9218 74.1687 59.2333 73.8109 57.5218 73.8166C54.3241 73.8275 51.1515 75.174 48.9223 77.4665C46.9866 79.457 45.7395 82.1111 43.5048 83.7586C40.8644 85.7051 37.0161 85.8326 34.2529 84.0649L34.3602 90.361C36.5103 91.2031 39.0167 90.5334 40.9094 89.2107C42.8021 87.8879 44.2035 85.992 45.5704 84.131C46.9374 82.27 48.3404 80.3747 50.2348 79.0548C52.2483 77.6521 54.7623 76.9848 57.2065 77.2041C60.0365 77.4581 62.658 78.8394 65.4737 79.2193C68.2553 79.5946 71.1641 78.9413 73.5181 77.4125C75.8721 75.8836 77.6515 73.4917 78.4395 70.7977C76.0625 70.8269 73.6852 70.8562 71.308 70.8852Z" fill="white"/>
</g>
<path d="M87.7279 66.0487V67.6822H86.2697V66.0487H84.4241V67.6822H82.9659V66.0487H81.1202V67.6822H79.662V66.0487H77.8164V67.6822H76.3582V66.0487H75.3057C75.3057 66.0487 75.3057 70.4494 75.3057 70.5673L77.3418 72.1017H86.1815L88.2214 70.5673V66.0487H87.7279Z" fill="#167CDC"/>
<path opacity="0.7" d="M87.7279 66.0487V67.6822H86.2697V66.0487H84.4241V67.6822H82.9659V66.0487H81.1202V67.6822H79.662V66.0487H77.8164V67.6822H76.3582V66.0487H75.3057C75.3057 66.0487 75.3057 70.4494 75.3057 70.5673L77.3418 72.1017H86.1815L88.2214 70.5673V66.0487H87.7279Z" fill="white"/>
<path d="M77.342 72.1018C77.342 72.1018 76.8641 95.297 77.5433 95.297C78.2223 95.297 86.8807 95.297 86.8807 95.297L86.1818 72.1018H77.342Z" fill="#167CDC"/>
<path opacity="0.7" d="M77.342 72.1018C77.342 72.1018 76.8641 95.297 77.5433 95.297C78.2223 95.297 86.8807 95.297 86.8807 95.297L86.1818 72.1018H77.342Z" fill="white"/>
<path d="M75.3057 70.5673H88.2216L86.1817 72.1018H77.342L75.3057 70.5673Z" fill="#167CDC"/>
<path opacity="0.7" d="M75.3057 70.5673H88.2216L86.1817 72.1018H77.342L75.3057 70.5673Z" fill="white"/>
<path opacity="0.3" d="M75.3057 70.5673H88.2216L86.1817 72.1018H77.342L75.3057 70.5673Z" fill="#167CDC"/>
<g opacity="0.2">
<path d="M82.778 75.0031C81.953 76.0327 81.6227 77.3646 81.3739 78.6603C81.1252 79.956 80.9264 81.2907 80.3019 82.4529C79.6775 83.6151 78.5126 84.5925 77.1934 84.5726V92.4906C78.5126 92.5105 79.6775 91.5332 80.3019 90.3709C80.9264 89.2087 81.1252 87.874 81.3739 86.5783C81.6227 85.2826 81.953 83.9505 82.778 82.9209C83.6031 81.8912 85.3231 81.429 86.5485 81.9184L86.2783 73.8224C85.0529 73.3334 83.6031 73.9736 82.778 75.0031Z" fill="white"/>
</g>
<path d="M76.1551 69.5986C75.9172 69.1231 75.8381 67.8944 75.8381 67.8944C75.8381 67.9737 75.5608 69.9156 75.8381 69.995C76.1156 70.0743 83.5666 69.995 83.5666 69.995C83.5666 69.995 76.3929 70.0741 76.1551 69.5986Z" fill="white"/>
<path d="M78.2359 73.8925C78.2359 73.8925 77.2832 93.2465 78.2359 93.8546C79.1887 94.4626 84.2332 93.8546 84.2332 93.8546C84.2332 93.8546 79.1326 93.793 78.8524 92.4184C78.5722 91.0435 78.2359 73.8925 78.2359 73.8925Z" fill="white"/>
<g opacity="0.4">
<path d="M85.2049 75.1292C85.1912 74.7887 85.1519 74.4003 84.8764 74.1999C84.6008 73.9996 84.0839 74.2848 84.2459 74.5845L84.1872 74.7366C84.0132 80.1776 84.001 85.6238 84.1508 91.0655C84.1719 91.828 84.3674 92.8016 85.1189 92.9324C85.4166 87.0035 85.4454 81.061 85.2049 75.1292Z" fill="white"/>
</g>
<g opacity="0.2">
<path d="M81.7975 73.2742C81.7015 73.1281 81.5091 73.0701 81.3351 73.0867C81.1611 73.1033 80.9997 73.1816 80.843 73.2587L80.6645 73.4092C79.9818 74.0122 79.5247 74.8647 79.4006 75.7672C79.3848 75.882 79.3839 76.021 79.4788 76.0877C79.5735 76.1544 79.7038 76.1072 79.8069 76.054C80.692 75.5983 81.4043 74.8155 81.7749 73.8911C81.8545 73.6925 81.9155 73.4533 81.7975 73.2742Z" fill="white"/>
</g>
<path opacity="0.3" d="M60.3617 95.297C60.377 95.184 60.7344 92.4933 60.4879 89.5135C60.1277 85.1576 58.6859 82.4308 56.2027 81.4095L55.6704 81.1905L55.1382 81.4093C52.655 82.4308 51.2132 85.1574 50.853 89.5133C50.6065 92.4931 50.9638 95.1838 51.1793 95.2968" fill="#167CDC"/>
<path d="M55.6703 82.6895C50.9276 84.6655 52.3505 95.297 52.3505 95.297H55.6703H58.9901C58.9901 95.297 60.4131 84.6655 55.6703 82.6895Z" fill="#263238"/>
<path d="M41.3313 76.6486C40.4324 77.1768 40.702 80.0192 40.702 80.0192H41.3313H41.9604C41.9604 80.0192 42.2302 77.1768 41.3313 76.6486Z" fill="#263238"/>
<path d="M45.3556 76.6486C44.4567 77.1768 44.7264 80.0192 44.7264 80.0192H45.3556H45.9849C45.9849 80.0192 46.2544 77.1768 45.3556 76.6486Z" fill="#263238"/>
<path d="M65.878 76.6486C64.9791 77.1769 65.2489 80.0192 65.2489 80.0192H65.878H66.5073C66.5073 80.0192 66.7769 77.1769 65.878 76.6486Z" fill="#263238"/>
<path d="M69.9044 76.6486C69.0055 77.1768 69.2753 80.0192 69.2753 80.0192H69.9044H70.5335C70.5335 80.0192 70.8033 77.1768 69.9044 76.6486Z" fill="#263238"/>
<path d="M35.5404 66.0487V67.6822H34.0822V66.0487H32.2366V67.6822H30.7784V66.0487H28.9327V67.6822H27.4745V66.0487H25.6289V67.6822H24.1707V66.0487H23.1182C23.1182 66.0487 23.1182 70.4494 23.1182 70.5673L25.1543 72.1018H33.994L36.0339 70.5673V66.0487H35.5404Z" fill="#167CDC"/>
<path opacity="0.7" d="M35.5404 66.0487V67.6822H34.0822V66.0487H32.2366V67.6822H30.7784V66.0487H28.9327V67.6822H27.4745V66.0487H25.6289V67.6822H24.1707V66.0487H23.1182C23.1182 66.0487 23.1182 70.4494 23.1182 70.5673L25.1543 72.1018H33.994L36.0339 70.5673V66.0487H35.5404Z" fill="white"/>
<path d="M25.1555 72.1018C25.1555 72.1018 24.6776 95.297 25.3568 95.297C26.0358 95.297 34.6944 95.297 34.6944 95.297L33.9955 72.1018H25.1555Z" fill="#167CDC"/>
<path opacity="0.7" d="M25.1555 72.1018C25.1555 72.1018 24.6776 95.297 25.3568 95.297C26.0358 95.297 34.6944 95.297 34.6944 95.297L33.9955 72.1018H25.1555Z" fill="white"/>
<path d="M23.1182 70.5673H36.0341L33.994 72.1018H25.1543L23.1182 70.5673Z" fill="#167CDC"/>
<path opacity="0.7" d="M23.1182 70.5673H36.0341L33.994 72.1018H25.1543L23.1182 70.5673Z" fill="white"/>
<path opacity="0.3" d="M23.1182 70.5673H36.0341L33.994 72.1018H25.1543L23.1182 70.5673Z" fill="#167CDC"/>
<g opacity="0.2">
<path d="M30.5896 75.0031C29.7645 76.0328 29.4342 77.3646 29.1855 78.6603C28.9367 79.956 28.7379 81.2907 28.1134 82.4529C27.489 83.6152 26.3241 84.5925 25.0049 84.5726V92.4906C26.3241 92.5106 27.489 91.5332 28.1134 90.371C28.7379 89.2087 28.9367 87.874 29.1855 86.5783C29.4342 85.2826 29.7645 83.9506 30.5896 82.9209C31.4146 81.8912 33.1346 81.429 34.36 81.9185L34.0898 73.8224C32.8644 73.3334 31.4146 73.9736 30.5896 75.0031Z" fill="white"/>
</g>
<path d="M23.9677 69.5986C23.7298 69.1232 23.6507 67.8944 23.6507 67.8944C23.6507 67.9738 23.3732 69.9156 23.6507 69.995C23.9282 70.0744 31.3792 69.995 31.3792 69.995C31.3792 69.995 24.2053 70.0741 23.9677 69.5986Z" fill="white"/>
<path d="M26.0475 73.8925C26.0475 73.8925 25.0947 93.2465 26.0475 93.8546C27.0002 94.4626 32.0447 93.8546 32.0447 93.8546C32.0447 93.8546 26.9442 93.793 26.664 92.4184C26.3838 91.0435 26.0475 73.8925 26.0475 73.8925Z" fill="white"/>
<g opacity="0.4">
<path d="M33.0213 75.1292C33.0076 74.7887 32.9683 74.4004 32.6928 74.2C32.4172 73.9996 31.9003 74.2849 32.0623 74.5846L32.0036 74.7366C31.8296 80.1777 31.8174 85.6238 31.9672 91.0655C31.9883 91.828 32.1838 92.8016 32.9353 92.9324C33.2328 87.0035 33.2616 81.061 33.0213 75.1292Z" fill="white"/>
</g>
<g opacity="0.2">
<path d="M29.61 73.2742C29.5138 73.1282 29.3216 73.0701 29.1476 73.0867C28.9736 73.1033 28.8122 73.1816 28.6555 73.2587L28.477 73.4092C27.7943 74.0122 27.3372 74.8648 27.2131 75.7672C27.1973 75.882 27.1964 76.021 27.2913 76.0877C27.386 76.1545 27.5163 76.1072 27.6194 76.054C28.5045 75.5983 29.2168 74.8155 29.5872 73.8912C29.6672 73.6925 29.728 73.4533 29.61 73.2742Z" fill="white"/>
</g>
<g opacity="0.2">
<path d="M59.5836 66.7029C58.3203 66.2846 55.7027 64.2798 54.4013 63.9991C53.042 63.7061 51.6066 64.0392 50.3619 64.6555C49.1174 65.2718 48.3533 65.767 47.2793 66.6439V70.8493C48.7018 69.1309 51.0724 65.5105 53.2916 65.8228C55.1364 66.0827 56.9865 68.6171 58.7457 69.2265C60.5049 69.8358 62.7425 70.0043 64.0643 68.7013C64.0825 67.2684 64.0464 65.7767 64.0643 64.3438C62.9682 66.4353 61.6004 67.3704 59.5836 66.7029Z" fill="white"/>
</g>
<path opacity="0.2" d="M61.4778 63.6391C61.4778 64.1627 61.0535 64.587 60.5299 64.587C60.0063 64.587 59.582 64.1627 59.582 63.6391C59.582 63.1155 60.0063 62.6912 60.5299 62.6912C61.0535 62.6912 61.4778 63.1155 61.4778 63.6391Z" fill="white"/>
<path d="M36.0342 79.7035C36.0342 79.7035 36.171 93.8887 36.9905 93.9372C37.81 93.986 48.8147 93.9372 48.8147 93.9372C48.8147 93.9372 38.646 93.7521 38.0525 92.9324C37.4587 92.1129 36.0342 79.7035 36.0342 79.7035Z" fill="white"/>
<path d="M49.3044 68.7846C49.104 68.113 48.1689 61.6274 48.1689 61.6274L48.3332 69.8972L58.0481 70.0302C58.0481 70.0302 49.4431 69.2497 49.3044 68.7846Z" fill="white"/>
<g opacity="0.4">
<path d="M74.3151 74.5597C73.8666 74.0895 72.8416 74.2518 72.829 74.9013L72.7676 75.7902C72.8831 80.965 72.9986 86.1396 73.1141 91.3142C73.1214 91.6438 73.1349 91.9938 73.3184 92.2676C73.502 92.5414 73.9221 92.683 74.169 92.4645C74.3475 92.3066 74.3661 92.0395 74.3721 91.8014C74.5006 86.6685 74.6292 81.5358 74.7578 76.4029C74.7744 75.7537 74.7635 75.0297 74.3151 74.5597Z" fill="white"/>
</g>
<g opacity="0.4">
<path d="M63.1692 61.3281C62.945 61.1169 62.4323 61.1898 62.4261 61.4817L62.3955 61.8812C62.4531 64.207 62.511 66.5328 62.5689 68.8587C62.5726 69.007 62.5793 69.1641 62.6711 69.2872C62.7628 69.4102 62.973 69.4738 63.0964 69.3756C63.1856 69.3047 63.1951 69.1845 63.198 69.0775C63.2623 66.7705 63.3265 64.4635 63.3908 62.1565C63.3986 61.8648 63.3933 61.5394 63.1692 61.3281Z" fill="white"/>
</g>
<g opacity="0.2">
<path d="M55.0397 81.8236C53.8453 82.4545 52.9109 83.5014 52.4006 84.7495C52.3197 84.9474 52.6412 85.0337 52.7212 84.8379C53.1982 83.6708 54.0947 82.6985 55.2075 82.1106C55.3968 82.0107 55.2288 81.7236 55.0397 81.8236Z" fill="white"/>
</g>
<g opacity="0.2">
<path d="M55.5931 81.9433C55.8071 81.9433 55.8075 81.6107 55.5931 81.6107C55.3792 81.6107 55.379 81.9433 55.5931 81.9433Z" fill="white"/>
</g>
<g opacity="0.2">
<path d="M53.4512 84.8583C53.4512 88.3131 53.7413 90.3998 53.7413 93.8546V84.3642L53.4512 84.8583Z" fill="white"/>
</g>
<g opacity="0.2">
<path d="M57.0703 83.681C57.0703 87.1358 57.2155 90.3998 57.2155 93.8546L57.2539 83.8916L57.0703 83.681Z" fill="white"/>
</g>
<path opacity="0.2" d="M54.9629 95.2625L55.2872 86.2638V95.297L54.9629 95.2625Z" fill="white"/>
<path d="M47.091 34.9685L47.9077 35.0993L47.0922 35.2374L46.9614 36.0538L46.8235 35.2385L46.0068 35.1077L46.8222 34.9696L46.9532 34.1532L47.091 34.9685Z" fill="#167CDC"/>
<path d="M25.0127 17.0855L25.8294 17.2163L25.014 17.3544L24.8832 18.1708L24.7451 17.3555L23.9287 17.2247L24.744 17.0866L24.8748 16.2702L25.0127 17.0855Z" fill="#167CDC"/>
<path d="M89.3264 28.3223L90.1431 28.453L89.3275 28.5911L89.1967 29.4076L89.0588 28.5922L88.2422 28.4615L89.0575 28.3236L89.1885 27.5069L89.3264 28.3223Z" fill="#167CDC"/>
<path d="M15.4856 42.9856L16.3022 43.1164L15.4867 43.2545L15.3559 44.071L15.218 43.2556L14.4014 43.1249L15.2169 42.9868L15.3477 42.1703L15.4856 42.9856Z" fill="#167CDC"/>
<path d="M94.6077 64.7549L95.4241 64.8856L94.6088 65.0237L94.478 65.8402L94.3401 65.0249L93.5234 64.8941L94.3388 64.756L94.4695 63.9395L94.6077 64.7549Z" fill="#167CDC"/>
<path d="M96.6272 50.2717L97.4436 50.4024L96.6283 50.5403L96.4975 51.357L96.3594 50.5417L95.543 50.4109L96.3583 50.2728L96.4891 49.4563L96.6272 50.2717Z" fill="#167CDC"/>
<path d="M35.7385 43.4718L36.5549 43.6026L35.7396 43.7404L35.6088 44.5571L35.4707 43.7418L34.6543 43.6108L35.4696 43.4729L35.6004 42.6562L35.7385 43.4718Z" fill="#167CDC"/>
<path d="M62.9631 12.7356L63.7796 12.8664L62.9642 13.0042L62.8334 13.8209L62.6953 13.0056L61.8789 12.8746L62.6942 12.7367L62.825 11.92L62.9631 12.7356Z" fill="#167CDC"/>
<path d="M48.8773 32.3767L49.3938 32.4594L48.8779 32.5467L48.7953 33.0632L48.7079 32.5474L48.1914 32.4647L48.7072 32.3773L48.7899 31.8608L48.8773 32.3767Z" fill="#167CDC"/>
<path d="M20.7161 21.0014L21.2326 21.0841L20.7168 21.1714L20.6341 21.6879L20.5468 21.1721L20.0303 21.0894L20.5461 21.0021L20.6288 20.4856L20.7161 21.0014Z" fill="#167CDC"/>
<path d="M89.1927 32.6006L89.7092 32.6835L89.1936 32.7708L89.1107 33.2873L89.0233 32.7715L88.5068 32.6888L89.0227 32.6015L89.1054 32.085L89.1927 32.6006Z" fill="#167CDC"/>
<path d="M64.4544 18.6845L64.9709 18.7672L64.4551 18.8545L64.3724 19.371L64.2851 18.8552L63.7686 18.7725L64.2844 18.6851L64.3671 18.1686L64.4544 18.6845Z" fill="#167CDC"/>
<path d="M49.3929 8.83054L49.9094 8.91322L49.3938 9.00056L49.3109 9.51706L49.2238 9.00123L48.707 8.91854L49.2229 8.8312L49.3056 8.3147L49.3929 8.83054Z" fill="#167CDC"/>
<path d="M40.1966 29.5763L40.7133 29.659L40.1975 29.7463L40.1146 30.2628L40.0275 29.747L39.5107 29.6643L40.0266 29.5769L40.1095 29.0604L40.1966 29.5763Z" fill="#167CDC"/>
<path d="M33.4543 25.5542L33.7125 25.5954L33.4547 25.6391L33.4133 25.8973L33.3696 25.6395L33.1113 25.5981L33.3694 25.5546L33.4106 25.2961L33.4543 25.5542Z" fill="#167CDC"/>
<path d="M94.6818 53.0575L94.9403 53.0987L94.6822 53.1424L94.6408 53.4009L94.5971 53.1428L94.3389 53.1014L94.5969 53.0577L94.6381 52.7995L94.6818 53.0575Z" fill="#167CDC"/>
<path d="M65.057 28.7957L65.5735 28.8784L65.0576 28.9658L64.9749 29.4823L64.8876 28.9666L64.3711 28.8837L64.8869 28.7964L64.9696 28.2799L65.057 28.7957Z" fill="#167CDC"/>
<path d="M89.0794 13.65L89.5961 13.7329L89.0803 13.82L88.9974 14.3367L88.9101 13.8209L88.3936 13.738L88.9094 13.6507L88.9921 13.1342L89.0794 13.65Z" fill="#167CDC"/>
<path d="M62.9134 38.189L63.4299 38.2717L62.9141 38.3591L62.8314 38.8758L62.744 38.3599L62.2275 38.277L62.7434 38.1897L62.8261 37.6732L62.9134 38.189Z" fill="#167CDC"/>
<path d="M45.2599 38.5914L45.6432 38.6525L45.2606 38.7175L45.1992 39.1008L45.1345 38.7179L44.751 38.6565L45.1338 38.5918L45.1952 38.2085L45.2599 38.5914Z" fill="#167CDC"/>
<path d="M17.2424 40.4659L17.6256 40.5273L17.2428 40.5922L17.1814 40.9755L17.1167 40.5927L16.7334 40.5313L17.116 40.4665L17.1774 40.0833L17.2424 40.4659Z" fill="#167CDC"/>
<path d="M71.7463 32.693L72.1295 32.7544L71.7467 32.8192L71.6853 33.2024L71.6206 32.8198L71.2373 32.7584L71.6201 32.6935L71.6815 32.3102L71.7463 32.693Z" fill="#167CDC"/>
<path d="M96.6914 26.3039L97.0746 26.3655L96.692 26.4302L96.6306 26.8135L96.5659 26.4307L96.1826 26.3693L96.5652 26.3045L96.6266 25.9213L96.6914 26.3039Z" fill="#167CDC"/>
<path d="M67.0197 15.4733L67.403 15.5347L67.0202 15.5994L66.9587 15.9829L66.894 15.6001L66.5107 15.5387L66.8936 15.4739L66.9548 15.0907L67.0197 15.4733Z" fill="#167CDC"/>
<path d="M48.6564 12.2605L49.0397 12.3219L48.6569 12.3869L48.5957 12.77L48.5307 12.3873L48.1475 12.3259L48.5303 12.2612L48.5917 11.8779L48.6564 12.2605Z" fill="#167CDC"/>
<path d="M20.8415 64.6307L21.6338 64.7861L20.8522 64.8898L20.7553 65.6723L20.593 64.8814L19.8008 64.726L20.5822 64.6223L20.6793 63.8398L20.8415 64.6307Z" fill="#167CDC"/>
<path d="M28.3865 76.0514L29.1787 76.2066L28.3971 76.3106L28.3002 77.0931L28.138 76.3021L27.3457 76.1467L28.1271 76.043L28.2242 75.2605L28.3865 76.0514Z" fill="#167CDC"/>
<path d="M22.4699 62.196L22.9711 62.2942L22.4768 62.3601L22.4154 62.8551L22.3127 62.3548L21.8115 62.2565L22.3059 62.1907L22.3673 61.6957L22.4699 62.196Z" fill="#167CDC"/>
<path d="M21.6123 70.0711L21.9187 70.1311L21.6165 70.1713L21.579 70.4738L21.5163 70.1679L21.21 70.1081L21.5121 70.0677L21.5496 69.7654L21.6123 70.0711Z" fill="#167CDC"/>
</svg>
