<svg width="20" height="20" viewBox="0 0 20 20" fill="none" xmlns="http://www.w3.org/2000/svg">
<path d="M16.9928 13.9959C16.313 13.9954 15.6534 14.2271 15.1232 14.6526L13.0494 12.5788C13.6179 11.9066 13.9474 11.0648 13.9862 10.1853L18.0639 10.0327C18.1497 10.2533 18.3108 10.4365 18.5187 10.5498C18.7266 10.663 18.9678 10.6992 19.1998 10.6517C19.4317 10.6043 19.6394 10.4763 19.786 10.2905C19.9327 10.1047 20.009 9.87299 20.0013 9.63638C19.9936 9.39977 19.9025 9.17351 19.744 8.99761C19.5856 8.82171 19.37 8.70752 19.1355 8.67523C18.901 8.64294 18.6626 8.69464 18.4625 8.82118C18.2625 8.94771 18.1136 9.14093 18.0422 9.36666L13.9639 9.51752C13.8949 8.94418 13.7023 8.39262 13.3995 7.90091C13.0967 7.40919 12.6908 6.98903 12.2098 6.6694L13.1716 4.9203C13.5673 5.04361 13.9946 5.01557 14.3708 4.84161C14.7469 4.66765 15.0451 4.36018 15.2074 3.97884C15.3696 3.5975 15.3845 3.16948 15.2491 2.7778C15.1136 2.38612 14.8375 2.05871 14.4743 1.85908C14.1111 1.65945 13.6868 1.60183 13.2835 1.69741C12.8802 1.79298 12.5268 2.03493 12.2919 2.37631C12.0569 2.7177 11.9571 3.1342 12.0118 3.545C12.0666 3.95581 12.2719 4.33164 12.5881 4.59959L11.6256 6.34969C10.9395 6.04234 10.1804 5.93553 9.43606 6.04162C8.69175 6.14771 7.99268 6.46235 7.41973 6.94915L5.34592 4.87501C5.82483 4.27573 6.0561 3.51582 5.99221 2.75135C5.92832 1.98689 5.57412 1.2759 5.00238 0.764434C4.43064 0.252965 3.68475 -0.0201584 2.91791 0.00116035C2.15107 0.0224791 1.42151 0.336622 0.879066 0.879066C0.336622 1.42151 0.0224791 2.15107 0.00116035 2.91791C-0.0201584 3.68475 0.252966 4.43064 0.764434 5.00238C1.2759 5.57412 1.98689 5.92832 2.75135 5.99221C3.51582 6.0561 4.27573 5.82483 4.87501 5.34592L6.94882 7.42007C6.33712 8.14021 6.00172 9.05456 6.00267 9.99943C6.00364 10.2386 6.02593 10.4772 6.06928 10.7125L2.49347 11.6753C2.33217 11.3974 2.07531 11.1878 1.7708 11.0854C1.46629 10.9831 1.13494 10.995 0.838572 11.119C0.542204 11.2429 0.301063 11.4705 0.160141 11.7592C0.0192196 12.0479 -0.0118567 12.378 0.0727108 12.6879C0.157278 12.9978 0.351713 13.2664 0.619736 13.4435C0.88776 13.6206 1.21106 13.6942 1.52933 13.6504C1.84759 13.6067 2.13907 13.4487 2.34938 13.2058C2.5597 12.963 2.67448 12.6519 2.67231 12.3307C2.67231 12.326 2.67231 12.322 2.67231 12.3174L6.24512 11.3555C6.55487 12.2109 7.14677 12.9352 7.92328 13.409L6.92018 15.4149C6.4387 15.2658 5.91877 15.3031 5.46349 15.5194C5.00822 15.7357 4.65084 16.1151 4.46223 16.5826C4.27362 17.05 4.26755 17.5712 4.44523 18.0429C4.6229 18.5146 4.97134 18.9023 5.42146 19.1291C5.87157 19.3559 6.39049 19.4053 6.87532 19.2675C7.36014 19.1296 7.77546 18.8146 8.03893 18.3849C8.30239 17.9552 8.39476 17.4422 8.29771 16.9476C8.20066 16.453 7.92129 16.0129 7.51498 15.7146L8.51809 13.7088C9.19114 13.9793 9.9253 14.061 10.6413 13.9448C11.3574 13.8287 12.0281 13.5192 12.5811 13.0497L14.6549 15.1235C14.2312 15.6544 14.0004 16.3135 14.0003 16.9928C14.0002 17.6721 14.2309 18.3312 14.6545 18.8623C15.0781 19.3933 15.6695 19.7647 16.3318 19.9156C16.9941 20.0665 17.688 19.988 18.2998 19.6929C18.9116 19.3978 19.4051 18.9036 19.6993 18.2913C19.9935 17.6791 20.071 16.985 19.9191 16.323C19.7672 15.6609 19.3949 15.07 18.8633 14.6472C18.3316 14.2244 17.6721 13.9948 16.9928 13.9959ZM4.67053 4.67086H1.34017C1.34017 4.22923 1.51561 3.80568 1.82789 3.4934C2.14017 3.18112 2.56372 3.00568 3.00535 3.00568C2.80774 3.00568 2.61458 2.94709 2.45027 2.8373C2.28597 2.72752 2.15791 2.57148 2.08229 2.38892C2.00667 2.20635 1.98689 2.00547 2.02544 1.81166C2.06399 1.61785 2.15915 1.43983 2.29887 1.3001C2.4386 1.16037 2.61662 1.06522 2.81043 1.02667C3.00424 0.988115 3.20513 1.0079 3.38769 1.08352C3.57025 1.15914 3.72629 1.2872 3.83608 1.4515C3.94586 1.6158 4.00446 1.80897 4.00446 2.00658C4.00446 2.27155 3.89919 2.52568 3.71182 2.71305C3.52445 2.90042 3.27033 3.00568 3.00535 3.00568C3.44698 3.00568 3.87053 3.18112 4.18281 3.4934C4.49509 3.80568 4.67053 4.22923 4.67053 4.67086ZM9.99909 7.33514C10.2626 7.33514 10.5201 7.41327 10.7392 7.55965C10.9583 7.70603 11.129 7.91408 11.2298 8.1575C11.3307 8.40091 11.357 8.66876 11.3056 8.92717C11.2542 9.18558 11.1274 9.42295 10.9411 9.60925C10.7548 9.79556 10.5174 9.92243 10.259 9.97383C10.0006 10.0252 9.73272 9.99885 9.48931 9.89802C9.24589 9.7972 9.03784 9.62645 8.89146 9.40738C8.74508 9.18831 8.66695 8.93076 8.66695 8.66728C8.66695 8.31398 8.8073 7.97514 9.05713 7.72532C9.30695 7.47549 9.64579 7.33514 9.99909 7.33514ZM8.00088 12.3307C8.00088 11.8007 8.21141 11.2925 8.58614 10.9177C8.96088 10.543 9.46914 10.3325 9.99909 10.3325C10.5291 10.3325 11.0373 10.543 11.412 10.9177C11.7868 11.2925 11.9973 11.8007 11.9973 12.3307H8.00088ZM15.3277 18.6583C15.3277 18.2167 15.5031 17.7932 15.8154 17.4809C16.1277 17.1686 16.5512 16.9932 16.9928 16.9932C16.7952 16.9932 16.6021 16.9346 16.4378 16.8248C16.2735 16.715 16.1454 16.559 16.0698 16.3764C15.9942 16.1938 15.9744 15.993 16.0129 15.7992C16.0515 15.6053 16.1466 15.4273 16.2864 15.2876C16.4261 15.1479 16.6041 15.0527 16.7979 15.0142C16.9917 14.9756 17.1926 14.9954 17.3752 15.071C17.5577 15.1466 17.7138 15.2747 17.8236 15.439C17.9333 15.6033 17.9919 15.7965 17.9919 15.9941C17.9919 16.259 17.8867 16.5132 17.6993 16.7005C17.5119 16.8879 17.2578 16.9932 16.9928 16.9932C17.4345 16.9932 17.858 17.1686 18.1703 17.4809C18.4826 17.7932 18.658 18.2167 18.658 18.6583H15.3277Z" fill="#3882C7"/>
</svg>
