<svg width="91" height="35" viewBox="0 0 91 35" fill="none" xmlns="http://www.w3.org/2000/svg">
<g opacity="0.7">
<path d="M0.887695 17.5C0.887695 8.11116 8.49885 0.5 17.8877 0.5H73.2103C82.5991 0.5 90.2103 8.11116 90.2103 17.5C90.2103 26.8888 82.5991 34.5 73.2103 34.5H17.8877C8.49887 34.5 0.887695 26.8888 0.887695 17.5Z" stroke="white"/>
<path d="M39.2194 15.9734C39.2194 15.1574 39.4074 14.4254 39.7834 13.7774C40.1674 13.1294 40.6834 12.6254 41.3314 12.2654C41.9874 11.8974 42.7034 11.7134 43.4794 11.7134C44.3674 11.7134 45.1554 11.9334 45.8434 12.3734C46.5394 12.8054 47.0434 13.4214 47.3554 14.2214H45.7114C45.4954 13.7814 45.1954 13.4534 44.8114 13.2374C44.4274 13.0214 43.9834 12.9134 43.4794 12.9134C42.9274 12.9134 42.4354 13.0374 42.0034 13.2854C41.5714 13.5334 41.2314 13.8894 40.9834 14.3534C40.7434 14.8174 40.6234 15.3574 40.6234 15.9734C40.6234 16.5894 40.7434 17.1294 40.9834 17.5934C41.2314 18.0574 41.5714 18.4174 42.0034 18.6734C42.4354 18.9214 42.9274 19.0454 43.4794 19.0454C43.9834 19.0454 44.4274 18.9374 44.8114 18.7214C45.1954 18.5054 45.4954 18.1774 45.7114 17.7374H47.3554C47.0434 18.5374 46.5394 19.1534 45.8434 19.5854C45.1554 20.0174 44.3674 20.2334 43.4794 20.2334C42.6954 20.2334 41.9794 20.0534 41.3314 19.6934C40.6834 19.3254 40.1674 18.8174 39.7834 18.1694C39.4074 17.5214 39.2194 16.7894 39.2194 15.9734ZM51.8246 20.2694C51.2006 20.2694 50.6366 20.1294 50.1326 19.8494C49.6286 19.5614 49.2326 19.1614 48.9446 18.6494C48.6566 18.1294 48.5126 17.5294 48.5126 16.8494C48.5126 16.1774 48.6606 15.5814 48.9566 15.0614C49.2526 14.5414 49.6566 14.1414 50.1686 13.8614C50.6806 13.5814 51.2526 13.4414 51.8846 13.4414C52.5166 13.4414 53.0886 13.5814 53.6006 13.8614C54.1126 14.1414 54.5166 14.5414 54.8126 15.0614C55.1086 15.5814 55.2566 16.1774 55.2566 16.8494C55.2566 17.5214 55.1046 18.1174 54.8006 18.6374C54.4966 19.1574 54.0806 19.5614 53.5526 19.8494C53.0326 20.1294 52.4566 20.2694 51.8246 20.2694ZM51.8246 19.0814C52.1766 19.0814 52.5046 18.9974 52.8086 18.8294C53.1206 18.6614 53.3726 18.4094 53.5646 18.0734C53.7566 17.7374 53.8526 17.3294 53.8526 16.8494C53.8526 16.3694 53.7606 15.9654 53.5766 15.6374C53.3926 15.3014 53.1486 15.0494 52.8446 14.8814C52.5406 14.7134 52.2126 14.6294 51.8606 14.6294C51.5086 14.6294 51.1806 14.7134 50.8766 14.8814C50.5806 15.0494 50.3446 15.3014 50.1686 15.6374C49.9926 15.9654 49.9046 16.3694 49.9046 16.8494C49.9046 17.5614 50.0846 18.1134 50.4446 18.5054C50.8126 18.8894 51.2726 19.0814 51.8246 19.0814ZM57.977 14.5214C58.209 14.2174 58.525 13.9614 58.925 13.7534C59.325 13.5454 59.777 13.4414 60.281 13.4414C60.857 13.4414 61.381 13.5854 61.853 13.8734C62.333 14.1534 62.709 14.5494 62.981 15.0614C63.253 15.5734 63.389 16.1614 63.389 16.8254C63.389 17.4894 63.253 18.0854 62.981 18.6134C62.709 19.1334 62.333 19.5414 61.853 19.8374C61.381 20.1254 60.857 20.2694 60.281 20.2694C59.777 20.2694 59.329 20.1694 58.937 19.9694C58.545 19.7614 58.225 19.5054 57.977 19.2014V23.3054H56.609V13.5494H57.977V14.5214ZM61.997 16.8254C61.997 16.3694 61.901 15.9774 61.709 15.6494C61.525 15.3134 61.277 15.0614 60.965 14.8934C60.661 14.7174 60.333 14.6294 59.981 14.6294C59.637 14.6294 59.309 14.7174 58.997 14.8934C58.693 15.0694 58.445 15.3254 58.253 15.6614C58.069 15.9974 57.977 16.3934 57.977 16.8494C57.977 17.3054 58.069 17.7054 58.253 18.0494C58.445 18.3854 58.693 18.6414 58.997 18.8174C59.309 18.9934 59.637 19.0814 59.981 19.0814C60.333 19.0814 60.661 18.9934 60.965 18.8174C61.277 18.6334 61.525 18.3694 61.709 18.0254C61.901 17.6814 61.997 17.2814 61.997 16.8254ZM70.6938 13.5494L66.6378 23.2694H65.2218L66.5658 20.0534L63.9618 13.5494H65.4858L67.3458 18.5894L69.2778 13.5494H70.6938Z" fill="white"/>
<path d="M21.8386 22.9571H29.3655C30.3632 22.9559 31.3198 22.559 32.0253 21.8535C32.7308 21.148 33.1277 20.1914 33.1289 19.1936V11.6668C33.1277 10.669 32.7308 9.71245 32.0253 9.00693C31.3198 8.3014 30.3632 7.90452 29.3655 7.90332H21.8386C20.8408 7.90452 19.8843 8.3014 19.1787 9.00693C18.4732 9.71245 18.0763 10.669 18.0751 11.6668V19.1936C18.0763 20.1914 18.4732 21.148 19.1787 21.8535C19.8843 22.559 20.8408 22.9559 21.8386 22.9571ZM29.3655 9.4087C29.9643 9.4087 30.5387 9.6466 30.9622 10.0701C31.3856 10.4935 31.6235 11.0679 31.6235 11.6668V19.1936C31.6235 19.7925 31.3856 20.3669 30.9622 20.7903C30.5387 21.2138 29.9643 21.4517 29.3655 21.4517H21.8386C21.2397 21.4517 20.6654 21.2138 20.2419 20.7903C19.8184 20.3669 19.5805 19.7925 19.5805 19.1936V11.6668C19.5805 11.0679 19.8184 10.4935 20.2419 10.0701C20.6654 9.6466 21.2397 9.4087 21.8386 9.4087H29.3655ZM15.0644 22.2044V12.4194C15.0644 12.2198 15.1437 12.0284 15.2848 11.8872C15.426 11.7461 15.6175 11.6668 15.8171 11.6668C16.0167 11.6668 16.2082 11.7461 16.3493 11.8872C16.4905 12.0284 16.5698 12.2198 16.5698 12.4194V22.2044C16.5698 22.8033 16.8077 23.3776 17.2311 23.8011C17.6546 24.2246 18.229 24.4625 18.8278 24.4625H28.6128C28.8124 24.4625 29.0039 24.5418 29.145 24.6829C29.2862 24.8241 29.3655 25.0155 29.3655 25.2151C29.3655 25.4148 29.2862 25.6062 29.145 25.7474C29.0039 25.8885 28.8124 25.9678 28.6128 25.9678H18.8278C17.8301 25.9666 16.8735 25.5698 16.168 24.8642C15.4625 24.1587 15.0656 23.2022 15.0644 22.2044Z" fill="white"/>
</g>
</svg>
