<svg width="117" height="147" viewBox="0 0 117 147" fill="none" xmlns="http://www.w3.org/2000/svg">
<path d="M112.535 122.709C112.394 122.936 112.363 123.201 112.426 123.439C112.484 123.662 112.624 123.864 112.836 123.994C113.467 124.387 114.114 124.783 114.759 125.172C115.2 125.438 115.776 125.297 116.042 124.854C116.308 124.413 116.167 123.837 115.724 123.571C115.086 123.186 114.445 122.794 113.821 122.406C113.383 122.133 112.808 122.268 112.534 122.705L112.535 122.709Z" fill="white"/>
<path d="M101.282 115.901C101.335 116.1 101.453 116.283 101.632 116.416C102.229 116.854 102.842 117.299 103.458 117.738C103.877 118.038 104.463 117.942 104.762 117.521C105.061 117.103 104.965 116.517 104.545 116.218C103.936 115.783 103.329 115.342 102.74 114.909C102.323 114.603 101.74 114.693 101.433 115.108C101.26 115.345 101.213 115.635 101.282 115.899L101.282 115.901Z" fill="white"/>
<path d="M70.4035 85.519C70.8048 85.1932 70.8666 84.605 70.5413 84.2055C70.0756 83.6322 69.6084 83.0459 69.1481 82.4636C68.8291 82.0585 68.2408 81.9891 67.8362 82.3099C67.5354 82.5474 67.4204 82.9332 67.5121 83.282C67.5439 83.4031 67.5998 83.5199 67.6831 83.6236C68.1489 84.2122 68.6216 84.8048 69.0928 85.3843C69.4186 85.7856 70.0068 85.8474 70.4063 85.5221L70.4035 85.519Z" fill="white"/>
<path d="M60.9856 74.5559C61.279 74.9811 61.8596 75.0874 62.2849 74.794C62.7101 74.5005 62.8164 73.92 62.523 73.4947C62.1022 72.8865 61.6799 72.2651 61.2691 71.6505C60.9824 71.2215 60.4017 71.1075 59.9727 71.3942C59.6328 71.6227 59.4914 72.0328 59.5897 72.4069C59.6154 72.5045 59.6583 72.6015 59.7183 72.69C60.1346 73.311 60.5624 73.9386 60.9869 74.5536L60.9856 74.5559Z" fill="white"/>
<path d="M78.5416 55.3614C78.473 56.0635 78.3619 56.7729 78.2113 57.4714C78.1786 57.6191 78.1845 57.7664 78.2206 57.9038C78.3075 58.2345 78.5719 58.5051 78.9282 58.5815C79.4322 58.6905 79.9292 58.3686 80.0378 57.8627C80.2017 57.097 80.3233 56.3172 80.4005 55.5452C80.4505 55.0297 80.0755 54.5737 79.5618 54.5232C79.0481 54.4728 78.5902 54.8482 78.5398 55.3619L78.5416 55.3614Z" fill="white"/>
<path d="M47.0819 76.7698C47.0564 76.9079 47.0635 77.0452 47.0967 77.1717C47.1865 77.5133 47.4654 77.7878 47.8348 77.855C48.5952 77.9913 49.3627 78.1026 50.1202 78.1836C50.6331 78.2382 51.0941 77.8677 51.1486 77.3548C51.2032 76.8419 50.8327 76.3809 50.3198 76.3263C49.6081 76.2506 48.883 76.1456 48.167 76.0169C47.6601 75.9261 47.1728 76.2629 47.0824 76.7716L47.0819 76.7698Z" fill="white"/>
<path d="M53.7947 77.6388C53.9039 78.0545 54.2915 78.3526 54.7387 78.3336C55.1799 78.3142 55.6265 78.2857 56.0667 78.2473C56.3918 78.2198 56.7241 78.1827 57.0549 78.1401C57.5672 78.075 57.9292 77.6069 57.8641 77.0946C57.7967 76.5809 57.3308 76.2203 56.8185 76.2854C56.5139 76.3249 56.2056 76.3577 55.9054 76.3844C55.4933 76.4193 55.074 76.4484 54.6607 76.4643C54.1447 76.4859 53.7452 76.9214 53.7668 77.4374C53.7695 77.5063 53.7794 77.5733 53.796 77.6365L53.7947 77.6388Z" fill="white"/>
<path d="M74.7601 66.8793C74.364 66.5487 73.7754 66.6029 73.4447 66.999C72.9863 67.5485 72.4983 68.0884 71.9919 68.6022C71.7523 68.8449 71.6726 69.1885 71.7534 69.4958C71.7947 69.653 71.8781 69.8012 72.001 69.9234C72.369 70.2866 72.9609 70.2817 73.3223 69.9142C73.8654 69.3637 74.3897 68.7853 74.8798 68.1947C75.2105 67.7986 75.1557 67.2081 74.7601 66.8793Z" fill="white"/>
<path d="M40.6758 74.7459C40.6006 74.9376 40.5917 75.139 40.6407 75.3251C40.7139 75.6035 40.9144 75.8445 41.2032 75.9579C41.9187 76.2394 42.648 76.4998 43.3684 76.7336C43.8603 76.8922 44.3865 76.6225 44.5451 76.1305C44.7037 75.6386 44.434 75.1124 43.942 74.9538C43.2581 74.7337 42.567 74.4864 41.8861 74.219C41.4056 74.0303 40.8627 74.2658 40.674 74.7463L40.6758 74.7459Z" fill="white"/>
<path d="M77.5282 64.3797C77.9139 63.7006 78.269 63.0005 78.5815 62.3C78.792 61.8292 78.5809 61.276 78.1101 61.0655C77.6393 60.855 77.0861 61.0661 76.8756 61.5369C76.5874 62.1827 76.2602 62.8271 75.9038 63.4561C75.7782 63.6765 75.7531 63.9266 75.813 64.1543C75.8728 64.3821 76.0269 64.6005 76.256 64.7296C76.7056 64.9844 77.2748 64.827 77.53 64.3793L77.5282 64.3797Z" fill="white"/>
<path d="M63.7679 76.3422C64.2456 76.1452 64.471 75.5989 64.2763 75.1226C64.0792 74.645 63.5325 74.4177 63.0567 74.6143C62.3891 74.8902 61.7045 75.1379 61.0231 75.3537C60.5467 75.5041 60.2757 76.0023 60.4016 76.4813C60.4054 76.4958 60.4097 76.512 60.4135 76.5265C60.57 77.0187 61.0936 77.2907 61.5863 77.136C62.3178 76.9051 63.0512 76.6369 63.7679 76.3422Z" fill="white"/>
<path d="M74.7673 90.6377C75.1553 90.298 75.1935 89.7083 74.8534 89.3185C74.3653 88.7628 73.8738 88.1944 73.3933 87.6309C73.0581 87.2379 72.4683 87.1919 72.0752 87.5272C71.7926 87.7676 71.6897 88.1406 71.778 88.4768C71.8127 88.6087 71.8768 88.7349 71.9715 88.8452C72.4571 89.4132 72.954 89.9879 73.4477 90.5499C73.7873 90.9379 74.3794 90.9774 74.7669 90.6359L74.7673 90.6377Z" fill="white"/>
<path d="M55.9744 66.7332C55.9958 66.8145 56.0285 66.8948 56.0738 66.9718C56.4399 67.5925 56.8265 68.2251 57.2554 68.9085C57.5304 69.3444 58.1063 69.477 58.5445 69.2034C58.9809 68.9302 59.1149 68.352 58.8394 67.9143C58.4202 67.2458 58.0428 66.6261 57.6847 66.0208C57.4227 65.5757 56.8489 65.4289 56.4056 65.6904C56.0374 65.907 55.8726 66.3387 55.9762 66.7327L55.9744 66.7332Z" fill="white"/>
<path d="M68.7116 71.4325C68.1315 71.8574 67.5259 72.2659 66.9122 72.6437C66.5531 72.8656 66.3978 73.2891 66.4995 73.6758C66.5223 73.7626 66.5582 73.8478 66.6086 73.9293C66.8804 74.3679 67.4555 74.5047 67.8947 74.2347C68.5498 73.8306 69.1968 73.3957 69.8155 72.9413C70.232 72.6366 70.3214 72.0508 70.0173 71.6361C69.7126 71.2196 69.1268 71.1301 68.7121 71.4343L68.7116 71.4325Z" fill="white"/>
<path d="M63.4442 77.9211C63.4732 78.0314 63.5221 78.1364 63.5922 78.2339C64.031 78.8374 64.483 79.447 64.9327 80.0477C65.2423 80.4609 65.8285 80.5445 66.24 80.2354C66.6533 79.9258 66.7373 79.3414 66.4277 78.9281C65.9836 78.3337 65.537 77.7304 65.1019 77.1337C64.7991 76.7167 64.2128 76.6254 63.7958 76.9283C63.4763 77.161 63.3474 77.5601 63.4424 77.9216L63.4442 77.9211Z" fill="white"/>
<path d="M84.0712 100.357C84.4321 99.9875 84.4259 99.3979 84.0562 99.0352C83.5277 98.5171 82.9946 97.9887 82.4706 97.4656C82.1058 97.0997 81.5143 97.0987 81.1483 97.4635C80.9033 97.7076 80.8218 98.0517 80.904 98.3644C80.9444 98.518 81.0255 98.6648 81.1462 98.7857C81.6739 99.3156 82.2125 99.8503 82.7478 100.372C83.1171 100.733 83.7086 100.727 84.0694 100.357L84.0712 100.357Z" fill="white"/>
<path d="M52.975 60.8553C53.2552 61.5391 53.5706 62.2465 53.9097 62.9555C54.1324 63.4206 54.6919 63.6155 55.157 63.3928C55.6221 63.17 55.8175 62.6124 55.5943 62.1455C55.2697 61.4694 54.9697 60.7986 54.7039 60.1477C54.5086 59.6696 53.9637 59.4418 53.4856 59.6371C53.0476 59.816 52.8172 60.292 52.9346 60.7384C52.945 60.7782 52.9573 60.8175 52.9732 60.8558L52.975 60.8553Z" fill="white"/>
<path d="M12.0807 35.3396C11.8591 34.6365 11.6379 33.9198 11.4262 33.2102C11.2788 32.7157 10.7587 32.435 10.2641 32.5824C9.78037 32.727 9.49907 33.2299 9.62641 33.7143C9.62926 33.7251 9.63164 33.7342 9.63449 33.745C9.84899 34.4654 10.0726 35.1912 10.2966 35.9033C10.4512 36.396 10.9767 36.6675 11.4693 36.5128C11.962 36.3582 12.2326 35.8291 12.0789 35.3401L12.0807 35.3396Z" fill="white"/>
<path d="M106.781 119.777C106.836 119.989 106.966 120.181 107.161 120.313C107.775 120.729 108.405 121.149 109.036 121.565C109.466 121.85 110.047 121.73 110.33 121.298C110.615 120.868 110.493 120.287 110.063 120.004C109.44 119.594 108.816 119.177 108.208 118.766C107.78 118.477 107.199 118.589 106.909 119.017C106.752 119.25 106.713 119.527 106.779 119.78L106.781 119.777Z" fill="white"/>
<path d="M99.1822 112.221C98.5952 111.767 98.0057 111.304 97.4286 110.843C97.0253 110.522 96.4359 110.588 96.1154 110.993C95.9252 111.232 95.8704 111.538 95.9426 111.813C95.992 112.001 96.0998 112.176 96.2636 112.307C96.8477 112.771 97.4444 113.241 98.0365 113.699C98.4442 114.015 99.0317 113.942 99.3472 113.533C99.6632 113.125 99.59 112.537 99.1804 112.222L99.1822 112.221Z" fill="white"/>
<path d="M60.6783 38.1584C61.1629 37.9807 61.4134 37.4414 61.2344 36.959C61.0568 36.4743 60.5198 36.2252 60.0351 36.4028C59.5382 36.5856 59.0517 36.8005 58.5878 37.0423C58.3396 37.1713 58.0929 37.3134 57.8513 37.46C57.4917 37.6802 57.3351 38.1059 57.4367 38.4927C57.4595 38.5794 57.4955 38.6647 57.5454 38.7443C57.8154 39.1834 58.391 39.322 58.8315 39.0497C59.0344 38.9248 59.2446 38.8058 59.455 38.6944C59.8455 38.4894 60.2576 38.3076 60.6768 38.1529L60.6783 38.1584Z" fill="white"/>
<path d="M88.9941 104.943C89.3399 104.561 89.3119 103.969 88.9292 103.623C88.3788 103.125 87.826 102.617 87.2864 102.115C86.9082 101.764 86.3164 101.785 85.9656 102.163C85.7396 102.406 85.6666 102.738 85.7455 103.038C85.7892 103.204 85.8781 103.359 86.0133 103.484C86.5602 103.991 87.1186 104.505 87.674 105.008C88.0567 105.354 88.6484 105.326 88.9941 104.943Z" fill="white"/>
<path d="M13.7097 42.8595C14.1935 42.6782 14.4385 42.1404 14.2573 41.6566C13.9996 40.9707 13.745 40.2667 13.4967 39.5648C13.3245 39.0787 12.7915 38.8227 12.3036 38.9954C11.8423 39.1592 11.588 39.6473 11.7106 40.1136C11.7172 40.1389 11.7239 40.1642 11.7342 40.1886C11.9853 40.9013 12.2464 41.6152 12.5069 42.312C12.6881 42.7957 13.226 43.0408 13.7097 42.8595Z" fill="white"/>
<path d="M23.0342 60.6956C23.4534 60.3941 23.5475 59.8109 23.246 59.3916C22.8319 58.8164 22.4125 58.2059 22.0037 57.5772C21.722 57.145 21.143 57.0228 20.7108 57.3045C20.3645 57.5308 20.2186 57.946 20.3179 58.3237C20.3426 58.4177 20.3823 58.5097 20.44 58.597C20.8667 59.25 21.3 59.8839 21.732 60.4833C22.0335 60.9026 22.6167 60.9966 23.036 60.6951L23.0342 60.6956Z" fill="white"/>
<path d="M27.4781 64.438C26.9718 63.9161 26.4693 63.3718 25.9854 62.8247C25.6439 62.4372 25.0546 62.4008 24.6666 62.7404C24.3921 62.9826 24.2932 63.3487 24.3802 63.6795C24.4158 63.8151 24.4831 63.9462 24.5824 64.0592C25.0861 64.6301 25.6074 65.1945 26.1353 65.7398C26.4951 66.1089 27.0873 66.1195 27.4564 65.7596C27.8256 65.3998 27.8361 64.8076 27.4763 64.4385L27.4781 64.438Z" fill="white"/>
<path d="M19.3707 55.0568C19.8233 54.8084 19.9868 54.2398 19.7384 53.7872C19.3908 53.1559 19.0401 52.4983 18.7007 51.832C18.4658 51.3721 17.9024 51.1917 17.4425 51.4266C17.0438 51.63 16.8547 52.0796 16.964 52.4953C16.9807 52.5586 17.0055 52.6236 17.037 52.6848C17.3866 53.3678 17.7456 54.0425 18.1016 54.6909C18.35 55.1435 18.9186 55.307 19.3712 55.0586L19.3707 55.0568Z" fill="white"/>
<path d="M16.3102 49.0636C16.7804 48.8531 16.9922 48.2989 16.7816 47.8286C16.4853 47.1645 16.1869 46.4778 15.8962 45.7909C15.696 45.316 15.1484 45.0928 14.673 45.2912C14.2378 45.4733 14.0142 45.9456 14.1306 46.3884C14.1415 46.43 14.1565 46.4724 14.1733 46.5143C14.4678 47.2157 14.7714 47.9146 15.0747 48.5904C15.2852 49.0606 15.8376 49.2729 16.3097 49.0618L16.3102 49.0636Z" fill="white"/>
<path d="M52.5049 46.4397C52.0017 46.3266 51.501 46.6418 51.3879 47.1449C51.2166 47.9049 51.0901 48.6879 51.0116 49.4699C51.0013 49.5847 51.0094 49.6965 51.037 49.8014C51.1334 50.1683 51.4483 50.4546 51.8472 50.4946C52.361 50.5451 52.8192 50.1715 52.8697 49.6577C52.9409 48.9511 53.0548 48.2448 53.2101 47.5567C53.3232 47.0535 53.008 46.5528 52.5049 46.4397Z" fill="white"/>
<path d="M37.0379 74.0254C37.4923 74.2692 38.06 74.0987 38.3034 73.6424C38.5472 73.188 38.3771 72.6221 37.9204 72.3769C37.284 72.0361 36.6445 71.6689 36.0189 71.2885C35.5773 71.02 35.0033 71.1593 34.7344 71.5991C34.5966 71.8247 34.5666 72.0857 34.6289 72.3225C34.6911 72.5592 34.8308 72.7525 35.0468 72.8831C35.7003 73.2814 36.3713 73.6653 37.0374 74.0235L37.0379 74.0254Z" fill="white"/>
<path d="M67.1526 35.8495C66.3617 35.7077 65.5607 35.6303 64.7709 35.6177C64.255 35.6103 63.8303 36.0234 63.8229 36.5393C63.8226 36.6264 63.8331 36.7106 63.854 36.7901C63.9581 37.1859 64.3157 37.4803 64.7441 37.4855C65.4328 37.4958 66.1307 37.5635 66.8221 37.6871C67.3291 37.7779 67.8164 37.4411 67.9068 36.9324C67.999 36.4231 67.6609 35.9381 67.1521 35.8477L67.1526 35.8495Z" fill="white"/>
<path d="M76.5196 92.5839C76.2569 92.8269 76.1638 93.1857 76.2489 93.5092C76.2864 93.652 76.3588 93.7876 76.4649 93.9046C76.9651 94.4475 77.4835 95.001 78.0051 95.5518C78.3605 95.926 78.9504 95.9429 79.3265 95.587C79.7007 95.2317 79.7175 94.6417 79.3617 94.2657C78.8456 93.7212 78.334 93.1717 77.8375 92.6355C77.4884 92.2558 76.8966 92.2317 76.5173 92.5826L76.5196 92.5839Z" fill="white"/>
<path d="M78.0571 49.0152C78.2335 49.7012 78.3708 50.4071 78.4663 51.1086C78.4709 51.1479 78.4786 51.1846 78.4886 51.2225C78.6069 51.6726 79.0452 51.9728 79.5177 51.9104C80.0291 51.8417 80.3883 51.3704 80.3177 50.8595C80.2127 50.0852 80.061 49.3097 79.8678 48.5527C79.742 48.0448 79.2303 47.7522 78.7305 47.8798C78.2307 48.0073 77.93 48.5172 78.0576 49.017L78.0571 49.0152Z" fill="white"/>
<path d="M32.4001 68.8126C31.8227 68.3731 31.2487 67.9095 30.6895 67.4362C30.2965 67.1028 29.7065 67.1517 29.3736 67.5464C29.1684 67.7878 29.1083 68.1031 29.1834 68.3887C29.2304 68.5676 29.3304 68.7346 29.4842 68.8642C30.0659 69.3567 30.6665 69.8403 31.2681 70.2986C31.6789 70.6118 32.265 70.5331 32.5782 70.1222C32.8915 69.7114 32.8128 69.1253 32.4019 68.8121L32.4001 68.8126Z" fill="white"/>
<path d="M52.9628 53.9076C52.89 53.3954 52.4197 53.0398 51.9088 53.1104C51.3979 53.1809 51.041 53.6535 51.1115 54.1644C51.2167 54.9174 51.3616 55.6889 51.5435 56.4546C51.5454 56.4619 51.5473 56.4691 51.5492 56.4763C51.678 56.9661 52.1739 57.2647 52.6688 57.1481C53.171 57.0297 53.4809 56.525 53.3624 56.0228C53.1938 55.3155 53.0605 54.6027 52.9628 53.9076Z" fill="white"/>
<path d="M75.2575 42.9453C75.2855 43.0519 75.3339 43.1551 75.4017 43.2513C75.8074 43.8171 76.1833 44.4236 76.5204 45.0519C76.7639 45.5076 77.3303 45.6776 77.7843 45.4346C78.2401 45.1911 78.4105 44.6265 78.167 44.1707C77.7918 43.4713 77.3725 42.795 76.9207 42.1641C76.621 41.7443 76.0368 41.6467 75.6176 41.9482C75.294 42.1801 75.162 42.582 75.2575 42.9453Z" fill="white"/>
<path d="M70.2975 38.4854C70.3607 38.7258 70.5197 38.941 70.7565 39.0701C71.2388 39.3317 71.7043 39.6247 72.141 39.9408C72.2631 40.0305 72.3852 40.1201 72.5042 40.2125C72.9119 40.5285 73.4994 40.4552 73.8154 40.0475C74.1314 39.6398 74.0581 39.0523 73.6504 38.7363C73.5145 38.631 73.3772 38.5279 73.2364 38.4258C72.7347 38.0611 72.1998 37.7245 71.6477 37.4252C71.1946 37.1791 70.6264 37.3478 70.3803 37.8009C70.262 38.0194 70.2386 38.2613 70.297 38.4836L70.2975 38.4854Z" fill="white"/>
<path d="M93.97 108.02C93.4095 107.549 92.8375 107.064 92.2704 106.575C91.8788 106.24 91.2891 106.283 90.9534 106.674C90.7446 106.916 90.6832 107.234 90.7588 107.521C90.8053 107.699 90.9048 107.864 91.0523 107.991C91.6244 108.484 92.2038 108.975 92.7711 109.45C93.1672 109.781 93.7568 109.73 94.0874 109.334C94.4181 108.938 94.3674 108.349 93.9713 108.018L93.97 108.02Z" fill="white"/>
<path d="M54.3124 40.701C53.8398 41.3218 53.407 41.9979 53.0244 42.711C52.9073 42.9273 52.8863 43.1705 52.9438 43.3892C53.0074 43.6314 53.1687 43.8479 53.405 43.9752C53.8595 44.219 54.4272 44.0485 54.671 43.5941C55.0066 42.9667 55.3879 42.3737 55.8002 41.8325C56.1134 41.4217 56.0329 40.8361 55.622 40.5228C55.2112 40.2096 54.6256 40.2901 54.3124 40.701Z" fill="white"/>
<path d="M7.23806 20.0536C6.66231 24.545 5.23178 30.2833 3.19514 34.1056L9.40193 30.0855C9.4531 30.0818 9.50514 30.0739 9.55575 30.0606C9.60093 30.0487 9.64241 30.0301 9.68436 30.0132L17.047 30.8969C13.5368 28.357 9.73062 23.8311 7.23759 20.0518L7.23806 20.0536Z" fill="white"/>
</svg>
