<svg width="26" height="27" viewBox="0 0 26 27" fill="none" xmlns="http://www.w3.org/2000/svg">
<path d="M9.13305 1.29248C6.00594 2.39119 3.30141 4.75765 1.78011 7.71573C1.27301 8.72993 0.850432 9.82864 0.681399 11.0119C0.0897841 13.8009 0.512367 16.8435 1.78011 19.379C2.62528 21.0693 3.80851 22.5061 5.32981 23.6893C6.68207 24.7881 8.28788 25.6332 10.0627 26.0558C12.2602 26.6474 14.5421 26.6474 16.655 26.1403C18.5989 25.7177 20.4583 24.7881 21.9795 23.3513C23.5854 21.9145 24.6841 20.0551 25.2757 17.9422C25.9518 15.7448 26.0363 13.3783 25.6138 11.0964C21.557 11.0964 17.5002 11.0964 13.4434 11.0964V16.1674H20.4583C20.2047 17.7732 19.1905 19.2945 17.8382 20.1396C16.9931 20.7313 15.9789 21.0693 14.9647 21.2384C13.9505 21.4074 12.8518 21.4074 11.8376 21.2384C10.8234 21.0693 9.80918 20.5622 8.96401 19.9706C7.61175 19.0409 6.51304 17.6042 6.00594 15.9983C5.41432 14.3925 5.41432 12.6177 6.00594 10.9274C6.42852 9.82864 7.02013 8.72992 7.8653 7.88476C8.8795 6.78605 10.2318 6.0254 11.7531 5.77185C13.0208 5.5183 14.2885 5.5183 15.5563 5.94088C16.5705 6.27895 17.5847 6.87056 18.3453 7.54669C19.106 6.78605 19.9512 5.94088 20.7118 5.18023C21.1344 4.75765 21.557 4.33507 21.9795 3.91249C20.7963 2.81377 19.3595 1.88409 17.8382 1.29248C15.0492 0.362795 11.9221 0.362795 9.13305 1.29248Z" fill="white"/>
<path d="M9.13284 1.29214C11.9219 0.362462 15.049 0.362462 17.838 1.37666C19.3593 1.96828 20.7961 2.81344 21.9793 3.99667C21.5568 4.41925 21.1342 4.84184 20.7116 5.26442C19.9509 6.02507 19.1058 6.87023 18.3451 7.63088C17.5845 6.87023 16.5703 6.27862 15.5561 6.02507C14.3729 5.687 13.0206 5.60248 11.7529 5.85603C10.3161 6.1941 8.96381 6.95475 7.86509 7.96894C7.01993 8.81411 6.3438 9.91282 6.00573 11.0115C4.56895 9.91282 3.21669 8.81411 1.77991 7.71539C3.3012 4.75732 6.00573 2.39086 9.13284 1.29214Z" fill="#EA4335"/>
<path d="M0.681399 11.0115C0.934949 9.91282 1.27301 8.81411 1.78011 7.71539C3.21689 8.81411 4.56916 9.91282 6.00594 11.0115C5.41432 12.6173 5.41432 14.3922 6.00594 16.0825C4.56916 17.1812 3.21689 18.28 1.78011 19.3787C0.512367 16.7587 0.0897841 13.8006 0.681399 11.0115Z" fill="#FBBC05"/>
<path d="M13.359 11.0966H25.5294C25.952 13.3786 25.8674 15.745 25.1913 17.9425C24.5997 19.9708 23.501 21.8302 21.8952 23.3515C20.5429 22.2528 19.1906 21.2386 17.7539 20.1399C19.1061 19.2102 20.0358 17.7734 20.3739 16.1676C18.0074 16.1676 15.641 16.1676 13.359 16.1676C13.359 14.4773 13.359 12.7869 13.359 11.0966Z" fill="#4285F4"/>
<path d="M1.77991 19.3791C3.21669 18.2804 4.56895 17.1817 6.00573 16.083C6.51283 17.6888 7.61154 19.1256 8.96381 20.0553C9.80897 20.6469 10.8232 21.0695 11.8374 21.323C12.8516 21.4921 13.8658 21.4921 14.9645 21.323C15.9787 21.154 16.9929 20.7314 17.838 20.2243C19.1903 21.323 20.5426 22.3372 21.9793 23.4359C20.458 24.7882 18.6832 25.7179 16.6548 26.225C14.4574 26.7321 12.1754 26.7321 10.0625 26.1405C8.37219 25.7179 6.76638 24.8727 5.3296 23.774C3.89282 22.5063 2.62507 20.985 1.77991 19.3791Z" fill="#34A853"/>
</svg>
