<svg width="28" height="24" viewBox="0 0 28 24" fill="none" xmlns="http://www.w3.org/2000/svg">
<path fill-rule="evenodd" clip-rule="evenodd" d="M17.209 8.97342C17.5889 9.15678 18.0622 9.38521 18.7802 9.42419C19.0718 9.44125 19.3646 9.43455 19.655 9.40348L23.6519 15.5809C23.5907 15.6607 23.5104 15.7246 23.4184 15.7673C23.3819 15.7429 23.3448 15.7192 23.3065 15.6954C22.963 15.4846 22.4459 15.121 21.8465 14.7007C18.7023 12.4925 16.4008 10.9928 15.4135 11.8139C13.0416 13.7863 11.5964 14.2566 11.0799 14.0598C10.9971 14.0282 10.9088 13.9697 10.8822 13.7741C10.7827 13.0407 11.7076 11.2376 14.0715 9.51861C16.0301 8.40569 16.5244 8.64448 17.2077 8.97464L17.209 8.97342Z" fill="#A6D4FF"/>
<path fill-rule="evenodd" clip-rule="evenodd" d="M2.99397 15.8792C2.89412 16.0399 2.68666 16.0873 2.53001 15.9851L0.155189 14.4253C-0.000860877 14.3225 -0.0468984 14.1089 0.0523514 13.9477L4.88988 6.1402C4.98973 5.97954 5.1972 5.93214 5.35385 6.03494L7.72926 7.59471C7.88472 7.69812 7.93016 7.9111 7.8315 8.07237L2.99397 15.8792Z" fill="#3882C7"/>
<path fill-rule="evenodd" clip-rule="evenodd" d="M4.37308 18.613C4.56615 18.7638 4.89712 18.7967 5.33555 18.7113C6.29515 17.4957 6.65831 16.6525 6.79564 16.2038C6.68531 15.8637 6.41984 15.6067 6.09117 15.52C5.80443 15.4443 5.50161 15.5462 5.30797 15.7837C5.21086 15.8997 5.10743 16.0163 5.00802 16.1287C4.50409 16.6977 4.02831 17.2344 4.08118 17.8852C4.10991 18.2399 4.20817 18.4847 4.37308 18.613Z" fill="#A6D4FF"/>
<path fill-rule="evenodd" clip-rule="evenodd" d="M5.98204 19.2268C6.00708 19.6172 6.11914 19.9077 6.31763 20.0907C6.52983 20.2854 6.86601 20.3853 7.31842 20.3888L9.78733 16.997C9.78495 16.5468 9.60732 16.2505 9.25743 16.1157C8.7615 15.9251 8.06649 16.1029 7.66355 16.5119C7.51393 16.9901 7.10265 17.9202 5.98145 19.2268H5.98204Z" fill="#A6D4FF"/>
<path fill-rule="evenodd" clip-rule="evenodd" d="M8.49457 21.5849C8.32541 21.4641 8.2144 21.2637 8.15625 20.9764L10.5867 17.4348C11.1388 17.3407 11.5711 17.4299 11.7843 17.688C12.0122 17.9643 12.021 18.4611 11.8108 19.0574C11.2052 19.8171 10.7259 20.4183 10.3735 20.8617C10.0681 21.2455 9.83785 21.5345 9.72273 21.679C9.16826 21.7956 8.74537 21.7641 8.49515 21.5849H8.49457Z" fill="#A6D4FF"/>
<path fill-rule="evenodd" clip-rule="evenodd" d="M11.4838 22.8343C11.7075 22.8273 12.1993 22.5043 12.6698 21.9181C13.1711 21.2938 13.3734 20.7152 13.3101 20.4868C13.2331 20.2118 12.9198 19.9963 12.3773 19.8451C11.7927 20.5061 11.3253 21.0352 10.9751 21.4316C10.6418 21.8095 10.4457 22.0308 10.3311 22.161C10.5165 22.648 10.8711 22.8529 11.4832 22.8343H11.4838Z" fill="#A6D4FF"/>
<path fill-rule="evenodd" clip-rule="evenodd" d="M23.3514 18.4488C23.6045 18.0572 23.6954 17.7124 23.6289 17.3968C23.5484 17.0162 23.2258 16.6452 22.6696 16.2944C22.3104 16.0718 21.7901 15.7021 21.187 15.2734C20.1813 14.5595 18.9305 13.6705 17.8455 13.052C16.1971 12.1119 15.886 12.3467 15.883 12.3491C13.5551 14.3071 11.7792 15.1323 10.7473 14.7346C10.3363 14.5765 10.0759 14.2329 10.0137 13.7678C9.84351 12.4968 11.1425 10.551 13.2026 8.94865C12.8593 8.5759 12.3068 8.66224 11.1986 8.9371C10.2479 9.17243 9.18242 9.43634 8.13772 9.07879L4.34863 15.001C4.40169 15.066 4.45963 15.1274 4.52183 15.1834C4.53342 15.1706 4.54562 15.1578 4.5566 15.1451C4.96947 14.6768 5.608 14.4737 6.21604 14.6185C6.68685 14.7297 7.09668 15.0162 7.36136 15.4199C8.00538 14.9803 8.86041 14.8447 9.55139 15.1159C10.1393 15.347 10.5083 15.8316 10.6077 16.4792C11.3596 16.416 11.9664 16.6148 12.3452 17.0569C12.733 17.5093 12.8331 18.1551 12.6404 18.9067C13.3905 19.1621 13.843 19.5732 13.9888 20.1308C14.19 20.9025 13.5442 21.9028 13.2709 22.2798C14.2919 22.9681 15.1103 23.2351 15.6482 23.0502C15.9562 22.9444 16.1977 22.6689 16.3697 22.2323L14.473 20.8885C14.2803 20.7529 14.2351 20.4871 14.3711 20.295C14.5071 20.1028 14.7737 20.0578 14.9664 20.1934C14.9664 20.1934 14.967 20.1934 14.9676 20.194L17.0857 21.6948C17.6168 21.9259 18.0383 21.9684 18.3383 21.8201C18.6134 21.6838 18.828 21.3689 18.9781 20.8836L15.5775 18.672L16.044 17.9587L19.6324 20.2938C20.1106 20.3838 20.4686 20.3454 20.6942 20.1746C20.8888 20.0274 21.015 19.7605 21.0705 19.3798L16.5581 16.3388C16.363 16.2074 16.3111 15.9423 16.4435 15.7477C16.5752 15.5531 16.8411 15.5014 17.0363 15.6334L21.6907 18.7699C22.3866 18.911 22.9312 18.8058 23.3508 18.4482L23.3514 18.4488Z" fill="#3882C7"/>
<path fill-rule="evenodd" clip-rule="evenodd" d="M27.9917 14.4794C28.0121 14.3901 27.9954 14.296 27.9465 14.219L22.9418 6.41135C22.8379 6.25131 22.6239 6.20453 22.4619 6.30609L20.0053 7.86591C19.8438 7.9687 19.7962 8.1823 19.8989 8.34357L24.9036 16.1512C25.0069 16.3119 25.2215 16.3593 25.3835 16.2565L27.8401 14.6967C27.9181 14.6474 27.9725 14.5693 27.9917 14.4794Z" fill="#A6D4FF"/>
<path fill-rule="evenodd" clip-rule="evenodd" d="M7.39458 1.71078C7.28024 1.51044 7.35088 1.25584 7.55203 1.14196C7.75138 1.02927 8.00462 1.09665 8.12076 1.29341L10.0006 4.53638C10.1179 4.73493 10.0508 4.99072 9.85089 5.10759C9.65153 5.22445 9.39471 5.15767 9.27737 4.95853C9.27617 4.95674 9.27557 4.95554 9.27438 4.95376L7.39458 1.71078Z" fill="#3882C7"/>
<path fill-rule="evenodd" clip-rule="evenodd" d="M14.4072 4.20021V0.421224C14.4072 0.188347 14.5896 0 14.815 0C15.0404 0 15.2228 0.188347 15.2228 0.421224V4.20021C15.2228 4.43308 15.0404 4.62143 14.815 4.62143C14.5896 4.62143 14.4072 4.43308 14.4072 4.20021Z" fill="#A6D4FF"/>
<path fill-rule="evenodd" clip-rule="evenodd" d="M19.3643 4.22257L21.4323 0.763531C21.5614 0.551753 21.8433 0.480524 22.0633 0.604538C22.2806 0.727916 22.3557 0.996932 22.2306 1.20871L20.1625 4.66775C20.0367 4.88144 19.7555 4.95648 19.5342 4.83501C19.3129 4.71354 19.2352 4.44198 19.361 4.2283C19.3623 4.22639 19.363 4.22512 19.3643 4.22321V4.22257Z" fill="#3882C7"/>
</svg>
