<svg width="23" height="23" viewBox="0 0 23 23" fill="none" xmlns="http://www.w3.org/2000/svg">
<ellipse cx="11.5" cy="9.5" rx="6.5" ry="5.5" fill="#A6D4FF"/>
<path d="M11.5 0C5.15085 0 0 5.14436 0 11.494C0 17.8496 5.15085 23 11.5 23C17.8526 23 22.9991 17.8496 22.9991 11.494C22.9991 5.14436 17.8526 0 11.5 0ZM12.3195 17.8929C12.0524 18.1306 11.7429 18.25 11.3922 18.25C11.0294 18.25 10.713 18.1327 10.4428 17.8976C10.1723 17.663 10.0367 17.3344 10.0367 16.9123C10.0367 16.5378 10.1679 16.2226 10.4294 15.9672C10.6909 15.7118 11.0117 15.5841 11.3922 15.5841C11.7667 15.5841 12.0819 15.7118 12.3377 15.9672C12.5932 16.2226 12.7213 16.5378 12.7213 16.9123C12.7208 17.3283 12.587 17.6552 12.3195 17.8929ZM15.6499 9.63629C15.4447 10.0168 15.201 10.345 14.9183 10.6216C14.6365 10.8983 14.1296 11.3632 13.3979 12.0169C13.1962 12.2013 13.0338 12.3632 12.9122 12.5026C12.7905 12.6425 12.6996 12.7701 12.6403 12.8862C12.5805 13.0022 12.5347 13.1182 12.5022 13.2342C12.4697 13.3498 12.4208 13.5537 12.3546 13.8451C12.242 14.4633 11.8883 14.7723 11.2939 14.7723C10.9848 14.7723 10.7251 14.6715 10.5134 14.4693C10.3025 14.2671 10.1973 13.9671 10.1973 13.5689C10.1973 13.0697 10.2748 12.6372 10.4294 12.2714C10.5831 11.9056 10.7887 11.5848 11.0441 11.3082C11.3 11.0316 11.6446 10.7034 12.0788 10.3229C12.4593 9.98993 12.7342 9.73887 12.9035 9.56956C13.0732 9.39988 13.2156 9.21113 13.3312 9.00332C13.4477 8.79507 13.5048 8.56952 13.5048 8.32581C13.5048 7.85005 13.3287 7.44918 12.9745 7.12233C12.6209 6.79548 12.1645 6.63182 11.6056 6.63182C10.9515 6.63182 10.4701 6.79676 10.161 7.12664C9.85188 7.45653 9.59086 7.94224 9.37655 8.58428C9.17396 9.25619 8.79039 9.59209 8.22627 9.59209C7.89335 9.59209 7.61241 9.47476 7.3834 9.2401C7.15482 9.00545 7.04052 8.75135 7.04052 8.47776C7.04052 7.91322 7.22192 7.3409 7.58429 6.76123C7.94709 6.18157 8.47611 5.70144 9.17177 5.32133C9.86701 4.9408 10.6788 4.7503 11.6056 4.7503C12.4676 4.7503 13.2282 4.90959 13.888 5.22781C14.5478 5.54555 15.0577 5.97807 15.4175 6.52525C15.7768 7.072 15.9569 7.66642 15.9569 8.30845C15.9577 8.81286 15.8551 9.25576 15.6499 9.63629Z" fill="#3882C7"/>
</svg>
