<svg width="90" height="109" viewBox="0 0 90 109" fill="none" xmlns="http://www.w3.org/2000/svg">
<path d="M81.75 81.75C96.7998 66.7002 96.7998 42.2998 81.75 27.25C66.7002 12.2002 42.2998 12.2002 27.25 27.25C12.2002 42.2998 12.2002 66.7002 27.25 81.75C42.2998 96.7998 66.7002 96.7998 81.75 81.75Z" fill="black" fill-opacity="0.1"/>
<path d="M79.1193 79.1184C93.5458 64.6919 93.5458 41.302 79.1193 26.8755C64.6928 12.449 41.3028 12.449 26.8763 26.8755C12.4499 41.302 12.4499 64.6919 26.8763 79.1184C41.3028 93.5449 64.6928 93.5449 79.1193 79.1184Z" fill="#BF362B"/>
<path d="M74.9411 74.9402C87.06 62.8213 87.06 43.1726 74.9411 31.0537C62.8221 18.9348 43.1735 18.9348 31.0546 31.0537C18.9357 43.1726 18.9357 62.8213 31.0546 74.9402C43.1735 87.0591 62.8221 87.0591 74.9411 74.9402Z" fill="#EE4036"/>
<path d="M24.8285 54.3389C24.087 54.3389 23.4863 53.7382 23.4863 52.9968C23.4863 40.5783 31.3355 29.414 43.0176 25.2167C43.7138 24.9653 44.4829 25.3272 44.7343 26.026C44.9856 26.7222 44.6237 27.4912 43.925 27.7426C33.306 31.5579 26.1706 41.7093 26.1706 52.9993C26.1706 53.7408 25.5699 54.3415 24.8285 54.3415V54.3389Z" fill="#F2786F"/>
<path d="M47.0087 26.8051C46.3904 26.8051 45.835 26.3753 45.6993 25.747C45.5434 25.0231 46.0034 24.3093 46.7272 24.151C48.7756 23.7086 50.8843 23.4824 53.0006 23.4824C53.742 23.4824 54.3427 24.0831 54.3427 24.8246C54.3427 25.566 53.742 26.1667 53.0006 26.1667C51.0779 26.1667 49.1577 26.3703 47.2953 26.7749C47.1997 26.795 47.1042 26.8051 47.0112 26.8051H47.0087Z" fill="#F2786F"/>
<path d="M18.7 54.1004C18.2049 54.1004 17.8027 53.6983 17.8027 53.2032C17.8002 38.304 27.2153 24.9103 41.2297 19.876C41.3278 19.8408 41.4308 19.8232 41.5339 19.8232C41.9109 19.8232 42.2527 20.062 42.3809 20.4189C42.5493 20.8864 42.3055 21.4016 41.838 21.5675C28.5348 26.3479 19.5973 39.0605 19.5973 53.2006C19.5973 53.6958 19.1951 54.0979 18.7 54.0979V54.1004Z" fill="#EE4036"/>
<path d="M45.8646 20.3788C45.4449 20.3788 45.078 20.0797 44.9875 19.67C44.8819 19.185 45.1911 18.7074 45.6761 18.6019C48.1342 18.069 50.6651 17.8001 53.2011 17.8001C53.6963 17.8001 54.1009 18.2022 54.1009 18.6974C54.1009 19.1925 53.6988 19.5946 53.2011 19.5946C50.7933 19.5946 48.388 19.851 46.0556 20.3562C45.9928 20.3688 45.9275 20.3763 45.8646 20.3763V20.3788Z" fill="#EE4036"/>
<g filter="url(#filter0_d_171_1147)">
<path d="M75.7762 50.2382C75.7762 50.9683 75.6002 51.6528 75.2482 52.2916C74.9092 52.9304 74.3682 53.4454 73.625 53.8365C72.895 54.2276 71.9693 54.4232 70.8481 54.4232H68.5601V59.6641H65.8223V46.0142H70.8481C71.9041 46.0142 72.8037 46.1967 73.5468 46.5617C74.2899 46.9268 74.844 47.4287 75.2091 48.0675C75.5871 48.7063 75.7762 49.4299 75.7762 50.2382ZM70.7308 52.2134C71.4869 52.2134 72.0475 52.0439 72.4126 51.7049C72.7776 51.3529 72.9601 50.864 72.9601 50.2382C72.9601 48.9084 72.217 48.2435 70.7308 48.2435H68.5601V52.2134H70.7308Z" fill="white"/>
<path d="M59.5855 57.4934H64.0833V59.6641H56.8477V46.0142H59.5855V57.4934Z" fill="white"/>
<path d="M49.1753 48.2238V51.6461H53.7709V53.8168H49.1753V57.4346H54.3576V59.664H46.4375V45.9944H54.3576V48.2238H49.1753Z" fill="white"/>
<path d="M43.7447 46.014V59.6639H41.0069V53.8559H35.1597V59.6639H32.4219V46.014H35.1597V51.6265H41.0069V46.014H43.7447Z" fill="white"/>
</g>
<defs>
<filter id="filter0_d_171_1147" x="32.4219" y="45.9944" width="44.3545" height="15.6697" filterUnits="userSpaceOnUse" color-interpolation-filters="sRGB">
<feFlood flood-opacity="0" result="BackgroundImageFix"/>
<feColorMatrix in="SourceAlpha" type="matrix" values="0 0 0 0 0 0 0 0 0 0 0 0 0 0 0 0 0 0 127 0" result="hardAlpha"/>
<feOffset dx="1" dy="2"/>
<feComposite in2="hardAlpha" operator="out"/>
<feColorMatrix type="matrix" values="0 0 0 0 0 0 0 0 0 0 0 0 0 0 0 0 0 0 0.2 0"/>
<feBlend mode="normal" in2="BackgroundImageFix" result="effect1_dropShadow_171_1147"/>
<feBlend mode="normal" in="SourceGraphic" in2="effect1_dropShadow_171_1147" result="shape"/>
</filter>
</defs>
</svg>
