<svg width="20" height="21" viewBox="0 0 20 21" fill="none" xmlns="http://www.w3.org/2000/svg">
<path fill-rule="evenodd" clip-rule="evenodd" d="M2.13722 14.6799C2.13729 14.8774 2.13735 15.0749 2.13735 15.2723L2.13657 15.2739V18.0799C2.13657 18.1909 2.14124 18.3004 2.15293 18.4106C2.25417 19.359 2.98161 20.2886 4.21063 20.33C4.96357 20.3557 5.71765 20.3497 6.47155 20.3438C6.7985 20.3412 7.1254 20.3386 7.45217 20.3386C7.58613 20.3386 7.70529 20.2902 7.81277 20.2112C8.00593 20.0697 8.05188 19.8695 8.05188 19.6444C8.05084 18.6738 8.05118 17.7036 8.05153 16.7335C8.0517 16.2485 8.05188 15.7636 8.05188 15.2786C8.05188 15.257 8.05175 15.2353 8.05163 15.2136C8.05121 15.1412 8.0508 15.0685 8.05499 14.9964C8.08303 14.496 8.47167 14.1066 8.97091 14.0816C9.2765 14.0668 9.58248 14.0693 9.8883 14.0719C10.0174 14.0729 10.1465 14.074 10.2755 14.0738C10.3394 14.0736 10.4034 14.0723 10.4675 14.0709C10.6436 14.0673 10.8198 14.0637 10.9951 14.0832C11.4819 14.1371 11.8737 14.4889 11.8737 15.0378C11.8742 15.9557 11.874 16.8739 11.8738 17.7921C11.8737 18.2511 11.8737 18.7101 11.8737 19.169C11.8737 19.2284 11.8733 19.2879 11.873 19.3474C11.8723 19.4665 11.8716 19.5857 11.8737 19.7046C11.8807 20.0884 12.133 20.3379 12.5131 20.3379C13.5349 20.3379 14.5575 20.3379 15.5794 20.3371C15.9548 20.3363 16.3177 20.2651 16.648 20.0861C17.4019 19.6788 17.7796 19.022 17.7874 18.1808C17.7996 16.8173 17.7972 15.4538 17.7948 14.0903C17.7938 13.5375 17.7929 12.9847 17.7929 12.4319C17.7929 12.2719 17.8733 12.1919 18.0343 12.1919C18.3941 12.1911 18.7407 12.1255 19.0468 11.93C19.8326 11.4288 20.0032 10.7142 19.8591 9.90505C19.7859 9.49459 19.5203 9.18498 19.2314 8.8957C18.9677 8.632 18.704 8.36832 18.4403 8.10463C16.0667 5.73127 13.6932 3.3579 11.3254 0.978843C10.844 0.494105 10.27 0.345557 9.61813 0.432341C9.21391 0.486287 8.88913 0.695037 8.6033 0.98197C7.53872 2.05117 6.47194 3.11852 5.40523 4.18581C4.92049 4.6708 4.43577 5.15579 3.95127 5.64092C3.70888 5.88374 3.46646 6.12648 3.22405 6.36922C2.33546 7.25898 1.44701 8.1486 0.560971 9.04112C0.142733 9.46331 -0.0636602 9.97072 0.0173394 10.5696C0.0991178 11.1693 0.396636 11.6384 0.920796 11.9527C1.25804 12.1552 1.63188 12.2044 2.01663 12.1904C2.11087 12.1872 2.14046 12.2076 2.14046 12.31C2.13673 13.0999 2.13697 13.8899 2.13722 14.6799Z" fill="#3882C7"/>
</svg>
