<svg width="21" height="22" viewBox="0 0 21 22" fill="none" xmlns="http://www.w3.org/2000/svg">
<rect x="2" y="3" width="11" height="10" fill="#A6D4FF"/>
<path d="M12.4686 0.500244H2.40622C1.07624 0.500244 0 1.57648 0 2.90647V16.4688C0 17.7988 1.07624 18.875 2.40622 18.875H8.86365L9.05615 17.7988C9.14365 17.3088 9.37114 16.8713 9.72114 16.5126L14.8748 11.3676V2.90647C14.8748 1.57648 13.7986 0.500244 12.4686 0.500244ZM3.49996 4.0002H6.99992C7.48117 4.0002 7.87491 4.39395 7.87491 4.87519C7.87491 5.35644 7.48117 5.75018 6.99992 5.75018H3.49996C3.01872 5.75018 2.62497 5.35644 2.62497 4.87519C2.62497 4.39395 3.01872 4.0002 3.49996 4.0002ZM7.87491 12.7501H3.49996C3.01872 12.7501 2.62497 12.3564 2.62497 11.8751C2.62497 11.3939 3.01872 11.0001 3.49996 11.0001H7.87491C8.35616 11.0001 8.7499 11.3939 8.7499 11.8751C8.7499 12.3564 8.35616 12.7501 7.87491 12.7501ZM11.3749 9.25015H3.49996C3.01872 9.25015 2.62497 8.8564 2.62497 8.37516C2.62497 7.89391 3.01872 7.50016 3.49996 7.50016H11.3749C11.8561 7.50016 12.2499 7.89391 12.2499 8.37516C12.2499 8.8564 11.8561 9.25015 11.3749 9.25015Z" fill="#3882C7"/>
<path d="M10.9606 21.4999C10.7882 21.4999 10.6202 21.4316 10.4968 21.3074C10.3455 21.156 10.2772 20.9408 10.3148 20.729L10.7786 18.0997C10.8013 17.9675 10.8661 17.845 10.9606 17.7497L17.4574 11.2537C18.2554 10.454 19.0394 10.6701 19.4681 11.0989L20.5505 12.1812C21.1481 12.778 21.1481 13.7492 20.5505 14.3468L14.0537 20.8436C13.9592 20.939 13.8367 21.0029 13.7037 21.0256L11.0743 21.4894C11.0367 21.4964 10.9982 21.4999 10.9606 21.4999Z" fill="#3882C7"/>
</svg>
