<svg width="74" height="35" viewBox="0 0 74 35" fill="none" xmlns="http://www.w3.org/2000/svg">
<g opacity="0.7">
<path d="M0.5 17.5C0.5 8.11116 8.11116 0.5 17.5 0.5H55.8871C65.276 0.5 72.8871 8.11116 72.8871 17.5C72.8871 26.8888 65.2759 34.5 55.8871 34.5H17.5C8.11114 34.5 0.5 26.8888 0.5 17.5Z" stroke="white"/>
<path d="M15.8136 20.0957C15.8136 18.8048 15.8359 17.5131 15.8073 16.2228C15.7793 14.9789 16.6867 14.1303 17.7667 14.1926C18.5672 14.2389 19.3726 14.2034 20.1759 14.2012C20.9387 14.1991 21.492 14.5553 21.8231 15.2605C21.9188 15.464 21.9761 15.4857 22.1311 15.3257C24.094 13.2926 25.8201 11.0799 27.0125 8.45952C27.2353 7.96934 27.3597 7.88245 27.8717 7.90707C29.5105 7.98672 30.4836 9.30521 30.2412 11.0871C30.0875 12.2173 29.6816 13.244 29.1375 14.223C28.9538 14.5539 28.9552 14.5553 29.3254 14.5575C29.9771 14.5604 30.6302 14.5408 31.2806 14.5683C32.5924 14.6234 33.738 15.7406 33.8617 17.0656C33.912 17.6028 33.7499 18.1176 33.6598 18.6368C33.3993 20.1414 33.1163 21.6423 32.8383 23.144C32.7342 23.7059 32.5435 24.2344 32.2362 24.7123C31.7088 25.5341 30.9858 25.9729 30.0134 25.9678C27.8717 25.9569 25.7293 25.9613 23.5876 25.9663C22.9463 25.9678 22.37 25.7832 21.8741 25.3618C21.7337 25.2423 21.6505 25.2141 21.5115 25.3777C21.1602 25.7889 20.7019 25.9678 20.1731 25.9656C19.3349 25.962 18.4966 25.9743 17.6584 25.9627C16.5582 25.9468 15.8261 25.1865 15.817 24.0425C15.8059 22.7277 15.8143 21.4121 15.8143 20.0972L15.8136 20.0957ZM26.7995 24.6993C27.8354 24.6993 28.8713 24.684 29.9073 24.705C30.5681 24.7181 31.0103 24.4096 31.3134 23.8289C31.4755 23.5183 31.5817 23.1867 31.6438 22.8435C31.9652 21.0812 32.276 19.3167 32.6022 17.5558C32.6923 17.0707 32.5624 16.676 32.2355 16.3386C31.8876 15.981 31.4615 15.8173 30.9746 15.8166C29.9617 15.8166 28.9496 15.8123 27.9367 15.8188C27.6412 15.8209 27.3737 15.7847 27.227 15.4763C27.0838 15.1758 27.1885 14.9253 27.3688 14.6755C27.8647 13.9884 28.2971 13.2614 28.6129 12.4642C28.8944 11.754 29.0844 11.0263 29.002 10.2487C28.9545 9.79902 28.7589 9.45654 28.3307 9.27842C28.1309 9.19516 28.0303 9.22557 27.9241 9.43771C26.4851 12.3209 24.5488 14.8015 22.2185 16.9592C22.0927 17.0757 22.0005 17.18 22.0012 17.3784C22.0096 19.2486 21.997 21.1188 22.0117 22.9883C22.0201 24.0317 22.69 24.6956 23.6924 24.6985C24.7283 24.7014 25.7642 24.6985 26.8002 24.6993H26.7995ZM20.7627 20.0632C20.7627 18.7736 20.7634 17.4841 20.7627 16.1946C20.7627 15.6732 20.572 15.4625 20.0788 15.4582C19.3 15.451 18.5204 15.4517 17.7415 15.4582C17.2491 15.4625 17.0507 15.6754 17.0507 16.1917C17.0493 18.783 17.0493 21.3744 17.0507 23.9658C17.0507 24.4936 17.2386 24.6949 17.7394 24.6978C18.5183 24.7029 19.2979 24.7029 20.0767 24.6978C20.5797 24.6942 20.7627 24.4965 20.7634 23.9687C20.7648 22.6668 20.7634 21.365 20.7634 20.0639L20.7627 20.0632Z" fill="white"/>
<path d="M58.3818 13.7754C58.3818 15.0663 58.3594 16.358 58.388 17.6483C58.416 18.8922 57.5086 19.7408 56.4286 19.6785C55.6281 19.6322 54.8227 19.6677 54.0194 19.6699C53.2566 19.672 52.7033 19.3158 52.3722 18.6106C52.2765 18.4071 52.2193 18.3854 52.0642 18.5454C50.1013 20.5785 48.3752 22.7912 47.1828 25.4116C46.96 25.9018 46.8356 25.9886 46.3236 25.964C44.6848 25.8844 43.7118 24.5659 43.9542 22.784C44.1078 21.6538 44.5137 20.627 45.0578 19.6481C45.2416 19.3172 45.2402 19.3158 44.8699 19.3136C44.2182 19.3107 43.5651 19.3303 42.9147 19.3028C41.6029 19.2477 40.4573 18.1305 40.3336 16.8055C40.2833 16.2683 40.4454 15.7535 40.5355 15.2343C40.7961 13.7297 41.079 12.2288 41.357 10.7271C41.4611 10.1652 41.6518 9.63668 41.9591 9.15881C42.4865 8.33701 43.2095 7.89823 44.1819 7.9033C46.3236 7.91416 48.466 7.90982 50.6077 7.90475C51.249 7.9033 51.8253 8.08794 52.3212 8.50933C52.4616 8.6288 52.5448 8.65704 52.6838 8.4934C53.0351 8.08214 53.4934 7.9033 54.0222 7.90547C54.8604 7.90909 55.6987 7.89679 56.5369 7.90837C57.6371 7.9243 58.3692 8.68455 58.3783 9.82855C58.3894 11.1434 58.3811 12.459 58.3811 13.7739L58.3818 13.7754ZM47.3958 9.17184C46.3599 9.17184 45.324 9.18705 44.2881 9.16605C43.6272 9.15301 43.1851 9.46146 42.8819 10.0421C42.7198 10.3528 42.6137 10.6844 42.5515 11.0276C42.2302 12.7899 41.9193 14.5544 41.5931 16.3153C41.503 16.8004 41.6329 17.195 41.9598 17.5325C42.3077 17.8901 42.7338 18.0538 43.2207 18.0545C44.2336 18.0545 45.2457 18.0588 46.2586 18.0523C46.5541 18.0501 46.8216 18.0864 46.9683 18.3948C47.1115 18.6953 47.0068 18.9458 46.8265 19.1956C46.3306 19.8827 45.8982 20.6097 45.5824 21.4068C45.3009 22.1171 45.1109 22.8448 45.1934 23.6224C45.2409 24.0721 45.4365 24.4146 45.8647 24.5927C46.0644 24.6759 46.165 24.6455 46.2712 24.4334C47.7102 21.5502 49.6465 19.0696 51.9769 16.9119C52.1026 16.7954 52.1948 16.6911 52.1941 16.4927C52.1857 14.6225 52.1983 12.7523 52.1836 10.8828C52.1752 9.83941 51.5053 9.17546 50.5029 9.17256C49.467 9.16967 48.4318 9.17256 47.3958 9.17184ZM53.4326 13.8079C53.4326 15.0975 53.4319 16.387 53.4326 17.6765C53.4326 18.1979 53.6233 18.4086 54.1165 18.4129C54.8954 18.4201 55.6749 18.4194 56.4538 18.4129C56.9463 18.4086 57.1446 18.1957 57.1446 17.6794C57.146 15.0881 57.146 12.4967 57.1446 9.9053C57.1446 9.37747 56.9567 9.17618 56.4559 9.17329C55.677 9.16822 54.8974 9.16822 54.1186 9.17329C53.6156 9.17691 53.4326 9.37457 53.4319 9.90241C53.4305 11.2042 53.4326 12.5068 53.4326 13.8079Z" fill="white"/>
</g>
</svg>
