<svg width="79" height="80" viewBox="0 0 79 80" fill="none" xmlns="http://www.w3.org/2000/svg">
<path d="M65.6203 65.9806C80.0468 51.5541 80.0468 28.1642 65.6203 13.7377C51.1938 -0.688825 27.8038 -0.688826 13.3773 13.7377C-1.04916 28.1642 -1.04916 51.5541 13.3773 65.9806C27.8038 80.4071 51.1938 80.4071 65.6203 65.9806Z" fill="#1968B2"/>
<path d="M61.4411 61.8024C73.56 49.6835 73.56 30.0348 61.4411 17.9159C49.3221 5.79697 29.6735 5.79697 17.5546 17.9159C5.43565 30.0348 5.43565 49.6835 17.5546 61.8024C29.6735 73.9213 49.3221 73.9213 61.4411 61.8024Z" fill="#167CDC"/>
<path d="M11.3285 41.2011C10.587 41.2011 9.98633 40.6004 9.98633 39.859C9.98633 27.4405 17.8355 16.2761 29.5176 12.0788C30.2138 11.8275 30.9829 12.1894 31.2343 12.8881C31.4856 13.5843 31.1237 14.3534 30.425 14.6048C19.806 18.42 12.6706 28.5715 12.6706 39.8615C12.6706 40.6029 12.0699 41.2036 11.3285 41.2036V41.2011Z" fill="#92CAFF"/>
<path d="M51.0164 29.131C51.2385 28.9472 51.4303 28.798 51.6113 28.6369C52.5838 27.7721 53.6846 27.1126 54.8728 26.5935C55.3565 26.3818 55.6766 25.9883 56.0167 25.6238C56.189 25.4392 56.1958 25.1454 56.1858 24.883C56.1864 24.8644 56.1832 24.8458 56.1764 24.8284C56.1695 24.8111 56.1592 24.7953 56.1461 24.782C56.133 24.7688 56.1173 24.7583 56.1 24.7514C56.0826 24.7444 56.0641 24.741 56.0454 24.7415C55.795 24.7443 55.5773 24.8316 55.3704 25.0206C55.5259 25.0712 55.6208 24.9919 55.7257 24.9663C55.7943 24.95 55.8732 24.8986 55.925 24.9759C55.9697 25.0393 55.9458 25.1163 55.9147 25.1852C55.8683 25.288 55.8018 25.3805 55.7189 25.457C55.6361 25.5335 55.5387 25.5925 55.4326 25.6306C55.4326 25.647 55.4294 25.6649 55.4362 25.6705C55.6639 25.8631 55.6663 25.875 55.4565 26.0971C55.2173 26.3499 54.9023 26.4528 54.577 26.5325C54.3581 26.5859 54.118 26.5843 53.9223 26.696C53.52 26.9253 53.0335 26.995 52.695 27.3479C52.6264 27.4193 52.5248 27.4695 52.3701 27.4799C52.8665 27.0413 53.1085 26.4775 53.4526 25.9289C53.2006 26.0126 53.0172 26.1418 52.8298 26.255C52.0148 26.7441 51.1345 27.1153 50.2154 27.3575C49.4917 27.5532 48.8079 27.8431 48.2282 28.3327C47.7549 28.7314 47.1516 28.7988 46.5982 28.9882C45.7453 29.2793 44.8773 29.1477 44.0133 29.0955C43.4296 29.0616 42.8467 29.0245 42.2613 29.0353C42.2217 29.0356 42.1824 29.0417 42.1445 29.0532C41.922 29.1246 41.7905 29.0133 41.8427 28.7817C41.8781 28.647 41.927 28.5162 41.9886 28.3913C42.2354 27.8407 42.0612 26.956 41.6214 26.5497C41.5385 26.4731 41.4555 26.3962 41.3702 26.3224C41.2127 26.1868 41.131 26.0253 41.1752 25.8116C41.2035 25.6757 41.1469 25.5676 41.0492 25.4735C40.3794 24.8288 39.5991 24.6334 38.7004 24.8754C38.2618 24.9927 37.8826 25.1836 37.6502 25.6135C37.8009 25.6406 37.9137 25.4939 38.0608 25.5293C38.0608 25.6091 37.9923 25.6039 37.9512 25.6254C37.8631 25.6713 37.769 25.7052 37.6825 25.7546C37.5959 25.8041 37.464 25.8671 37.5054 25.9627C37.5561 26.0792 37.6765 25.9711 37.7654 25.9556C37.8105 25.9441 37.8544 25.9279 37.8962 25.9073C37.9083 25.9015 37.9215 25.8982 37.935 25.8978C37.9484 25.8975 37.9618 25.8999 37.9742 25.9051C37.9867 25.9102 37.9979 25.918 38.0071 25.9278C38.0163 25.9376 38.0234 25.9492 38.0278 25.9619C38.0608 26.0285 38.0098 26.0624 37.9584 26.0816C37.8583 26.1155 37.7534 26.137 37.6538 26.1721C37.3348 26.2849 37.1171 26.4831 37.0848 26.8415C37.0748 26.9556 37.0146 27.0544 36.9652 27.1565C36.8759 27.3439 36.9947 27.6294 37.1849 27.6984C37.271 27.7299 37.2977 27.6625 37.3204 27.6186C37.4305 27.4001 37.6211 27.3359 37.8451 27.318C37.9775 27.3072 38.1131 27.2853 38.2251 27.2107C38.5497 26.995 38.9181 26.9567 39.2905 26.9284C39.3369 26.9265 39.3833 26.9221 39.4293 26.9153C39.4607 26.9097 39.4966 26.8918 39.4903 26.8543C39.4871 26.8359 39.4552 26.8188 39.4328 26.808C39.4144 26.8001 39.394 26.7979 39.3742 26.8016C39.0066 26.8662 38.6234 26.8519 38.275 27.0158C38.135 27.0815 37.9827 27.0999 37.8324 27.125C37.6821 27.1501 37.5266 27.1705 37.4002 27.2634C37.2909 27.3431 37.2439 27.2893 37.2207 27.1916C37.1744 27.0036 37.1782 26.8067 37.2315 26.6206C37.2364 26.5942 37.2474 26.5693 37.2636 26.5478C37.2798 26.5264 37.3008 26.509 37.3248 26.497C37.516 26.4173 37.7166 26.3622 37.9217 26.3332C37.9947 26.3256 38.0373 26.389 38.1087 26.4201C38.1669 26.1282 38.1789 25.8328 38.2646 25.5485C38.2869 25.5612 38.3045 25.5656 38.3045 25.5732C38.3683 25.9069 38.3683 25.9069 38.6944 25.8124C39.0134 25.7203 39.1757 25.767 39.2833 25.9719C39.3332 26.0676 39.3116 26.1665 39.3156 26.265C39.3156 26.3048 39.31 26.3447 39.3156 26.3846C39.3244 26.4536 39.2821 26.5588 39.3599 26.5839C39.452 26.6115 39.4731 26.497 39.5194 26.4368C39.5592 26.385 39.5349 26.2694 39.647 26.2937C39.7466 26.3156 39.7725 26.4041 39.7805 26.493C39.7877 26.5728 39.7829 26.6525 39.7933 26.7323C39.8216 26.9508 39.9759 27.0281 40.1641 26.9141C40.2438 26.8666 40.3072 26.7965 40.3818 26.741C40.434 26.7012 40.4906 26.6521 40.5544 26.7255C40.6182 26.7989 40.6003 26.8615 40.5413 26.9205C40.4943 26.9664 40.4451 27.0099 40.3937 27.0508C40.2901 27.1354 40.1884 27.2239 40.1322 27.3475C40.0273 27.5788 39.8443 27.6501 39.6103 27.6051C39.456 27.5752 39.3447 27.6114 39.2514 27.7438C39.1529 27.883 39.0026 27.9579 38.8439 28.0173C38.6079 28.1055 38.3655 28.186 38.1661 28.3439C38.0864 28.4069 37.9608 28.4611 38.019 28.5923C38.0724 28.7119 38.1518 28.8315 38.3081 28.8315C38.4033 28.8315 38.4333 28.8407 38.4452 28.9539C38.4648 29.1373 38.6378 29.2255 38.7813 29.2928C39.0939 29.4396 39.3635 29.6118 39.4336 29.9735C39.5002 29.9635 39.5134 29.9368 39.5226 29.9025C39.5405 29.8319 39.5836 29.7669 39.6577 29.7829C39.7586 29.8036 39.7028 29.8889 39.6976 29.9479C39.6721 30.1943 39.7861 30.2797 40.0186 30.1804C40.1585 30.1206 40.2921 30.044 40.4332 29.987C40.5528 29.9396 40.6884 29.8961 40.7785 30.0269C40.8686 30.1577 40.8742 30.3012 40.7438 30.4228C40.7228 30.4461 40.7032 30.4708 40.6852 30.4966C40.8228 30.5285 40.887 30.44 40.9532 30.3638C41.0532 30.2486 41.1457 30.1246 41.2466 30.0121C41.3291 29.9184 41.3957 29.9392 41.4296 30.0556C41.4966 30.2919 41.5238 30.5376 41.5102 30.7829C41.5038 30.9104 41.4069 30.9762 41.3108 31.0384C41.1637 31.1333 40.9866 31.158 40.8323 31.2378C40.2701 31.5273 39.8056 31.9467 39.3678 32.3909C39.133 32.6301 39.1948 32.7896 39.5166 32.8901C39.6362 32.93 39.7614 32.9511 39.8846 32.9782C40.0344 33.009 40.1783 33.0636 40.3108 33.1401C40.5241 33.2661 40.5281 33.3079 40.3423 33.459C40.149 33.6222 39.988 33.8202 39.8678 34.0428C39.8005 34.1624 39.7997 34.2744 39.9133 34.3617C40.0728 34.4842 40.0935 34.6381 40.0572 34.8231C40.0378 34.9473 40.0295 35.073 40.0325 35.1987C40.0308 35.2104 40.0315 35.2225 40.0347 35.2339C40.0378 35.2454 40.0433 35.2561 40.0508 35.2654C40.0583 35.2746 40.0676 35.2822 40.0782 35.2877C40.0888 35.2932 40.1004 35.2964 40.1123 35.2971C40.1593 35.2991 40.1812 35.2593 40.1952 35.223C40.2626 35.0499 40.3323 34.8777 40.3918 34.7019C40.4472 34.5384 40.4998 34.3733 40.5911 34.2234C40.7323 33.9905 40.9057 33.9503 41.1238 34.1126C41.4396 34.3482 41.6023 34.6951 41.7462 35.0456C41.9001 35.4207 42.0057 35.814 42.0604 36.2158C42.1126 36.5874 41.9922 36.8027 41.6298 36.9139C41.2594 37.0276 41.0568 37.262 40.9827 37.6412C40.8834 38.1484 40.8152 38.6627 40.6485 39.1563C40.5082 39.5726 40.5074 39.583 40.0608 39.589C39.2901 39.5989 38.5194 39.6013 37.7483 39.6073C37.6685 39.6073 37.5888 39.6073 37.509 39.6117C37.1805 39.6264 37.1386 39.5818 37.2614 39.264C37.4608 38.7504 37.6801 38.2453 37.8862 37.7345C37.9541 37.5861 37.9691 37.419 37.9289 37.2608C37.759 37.5639 37.6769 37.8653 37.4771 38.1261C37.4149 38.0363 37.4221 37.9582 37.4181 37.8832C37.3503 36.5423 37.3711 35.1995 37.3384 33.8562C37.3232 33.2011 37.1653 32.5687 37.0728 31.926C37.0294 31.6238 36.9727 31.3235 36.9277 31.0213C36.8994 30.8299 36.8061 30.7055 36.6087 30.6624C36.1546 30.5667 35.775 30.3307 35.4213 30.0396C35.287 29.9288 35.1127 29.8893 34.9516 29.8287C34.8835 29.8032 34.8101 29.7888 34.7439 29.7601C34.6642 29.7251 34.5258 29.7203 34.5609 29.5983C34.59 29.4966 34.7112 29.5428 34.791 29.5584C35.1348 29.6327 35.4714 29.7378 35.7965 29.8722C35.9508 29.9342 36.0896 30.0295 36.2028 30.1513C36.4397 30.4009 36.7503 30.5205 37.0728 30.6086C37.2247 30.6485 37.3089 30.5687 37.2774 30.4156C37.2335 30.2011 37.1179 30.0365 36.9018 29.9627C36.8015 29.9272 36.6976 29.903 36.592 29.8905C35.9823 29.8267 35.4903 29.4444 34.9174 29.2773C34.4979 29.1549 34.0916 28.987 33.6781 28.8435C33.3336 28.7239 32.9748 28.7119 32.6152 28.7175C32.5937 28.7141 32.5718 28.7163 32.5515 28.724C32.5312 28.7317 32.5133 28.7446 32.4995 28.7614C32.6028 28.8905 32.7926 28.9236 32.8982 29.0803C32.7388 29.1373 32.6156 29.0779 32.4939 29.0405C31.6455 28.7681 30.8564 28.3419 30.0119 28.064C28.7894 27.6613 27.7572 26.9189 26.6754 26.2626C26.5199 26.1685 26.5255 26.1593 26.6443 26.015C26.4386 25.9855 26.2297 25.9852 26.0239 26.0142C26.7261 26.4233 27.4266 26.83 28.0973 27.2829C28.7679 27.7358 29.35 28.324 30.0909 28.737C29.9202 28.8168 29.7787 28.7972 29.6419 28.7992C28.0602 28.8208 26.4793 28.7721 24.8972 28.749C23.3624 28.7267 21.8278 28.699 20.2936 28.6661C19.8007 28.6561 19.786 28.6505 19.7692 28.1509C19.7353 27.1418 19.7202 26.1318 19.6955 25.1206C19.6871 24.7885 19.6839 24.4556 19.6588 24.1239C19.644 23.9357 19.6899 23.8786 19.8897 23.881C21.1388 23.8938 22.388 23.8918 23.6376 23.8942C23.7239 23.8971 23.8103 23.8949 23.8964 23.8874C23.9614 23.8798 24.061 23.9293 24.0814 23.8276C24.0977 23.7455 24.0124 23.7036 23.9526 23.6681C23.8059 23.5776 23.6516 23.4991 23.5056 23.4074C23.4434 23.3675 23.3258 23.3204 23.3792 23.2371C23.4375 23.1454 23.518 23.2431 23.5786 23.2846C23.7952 23.4388 24.0317 23.5631 24.2815 23.6542C24.3429 23.6753 24.4012 23.7088 24.4809 23.6677C24.2544 23.3886 23.9255 23.2407 23.6723 22.9971C24.0909 23.1123 24.4968 23.2566 24.8752 23.4712C25.1296 23.6151 25.3812 23.7638 25.6364 23.9058C25.689 23.9353 25.7584 24.0014 25.8114 23.9265C25.8557 23.8635 25.7915 23.8041 25.7524 23.7526C25.6933 23.6802 25.6185 23.6222 25.5335 23.5832C25.467 23.5536 25.4027 23.5191 25.3413 23.4799C25.2696 23.4281 25.142 23.3679 25.201 23.2742C25.2708 23.1613 25.3605 23.285 25.4334 23.322C25.8415 23.5284 26.1575 23.8802 26.319 24.3081C26.4147 24.5473 26.5183 24.7865 26.6156 25.0258C26.6555 25.1242 26.6954 25.2199 26.6236 25.3276C26.5578 25.4269 26.6551 25.4767 26.7161 25.5138C26.9199 25.6378 27.1248 25.763 27.3397 25.8663C28.1029 26.2327 28.8014 26.696 29.4844 27.1952C29.9601 27.5429 30.494 27.8096 31.0294 28.06C31.3644 28.2167 31.7129 28.3646 32.0996 28.3124C32.7463 28.2255 33.332 28.4268 33.9102 28.6768C34.4708 28.9192 35.0334 29.1573 35.6362 29.2781C35.8698 29.3308 36.1099 29.349 36.3488 29.3323C36.6039 29.3084 36.8499 29.377 37.0983 29.4188C37.2598 29.4459 37.4038 29.4188 37.5142 29.2873C37.6837 29.0879 37.6111 28.8578 37.3547 28.8088C37.0018 28.7498 36.6447 28.7195 36.287 28.7183C35.8618 28.7107 35.4397 28.6461 35.0318 28.5261C34.4146 28.3459 33.7882 28.1964 33.165 28.0361C33.0417 28.0088 32.9257 27.9553 32.8249 27.8794C32.2894 27.4579 31.677 27.1844 31.0263 27.0078C29.7308 26.6569 28.5606 26.0365 27.4107 25.3687C26.9593 25.1067 26.8242 24.6334 26.6419 24.194C26.5989 24.0896 26.6615 24.0513 26.7616 24.0509C27.014 24.0509 27.2663 24.0429 27.5191 24.0445C30.8152 24.0613 34.1113 24.0804 37.4073 24.1019C37.6099 24.1019 37.6565 24.0525 37.6565 23.8523C37.655 20.3239 37.6588 16.7955 37.6681 13.2671C37.6713 11.8852 37.6845 10.5032 37.6849 9.12048C37.6849 8.95301 37.7247 8.88922 37.9018 8.88444C39.2239 8.84775 40.5465 8.87766 41.8682 8.8657C41.9739 8.8657 42.0074 8.90557 42.005 9.00604C42.0006 9.2054 42.005 9.40476 42.005 9.60412C42.0079 13.1724 42.0108 16.7407 42.0137 20.3089C42.0137 21.598 42.0241 22.887 42.0185 24.1765C42.0185 24.3663 42.0652 24.4189 42.2578 24.4217C45.9121 24.4711 49.5661 24.5256 53.2197 24.5852C53.4721 24.5892 53.7245 24.5975 53.9773 24.6155C54.2085 24.6322 54.2385 24.7016 54.142 24.9105C54.0622 25.0868 53.8991 25.2231 53.8856 25.4384C54.3166 24.9875 54.5359 24.2981 55.3006 24.1876C55.2608 24.2957 55.181 24.3132 55.1268 24.3559C54.8477 24.5756 54.6292 24.8364 54.5786 25.2024C54.5502 25.4097 54.4191 25.5441 54.2791 25.6809C54.2261 25.7315 54.1196 25.7765 54.1994 25.8902C54.2719 25.997 54.3497 25.93 54.4274 25.9069L54.577 25.8623C54.4807 25.9793 54.3551 26.0688 54.2129 26.1214C54.1332 26.1545 54.0738 26.1741 54.187 26.2582C54.3908 26.4097 54.5925 26.3778 54.6507 26.1202C54.7372 25.743 54.9593 25.4121 54.9984 25.023C55.004 24.9675 55.0267 24.9133 55.0857 24.9033C55.2648 24.8691 55.2751 24.7323 55.2671 24.5975C55.2592 24.4628 55.3134 24.3635 55.4159 24.2726C55.6702 24.0481 55.9183 23.8176 56.2185 23.6538C56.3221 23.5933 56.4366 23.5537 56.5554 23.5373C56.5914 23.5297 56.6287 23.5327 56.663 23.5459C56.6974 23.559 56.7271 23.5818 56.7488 23.6115C56.8058 23.6889 56.7639 23.7463 56.7241 23.8109C56.6938 23.8591 56.6419 23.8982 56.6491 23.9783C56.7607 23.9528 56.8684 23.9249 56.9776 23.905C57.0219 23.8966 57.0809 23.8934 57.1008 23.9448C57.1208 23.9963 57.0654 24.0246 57.0283 24.0469C56.8022 24.1733 56.5737 24.2945 56.3477 24.4201C56.2635 24.4671 56.1838 24.521 56.0961 24.5756C56.1806 24.6693 56.2711 24.6502 56.3529 24.6518C57.0971 24.6669 57.8414 24.6802 58.5857 24.6916C59.2914 24.702 59.3337 24.7379 59.3361 25.4416C59.34 26.6178 59.3361 27.7941 59.3412 28.9699C59.3412 29.1015 59.3169 29.1545 59.1694 29.1541C56.5113 29.1496 53.8532 29.1484 51.195 29.1505C51.1504 29.1453 51.1069 29.1385 51.0164 29.131ZM38.7466 36.4606C38.6729 36.4606 38.6135 36.4706 38.5983 36.5443C38.5936 36.5621 38.5926 36.5807 38.5954 36.5989C38.5982 36.6171 38.6047 36.6346 38.6145 36.6501C38.6243 36.6657 38.6371 36.6791 38.6523 36.6895C38.6675 36.6999 38.6847 36.7071 38.7028 36.7106C38.8415 36.7505 38.9819 36.782 39.1238 36.8195C39.1884 36.8366 39.2622 36.8677 39.2997 36.7911C39.3371 36.7146 39.2813 36.6516 39.2219 36.6081C39.078 36.5041 38.9045 36.4889 38.7466 36.4606ZM25.1288 24.9073C24.9326 24.8695 24.7831 24.832 24.634 24.8914C24.575 24.9149 24.4881 24.9492 24.5543 25.0293C24.6288 25.1214 24.7281 25.212 24.8525 25.0911C24.9361 25.018 25.029 24.9562 25.1288 24.9073ZM37.8878 26.5796C37.7846 26.5685 37.6809 26.5961 37.5967 26.6569C37.4963 26.7175 37.517 26.83 37.4991 26.9229C37.4907 26.9703 37.5461 26.9767 37.5852 26.9811C37.698 26.9934 37.7522 26.9276 37.7873 26.8323C37.818 26.753 37.8511 26.6753 37.8894 26.5796H37.8878ZM38.4827 26.4101C38.4257 26.4193 38.3631 26.442 38.3679 26.5261C38.3668 26.5529 38.3762 26.579 38.3939 26.5991C38.4117 26.6191 38.4365 26.6315 38.4632 26.6338C38.4812 26.6343 38.4992 26.6312 38.516 26.6246C38.5329 26.6181 38.5483 26.6084 38.5613 26.5959C38.5744 26.5834 38.5848 26.5684 38.5921 26.5519C38.5993 26.5353 38.6032 26.5175 38.6035 26.4994C38.6107 26.436 38.5533 26.4173 38.4843 26.4101H38.4827ZM38.5951 26.1569C38.507 26.0792 38.4392 26.0074 38.3288 26.0373C38.2889 26.0477 38.2889 26.082 38.312 26.1147C38.3818 26.2048 38.4651 26.2267 38.5967 26.1569H38.5951ZM27.6982 26.6561C27.8153 26.8158 27.9785 26.9359 28.1659 27.0002C28.0361 26.8536 27.8767 26.7363 27.6982 26.6561Z" fill="white"/>
<path d="M40.0995 57.4236C39.9312 56.9726 39.8383 56.5181 39.7007 56.0763C39.8507 57.0113 40.1202 57.9272 40.1186 58.8873C40.2382 58.6903 40.3243 58.4977 40.3303 58.2625C40.3606 57.052 40.2865 55.8459 40.2107 54.6389C40.1828 54.1944 39.9878 53.7941 39.9021 53.363C39.8319 53.0118 39.7593 52.6609 39.7191 52.3048C39.7071 52.1988 39.6876 52.0752 39.8427 52.06C39.9898 52.0457 40.0209 52.1549 40.0508 52.2745C40.6569 54.6932 40.7797 57.1533 40.6856 59.6321C40.6708 60.0236 40.6979 60.4164 40.6457 60.8067C40.6317 60.9084 40.629 61.0061 40.4862 61.0152C40.4029 61.02 40.4065 61.095 40.412 61.154C40.4196 61.2736 40.412 61.4096 40.5576 61.4518C40.6736 61.4857 40.7091 61.5348 40.6704 61.6512C40.6441 61.7309 40.6832 61.8063 40.7031 61.8833C40.7441 62.037 40.7772 62.1927 40.8024 62.3498C40.8112 62.41 40.8821 62.5152 40.7023 62.5065C40.607 62.5017 40.5249 62.6528 40.4551 62.7493C40.4152 62.8067 40.3861 62.8458 40.3231 62.7744C40.2757 62.7202 40.2282 62.7541 40.1832 62.7864C40.0807 62.8597 39.979 62.9347 39.8746 63.0049C39.7701 63.075 39.6489 63.1863 39.5955 62.9466C39.4679 63.0336 39.4523 63.1576 39.4113 63.2656C39.3806 63.3454 39.3546 63.4315 39.2885 63.4905C39.2135 63.5579 39.2314 63.6101 39.2976 63.6683C39.3865 63.7481 39.4456 63.8593 39.43 63.9694C39.3965 64.2086 39.5269 64.4 39.5867 64.6121C39.6106 64.6966 39.6684 64.6882 39.7255 64.6874C40.1582 64.6899 40.5878 64.6139 40.9934 64.463C41.1042 64.4203 41.1975 64.3501 41.2234 64.2317C41.3526 63.6404 41.4451 63.0479 41.3674 62.4375C41.3052 61.9447 41.168 61.459 41.2035 60.9554C41.2266 60.6145 41.1828 60.2812 41.119 59.9467C41.0109 59.3833 41.0923 58.8203 41.162 58.2609C41.3658 56.6289 41.4057 54.9914 41.3829 53.3479C41.3777 52.989 41.2482 52.6601 41.1333 52.328C41.0368 52.0489 41.0536 52.0122 41.3287 51.8938C41.4383 51.8467 41.5484 51.8005 41.6596 51.7566C41.8678 51.6769 41.91 51.7004 41.9132 51.9225C41.9236 52.6465 41.9375 53.3706 41.9379 54.0951C41.9419 59.5836 41.9443 65.0726 41.9451 70.5622C41.9451 70.8165 41.9451 70.8169 41.6864 70.8169C40.231 70.8169 38.7757 70.8146 37.3208 70.8197C37.1681 70.8197 37.1174 70.7858 37.119 70.6236C37.1669 65.9394 37.2121 61.2551 37.2546 56.5707C37.2546 56.4344 37.2737 56.2976 37.2837 56.162C37.3658 56.162 37.3742 56.2163 37.3902 56.2545C37.8686 57.428 38.3834 58.5875 38.6968 59.8219C38.8562 60.4443 38.885 61.0806 38.9216 61.717C38.9268 61.8099 38.926 61.9036 38.9396 61.9961C38.9531 62.0886 38.9316 62.2134 39.0879 62.2058C39.2271 62.199 39.3311 62.138 39.367 61.9965C39.3977 61.8769 39.3722 61.7573 39.3483 61.6404C39.1772 60.8227 39.009 60.0057 38.8236 59.1887C38.6597 58.471 38.3403 57.798 38.1322 57.0915C37.7458 55.7805 37.3455 54.4731 37.1039 53.1246C37.0333 52.7323 37.0182 52.3551 37.2717 51.9986C37.4711 51.7195 37.4264 51.3762 37.4081 51.0509C37.4025 50.952 37.3284 50.9093 37.2426 50.9153C36.9197 50.9388 36.8339 50.716 36.804 50.4616C36.7395 49.9078 36.7311 49.3476 36.6015 48.8021C36.4217 48.0445 36.3284 47.2738 36.2785 46.4971C36.255 46.1295 36.1402 46.0697 36.6374 45.8887C36.5381 45.7607 36.3878 45.7172 36.2674 45.6331C36.1159 45.5274 36.0118 45.4074 36.0425 45.2041C36.064 45.0597 36.129 45.0079 36.2726 45.041C36.5309 45.1008 36.7889 45.169 37.0584 45.153C37.2737 45.1403 37.4795 45.106 37.6513 44.9274C37.5616 44.8695 37.4799 44.9042 37.4013 44.9166C37.1186 44.9601 36.8359 44.9963 36.5489 44.9593C36.4831 44.9505 36.4057 44.9517 36.3822 44.8755C36.3559 44.7886 36.436 44.7639 36.4922 44.7348C36.6545 44.6494 36.627 44.5506 36.5042 44.4636C36.1852 44.2376 36.265 44.0649 36.5616 43.8528C36.6812 43.7659 36.8264 43.7304 36.9552 43.6626C36.9898 43.6443 37.0349 43.6251 37.0329 43.5809C37.0329 43.5183 36.9703 43.5187 36.9288 43.5123C36.7259 43.4812 36.5206 43.4613 36.3184 43.425C36.1868 43.4015 36.0864 43.3345 36.0724 43.1798C36.0513 42.9489 36.0768 42.9162 36.3068 42.9043C36.5369 42.8923 36.7622 42.8835 37.0245 42.7962C36.9049 42.7316 36.8184 42.7496 36.7379 42.7408C36.5927 42.7248 36.446 42.7189 36.3021 42.6949C36.2199 42.681 36.1111 42.6642 36.0907 42.5701C36.068 42.4641 36.1793 42.4286 36.2502 42.3951C36.3551 42.3469 36.3698 42.2755 36.3655 42.1718C36.3463 41.9464 36.341 41.72 36.3495 41.494C36.3607 41.3142 36.4352 41.2691 36.5963 41.2815C36.7275 41.2918 36.8599 41.2839 37.0485 41.2839C36.8491 41.1459 36.9288 41.0474 37.0265 40.9649C37.4144 40.6313 37.8332 40.3356 38.2773 40.0817C38.5066 39.9537 38.7665 39.9725 39.007 39.8967C39.1226 39.86 39.176 39.9992 39.2418 40.0793C39.3076 40.1595 39.259 40.2153 39.2131 40.2735C39.1601 40.3413 39.1011 40.4047 39.05 40.4729C39.0153 40.5195 38.9703 40.5741 39.0269 40.6324C39.0483 40.6541 39.0762 40.6684 39.1063 40.6731C39.1365 40.6777 39.1674 40.6725 39.1944 40.6583C39.2535 40.6282 39.3068 40.5877 39.3515 40.5387C39.507 40.3624 39.6948 40.317 39.9256 40.3433C40.1321 40.3672 40.3431 40.3485 40.5524 40.3485C40.5564 40.3652 40.5604 40.382 40.5648 40.3991L39.7701 40.9418C39.9296 40.9737 40.0137 40.9067 40.0991 40.8572C40.3459 40.7137 40.5863 40.5598 40.8359 40.421C40.9707 40.3461 41.1281 40.2616 41.1656 40.5267C41.1705 40.5422 41.1788 40.5565 41.1899 40.5683C41.201 40.5802 41.2146 40.5894 41.2298 40.5953C41.4292 40.6651 41.3411 40.7352 41.2346 40.8102C41.1421 40.8756 41.052 40.9446 40.9324 40.9513C40.8857 40.9541 40.8323 40.9577 40.8223 41.0155C40.8211 41.0389 40.8259 41.0622 40.8363 41.0832C40.8467 41.1041 40.8624 41.122 40.8817 41.1351C40.9588 41.1998 41.0566 41.2346 41.1573 41.2332C41.2294 41.236 41.3247 41.2332 41.3395 41.3178C41.3542 41.4023 41.2521 41.4222 41.1923 41.4545C41.1342 41.4862 41.0709 41.5074 41.0053 41.5171C40.9212 41.5287 40.8411 41.4342 40.7466 41.5247C40.5727 41.6906 40.3211 41.7735 40.251 42.0458C40.1601 42.3987 39.936 42.6666 39.6712 42.9094C39.2613 43.2854 38.8614 43.6726 38.4679 44.0769C38.6465 44.1036 38.8008 44.0422 38.9464 43.9637C39.3666 43.7384 39.6664 43.3819 39.9535 43.0139C40.1856 42.7165 40.3821 42.3939 40.6042 42.0494C40.7075 42.2858 40.7011 42.5111 40.6951 42.7272C40.6795 43.3327 40.5525 43.9301 40.3203 44.4896C40.235 44.6961 40.1652 44.899 40.2928 45.1171C40.3375 45.1937 40.3247 45.2886 40.3012 45.3715C40.1477 45.9094 40.164 46.4624 40.1521 47.0131C40.1433 47.405 40.1457 47.7981 40.1122 48.1881C40.0831 48.6033 39.9382 49.0021 39.694 49.3392C39.4336 49.6896 39.3546 50.0469 39.5101 50.4556C39.539 50.5439 39.5567 50.6356 39.5628 50.7283C39.5811 50.8938 39.5301 50.936 39.371 50.8834C39.2119 50.8308 39.0895 50.7128 38.9723 50.5931C38.9324 50.5533 38.9005 50.4771 38.8319 50.5058C38.757 50.5377 38.7749 50.6159 38.7841 50.6821C38.8391 51.0904 38.9387 51.4915 39.0811 51.8782C39.1714 52.1205 39.2168 52.3772 39.2151 52.6358C39.2151 53.0078 39.2207 53.3798 39.2294 53.7522C39.2294 53.8152 39.1924 53.9208 39.3439 53.8929C39.4057 53.8814 39.4069 53.9831 39.4105 54.0397C39.4344 54.4041 39.4503 54.7693 39.483 55.133C39.4878 55.1868 39.381 55.4013 39.6174 55.2944C39.6345 55.2869 39.6876 55.3475 39.7171 55.3822C39.8411 55.5293 39.8953 55.7075 39.9244 55.8921C39.9978 56.3574 40.0652 56.8235 40.1337 57.2876C40.1401 57.3275 40.1636 57.3674 40.0995 57.4236ZM38.3535 50.4596C38.2454 50.826 38.0907 51.1793 38.0405 51.5628C38.0169 51.7427 37.9587 51.9125 37.8248 52.0449C37.7875 52.083 37.7593 52.1291 37.7423 52.1796C37.7252 52.2301 37.7198 52.2838 37.7263 52.3367C37.7422 52.623 37.6996 52.9061 37.674 53.1896C37.6601 53.3491 37.6342 53.5062 37.6489 53.6657C37.6852 54.0185 37.8666 54.1549 38.2103 54.0919C38.2696 54.0845 38.3283 54.0733 38.3862 54.0584C38.5138 54.0185 38.5907 54.0775 38.6453 54.1808C38.689 54.2627 38.7171 54.3519 38.7283 54.444C38.8028 55.042 38.808 55.6485 38.9228 56.243C38.9842 56.5648 39.0369 56.8877 39.0959 57.2238C39.1561 57.1804 39.1357 57.1469 39.1318 57.1178C39.072 56.4507 39.0121 55.7837 38.9515 55.1162C38.859 54.072 38.7554 53.0301 38.3889 52.0349C38.2813 51.7419 38.2797 51.4408 38.3407 51.1338C38.3893 50.9121 38.3936 50.683 38.3535 50.4596ZM39.1649 63.3992L38.9149 62.768C38.8905 63.0212 39.0237 63.2118 39.1649 63.3992Z" fill="white"/>
<path d="M41.8837 48.161C41.8091 48.5198 41.835 48.8308 41.8039 49.1379C41.7724 49.4568 41.7425 49.771 41.6843 50.0848C41.6373 50.3296 41.5093 50.5079 41.3171 50.6538C41.2388 50.7147 41.1642 50.7802 41.0938 50.85C40.9626 50.9772 40.9511 51.1131 41.0747 51.2535C41.1365 51.324 41.1919 51.399 41.2027 51.4959C41.211 51.5704 41.2126 51.6482 41.1285 51.6829C41.0551 51.7128 40.9973 51.6689 40.9562 51.6151C40.7533 51.3581 40.6322 51.0462 40.6086 50.7196C40.5635 50.086 40.6169 49.4668 40.8279 48.8572C41.4 47.2025 41.7529 45.4972 41.9511 43.7584C41.9754 43.5006 42.029 43.2465 42.1105 43.0008C42.1302 42.9233 42.1695 42.8522 42.2246 42.7943C42.3067 43.053 42.3043 43.3046 42.335 43.5518C42.4367 44.4214 42.6054 45.2819 42.6887 46.1543C42.7529 46.8225 42.76 47.4927 42.7792 48.1626C42.782 48.1921 42.778 48.2218 42.7674 48.2495C42.7568 48.2772 42.74 48.302 42.7182 48.3221C42.591 48.4389 42.471 48.5637 42.3386 48.6742C42.1859 48.8013 42.1161 48.7822 42.0428 48.6016C41.9885 48.4732 41.9487 48.3424 41.8837 48.161Z" fill="white"/>
<path d="M39.5023 28.558C39.6039 28.5652 39.6701 28.5692 39.7363 28.5752C40.0473 28.6031 40.0553 28.6083 40.0031 28.9232C39.9847 29.0349 40.0118 29.1047 40.1183 29.139C40.2566 29.184 40.3117 29.2729 40.2618 29.4133C40.2271 29.5106 39.9855 29.6553 39.903 29.629C39.8017 29.5967 39.8695 29.5337 39.8846 29.4858C39.9098 29.4061 40.027 29.3196 39.8791 29.2586C39.7594 29.2091 39.6482 29.2287 39.5808 29.3682C39.4859 29.5676 39.4504 29.5676 39.3272 29.3889C39.2723 29.2981 39.2112 29.2113 39.1442 29.129C39.0282 29.0038 38.9867 28.8826 39.0669 28.7167C39.147 28.5508 39.2766 28.5572 39.4185 28.5572C39.458 28.5588 39.4979 28.558 39.5023 28.558Z" fill="white"/>
<path d="M48.1809 29.1976C47.9488 29.3351 47.722 29.383 47.5055 29.4527C46.6857 29.7163 45.8655 29.9799 45.0246 30.1704C44.9466 30.1852 44.8676 30.194 44.7882 30.1968C44.7559 30.1987 44.7196 30.1924 44.712 30.1501C44.7092 30.1338 44.7119 30.117 44.7199 30.1025C44.7279 30.088 44.7406 30.0767 44.7559 30.0704C44.8149 30.0408 44.8766 30.0169 44.9401 29.999C45.9174 29.7598 46.9038 29.5516 47.8591 29.2279C47.9615 29.1881 48.0729 29.1777 48.1809 29.1976Z" fill="white"/>
<path d="M38.7304 39.825C38.0677 39.9318 37.553 40.2636 37.0642 40.6471C36.9234 40.7576 36.7879 40.8756 36.6256 40.9577C36.5327 41.0048 36.4398 41.0152 36.3863 40.9103C36.3373 40.8146 36.4162 40.7632 36.486 40.7233C36.9916 40.433 37.4784 40.1105 37.9984 39.8461C38.1106 39.7866 38.235 39.7538 38.3619 39.7501C38.4889 39.7464 38.615 39.7721 38.7304 39.825Z" fill="white"/>
<path d="M41.8361 33.7062C41.5771 33.705 41.3226 33.639 41.0957 33.514C41.0359 33.4825 40.9761 33.4371 40.9932 33.3605C41.0104 33.284 41.0837 33.2652 41.1503 33.266C41.5159 33.2708 41.8724 33.3458 42.2269 33.4255C42.2711 33.4359 42.3217 33.4582 42.3273 33.5096C42.3341 33.5694 42.2851 33.6013 42.2396 33.6292C42.1148 33.7066 41.9753 33.705 41.8361 33.7062Z" fill="white"/>
<path d="M36.8716 39.9187C36.9877 39.9163 37.0822 39.9063 37.1077 40.0032C37.1304 40.0913 37.0419 40.1228 36.9817 40.1591C36.8266 40.2496 36.6671 40.3338 36.4849 40.3525C36.3597 40.3653 36.2245 40.3477 36.1946 40.2066C36.1619 40.0527 36.2907 40.0072 36.4151 39.9857C36.5786 39.9582 36.7428 39.937 36.8716 39.9187Z" fill="white"/>
<path d="M39.8356 63.8988C39.8356 63.8453 39.8356 63.7991 39.8356 63.7524C39.8356 63.6847 39.8395 63.6117 39.9185 63.5902C39.9974 63.5686 40.0014 63.6579 40.0381 63.6962C40.2199 63.8804 40.2714 64.1045 40.2347 64.3541C40.2227 64.4338 40.202 64.5244 40.1151 64.5455C40.0154 64.5702 39.9907 64.4701 39.9524 64.4047C39.8601 64.253 39.8192 64.0756 39.8356 63.8988Z" fill="white"/>
<path d="M43.2644 40.9322C43.26 41.0119 43.2361 41.0915 43.1051 41.0879C42.9279 41.0808 42.675 40.9482 42.6758 40.8558C42.6758 40.7924 42.9498 40.5873 43.0442 40.5794C43.1386 40.5714 43.2592 40.7462 43.2644 40.9322Z" fill="white"/>
<path d="M41.8292 37.6997C41.834 37.8316 41.5104 38.2656 41.4 38.295C41.3032 38.321 41.2678 38.2552 41.2893 38.1871C41.3566 37.9723 41.4487 37.7663 41.6049 37.5981C41.6387 37.5618 41.6814 37.5439 41.728 37.579C41.7729 37.6084 41.8081 37.6504 41.8292 37.6997Z" fill="white"/>
<path d="M50.3111 28.8365C50.2597 28.8333 50.2067 28.8492 50.1832 28.7942C50.1653 28.7516 50.1948 28.7177 50.2203 28.689C50.3331 28.5682 50.4793 28.4837 50.6403 28.4463C50.6795 28.436 50.7213 28.4409 50.7569 28.4603C50.7926 28.4796 50.8196 28.5118 50.8324 28.5503C50.8674 28.636 50.7861 28.6631 50.7311 28.6922C50.5993 28.7613 50.4577 28.81 50.3111 28.8365Z" fill="white"/>
<path d="M38.7285 25.546C38.9768 25.3332 39.2601 25.3994 39.5311 25.799C39.2382 25.7632 38.9971 25.6329 38.7285 25.546Z" fill="white"/>
<path d="M41.7575 27.3574C41.8647 27.3423 41.9121 27.3594 41.9093 27.4427C41.9065 27.5347 41.916 27.633 41.8236 27.6904C41.7886 27.7127 41.7687 27.6736 41.7516 27.6458C41.7249 27.6016 41.7822 27.5048 41.6835 27.512C41.6466 27.5134 41.6111 27.526 41.5815 27.548C41.5519 27.5701 41.5297 27.6005 41.5178 27.6354C41.5015 27.6864 41.4975 27.7469 41.4266 27.7418C41.3656 27.7374 41.3429 27.6836 41.3242 27.6334C41.312 27.6058 41.3112 27.5744 41.322 27.5462C41.3329 27.518 41.3544 27.4952 41.382 27.4829C41.4994 27.4207 41.6263 27.3783 41.7575 27.3574Z" fill="white"/>
<path d="M39.1774 28.1491C39.1324 28.1443 39.083 28.1606 39.0682 28.1092C39.0586 28.0754 39.0889 28.0499 39.1164 28.0315C39.2683 27.9266 39.4361 27.8467 39.6133 27.7948C39.6564 27.7833 39.713 27.7697 39.7373 27.8211C39.7616 27.8725 39.7229 27.9223 39.6807 27.9554C39.5335 28.0643 39.3596 28.1313 39.1774 28.1491Z" fill="white"/>
<path d="M41.6956 27.0109C41.5362 27.0344 41.4083 27.0547 41.2788 27.0726C41.1919 27.085 41.1066 27.087 41.0552 26.9929C41.0436 26.9769 41.0367 26.958 41.0354 26.9382C41.0341 26.9185 41.0383 26.8988 41.0477 26.8814C41.072 26.8415 41.1118 26.8451 41.1521 26.8567C41.3266 26.9081 41.5015 26.9567 41.6956 27.0109Z" fill="white"/>
<path d="M43.8624 32.0104C43.8325 32.1048 43.8011 32.2179 43.7596 32.329C43.7552 32.3415 43.7481 32.353 43.7389 32.3626C43.7297 32.3722 43.7185 32.3798 43.7062 32.3848C43.6939 32.3898 43.6806 32.3921 43.6673 32.3916C43.654 32.3911 43.641 32.3879 43.629 32.382C43.5721 32.3613 43.5784 32.3119 43.5892 32.2665C43.6124 32.1504 43.6651 32.0422 43.7421 31.9522C43.7628 31.928 43.7879 31.9029 43.825 31.9124C43.862 31.922 43.8576 31.9586 43.8624 32.0104Z" fill="white"/>
<path d="M41.3581 28.1444C41.3453 28.2211 41.3278 28.3113 41.2307 28.3117C41.1109 28.3117 41.0626 28.2155 41.0534 28.112C41.0454 28.0238 41.1129 27.9866 41.1948 27.9866C41.2942 27.9878 41.3549 28.035 41.3581 28.1444Z" fill="white"/>
<path d="M41.749 50.7686C41.7706 50.9187 41.8101 51.064 41.6292 51.1279C41.5673 51.1499 41.4771 51.1423 41.4695 51.058C41.4571 50.8732 41.6009 50.8237 41.749 50.7686Z" fill="white"/>
<path d="M41.2102 38.9469C41.2501 38.816 41.3048 38.6887 41.4536 38.6372C41.4804 38.628 41.5031 38.6432 41.5135 38.6731C41.5315 38.7242 41.3538 39.0271 41.286 39.0555C41.27 39.0623 41.2461 39.0679 41.2341 39.0603C41.1962 39.0331 41.2042 38.9908 41.2102 38.9469Z" fill="white"/>
<path d="M40.4667 64.3544C40.3652 64.2401 40.3835 64.1322 40.3851 64.0306C40.3851 63.9781 40.3739 63.8944 40.4572 63.8972C40.5289 63.8992 40.5368 63.9793 40.5444 64.0334C40.5623 64.1398 40.5213 64.2349 40.4667 64.3544Z" fill="white"/>
<path d="M40.7129 63.8257C40.7241 63.7538 40.6945 63.6489 40.8047 63.6393C40.8845 63.6325 40.912 63.7155 40.904 63.7814C40.8941 63.8612 40.8809 63.9761 40.7843 63.9845C40.7085 63.9909 40.7225 63.8895 40.7129 63.8257Z" fill="white"/>
<path d="M49.8348 28.9915C49.8132 29.0738 49.7549 29.1061 49.675 29.1113C49.6055 29.1157 49.5325 29.1017 49.5313 29.0179C49.5301 28.934 49.6043 28.9192 49.6722 28.9156C49.7401 28.912 49.8036 28.9124 49.8348 28.9915Z" fill="white"/>
<path d="M41.0318 64.3232C41.0155 64.3981 40.9569 64.4298 40.8781 64.4298C40.8326 64.4298 40.7704 64.4187 40.7803 64.3636C40.7982 64.2646 40.8892 64.2449 40.974 64.235C41.0234 64.2294 41.0373 64.269 41.0318 64.3232Z" fill="white"/>
<path d="M38.8876 28.9559C38.9544 28.9611 38.9774 29.0056 38.9778 29.0617C38.9792 29.0731 38.9782 29.0846 38.9749 29.0956C38.9716 29.1065 38.966 29.1166 38.9585 29.1253C38.951 29.134 38.9417 29.1409 38.9314 29.1458C38.921 29.1507 38.9098 29.1533 38.8983 29.1536C38.8371 29.1576 38.7965 29.1281 38.7969 29.0649C38.7964 29.0389 38.8052 29.0135 38.8219 28.9935C38.8386 28.9735 38.8619 28.9601 38.8876 28.9559Z" fill="white"/>
<path d="M33.5078 13.6673C32.8895 13.6673 32.334 13.2375 32.1983 12.6091C32.0425 11.8853 32.5024 11.1715 33.2263 11.0132C35.2746 10.5708 37.3834 10.3446 39.4996 10.3446C40.241 10.3446 40.8417 10.9453 40.8417 11.6867C40.8417 12.4282 40.241 13.0289 39.4996 13.0289C37.5769 13.0289 35.6567 13.2325 33.7943 13.6371C33.6988 13.6572 33.6033 13.6673 33.5103 13.6673H33.5078Z" fill="#92CAFF"/>
<path d="M5.20196 40.9626C4.70683 40.9626 4.30469 40.5605 4.30469 40.0653C4.30217 25.1661 13.7172 11.7725 27.7317 6.73821C27.8297 6.70302 27.9328 6.68542 28.0358 6.68542C28.4128 6.68542 28.7546 6.92419 28.8828 7.28109C29.0512 7.74858 28.8074 8.26381 28.3399 8.4297C15.0367 13.2101 6.09923 25.9227 6.09923 40.0628C6.09923 40.558 5.69709 40.9601 5.20196 40.9601V40.9626Z" fill="#167CDC"/>
<path d="M32.3666 7.241C31.9469 7.241 31.5799 6.94191 31.4894 6.53223C31.3839 6.04715 31.693 5.56961 32.1781 5.46405C34.6361 4.93122 37.1671 4.66229 39.7031 4.66229C40.1982 4.66229 40.6029 5.06443 40.6029 5.55956C40.6029 6.05469 40.2007 6.45683 39.7031 6.45683C37.2953 6.45683 34.89 6.71319 32.5576 7.21838C32.4948 7.23094 32.4294 7.23848 32.3666 7.23848V7.241Z" fill="#167CDC"/>
</svg>
