<svg width="23" height="21" viewBox="0 0 23 21" fill="none" xmlns="http://www.w3.org/2000/svg">
<path d="M15.9037 0H2.60097C1.16662 0 0 1.16662 0 2.60097V14.2582C0 14.8103 0.624368 15.1215 1.0651 14.8067L4.7698 12.1635C5.08066 11.942 5.44632 11.8248 5.82816 11.8248H13.9765C15.4109 11.8248 16.5775 10.6581 16.5775 9.2238V0.673827C16.5775 0.301875 16.2756 0 15.9037 0ZM12.6307 8.16274H4.84527C4.47331 8.16274 4.17144 7.86132 4.17144 7.48892C4.17144 7.11696 4.47331 6.81509 4.84527 6.81509H12.6307C13.0026 6.81509 13.3045 7.11696 13.3045 7.48892C13.3045 7.86132 13.0026 8.16274 12.6307 8.16274ZM12.6307 5.01822H4.84527C4.47331 5.01822 4.17144 4.71679 4.17144 4.34439C4.17144 3.97244 4.47331 3.67056 4.84527 3.67056H12.6307C13.0026 3.67056 13.3045 3.97244 13.3045 4.34439C13.3045 4.71679 13.0026 5.01822 12.6307 5.01822Z" fill="#3882C7"/>
<path d="M22.9994 7.82762V19.4844C22.9994 20.0327 22.3781 20.3499 21.9343 20.0329L18.2296 17.3901C17.9187 17.1687 17.5531 17.0514 17.1712 17.0514H9.02285C7.58849 17.0514 6.42188 15.8843 6.42188 14.45V13.1724H13.9759C16.1533 13.1724 17.9246 11.4011 17.9246 9.22379V5.2262H20.3984C21.8328 5.2262 22.9994 6.39326 22.9994 7.82762Z" fill="#A6D4FF"/>
</svg>
