<svg width="45" height="45" viewBox="0 0 45 45" fill="none" xmlns="http://www.w3.org/2000/svg">
<rect width="44.2895" height="44.2895" rx="8" fill="url(#paint0_linear_149_1712)"/>
<path d="M19.1771 20.3066C22.5903 20.3066 25.3573 17.5635 25.3573 14.1796C25.3573 10.7958 22.5903 8.05264 19.1771 8.05264C15.7639 8.05264 12.9969 10.7958 12.9969 14.1796C12.9969 17.5635 15.7639 20.3066 19.1771 20.3066Z" fill="white"/>
<path d="M22.3092 33.541C21.6652 32.4357 21.7938 31.0742 22.5601 30.1098C21.7938 29.1455 21.6652 27.7853 22.3092 26.6787L23.3092 24.9632C23.8592 24.0184 24.8851 23.4314 25.9864 23.4314C26.1372 23.4314 26.2855 23.4424 26.4326 23.4633C26.4734 23.3628 26.5253 23.2684 26.576 23.1728C25.9086 22.9118 25.1879 22.7574 24.4303 22.7574H13.9239C10.6867 22.7574 8.05273 25.3688 8.05273 28.5781V32.867C8.05273 33.3743 8.46804 33.786 8.97976 33.786H22.4514L22.3092 33.541Z" fill="white"/>
<path d="M34.8785 30.6846C34.9032 30.4946 34.9366 30.3059 34.9366 30.1098C34.9366 29.9126 34.902 29.7251 34.8785 29.5351L35.9922 28.6994C36.2406 28.5131 36.3098 28.1725 36.1541 27.9041L35.1541 26.1886C34.9984 25.9214 34.6659 25.8099 34.3791 25.93L33.0973 26.4655C32.7846 26.229 32.4521 26.0207 32.085 25.8687L31.9145 24.5196C31.8749 24.2132 31.6129 23.9828 31.3014 23.9828H29.3027C28.9912 23.9828 28.728 24.2132 28.6896 24.5196L28.5191 25.8687C28.152 26.0207 27.8182 26.2302 27.5067 26.4655L26.225 25.93C25.9382 25.8099 25.6057 25.9202 25.45 26.1886L24.45 27.9041C24.2943 28.1713 24.3635 28.5119 24.6119 28.6994L25.7256 29.5351C25.7009 29.7251 25.6675 29.9138 25.6675 30.1098C25.6675 30.3071 25.7021 30.4946 25.7256 30.6846L24.6119 31.5203C24.3635 31.7065 24.2943 32.0472 24.45 32.3156L25.45 34.0324C25.6057 34.2995 25.9382 34.411 26.225 34.2909L27.5067 33.7542C27.8195 33.9907 28.152 34.199 28.5191 34.351L28.6896 35.7001C28.728 36.0065 28.99 36.2368 29.3015 36.2368H31.3001C31.6116 36.2368 31.8749 36.0065 31.9132 35.7001L32.0838 34.351C32.4509 34.199 32.7846 33.9895 33.0961 33.7542L34.3779 34.2897C34.6646 34.4098 34.9971 34.2995 35.1529 34.0311L36.1528 32.3143C36.3086 32.0472 36.2394 31.7065 35.9909 31.5191L34.8785 30.6846ZM30.3014 32.5606C28.9356 32.5606 27.8294 31.4639 27.8294 30.1098C27.8294 28.7558 28.9356 27.659 30.3014 27.659C31.6673 27.659 32.7735 28.7558 32.7735 30.1098C32.7735 31.4639 31.6673 32.5606 30.3014 32.5606Z" fill="white"/>
<defs>
<linearGradient id="paint0_linear_149_1712" x1="44.2895" y1="2.68713" x2="-0.739038" y2="3.56164" gradientUnits="userSpaceOnUse">
<stop stop-color="#3A6FA0"/>
<stop offset="0.99" stop-color="#3882C7"/>
</linearGradient>
</defs>
</svg>
