<svg width="196" height="196" viewBox="0 0 196 196" fill="none" xmlns="http://www.w3.org/2000/svg">
<path d="M98 196C152.124 196 196 152.124 196 98C196 43.8761 152.124 3.91941e-06 97.9999 1.33827e-05C43.8761 2.2846e-05 7.67154e-06 43.8761 1.71349e-05 98C2.65982e-05 152.124 43.8761 196 98 196Z" fill="url(#paint0_linear_1014_12109)"/>
<path d="M163.634 91.0984C164.151 92.4422 164.116 93.8714 164.298 95.2681C164.68 98.1943 164.69 101.132 164.619 104.07C164.564 106.369 164.345 108.657 164.098 110.945C163.891 112.866 163.608 114.771 163.251 116.659C162.735 119.339 162.072 121.988 161.263 124.594C160.122 128.283 158.719 131.886 157.065 135.375C156.093 137.438 154.973 139.417 153.876 141.416C153.784 141.581 153.677 141.74 153.503 141.726C153.249 141.704 153.345 141.477 153.355 141.317C153.406 137.5 152.975 133.727 152.252 129.987C151.298 125.087 149.765 120.317 147.684 115.779C145.432 110.834 142.527 106.302 139.139 102.077C137.172 99.6294 134.942 97.4119 132.64 95.277C132.288 94.9794 132.042 94.5756 131.94 94.1263C131.608 92.6529 131.144 91.2148 130.668 89.7798C130.242 88.4891 130.452 87.1203 130.27 85.7928C129.582 80.7302 127.453 76.4809 123.394 73.2778C122.056 72.2228 120.484 71.8412 118.853 71.6261C118.43 71.5636 118.035 71.3781 117.717 71.0927C115.41 69.2731 112.921 67.7997 110.035 67.063C109.247 66.8656 108.441 66.817 107.651 66.6534C107.492 66.621 107.265 66.7182 107.194 66.5164C107.109 66.2747 107.341 66.1922 107.499 66.0832C109.203 64.9125 110.642 63.3977 111.725 61.6365C112.551 60.2707 113.779 59.2791 114.711 58.0164C117.693 53.9881 118.768 49.4869 118.077 44.5526C117.673 41.678 116.513 39.1172 114.735 36.8217C114.051 35.9376 114.053 34.9564 114.588 33.9913C114.843 33.5418 115.226 33.1781 115.688 32.9462C116.15 32.7144 116.671 32.6248 117.184 32.6888C123.322 33.4255 128.754 35.8537 133.715 39.4944C139.314 43.6096 144.041 48.5734 148.203 54.1134C154.459 62.4551 159.097 71.8948 161.877 81.9443C162.688 84.8601 163.24 87.8275 163.834 90.7846C163.874 90.9835 163.878 91.1308 163.616 91.1191C163.621 91.0952 163.621 91.0707 163.616 91.0469C159.877 83.2629 153.635 78.8767 145.187 77.5594C141.996 77.0614 138.778 77.2147 135.572 77.5079C133.419 77.7038 131.274 77.7642 129.148 77.2692C128.588 77.1381 128.031 76.9907 127.472 76.8507C128.009 77.3473 128.651 77.6994 129.307 77.7259C130.982 77.7937 131.845 78.8722 132.629 80.1187C132.877 80.5136 133.163 80.8819 133.407 81.2768C134.792 83.5046 136.136 85.7544 136.46 88.4301C136.817 91.2947 137.326 94.1384 137.984 96.9493C138.187 97.8333 138.233 98.7674 138.711 99.5807C138.564 98.5494 138.346 97.518 138.157 96.494C137.696 93.9892 137.101 91.5139 136.915 88.9664C136.805 87.6974 136.505 86.4522 136.024 85.2727C135.109 82.9749 133.895 80.8075 132.414 78.8266C132.326 78.7072 132.205 78.5923 132.267 78.4361C132.343 78.2549 132.519 78.33 132.648 78.3536C133.624 78.526 134.608 78.4582 135.588 78.4479C135.767 78.4291 135.948 78.4656 136.106 78.5525C136.264 78.6394 136.392 78.7726 136.472 78.9341C137.337 80.3854 138.197 81.8396 138.922 83.3676C140.826 87.3811 142.277 91.511 142.09 96.0387C142.066 96.6001 141.969 97.157 141.925 97.7169C141.805 99.4075 141.87 101.106 142.119 102.782C142.236 103.619 142.197 104.508 142.648 105.287C142.692 105.072 142.692 104.851 142.648 104.636C142.038 102.143 142.137 99.5984 142.318 97.0907C142.52 94.2913 142.334 91.5788 141.567 88.8928C140.565 85.389 139.062 82.1152 137.207 78.9813C137.125 78.8428 136.921 78.7382 137.016 78.5393C137.11 78.3403 137.318 78.4435 137.475 78.4435C138.311 78.4435 139.145 78.4641 139.98 78.4435C140.137 78.4233 140.296 78.4601 140.428 78.5471C140.56 78.6342 140.657 78.7657 140.7 78.9179C141.054 79.8019 141.452 80.6727 141.808 81.5597C144.166 87.4356 145.847 93.4942 146.609 99.7959C146.961 102.693 147.045 105.617 146.858 108.53C146.761 110.052 146.961 111.551 147.175 113.049C147.384 112.175 147.094 111.316 147.127 110.45C147.2 108.613 147.359 106.774 147.345 104.938C147.314 101.36 146.934 97.7938 146.209 94.2898C145.161 89.0475 143.545 83.9347 141.391 79.0417C141.162 78.526 141.302 78.442 141.78 78.4788C143.466 78.6115 145.132 78.8737 146.79 79.164C147.198 79.2347 147.379 79.4469 147.5 79.7961C148.601 82.955 149.595 86.1449 150.311 89.4129C150.885 92.0355 151.411 94.667 151.68 97.3471C151.931 99.8342 152.212 102.311 152.253 104.817C152.308 108.041 151.858 111.231 151.733 114.443C151.663 116.229 151.686 118.025 151.396 119.802C151.321 120.26 151.384 120.74 151.384 121.26C151.661 121.139 151.618 121.005 151.624 120.89C151.707 119.374 151.708 117.848 151.886 116.342C152.284 112.977 152.449 109.594 152.563 106.218C152.731 101.285 152.206 96.3894 151.26 91.5375C150.507 87.6669 149.573 83.8523 148.228 80.1423C148.163 79.9625 148.031 79.7607 148.2 79.6016C148.347 79.466 148.527 79.6016 148.68 79.6561C150.336 80.18 151.946 80.8404 153.492 81.6304C153.677 81.7216 153.839 81.8535 153.965 82.016C154.091 82.1786 154.179 82.3676 154.222 82.569C156 89.1388 156.977 95.8398 157.351 102.622C157.615 107.382 157.275 112.13 156.651 116.855C156.212 120.251 155.587 123.621 154.78 126.949C154.748 127.026 154.743 127.112 154.766 127.192C154.789 127.273 154.839 127.343 154.907 127.391C155.154 126.43 155.431 125.511 155.626 124.572C156.199 121.792 156.718 119.004 157.089 116.184C157.431 113.683 157.643 111.166 157.724 108.642C157.886 102.65 157.6 96.6855 156.556 90.7684C156.096 88.1649 155.632 85.5644 154.91 83.0184C154.872 82.8813 154.752 82.731 154.897 82.6146C155.078 82.4673 155.212 82.6471 155.339 82.7369C157.789 84.3807 159.965 86.4005 161.786 88.7219C162.408 89.5086 162.85 90.4369 163.634 91.0984ZM131.423 75.9034C130.594 74.9869 129.609 74.2252 128.872 73.2247C128.283 72.4173 127.73 71.5613 127.055 70.8275C125.028 68.6248 122.441 67.2207 119.806 65.8961C119.582 65.7826 119.143 65.7281 119.463 65.292C119.666 65.015 119.781 64.6378 120.304 64.9443C121.888 65.871 123.516 66.7227 125.037 67.7526C126.6 68.8105 128.185 69.8654 129.255 71.4699C130.178 72.852 131.318 74.0189 132.528 75.1416C132.97 75.5512 133.451 75.9093 133.915 76.2894C132.815 75.0871 131.595 74.0159 130.606 72.7297C129.666 71.5082 128.803 70.2249 127.659 69.1759C125.583 67.2693 123.186 65.8445 120.735 64.4919C120.427 64.3225 120.129 64.2533 120.424 63.7553C120.718 63.2572 120.905 63.3825 121.277 63.6005C122.897 64.5583 124.518 65.5277 126.07 66.5989C128.194 68.0634 130.195 69.6459 131.654 71.8501C132.722 73.4619 134.232 74.6996 135.692 75.9608C134.247 74.4064 132.759 72.8962 131.537 71.1487C130.839 70.1399 130.031 69.2118 129.127 68.3817C126.812 66.2718 124.209 64.5745 121.504 63.0274C121.062 62.774 121.05 62.5854 121.274 62.1743C121.526 61.7117 121.732 61.9282 122.019 62.1051C123.796 63.1939 125.555 64.3151 127.241 65.5322C129.246 66.982 131.325 68.3832 132.747 70.4621C134.005 72.2994 135.51 73.8951 137.101 75.4275C137.262 75.5822 137.446 75.7133 137.62 75.8562C136.323 74.3018 134.854 72.9094 133.721 71.2474C132.956 70.1061 132.076 69.0461 131.095 68.0841C128.443 65.5086 125.39 63.4562 122.262 61.5201C121.772 61.2166 121.844 60.9779 122.052 60.5875C122.339 60.0482 122.598 60.4843 122.806 60.6184C125.13 62.1227 127.421 63.6772 129.621 65.3583C131.374 66.7006 133.17 68.034 134.424 69.8787C135.854 71.9856 137.571 73.8229 139.364 75.6043C139.472 75.7118 139.535 75.9461 139.783 75.8665C138.496 74.4093 137.161 73.0037 135.971 71.4729C135.174 70.4489 134.534 69.3114 133.63 68.364C131.194 65.8121 128.389 63.7155 125.526 61.694C124.642 61.0737 123.758 60.4534 122.84 59.895C122.313 59.5738 122.666 59.2629 122.768 58.9653C122.892 58.5999 123.126 58.756 123.344 58.9107C125.8 60.6567 128.289 62.3555 130.664 64.215C132.519 65.6648 134.452 67.0571 135.862 68.9652C136.926 70.4047 137.951 71.8677 139.156 73.1938C139.868 73.9776 140.535 74.8042 141.384 75.4525C140.668 74.5493 139.92 73.6771 139.159 72.8151C137.972 71.4714 137.083 69.8963 135.947 68.5246C133.552 65.6309 130.516 63.4355 127.539 61.1945C126.21 60.1926 124.857 59.2211 123.481 58.2801C122.959 57.9221 123.273 57.5803 123.434 57.2812C123.661 56.8627 123.868 57.2429 124.061 57.3814C127.156 59.5914 130.219 61.8354 133.171 64.2297C134.792 65.5425 136.487 66.8125 137.667 68.5467C138.779 70.1608 139.974 71.7167 141.246 73.2085C141.835 73.9143 142.492 74.5699 143.118 75.2477C141.792 73.4104 140.235 71.7587 138.972 69.8875C138.088 68.5865 137.239 67.2943 136.073 66.2143C132.321 62.746 128.253 59.6784 124.138 56.6741C123.843 56.4575 123.661 56.2513 123.88 55.8977C124.135 55.491 124.358 55.8549 124.534 55.9699C127.577 57.9442 130.565 59.9952 133.407 62.2509C135.6 63.991 137.827 65.7296 139.467 68.0119C140.793 69.8595 142.068 71.7484 143.428 73.5754C143.722 73.9806 144.051 74.3696 144.363 74.7659C144.353 74.5086 144.259 74.2618 144.095 74.0631C142.964 72.4645 141.792 70.8909 140.706 69.2598C139.946 68.115 139.233 66.951 138.258 65.9653C135.703 63.3707 132.824 61.165 129.909 59.0021C128.16 57.7026 126.386 56.4369 124.549 55.2641C124.201 55.0431 124.129 54.8221 124.306 54.4906C124.498 54.1266 124.71 54.3712 124.904 54.4906C128.185 56.4472 131.378 58.5336 134.388 60.8939C136.825 62.8093 139.198 64.7955 141.095 67.256C142.197 68.6867 143.111 70.2632 144.116 71.7705C144.922 72.9802 145.737 74.1824 146.565 75.4142C146.712 75.2064 146.609 75.1195 146.547 75.0193C145.448 73.3087 144.329 71.6114 143.254 69.886C141.941 67.782 140.571 65.737 138.738 64.0249C134.564 60.1263 129.898 56.8951 125.059 53.9042C124.667 53.6625 124.484 53.4135 124.705 53.0319C124.956 52.6017 125.209 53.0157 125.423 53.1292C129.868 55.4693 134.042 58.2932 137.867 61.5496C139.841 63.241 141.78 65.0032 143.229 67.1838C144.88 69.6709 146.401 72.2449 147.989 74.7733C148.253 75.1932 148.431 75.6809 148.839 75.9991C148.852 75.8995 148.831 75.7986 148.781 75.7118C147.18 72.8755 145.532 70.0687 143.771 67.3312C141.623 63.9998 138.655 61.4641 135.557 59.0802C132.374 56.6252 129.009 54.4175 125.489 52.4764C125.083 52.2525 124.835 51.9843 125.069 51.5792C125.352 51.0841 125.659 51.5688 125.899 51.6911C128.682 53.073 131.364 54.6516 133.923 56.4148C137.855 59.1229 141.536 62.1301 144.481 65.9241C146.484 68.504 147.976 71.4154 149.585 74.2487C150.111 75.177 150.599 76.1258 151.104 77.0644L151.268 76.9775C150.666 75.8135 150.073 74.6451 149.463 73.487C146.999 68.8075 144.326 64.2871 140.263 60.7569C135.863 56.9316 131.014 53.6558 125.824 51.0016C125.473 50.8218 125.147 50.6789 125.364 50.1883C125.598 49.6564 125.866 50.0306 126.123 50.1485C130.37 52.1054 134.386 54.5304 138.096 57.3784C141.359 59.8832 144.378 62.6502 146.763 66.0228C148.987 69.1685 150.73 72.6 152.407 76.061C152.701 76.6651 152.996 77.2648 153.291 77.8659C152.561 75.6971 151.514 73.6874 150.512 71.6541C148.097 66.7551 144.9 62.4631 140.736 58.9122C136.284 55.1394 131.357 51.9662 126.08 49.4737C125.638 49.26 125.52 48.9934 125.662 48.6265C125.843 48.1565 126.174 48.5189 126.388 48.6147C131.467 50.8631 136.22 53.6566 140.533 57.1604C144.094 60.0541 147.281 63.3044 149.718 67.2207C151.754 70.4886 153.401 73.9585 154.91 77.5005C155.134 78.0295 155.374 78.551 155.607 79.0756C155.637 78.8268 155.598 78.5744 155.495 78.3462C154.515 75.812 153.355 73.3588 152.178 70.91C149.591 65.5381 145.919 61.0383 141.366 57.2252C136.831 53.4367 131.775 50.32 126.353 47.9708C125.94 47.7925 125.722 47.5745 125.921 47.1442C126.12 46.714 126.425 47.0161 126.658 47.1133C131.214 48.9768 135.531 51.3788 139.517 54.2681C143.569 57.2149 147.186 60.6037 150.148 64.6673C152.835 68.3508 154.708 72.4763 156.436 76.6607C156.828 77.6081 157.194 78.5672 157.594 79.5824C157.639 79.5197 157.665 79.4462 157.671 79.3696C157.677 79.293 157.661 79.2163 157.627 79.1478C157.046 77.4563 156.377 75.8002 155.695 74.1471C153.469 68.75 150.538 63.8024 146.436 59.6077C141.493 54.5583 135.762 50.6332 129.372 47.6526C128.442 47.2179 127.496 46.8054 126.531 46.4547C125.931 46.2366 126.028 45.8653 126.198 45.469C126.423 44.9474 126.683 45.4027 126.876 45.5103C128.72 46.5273 130.69 47.2995 132.734 47.8073C133.37 47.9723 133.982 48.3274 134.676 48.2493C134.689 48.1929 134.682 48.1335 134.655 48.0823C134.627 48.031 134.583 47.9914 134.528 47.9708C131.476 46.4665 128.405 44.9916 125.575 43.0792C125.171 42.8081 125.162 43.0114 125.122 43.3458C124.929 44.9754 124.778 46.6124 124.499 48.2272C123.944 51.4613 123.261 54.6689 122.212 57.788C120.982 61.4494 119.431 64.9472 117.029 68.0148C116.789 68.3228 116.457 68.5762 116.391 69.0035C116.798 68.6863 117.166 68.3229 117.489 67.9205C117.726 67.6096 117.916 67.5595 118.281 67.7128C119.62 68.2575 120.927 68.8768 122.196 69.5678C123.947 70.5505 125.483 71.7469 126.562 73.5076C127.197 74.539 128.183 75.2845 129.265 75.8886C127.689 74.7438 126.669 73.1393 125.614 71.5642C125.554 71.4866 125.486 71.4159 125.41 71.3535C123.519 69.5516 121.227 68.3935 118.9 67.2929C118.659 67.1779 118.209 67.1765 118.449 66.761C118.608 66.484 118.765 66.0567 119.348 66.3602C120.735 67.0822 122.14 67.7643 123.474 68.5806C125.309 69.6989 126.966 70.9719 128.155 72.8343C128.968 74.0985 130.155 75.065 131.423 75.9034Z" fill="white"/>
<path d="M30.1875 91.1291C29.8795 91.1114 29.9414 90.939 29.9812 90.7195C30.5838 87.285 31.2852 83.8697 32.2944 80.5324C34.1 74.5068 36.5663 68.6993 39.6482 63.2157C41.8485 59.3108 44.3573 55.588 47.1507 52.0827C51.397 46.7623 56.1958 42.0224 61.8846 38.2329C65.2424 35.9992 68.8478 34.3151 72.7877 33.3795C74.0518 33.0848 75.3307 32.8962 76.6096 32.7003C77.7206 32.5294 78.5663 33.0259 79.1689 33.9291C79.4498 34.3525 79.5932 34.8522 79.5795 35.3601C79.5657 35.868 79.3956 36.3593 79.0923 36.7668C75.8774 40.8923 74.9182 45.5689 75.8111 50.6403C76.4174 54.1495 78.1281 57.3735 80.6939 59.8431C81.656 60.7846 82.1849 62.0149 83.0587 63.0124C84.0326 64.1233 85.0404 65.1841 86.2441 66.0446C86.4018 66.158 86.6405 66.2199 86.5668 66.466C86.5093 66.659 86.2942 66.6369 86.1248 66.6502C82.4899 66.9448 79.3472 68.461 76.5065 70.6357C75.9706 71.0559 75.3206 71.3049 74.6412 71.3503C72.5622 71.4976 70.8472 72.4303 69.3605 73.8108C66.2001 76.7429 64.3746 80.3763 63.7145 84.6285C63.523 85.8691 63.4876 87.1097 63.4198 88.3561C63.352 89.501 62.7391 90.5309 62.4665 91.6448C62.3104 92.2827 62.0599 92.8971 61.9686 93.5602C61.8374 94.5076 61.3129 95.1809 60.6189 95.8233C57.2576 98.9077 54.2505 102.357 51.6533 106.108C49.8357 108.741 48.2107 111.502 46.7912 114.369C43.9857 120.058 42.0767 126.146 41.1318 132.418C40.678 135.348 40.3377 138.303 40.4364 141.283C40.4364 141.444 40.544 141.677 40.3053 141.714C40.099 141.744 40.0106 141.544 39.9031 141.361C38.6462 139.173 37.4557 136.95 36.3905 134.662C34.7038 131.053 33.2993 127.319 32.1898 123.494C31.2872 120.331 30.5781 117.116 30.0667 113.866C29.3014 108.953 29.0053 103.978 29.1827 99.0088C29.2534 96.7854 29.4891 94.5694 29.7646 92.3623C29.8177 91.938 30.0269 91.5342 30.1624 91.1217C30.4778 91.0657 30.5382 90.7592 30.6752 90.5559C32.6672 87.5959 35.0836 85.0543 38.0421 83.0416C38.2941 82.8692 38.5608 82.4523 38.8319 82.6247C39.1855 82.8427 38.7435 83.1683 38.7199 83.4586C38.7146 83.5321 38.7033 83.605 38.686 83.6767C37.36 89.2122 36.4391 94.8111 36.1562 100.503C35.8733 106.194 35.9926 111.836 36.8561 117.46C37.1935 119.661 37.6134 121.851 38.0436 124.036C38.2661 125.16 38.5947 126.264 38.8746 127.376C38.9305 127.332 38.9736 127.275 38.9995 127.209C39.0254 127.143 39.0332 127.072 39.022 127.002C38.3044 124.055 37.771 121.079 37.2951 118.086C36.8208 115.012 36.5257 111.912 36.4111 108.804C36.2048 103.97 36.5776 99.1561 37.2259 94.3558C37.7744 90.4086 38.5472 86.4958 39.5406 82.6364C39.6481 82.2121 39.8161 81.8924 40.2434 81.6773C41.5341 81.026 42.838 80.4072 44.2215 79.9917C44.6739 79.8562 45.2279 79.3685 45.555 79.6793C45.882 79.9902 45.3575 80.5103 45.219 80.9376C43.6086 85.8173 42.4583 90.8369 41.7831 95.9308C41.2041 100.459 40.958 105.01 41.3528 109.582C41.677 113.342 41.8877 117.111 42.15 120.877C42.1588 121.005 42.0822 121.186 42.3164 121.222C42.561 120.043 42.1883 118.882 42.1558 117.712C42.0866 115.162 41.9761 112.613 41.73 110.07C41.4147 106.867 41.4147 103.642 41.73 100.439C42.0512 97.2304 42.4668 94.0316 43.1445 90.8698C43.9692 87.0968 45.0241 83.3779 46.3035 79.7339C46.3382 79.5915 46.4147 79.4627 46.5231 79.364C46.6315 79.2653 46.7669 79.2012 46.9119 79.1799C48.618 78.86 50.3392 78.6265 52.0688 78.48C52.4489 78.452 52.6273 78.5154 52.4239 78.9721C50.7917 82.7028 49.4643 86.5594 48.4546 90.5043C47.4158 94.4707 46.8265 98.5019 46.4965 102.586C46.2195 106.018 46.8972 109.445 46.5186 112.875C46.5112 112.932 46.5554 112.996 46.579 113.065C46.7263 112.941 46.6836 112.782 46.7027 112.642C46.9355 110.886 46.9296 109.128 46.8501 107.356C46.66 102.607 47.2567 97.9258 48.2955 93.2979C49.4163 88.3861 51.0075 83.5936 53.0472 78.9869C53.224 78.5846 53.4464 78.4358 53.8752 78.4491C54.6841 78.4726 55.4959 78.4491 56.3048 78.4491C56.461 78.4491 56.6673 78.3356 56.7601 78.5537C56.8529 78.7717 56.6466 78.8484 56.5641 78.9957C54.5854 82.386 52.9646 85.9221 51.9951 89.7529C51.3837 92.1487 51.3115 94.5635 51.4662 97.0329C51.6136 99.299 51.7329 101.592 51.2865 103.861C51.1922 104.337 50.9505 104.843 51.2099 105.537C51.4353 104.653 51.4927 103.93 51.6032 103.211C51.8979 101.263 52.0865 99.3005 51.8287 97.3497C51.4957 94.8229 51.7771 92.3726 52.4033 89.9386C53.4258 85.9604 55.2233 82.3373 57.3671 78.8631C57.566 78.5419 57.7841 78.455 58.1377 78.455C59.1426 78.455 60.1504 78.5301 61.1508 78.3548C61.2775 78.3327 61.4543 78.2546 61.5251 78.452C61.5693 78.5773 61.4882 78.6789 61.416 78.7835C60.974 79.4259 60.4996 80.058 60.09 80.724C58.9452 82.579 57.9256 84.4944 57.3229 86.6087C56.99 87.7727 56.9575 88.9735 56.7822 90.1552C56.4138 92.6216 55.9497 95.0763 55.4326 97.5221C55.3383 97.9641 55.0451 98.4415 55.3058 98.9763C55.5917 98.7008 55.4989 98.3752 55.5578 98.1026C56.0278 95.9264 56.5023 93.7517 56.8839 91.5549C57.1638 89.943 57.2021 88.2884 57.7001 86.7192C58.6858 83.6118 60.4996 80.973 62.4474 78.4152C62.6419 78.1603 62.9041 78.0896 63.2077 78.0365C64.267 77.8523 65.3175 77.6269 66.3975 76.9035C66.2607 76.9102 66.1245 76.925 65.9894 76.9477C63.2681 77.7787 60.5069 77.7183 57.706 77.4663C54.0358 77.1348 50.3582 77.1068 46.7248 77.8965C41.4029 79.0546 36.9459 81.6684 33.4452 85.8632C32.1088 87.4544 30.9257 89.1636 30.1875 91.1291ZM58.1053 75.9531C59.4034 74.8407 60.6808 73.6944 61.7593 72.3536C62.6316 71.2663 63.3712 70.0802 64.4321 69.1387C66.9368 66.9109 69.8143 65.2298 72.6595 63.4971C73.0867 63.2363 73.1722 63.4971 73.3726 63.7756C73.6334 64.1365 73.486 64.2692 73.1722 64.4356C72.4812 64.804 71.7961 65.1856 71.1257 65.5878C68.4632 67.1835 65.9099 68.9089 64.0932 71.5079C62.9731 73.0906 61.6633 74.53 60.1931 75.794C60.0458 75.9222 59.8763 76.043 59.8218 76.3053C60.8856 75.5686 61.7225 74.6639 62.6213 73.8285C63.6939 72.8325 64.3304 71.4917 65.3529 70.4648C67.7369 68.072 70.6999 66.5323 73.6039 64.8968C74.1211 64.6021 74.1682 65.1164 74.3553 65.3388C74.6323 65.66 74.2802 65.7455 74.0857 65.8516C73.1398 66.3658 72.1703 66.8314 71.2421 67.3824C69.2383 68.5788 67.2801 69.8445 65.9467 71.8394C65.084 73.1532 64.0365 74.3357 62.8364 75.3505C62.6507 75.5052 62.4739 75.6673 62.2927 75.8264L62.4297 75.9531C63.6644 75.0279 64.8696 74.0377 65.7095 72.7397C67.8577 69.4231 71.3349 67.9939 74.622 66.2848C75.0847 66.0446 75.1937 66.5647 75.369 66.7916C75.5709 67.0553 75.257 67.1482 75.064 67.2336C73.8432 67.7437 72.6613 68.3425 71.5279 69.0253C70.2269 69.8076 68.8286 70.5561 67.98 71.8247C66.9928 73.3099 65.9423 74.6949 64.5411 75.8029C64.488 75.8441 64.5042 75.8883 64.6368 75.9325C65.761 75.1251 66.8366 74.219 67.6013 72.9946C67.97 72.3869 68.4308 71.8402 68.9672 71.3738C70.9371 69.706 73.24 68.6481 75.5974 67.6904C75.8921 67.5725 76.0306 67.6167 76.2133 67.8377C76.5535 68.2962 76.9562 68.7049 77.4097 69.0518C77.417 68.7011 77.1975 68.5552 77.0502 68.3829C76.0739 67.2185 75.2188 65.9576 74.4982 64.6198C72.2808 60.624 70.94 56.3069 69.9705 51.872C69.3853 49.0684 68.9466 46.2361 68.6563 43.3868C68.6165 43.0258 68.6179 42.7974 68.173 43.0921C65.3426 45.0075 62.2706 46.4809 59.2177 47.9823C59.1943 47.9914 59.173 48.005 59.155 48.0225C59.1371 48.0399 59.1228 48.0608 59.113 48.0839C59.1032 48.107 59.0982 48.1318 59.0982 48.1569C59.0983 48.1819 59.1033 48.2067 59.1131 48.2298C59.5757 48.3772 59.9559 48.0722 60.3714 47.9705C62.7082 47.4018 64.9713 46.6312 67.0459 45.3818C67.3936 45.1725 67.5379 45.2271 67.6484 45.6293C67.7722 46.0816 67.6617 46.3203 67.2064 46.45C66.8544 46.5608 66.5099 46.6941 66.1751 46.8493C60.3655 49.3363 55.0436 52.6073 50.2948 56.7858C47.432 59.3068 44.8684 62.1018 42.7261 65.274C40.2125 68.9958 38.4532 73.083 36.8325 77.2438C36.5496 77.9673 36.2004 78.6804 36.1621 79.4849C36.9562 77.5474 37.7475 75.6128 38.5843 73.6974C40.7355 68.7674 43.4672 64.2087 47.2361 60.3308C52.9396 54.4623 59.6922 50.1644 67.2256 47.0526C67.4569 46.9568 67.728 46.7388 67.8783 47.166C68.0286 47.5933 67.8562 47.779 67.4672 47.9455C63.3321 49.7328 59.4073 51.9717 55.7641 54.6214C51.9023 57.4032 48.4148 60.5813 45.552 64.4077C42.5596 68.4035 40.5425 72.9239 38.6271 77.4869C38.4178 77.985 38.1305 78.4874 38.1512 79.0664C39.5126 75.8972 40.9683 72.7795 42.5861 69.7354C44.8094 65.5481 47.7783 61.9559 51.2953 58.8117C54.7239 55.7471 58.5031 53.1745 62.5373 50.9762C64.1683 50.0922 65.848 49.2892 67.5468 48.5407C67.7413 48.4538 67.9888 48.2652 68.1082 48.5628C68.2054 48.8133 68.2938 49.1522 67.9608 49.3511C67.8783 49.4012 67.7766 49.4159 67.6882 49.4586C64.3527 51.0526 61.1501 52.9111 58.1112 55.0163C53.9592 57.8938 50.1298 61.1382 47.1344 65.249C44.6002 68.7247 42.7319 72.5835 40.9462 76.4806C40.7458 76.9153 40.4511 77.3308 40.3981 78.0395C41.3794 76.0916 42.2619 74.3236 43.1592 72.5629C45.2632 68.4374 47.7076 64.5579 51.0905 61.3371C55.9969 56.6679 61.5648 52.9845 67.6956 50.1393C67.9299 50.0303 68.1804 49.6752 68.4117 50.1393C68.6018 50.518 68.4927 50.7434 68.0905 50.9423C64.7945 52.5763 61.6901 54.5286 58.7005 56.662C55.0171 59.2935 51.5443 62.1799 48.8745 65.8825C46.6364 68.9855 44.8963 72.3875 43.1533 75.7881C42.9485 76.1889 42.6259 76.5543 42.5802 77.2217C43.7442 75.1384 44.8094 73.2141 45.8894 71.2972C47.6398 68.1943 49.5655 65.2239 52.144 62.7177C56.878 58.1163 62.3104 54.5168 68.1671 51.5391C68.3306 51.4565 68.5826 51.1854 68.7093 51.5229C68.7948 51.7512 68.9863 52.0886 68.6076 52.2979C68.4146 52.4054 68.226 52.5189 68.0345 52.6279C64.3409 54.7029 60.8143 57.0621 57.4865 59.684C54.8756 61.7364 52.3738 63.92 50.482 66.6781C48.6564 69.3435 47.049 72.1503 45.4622 74.966C45.2721 75.3034 44.9597 75.6025 44.945 76.2228C45.8614 74.714 46.663 73.3438 47.5146 72.0074C49.1825 69.3892 50.6706 66.6531 52.8895 64.4106C57.5012 59.7473 62.8614 56.1316 68.5767 52.9948C68.7476 52.9005 68.9819 52.6839 69.1145 53.0331C69.2338 53.3454 69.2471 53.6106 68.8699 53.8375C64.9146 56.1933 61.1463 58.8498 57.5985 61.7835C55.4252 63.5899 53.3418 65.4862 51.811 67.907C50.5026 69.9771 49.1589 72.0325 47.852 74.0952C47.6 74.4915 47.2759 74.8555 47.1801 75.3417C47.3207 75.2534 47.4419 75.1376 47.5367 75.0013C48.5445 73.497 49.6245 72.0339 50.5336 70.4721C52.4652 67.1585 55.0421 64.446 57.983 62.034C61.419 59.2184 65.0936 56.7519 68.9082 54.4873C69.1027 54.3709 69.3119 54.1278 69.4976 54.4962C69.6744 54.835 69.5904 55.0428 69.25 55.2667C65.4322 57.7545 61.7712 60.4751 58.288 63.4131C56.6997 64.7642 55.0952 66.1286 53.9666 67.9084C52.8379 69.6883 51.6519 71.365 50.4555 73.0653C50.0738 73.6075 49.6112 74.0967 49.402 74.7523C50.5571 73.3261 51.73 71.9087 52.7171 70.3705C54.1198 68.1884 55.7155 66.1964 57.6765 64.499C61.3158 61.3474 65.2409 58.5848 69.2721 55.9681C69.4489 55.8531 69.6729 55.4877 69.9249 55.9018C70.112 56.2097 70.0221 56.4233 69.7274 56.6385C66.0999 59.236 62.5623 61.95 59.2015 64.8895C57.9108 66.0166 56.57 67.1172 55.6654 68.6024C54.9726 69.7281 54.2031 70.8047 53.3625 71.8247C52.446 72.9489 51.5178 74.0628 50.5954 75.1811C52.3871 73.4587 54.0992 71.6449 55.4296 69.5616C56.6304 67.6771 58.2291 66.2302 59.9087 64.8349C63.0367 62.23 66.315 59.8254 69.6419 57.468C69.8438 57.3206 70.053 56.7946 70.3786 57.2971C70.5908 57.6271 70.7809 57.9778 70.252 58.3373C67.1434 60.4348 64.1523 62.7013 61.2923 65.1267C59.9117 66.3054 58.4722 67.4649 57.4776 68.9928C56.1177 71.0806 54.5309 72.971 52.8895 74.8231C52.7171 75.0161 52.5594 75.2209 52.3944 75.4198C53.8899 74.1055 55.2646 72.6911 56.3947 71.0939C57.7753 69.1402 59.2619 67.3191 61.1316 65.8074C64.0887 63.4161 67.1725 61.2074 70.3035 59.0519C70.5098 58.9045 70.7455 58.4817 71.0063 58.9178C71.1934 59.2272 71.4822 59.5882 70.8973 59.9492C69.2456 60.9584 67.6735 62.0915 66.125 63.2525C63.6512 65.109 61.1272 66.9478 59.2899 69.4643C57.7384 71.5904 56.0484 73.5898 54.3231 75.5568C54.3231 75.5642 54.3555 75.6128 54.3879 75.6658C55.739 74.3797 57.004 73.006 58.1746 71.5536C59.119 70.3749 59.8852 69.0488 61.0211 68.0101C64.1153 65.1606 67.6308 62.8709 71.1109 60.5385C71.3201 60.3912 71.5706 60.1466 71.743 60.5916C71.8565 60.8862 72.1644 61.1529 71.6679 61.4432C70.7603 61.9751 69.8733 62.5497 69.004 63.1435C66.2502 65.0279 63.5333 66.9625 61.3615 69.5454C60.2889 70.8199 59.4461 72.2756 58.2821 73.4793C57.5454 74.2425 56.8249 75.0264 56.0986 75.8014C57.486 74.7107 58.7481 73.4694 59.8616 72.1002C60.7368 71.0468 61.3866 69.8209 62.4047 68.8735C65.2925 66.1846 68.6209 64.1115 71.9272 62.0031C72.2027 61.8263 72.3309 61.8778 72.5048 62.1504C72.7715 62.5659 72.7464 62.7796 72.272 63.0551C68.0949 65.4759 64.1271 68.1368 61.3983 72.2918C60.4893 73.6473 59.2074 74.7243 58.1053 75.9531Z" fill="white"/>
<path opacity="0.5" d="M114.124 51.7777C113.872 57.8023 111.315 62.5467 106.41 66.0298C105.918 66.3804 105.468 66.1535 105.115 65.9296C104.198 65.3491 103.603 65.7218 102.955 66.3937C101.334 68.063 99.3227 69.0178 97.0242 69.1018C94.8789 69.1784 92.9532 68.3651 91.3015 66.9801C90.8153 66.5734 90.2701 66.2213 89.8989 65.6879C89.7265 65.4389 89.532 65.4787 89.3331 65.6157C88.1544 66.4261 87.2468 66.0077 86.239 65.1737C82.7647 62.2991 80.5885 58.6584 79.9034 54.2367C79.2763 50.3504 80.0776 46.3684 82.1592 43.0272C84.8113 38.6969 88.5993 35.8591 93.6059 34.9235C99.7942 33.7669 105.113 35.5733 109.473 40.132C111.879 42.6485 113.245 45.7014 113.893 49.0872C114.064 49.9713 114.054 50.8892 114.124 51.7777ZM89.2388 54.4681C89.1253 56.0166 89.4804 57.7095 89.7088 59.4025C90.058 61.9897 91.3664 64.1276 92.9827 66.0975C93.88 67.1893 94.957 68.0277 96.4643 67.9982C98.7333 67.9525 100.432 66.8195 101.642 64.9984C103.185 62.7202 104.132 60.0908 104.394 57.3515C104.593 55.2062 104.888 53.0787 104.587 50.9069C104.232 48.3506 102.661 46.5471 100.182 45.8974C98.5607 45.4884 96.8772 45.3884 95.2193 45.6027C92.3992 45.9327 90.3571 47.1306 89.613 50.4207C89.3274 51.7501 89.2017 53.1088 89.2388 54.4681Z" fill="white"/>
<path d="M65.2581 93.5057C65.6603 93.0357 66.0891 92.5849 66.4589 92.0913C68.5497 89.2918 71.4375 87.5842 74.5154 86.1093C79.5249 83.7106 84.561 81.3797 89.2832 78.43C90.7787 77.4959 91.9648 76.2199 93.2746 75.0766C94.0113 74.4312 94.7849 73.8345 95.7146 73.4735C96.1928 73.2755 96.7288 73.2692 97.2115 73.4558C98.9531 74.0997 100.621 74.916 102.299 75.7013C103.557 76.2906 104.187 77.4428 104.642 78.6908C105.012 79.7054 105.224 80.7708 105.271 81.8497C105.278 82.0133 105.367 82.2284 105.206 82.3301C104.985 82.4686 104.85 82.2284 104.714 82.1135C103.87 81.4048 103.014 80.7049 102.209 79.9535C101.122 78.9383 100.376 78.7748 99.0223 79.3744C98.0447 79.8286 97.0982 80.3469 96.189 80.9259C95.318 81.4752 94.3437 81.8402 93.3262 81.9985C91.9326 82.195 90.6459 82.8552 89.6737 83.8727C85.5335 88.0954 81.2459 92.1635 76.7373 95.9928C74.0086 98.3105 71.1738 100.487 68.0634 102.278C67.0321 102.868 65.9639 103.407 64.7881 103.693C63.0672 104.111 61.9238 103.229 61.694 101.449C61.361 98.8099 61.9886 96.3037 62.6104 93.7975C62.995 92.2637 63.5018 90.7608 63.9733 89.2491C64.0512 89.044 64.0892 88.826 64.0853 88.6067C63.9586 86.7768 64.2488 84.9792 64.6894 83.2288C65.7208 79.1122 67.8144 75.6497 71.358 73.1803C72.4733 72.4023 73.7596 72.1239 75.0797 71.9839C76.2585 71.8616 76.2835 71.869 76.7005 73.0153C77.7215 75.7779 78.3109 78.6539 78.8825 81.533C79.1964 83.1124 79.1684 83.0918 77.7038 83.8712C75.1136 85.2518 72.4645 86.5233 70.054 88.2192C68.0723 89.6057 66.6048 91.5034 65.2581 93.5057Z" fill="white"/>
<path d="M93.5944 160.902C92.9829 160.155 92.3553 159.418 91.7585 158.657C89.0519 155.201 86.441 151.677 84.0424 147.998C81.6643 144.348 79.4675 140.597 77.6626 136.626C76.2776 133.579 75.345 130.376 74.5213 127.142C73.9909 125.06 73.5121 122.967 73.0037 120.879C72.8137 120.099 72.8372 120.094 73.6682 120.095C80.0716 120.116 86.4749 120.135 92.8783 120.117C93.5737 120.117 93.7859 120.264 93.7844 120.989C93.7687 134.099 93.7687 147.207 93.7844 160.314C93.7786 160.498 93.8611 160.71 93.5944 160.902Z" fill="white"/>
<path d="M100.192 140.561C100.192 133.983 100.201 127.405 100.176 120.828C100.176 120.211 100.373 120.118 100.928 120.119C107.135 120.133 113.342 120.13 119.548 120.109C121.114 120.109 121.076 120.087 120.726 121.652C119.947 125.201 119.032 128.714 117.945 132.182C117.148 134.724 116.065 137.146 114.851 139.506C111.521 145.948 107.444 151.898 102.962 157.58C102.204 158.541 101.449 159.506 100.687 160.464C100.576 160.611 100.539 160.893 100.285 160.81C100.03 160.728 100.149 160.476 100.149 160.294C100.149 158.061 100.173 155.827 100.174 153.593C100.18 149.25 100.18 144.906 100.174 140.561H100.192Z" fill="white"/>
<path d="M129.693 87.8246C129.45 89.2891 130.213 90.5386 130.589 91.8631C131.401 94.7304 132.223 97.5931 132.224 100.605C132.224 101.477 132.133 102.363 131.658 103.142C131.118 104.026 130.3 104.321 129.282 104.078C126.447 103.394 124.153 101.702 121.853 100.054C116.549 96.2538 111.844 91.7733 107.199 87.2234C106.094 86.142 105.002 85.0458 103.895 83.9672C102.498 82.6088 101.576 82.6309 100.238 84.0718C99.702 84.6509 99.1554 85.2108 98.4864 85.6322C97.0617 86.5324 95.5574 86.2377 94.0854 85.8267C93.3871 85.6322 92.5222 83.8037 92.6445 83.0861C92.6798 82.8858 92.7712 82.7679 92.9686 82.7546C95.0122 82.6161 96.6079 81.4168 98.3288 80.5062C100.757 79.2214 100.663 79.494 102.307 81.0263C103.079 81.7424 103.845 82.4717 104.778 82.9889C105.565 83.4309 105.911 83.2232 105.914 82.345C105.923 81.5607 105.854 80.7773 105.708 80.0068C105.678 79.8594 105.503 79.6767 105.708 79.55C105.855 79.4646 105.98 79.603 106.102 79.6782C108.46 81.1265 110.915 82.401 113.391 83.6298C113.567 83.7153 113.742 83.8007 113.911 83.8965C114.353 84.1499 114.489 84.0439 114.591 83.5164C115.249 80.1276 115.88 76.7388 117.05 73.4811C117.529 72.1551 117.551 72.2037 118.917 72.3289C121.598 72.5735 123.536 74.0602 125.224 75.9918C127.609 78.7234 128.967 81.9177 129.487 85.4892C129.543 85.8753 129.634 86.2584 129.672 86.6459C129.711 87.0334 129.693 87.4312 129.693 87.8246Z" fill="white"/>
<path d="M117.234 71.5348C117.125 71.7425 117.094 71.8073 117.059 71.8707C115.872 73.9629 115.477 76.3115 114.908 78.6011C114.585 79.9036 114.35 81.2282 114.099 82.5469C114.021 82.9609 113.912 83.1141 113.476 82.8931C110.81 81.542 108.172 80.1453 105.614 78.5967C105.364 78.4411 105.175 78.2045 105.079 77.9263C104.417 76.2555 103.221 75.1681 101.528 74.5567C100.246 74.094 99.0499 73.4222 97.7813 72.9124C96.5569 72.4203 95.4946 72.6707 94.4426 73.2969C93.7188 73.7131 93.0563 74.2278 92.4741 74.8263C90.3598 77.0791 87.7475 78.6203 85.0703 80.0686C83.5409 80.8952 81.9762 81.6555 80.4601 82.5071C79.915 82.8136 79.7794 82.6323 79.6969 82.1417C79.2622 79.5895 78.6832 77.064 77.9627 74.5773C77.6872 73.6181 77.4264 72.6457 76.893 71.7852C76.7191 71.5038 76.7162 71.3167 77.0094 71.1178C79.2195 69.6149 81.4797 68.1887 84.1553 67.6848C85.8615 67.3621 87.5751 67.0954 89.1988 66.4545C89.5656 66.3072 89.685 66.5827 89.8647 66.7492C91.2178 68.0302 92.8396 68.9931 94.612 69.5678C96.6026 70.2382 98.4576 69.8816 100.283 69.0845C101.609 68.504 102.835 67.7319 103.832 66.649C104.011 66.456 104.168 66.372 104.466 66.4855C106.05 67.0837 107.708 67.3548 109.37 67.6642C112.195 68.1946 114.584 69.6974 116.884 71.3476C116.996 71.4181 117.113 71.4806 117.234 71.5348Z" fill="#A6D4FF"/>
<path d="M96.9463 119.431C89.1712 119.431 81.3961 119.422 73.6211 119.446C72.9507 119.446 72.7032 119.281 72.6133 118.587C72.4188 117.113 72.13 115.64 71.8191 114.178C71.6998 113.613 71.8559 113.499 72.3834 113.501C80.6992 113.537 89.0136 113.58 97.3279 113.58C105.348 113.58 113.369 113.53 121.388 113.501C122.272 113.501 122.272 113.501 122.112 114.373C121.844 115.846 121.546 117.305 121.319 118.778C121.226 119.368 120.92 119.44 120.417 119.44C112.594 119.428 104.77 119.425 96.9463 119.431Z" fill="#D84040"/>
<path d="M82.666 112.975C79.1815 112.975 75.6983 112.975 72.2138 112.975C71.785 112.975 71.5463 112.91 71.4771 112.412C71.0012 109.065 70.6122 105.707 70.4133 102.33C70.3588 101.418 70.4133 101.353 71.2973 101.494C74.4666 102.004 77.6506 101.957 80.8287 101.732C84.6085 101.461 88.3442 100.754 91.9616 99.6247C92.3625 99.5186 92.7561 99.3872 93.1403 99.2313C93.659 98.997 93.7857 99.1768 93.7798 99.6851C93.7621 101.403 93.7695 103.123 93.7695 104.842C93.7695 107.322 93.7562 109.8 93.7842 112.28C93.7842 112.804 93.6236 112.946 93.1153 112.943C89.6322 112.924 86.1476 112.932 82.6646 112.932L82.666 112.975Z" fill="white"/>
<path d="M111.173 112.937C107.738 112.937 104.304 112.925 100.871 112.95C100.315 112.95 100.175 112.802 100.178 112.247C100.197 108.051 100.178 103.849 100.168 99.6583C100.168 99.1765 100.259 99.069 100.757 99.231C104.46 100.448 108.235 101.294 112.133 101.624C114.974 101.863 117.804 101.96 120.647 101.755C121.156 101.718 121.66 101.608 122.169 101.55C123.106 101.441 123.478 101.858 123.453 102.786C123.378 105.586 122.885 108.341 122.646 111.121C122.618 111.314 122.577 111.505 122.524 111.693C122.229 112.981 122.229 112.978 120.884 112.976H111.171L111.173 112.937Z" fill="white"/>
<path d="M94.4066 141.093C94.4066 134.367 94.4169 127.641 94.3919 120.908C94.3919 120.256 94.5569 120.06 95.2096 120.088C96.4089 120.142 97.6142 120.137 98.815 120.088C99.4338 120.063 99.5915 120.255 99.5885 120.865C99.5649 126.339 99.5753 131.812 99.5753 137.287C99.5753 145.216 99.5787 153.145 99.5856 161.074C99.5856 161.645 99.4751 162.096 99.0566 162.521C98.4419 163.157 97.8615 163.826 97.318 164.524C97.0233 164.896 96.8318 164.819 96.5813 164.51C96.2262 164.068 95.8991 163.596 95.4763 163.234C94.4862 162.387 94.33 161.335 94.3403 160.091C94.3933 153.755 94.3653 147.42 94.3653 141.093H94.4066Z" fill="#D84040"/>
<path d="M98.691 89.324C98.691 90.1594 98.691 90.9949 98.691 91.8288C98.691 92.0631 98.6468 92.287 99.0726 92.2561C102.053 92.0321 105.03 91.7875 107.957 91.1496C108.437 91.0513 108.91 90.9269 109.376 90.7768C109.758 90.6501 109.951 90.74 109.952 91.1466C109.952 92.1529 109.952 93.1593 109.952 94.1656C109.952 94.4824 109.833 94.5988 109.51 94.5649C107.805 94.394 106.099 94.2422 104.395 94.0787C102.736 93.9009 101.063 93.9132 99.4071 94.1155C97.9204 94.3078 96.4154 94.3107 94.928 94.1243C93.1496 93.924 91.3545 93.9195 89.5751 94.1111C87.9441 94.2702 86.3027 94.3395 84.6776 94.5722C84.3269 94.6223 84.2562 94.4588 84.2591 94.1582C84.2591 93.1519 84.268 92.1441 84.2503 91.1378C84.2415 90.6958 84.4183 90.6707 84.794 90.7724C88.0723 91.6564 91.4242 92.0336 94.813 92.1971C95.2197 92.2163 95.3022 92.1338 95.2978 91.7551C95.2772 90.3068 95.2978 88.8584 95.2816 87.4101C95.2816 86.946 95.2816 86.6734 95.9107 86.8311C96.7093 87.0241 97.5314 86.8723 98.2681 86.5231C98.6704 86.3345 98.7249 86.4568 98.719 86.8178C98.7072 87.6517 98.719 88.4871 98.719 89.3226L98.691 89.324Z" fill="white"/>
<path d="M83.572 93.2051C83.572 93.7945 83.6059 94.3838 83.5602 94.9732C83.5278 95.396 83.6781 95.3946 84.0214 95.3445C86.7118 94.9511 89.4229 94.7551 92.1339 94.5739C93.7812 94.4678 93.7812 94.4678 93.7812 96.1033V96.3243C93.7812 98.4342 93.7812 98.4371 91.7361 99.0147C89.0605 99.7851 86.3372 100.379 83.5838 100.793C82.9326 100.889 82.271 100.914 81.6154 100.988C81.25 101.029 81.0953 100.895 81.0393 100.52C80.7446 98.5658 80.4396 96.6116 80.1243 94.6579C80.0802 94.4691 80.091 94.2717 80.1555 94.089C80.22 93.9062 80.3355 93.7457 80.4882 93.6265C81.3723 92.853 82.2224 92.0411 83.0858 91.244C83.2096 91.1306 83.3201 90.9346 83.5043 90.9994C83.7606 91.0908 83.6133 91.3383 83.6192 91.5122C83.6339 92.0765 83.6192 92.6408 83.6192 93.2036L83.572 93.2051Z" fill="#A6D4FF"/>
<path d="M99.5726 105.916C99.5726 108.002 99.5549 110.09 99.5843 112.177C99.5932 112.766 99.468 113.008 98.8211 112.981C97.5466 112.931 96.2692 112.953 94.9903 112.972C94.5483 112.972 94.3892 112.837 94.3906 112.383C94.4044 108.036 94.4044 103.69 94.3906 99.3447C94.3906 98.9528 94.538 98.7657 94.8798 98.6464C95.4574 98.4475 96.0364 98.2471 96.5992 98.0084C97.0531 97.8154 97.4155 98.057 97.7927 98.1985C99.574 98.8659 99.5711 98.8718 99.5711 100.761L99.5726 105.916Z" fill="#D84040"/>
<path d="M102.442 94.5828C105.149 94.7861 107.641 94.9673 110.114 95.3342C110.572 95.402 110.643 95.3077 110.624 94.876C110.585 93.9698 110.606 93.0607 110.609 92.1531C110.609 92.0176 110.54 91.8408 110.702 91.7568C110.864 91.6728 110.97 91.8084 111.076 91.9041C111.796 92.5686 112.507 93.2434 113.242 93.8917C113.348 93.9729 113.429 94.0826 113.476 94.208C113.523 94.3334 113.533 94.4695 113.506 94.6004C113.171 96.5998 112.823 98.5978 112.514 100.602C112.451 101.011 112.23 100.995 111.951 100.965C108.073 100.563 104.29 99.691 100.587 98.5035C100.267 98.4018 100.164 98.2441 100.168 97.9259C100.182 96.9947 100.186 96.062 100.168 95.1264C100.158 94.736 100.316 94.6034 100.68 94.6049C101.335 94.6152 101.995 94.5047 102.442 94.5828Z" fill="#A6D4FF"/>
<path d="M97.0553 182.037L96.4999 180.732C95.8118 178.323 95.2225 175.94 94.5683 173.519C94.5064 173.283 94.509 173.019 94.5093 172.775C94.5005 169.73 94.4047 166.665 94.4077 163.62C94.4077 163.465 94.2898 163.247 94.5019 163.16C94.7141 163.073 94.7819 163.299 94.8865 163.421C95.4626 164.091 96.0564 164.747 96.603 165.437C96.8977 165.802 97.045 165.753 97.3176 165.419C97.9821 164.613 98.6908 163.844 99.3804 163.062C99.6308 163.219 99.5365 163.436 99.5365 163.614C99.5365 166.635 99.5991 169.759 99.5593 172.777C99.5461 173.86 99.0238 174.756 98.7542 175.79C98.2164 177.862 97.6359 179.913 97.0553 182.037Z" fill="white"/>
<path d="M94.6199 89.0678C94.6199 89.7058 94.6199 90.3423 94.6199 90.9832C94.6199 91.3074 94.6199 91.5446 94.1543 91.5107C91.7645 91.3642 89.3865 91.065 87.0348 90.6149C86.3659 90.4808 85.6985 90.3379 85.0354 90.1802C84.8807 90.1449 84.6627 90.136 84.6185 89.9342C84.5817 89.7706 84.7481 89.6896 84.8542 89.5953C86.7991 87.8346 88.6188 85.9472 90.4782 84.0996C90.5651 84.0141 90.6535 83.9286 90.7448 83.8476C91.7762 82.9282 91.8057 82.9636 92.1902 84.2719C92.5041 85.3372 92.9594 86.3568 94.2309 86.6294C94.5492 86.6986 94.6302 86.9123 94.6154 87.232C94.586 87.8434 94.6066 88.4578 94.6066 89.0693L94.6199 89.0678Z" fill="#A6D4FF"/>
<path d="M99.4152 88.6334C99.4262 88.5114 99.4262 88.3886 99.4152 88.2665C99.0881 86.5279 99.7408 85.2284 101.117 84.172C101.845 83.6136 102.315 83.5031 103.041 84.1425C103.704 84.7245 104.305 85.3757 104.936 85.9931L108.779 89.7384C108.879 89.8372 109.051 89.9123 109.008 90.0788C108.955 90.2851 108.726 90.2674 108.577 90.3028C106.792 90.7198 104.985 91.0308 103.163 91.2339C102.095 91.3548 101.017 91.4048 99.9471 91.5212C99.5596 91.5625 99.4048 91.4623 99.4122 91.0645C99.424 90.2541 99.4137 89.4438 99.4152 88.6334Z" fill="#A6D4FF"/>
<path d="M99.5225 96.4186C99.5019 98.1867 99.4724 98.253 97.8841 97.5236C97.0486 97.1391 96.4107 97.3969 95.674 97.6813C94.2138 98.2471 94.4157 98.2824 94.4157 96.8606C94.4157 96.3214 94.4157 95.7821 94.4083 95.2399C94.398 94.848 94.4805 94.6653 94.9535 94.7316C96.3135 94.8956 97.6878 94.9035 99.0495 94.7551C99.437 94.7213 99.5328 94.8229 99.524 95.1662C99.5136 95.5861 99.5225 96.0031 99.5225 96.4186Z" fill="white"/>
<path d="M90.2479 55.9858C90.3215 54.7555 90.1432 53.2689 90.7473 51.8603C91.1805 50.8555 91.9054 50.2396 93.0149 50.3442C95.4062 50.5608 97.8019 50.5578 100.198 50.6389C102.138 50.7066 103.385 52.0636 103.653 54.1838C104.148 58.0869 103.063 61.623 100.899 64.8099C99.8676 66.3246 98.3854 67.3073 96.386 67.2587C95.3546 67.2337 94.5767 66.7828 93.9579 66.08C92.2163 64.0895 90.765 61.925 90.3731 59.2214C90.2214 58.2224 90.2479 57.2205 90.2479 55.9858Z" fill="white"/>
<path d="M90.2109 51.1796C90.5366 49.1331 91.3896 47.4461 93.4317 46.7359C95.8732 45.8872 98.3544 45.9535 100.775 46.8479C102.446 47.4638 103.392 48.7736 103.801 50.4724C103.967 51.1546 104.155 51.8441 104.068 52.5646C103.756 52.6059 103.748 52.3864 103.675 52.2095C103.097 50.8246 102.01 50.1129 100.557 50.0083C98.2615 49.8448 95.9542 50.0083 93.6616 49.6871C92.2781 49.4926 91.0169 49.8035 90.2109 51.1796Z" fill="white"/>
<defs>
<linearGradient id="paint0_linear_1014_12109" x1="28" y1="30.5" x2="176" y2="164" gradientUnits="userSpaceOnUse">
<stop stop-color="#3A6FA0"/>
<stop offset="0.99" stop-color="#3882C7"/>
</linearGradient>
</defs>
</svg>
