<svg width="16" height="28" viewBox="0 0 16 28" fill="none" xmlns="http://www.w3.org/2000/svg">
<path d="M15.5656 15.4455L3.4459 27.5649C3.16559 27.8455 2.7914 28 2.3924 28C1.99341 28 1.61922 27.8455 1.33891 27.5649L0.446376 26.6726C-0.1344 26.0912 -0.1344 25.1462 0.446376 24.5656L10.6236 14.3884L0.435083 4.19994C0.15477 3.91941 0 3.54543 0 3.14667C0 2.74745 0.15477 2.37348 0.435083 2.09272L1.32761 1.20064C1.60815 0.920101 1.98212 0.765553 2.38111 0.765553C2.78011 0.765553 3.1543 0.920101 3.43461 1.20064L15.5656 13.3312C15.8466 13.6126 16.0009 13.9883 16 14.3878C16.0009 14.7887 15.8466 15.1643 15.5656 15.4455Z" fill="white"/>
</svg>
