<svg width="45" height="45" viewBox="0 0 45 45" fill="none" xmlns="http://www.w3.org/2000/svg">
<rect width="44.2895" height="44.2895" rx="8" fill="url(#paint0_linear_149_1711)"/>
<path d="M34.2603 20.8318C33.6137 20.8318 33.0891 20.3058 33.0891 19.6575C33.0891 16.3635 31.81 13.2679 29.4872 10.9379C29.0293 10.4788 29.0293 9.73674 29.4872 9.27744C29.9451 8.81835 30.6855 8.81835 31.1434 9.27744C33.909 12.05 35.4315 15.7365 35.4315 19.6575C35.4315 20.3058 34.9069 20.8318 34.2603 20.8318Z" fill="white"/>
<path d="M10.8343 20.8318C10.1879 20.8318 9.66309 20.3058 9.66309 19.6575C9.66309 15.7365 11.1858 12.05 13.9512 9.27744C14.4091 8.81835 15.1495 8.81835 15.6074 9.27744C16.0655 9.73674 16.0655 10.4788 15.6074 10.9379C13.2846 13.2666 12.0057 16.3635 12.0057 19.6575C12.0057 20.3058 11.4809 20.8318 10.8343 20.8318Z" fill="white"/>
<path d="M33.533 27.9144C31.7619 26.4135 30.7464 24.2198 30.7464 21.8957V18.6217C30.7464 14.4893 27.6846 11.0684 23.7186 10.4954V9.22691C23.7186 8.57752 23.1938 8.05264 22.5474 8.05264C21.9008 8.05264 21.376 8.57752 21.376 9.22691V10.4954C17.4089 11.0684 14.3482 14.4893 14.3482 18.6217V21.8957C14.3482 24.2198 13.3327 26.4135 11.5513 27.9236C11.0955 28.3148 10.8343 28.8831 10.8343 29.4843C10.8343 30.6177 11.7537 31.5395 12.8842 31.5395H32.2106C33.3408 31.5395 34.2603 30.6177 34.2603 29.4843C34.2603 28.8831 33.9991 28.3148 33.533 27.9144Z" fill="white"/>
<path d="M22.5474 36.2368C24.6685 36.2368 26.443 34.7207 26.8508 32.7138H18.2441C18.6515 34.7207 20.4261 36.2368 22.5474 36.2368Z" fill="white"/>
<defs>
<linearGradient id="paint0_linear_149_1711" x1="44.2895" y1="2.68713" x2="-0.739038" y2="3.56164" gradientUnits="userSpaceOnUse">
<stop stop-color="#3A6FA0"/>
<stop offset="0.99" stop-color="#3882C7"/>
</linearGradient>
</defs>
</svg>
