<svg width="80" height="79" viewBox="0 0 80 79" fill="none" xmlns="http://www.w3.org/2000/svg">
<mask id="mask0_302_2417" style="mask-type:alpha" maskUnits="userSpaceOnUse" x="0" y="0" width="80" height="79">
<circle cx="39.9996" cy="39.1086" r="39.0885" fill="#D9D9D9"/>
</mask>
<g mask="url(#mask0_302_2417)">
<path d="M66.1212 65.0892C80.5477 50.6628 80.5477 27.2728 66.1212 12.8463C51.6947 -1.58018 28.3048 -1.58018 13.8783 12.8463C-0.548185 27.2728 -0.548185 50.6628 13.8783 65.0892C28.3048 79.5157 51.6947 79.5157 66.1212 65.0892Z" fill="#BF362B"/>
<path d="M61.943 60.911C74.0619 48.7921 74.0619 29.1434 61.943 17.0245C49.8241 4.90561 30.1754 4.90561 18.0565 17.0245C5.9376 29.1435 5.9376 48.7921 18.0565 60.911C30.1754 73.0299 49.8241 73.0299 61.943 60.911Z" fill="#EE4036"/>
<path d="M11.8304 40.3098C11.089 40.3098 10.4883 39.7091 10.4883 38.9676C10.4883 26.5491 18.3375 15.3848 30.0196 11.1875C30.7158 10.9361 31.4849 11.2981 31.7362 11.9968C31.9875 12.693 31.6256 13.4621 30.9269 13.7134C20.308 17.5287 13.1725 27.6801 13.1725 38.9701C13.1725 39.7116 12.5719 40.3123 11.8304 40.3123V40.3098Z" fill="#F2786F"/>
<path d="M51.5174 28.2396C51.7395 28.0558 51.9313 27.9067 52.1123 27.7456C53.0847 26.8808 54.1856 26.2213 55.3738 25.7022C55.8574 25.4904 56.1776 25.0969 56.5177 24.7325C56.69 24.5479 56.6967 24.254 56.6868 23.9917C56.6874 23.973 56.6842 23.9544 56.6773 23.9371C56.6705 23.9197 56.6602 23.9039 56.6471 23.8907C56.6339 23.8774 56.6182 23.867 56.6009 23.86C56.5836 23.853 56.5651 23.8497 56.5464 23.8501C56.296 23.8529 56.0783 23.9402 55.8714 24.1292C56.0269 24.1799 56.1218 24.1005 56.2266 24.075C56.2952 24.0586 56.3742 24.0072 56.426 24.0846C56.4707 24.148 56.4467 24.2249 56.4156 24.2939C56.3693 24.3967 56.3027 24.4891 56.2199 24.5656C56.1371 24.6421 56.0397 24.7012 55.9336 24.7393C55.9336 24.7556 55.9304 24.7735 55.9372 24.7791C56.1648 24.9717 56.1672 24.9837 55.9575 25.2058C55.7183 25.4585 55.4033 25.5614 55.0779 25.6412C54.859 25.6946 54.619 25.693 54.4232 25.8046C54.0209 26.0339 53.5345 26.1037 53.196 26.4565C53.1274 26.5279 53.0257 26.5781 52.871 26.5885C53.3674 26.1499 53.6095 25.5861 53.9536 25.0375C53.7016 25.1212 53.5182 25.2504 53.3308 25.3636C52.5157 25.8528 51.6355 26.2239 50.7164 26.4661C49.9927 26.6619 49.3089 26.9517 48.7291 27.4414C48.2559 27.8401 47.6526 27.9075 47.0992 28.0969C46.2463 28.3879 45.3783 28.2564 44.5143 28.2041C43.9306 28.1702 43.3476 28.1331 42.7623 28.1439C42.7227 28.1443 42.6834 28.1503 42.6455 28.1619C42.423 28.2332 42.2914 28.122 42.3437 27.8903C42.3791 27.7556 42.4279 27.6249 42.4896 27.5C42.7364 26.9494 42.5622 26.0646 42.1224 25.6583C42.0394 25.5817 41.9565 25.5048 41.8712 25.431C41.7137 25.2955 41.632 25.134 41.6762 24.9203C41.7045 24.7843 41.6479 24.6763 41.5502 24.5822C40.8804 23.9374 40.1001 23.7421 39.2014 23.9841C38.7628 24.1013 38.3836 24.2923 38.1511 24.7221C38.3019 24.7492 38.4147 24.6025 38.5618 24.638C38.5618 24.7177 38.4932 24.7125 38.4522 24.7341C38.3641 24.7799 38.27 24.8138 38.1834 24.8633C38.0969 24.9127 37.9649 24.9757 38.0064 25.0714C38.057 25.1878 38.1775 25.0798 38.2664 25.0642C38.3115 25.0527 38.3554 25.0365 38.3972 25.016C38.4093 25.0101 38.4225 25.0069 38.4359 25.0065C38.4494 25.0061 38.4628 25.0086 38.4752 25.0137C38.4876 25.0189 38.4988 25.0266 38.5081 25.0364C38.5173 25.0462 38.5243 25.0579 38.5287 25.0706C38.5618 25.1372 38.5108 25.1711 38.4594 25.1902C38.3593 25.2241 38.2544 25.2456 38.1547 25.2807C37.8358 25.3936 37.6181 25.5917 37.5858 25.9502C37.5758 26.0642 37.5156 26.1631 37.4661 26.2652C37.3768 26.4525 37.4957 26.738 37.6858 26.807C37.772 26.8385 37.7987 26.7711 37.8214 26.7273C37.9314 26.5088 38.122 26.4446 38.3461 26.4266C38.4785 26.4159 38.6141 26.3939 38.7261 26.3194C39.0507 26.1037 39.4191 26.0654 39.7915 26.0371C39.8379 26.0351 39.8842 26.0307 39.9302 26.0239C39.9617 26.0183 39.9976 26.0004 39.9912 25.9629C39.988 25.9446 39.9561 25.9274 39.9338 25.9167C39.9153 25.9088 39.8949 25.9065 39.8752 25.9103C39.5076 25.9749 39.1244 25.9605 38.7759 26.1244C38.636 26.1902 38.4837 26.2085 38.3334 26.2337C38.183 26.2588 38.0275 26.2791 37.9011 26.372C37.7919 26.4517 37.7449 26.3979 37.7217 26.3002C37.6754 26.1122 37.6791 25.9154 37.7325 25.7293C37.7374 25.7028 37.7484 25.6779 37.7646 25.6565C37.7808 25.635 37.8017 25.6176 37.8258 25.6057C38.017 25.5259 38.2176 25.4708 38.4227 25.4418C38.4956 25.4342 38.5383 25.4976 38.6097 25.5287C38.6679 25.2369 38.6798 24.9414 38.7656 24.6571C38.7879 24.6699 38.8054 24.6743 38.8054 24.6818C38.8692 25.0156 38.8692 25.0156 39.1954 24.9211C39.5144 24.829 39.6766 24.8756 39.7843 25.0806C39.8341 25.1762 39.8126 25.2751 39.8166 25.3736C39.8166 25.4135 39.811 25.4534 39.8166 25.4932C39.8254 25.5622 39.7831 25.6675 39.8608 25.6926C39.953 25.7201 39.9741 25.6057 40.0203 25.5455C40.0602 25.4936 40.0359 25.378 40.1479 25.4023C40.2476 25.4243 40.2735 25.5128 40.2815 25.6017C40.2887 25.6814 40.2839 25.7612 40.2943 25.8409C40.3226 26.0594 40.4769 26.1368 40.6651 26.0227C40.7448 25.9753 40.8082 25.9051 40.8828 25.8497C40.935 25.8098 40.9916 25.7608 41.0554 25.8341C41.1192 25.9075 41.1013 25.9701 41.0423 26.0291C40.9953 26.075 40.9461 26.1185 40.8947 26.1595C40.7911 26.244 40.6894 26.3325 40.6332 26.4561C40.5283 26.6874 40.3453 26.7588 40.1112 26.7137C39.9569 26.6838 39.8457 26.7201 39.7524 26.8525C39.6539 26.9916 39.5036 27.0666 39.3449 27.126C39.1089 27.2141 38.8664 27.2946 38.6671 27.4525C38.5873 27.5155 38.4617 27.5698 38.52 27.7009C38.5734 27.8205 38.6527 27.9402 38.809 27.9402C38.9043 27.9402 38.9342 27.9493 38.9462 28.0626C38.9657 28.246 39.1388 28.3341 39.2823 28.4015C39.5949 28.5482 39.8644 28.7205 39.9346 29.0821C40.0012 29.0721 40.0144 29.0454 40.0235 29.0111C40.0415 28.9406 40.0845 28.8756 40.1587 28.8915C40.2596 28.9122 40.2037 28.9976 40.1986 29.0566C40.173 29.303 40.2871 29.3883 40.5195 29.289C40.6595 29.2292 40.7931 29.1527 40.9342 29.0957C41.0538 29.0482 41.1894 29.0047 41.2795 29.1355C41.3696 29.2663 41.3752 29.4098 41.2448 29.5315C41.2237 29.5548 41.2042 29.5794 41.1862 29.6052C41.3237 29.6371 41.3879 29.5486 41.4541 29.4724C41.5542 29.3572 41.6467 29.2332 41.7476 29.1208C41.8301 29.0271 41.8967 29.0478 41.9306 29.1642C41.9976 29.4005 42.0248 29.6463 42.0111 29.8915C42.0048 30.0191 41.9079 30.0849 41.8118 30.1471C41.6647 30.242 41.4876 30.2667 41.3333 30.3464C40.7711 30.6359 40.3066 31.0554 39.8688 31.4995C39.634 31.7388 39.6958 31.8982 40.0175 31.9987C40.1372 32.0386 40.2624 32.0597 40.3856 32.0868C40.5354 32.1176 40.6793 32.1723 40.8118 32.2487C41.0251 32.3747 41.0291 32.4166 40.8433 32.5677C40.6499 32.7308 40.489 32.9288 40.3688 33.1514C40.3014 33.271 40.3006 33.3831 40.4143 33.4704C40.5738 33.5928 40.5945 33.7467 40.5582 33.9317C40.5388 34.0559 40.5305 34.1816 40.5335 34.3073C40.5318 34.3191 40.5325 34.3311 40.5356 34.3426C40.5388 34.3541 40.5443 34.3648 40.5518 34.374C40.5593 34.3833 40.5686 34.3909 40.5792 34.3964C40.5897 34.4018 40.6013 34.405 40.6132 34.4058C40.6603 34.4078 40.6822 34.3679 40.6962 34.3316C40.7635 34.1586 40.8333 33.9863 40.8927 33.8105C40.9482 33.647 41.0008 33.482 41.0921 33.332C41.2332 33.0992 41.4067 33.0589 41.6248 33.2212C41.9406 33.4568 42.1032 33.8037 42.2472 34.1542C42.4011 34.5294 42.5067 34.9226 42.5614 35.3244C42.6136 35.696 42.4932 35.9113 42.1308 36.0226C41.7603 36.1362 41.5578 36.3707 41.4836 36.7499C41.3844 37.257 41.3162 37.7714 41.1495 38.265C41.0092 38.6812 41.0084 38.6916 40.5618 38.6976C39.7911 38.7076 39.0204 38.71 38.2492 38.7159C38.1695 38.7159 38.0897 38.7159 38.01 38.7203C37.6815 38.7351 37.6396 38.6904 37.7624 38.3726C37.9618 37.8591 38.181 37.3539 38.3872 36.8432C38.455 36.6948 38.4701 36.5276 38.4298 36.3695C38.26 36.6725 38.1779 36.9739 37.9781 37.2347C37.9159 37.145 37.9231 37.0668 37.9191 36.9919C37.8513 35.651 37.872 34.3081 37.8393 32.9648C37.8242 32.3097 37.6663 31.6774 37.5738 31.0346C37.5303 30.7324 37.4737 30.4322 37.4287 30.1299C37.4004 29.9385 37.3071 29.8141 37.1097 29.7711C36.6556 29.6754 36.276 29.4394 35.9223 29.1483C35.7879 29.0374 35.6137 28.998 35.4526 28.9374C35.3844 28.9118 35.3111 28.8975 35.2449 28.8688C35.1651 28.8337 35.0268 28.8289 35.0619 28.7069C35.091 28.6052 35.2122 28.6515 35.2919 28.667C35.6358 28.7414 35.9724 28.8464 36.2975 28.9808C36.4518 29.0428 36.5905 29.1381 36.7038 29.2599C36.9406 29.5095 37.2512 29.6291 37.5738 29.7173C37.7257 29.7571 37.8098 29.6774 37.7783 29.5243C37.7345 29.3098 37.6189 29.1451 37.4028 29.0713C37.3025 29.0359 37.1986 29.0116 37.0929 28.9992C36.4833 28.9354 35.9913 28.553 35.4183 28.3859C34.9989 28.2635 34.5926 28.0957 34.1791 27.9521C33.8346 27.8325 33.4758 27.8205 33.1161 27.8261C33.0947 27.8227 33.0728 27.825 33.0525 27.8327C33.0322 27.8404 33.0143 27.8532 33.0005 27.87C33.1038 27.9992 33.2936 28.0323 33.3992 28.189C33.2397 28.246 33.1165 28.1866 32.9949 28.1491C32.1464 27.8768 31.3574 27.4505 30.5129 27.1726C29.2904 26.7699 28.2581 26.0275 27.1764 25.3712C27.0209 25.2771 27.0265 25.268 27.1453 25.1236C26.9396 25.0941 26.7307 25.0938 26.5249 25.1228C27.2271 25.5319 27.9276 25.9386 28.5982 26.3915C29.2689 26.8445 29.851 27.4326 30.5918 27.8457C30.4212 27.9254 30.2796 27.9059 30.1429 27.9079C28.5612 27.9294 26.9803 27.8808 25.3981 27.8576C23.8633 27.8353 22.3288 27.8077 20.7945 27.7747C20.3017 27.7647 20.287 27.7591 20.2702 27.2596C20.2363 26.2504 20.2212 25.2404 20.1965 24.2293C20.1881 23.8972 20.1849 23.5642 20.1598 23.2325C20.145 23.0443 20.1909 22.9873 20.3906 22.9897C21.6398 23.0024 22.889 23.0004 24.1386 23.0028C24.2249 23.0058 24.3113 23.0035 24.3974 22.9961C24.4623 22.9885 24.562 23.0379 24.5824 22.9362C24.5987 22.8541 24.5134 22.8122 24.4536 22.7768C24.3068 22.6863 24.1525 22.6077 24.0066 22.516C23.9444 22.4761 23.8268 22.4291 23.8802 22.3457C23.9384 22.254 24.019 22.3517 24.0796 22.3932C24.2962 22.5474 24.5327 22.6717 24.7825 22.7628C24.8439 22.7839 24.9021 22.8174 24.9819 22.7764C24.7554 22.4973 24.4265 22.3493 24.1733 22.1057C24.5919 22.2209 24.9978 22.3653 25.3762 22.5798C25.6306 22.7237 25.8822 22.8725 26.1374 23.0144C26.19 23.0439 26.2594 23.1101 26.3124 23.0351C26.3567 22.9721 26.2925 22.9127 26.2534 22.8613C26.1943 22.7888 26.1194 22.7309 26.0345 22.6918C25.9679 22.6623 25.9037 22.6278 25.8423 22.5886C25.7705 22.5367 25.6429 22.4765 25.702 22.3828C25.7717 22.27 25.8614 22.3936 25.9344 22.4307C26.3425 22.6371 26.6584 22.9889 26.82 23.4167C26.9157 23.6559 27.0193 23.8952 27.1166 24.1344C27.1565 24.2329 27.1964 24.3286 27.1246 24.4362C27.0588 24.5355 27.1561 24.5853 27.2171 24.6224C27.4208 24.7464 27.6258 24.8716 27.8407 24.9749C28.6038 25.3413 29.3024 25.8046 29.9854 26.3038C30.4611 26.6515 30.9949 26.9183 31.5304 27.1686C31.8653 27.3253 32.2138 27.4733 32.6006 27.421C33.2473 27.3341 33.833 27.5355 34.4112 27.7855C34.9718 28.0279 35.5344 28.2659 36.1372 28.3867C36.3708 28.4394 36.6109 28.4577 36.8497 28.441C37.1049 28.417 37.3509 28.4856 37.5993 28.5275C37.7608 28.5546 37.9047 28.5275 38.0152 28.3959C38.1846 28.1965 38.1121 27.9665 37.8557 27.9174C37.5028 27.8584 37.1457 27.8281 36.7879 27.8269C36.3628 27.8193 35.9407 27.7547 35.5328 27.6347C34.9155 27.4545 34.2892 27.305 33.666 27.1447C33.5427 27.1174 33.4267 27.064 33.3259 26.988C32.7904 26.5666 32.1779 26.2931 31.5272 26.1164C30.2318 25.7656 29.0616 25.1451 27.9117 24.4773C27.4603 24.2153 27.3251 23.7421 27.1429 23.3027C27.0999 23.1982 27.1625 23.1599 27.2625 23.1595C27.5149 23.1595 27.7673 23.1516 28.0201 23.1532C31.3162 23.1699 34.6123 23.189 37.9083 23.2106C38.1109 23.2106 38.1575 23.1611 38.1575 22.961C38.1559 19.4326 38.1598 15.9042 38.1691 12.3758C38.1723 10.9938 38.1854 9.61187 38.1858 8.22912C38.1858 8.06166 38.2257 7.99786 38.4027 7.99308C39.7249 7.9564 41.0474 7.9863 42.3692 7.97434C42.4748 7.97434 42.5083 8.01421 42.5059 8.11469C42.5016 8.31405 42.5059 8.51341 42.5059 8.71276C42.5089 12.281 42.5118 15.8493 42.5147 19.4176C42.5147 20.7066 42.5251 21.9957 42.5195 23.2851C42.5195 23.4749 42.5662 23.5275 42.7587 23.5303C46.4131 23.5798 50.0671 23.6343 53.7207 23.6938C53.9731 23.6978 54.2255 23.7062 54.4783 23.7241C54.7095 23.7409 54.7394 23.8102 54.6429 24.0192C54.5632 24.1954 54.4001 24.3318 54.3866 24.5471C54.8176 24.0961 55.0369 23.4067 55.8016 23.2963C55.7617 23.4043 55.682 23.4219 55.6278 23.4646C55.3487 23.6842 55.1302 23.945 55.0795 24.311C55.0512 24.5184 54.92 24.6527 54.7801 24.7895C54.7271 24.8401 54.6206 24.8852 54.7004 24.9988C54.7729 25.1057 54.8507 25.0387 54.9284 25.0156L55.0779 24.9709C54.9817 25.088 54.856 25.1774 54.7139 25.2301C54.6342 25.2632 54.5748 25.2827 54.688 25.3668C54.8917 25.5183 55.0935 25.4865 55.1517 25.2289C55.2382 24.8517 55.4603 24.5208 55.4994 24.1316C55.505 24.0762 55.5277 24.022 55.5867 24.012C55.7657 23.9777 55.7761 23.8409 55.7681 23.7062C55.7601 23.5714 55.8144 23.4721 55.9168 23.3812C56.1712 23.1567 56.4192 22.9263 56.7195 22.7624C56.8231 22.7019 56.9375 22.6624 57.0564 22.646C57.0923 22.6384 57.1297 22.6413 57.164 22.6545C57.1983 22.6677 57.2281 22.6905 57.2498 22.7201C57.3068 22.7975 57.2649 22.8549 57.225 22.9195C57.1947 22.9677 57.1429 23.0068 57.1501 23.087C57.2617 23.0614 57.3694 23.0335 57.4786 23.0136C57.5229 23.0052 57.5819 23.002 57.6018 23.0535C57.6218 23.1049 57.5663 23.1332 57.5293 23.1555C57.3032 23.2819 57.0747 23.4031 56.8486 23.5287C56.7645 23.5758 56.6848 23.6296 56.5971 23.6842C56.6816 23.7779 56.7721 23.7588 56.8538 23.7604C57.5981 23.7756 58.3424 23.7888 59.0867 23.8003C59.7924 23.8106 59.8346 23.8465 59.837 24.5503C59.841 25.7265 59.837 26.9027 59.8422 28.0785C59.8422 28.2101 59.8179 28.2631 59.6704 28.2627C57.0123 28.2582 54.3541 28.257 51.696 28.2591C51.6514 28.254 51.6079 28.2472 51.5174 28.2396ZM39.2476 35.5692C39.1739 35.5692 39.1144 35.5792 39.0993 35.653C39.0946 35.6708 39.0936 35.6894 39.0964 35.7076C39.0991 35.7258 39.1056 35.7432 39.1154 35.7588C39.1252 35.7744 39.1381 35.7878 39.1533 35.7982C39.1685 35.8086 39.1857 35.8158 39.2038 35.8192C39.3425 35.8591 39.4829 35.8906 39.6248 35.9281C39.6894 35.9452 39.7632 35.9763 39.8006 35.8998C39.8381 35.8232 39.7823 35.7602 39.7229 35.7168C39.579 35.6127 39.4055 35.5976 39.2476 35.5692ZM25.6298 24.016C25.4336 23.9781 25.2841 23.9406 25.135 24C25.076 24.0236 24.989 24.0578 25.0552 24.138C25.1298 24.2301 25.2291 24.3206 25.3535 24.1998C25.4371 24.1266 25.53 24.0648 25.6298 24.016ZM38.3888 25.6882C38.2855 25.6772 38.1819 25.7047 38.0977 25.7656C37.9972 25.8262 38.018 25.9386 38 26.0315C37.9917 26.0789 38.0471 26.0853 38.0862 26.0897C38.199 26.1021 38.2532 26.0363 38.2883 25.941C38.319 25.8616 38.3521 25.7839 38.3904 25.6882H38.3888ZM38.9837 25.5187C38.9267 25.5279 38.8641 25.5506 38.8688 25.6348C38.8678 25.6615 38.8772 25.6877 38.8949 25.7077C38.9127 25.7278 38.9374 25.7402 38.9641 25.7424C38.9822 25.7429 39.0002 25.7398 39.017 25.7333C39.0339 25.7268 39.0493 25.717 39.0623 25.7045C39.0754 25.692 39.0858 25.6771 39.0931 25.6605C39.1003 25.6439 39.1042 25.6261 39.1045 25.6081C39.1117 25.5447 39.0542 25.5259 38.9853 25.5187H38.9837ZM39.0961 25.2656C39.008 25.1878 38.9402 25.116 38.8298 25.1459C38.7899 25.1563 38.7899 25.1906 38.813 25.2233C38.8828 25.3134 38.9661 25.3353 39.0977 25.2656H39.0961ZM28.1991 25.7648C28.3163 25.9245 28.4795 26.0445 28.6668 26.1089C28.5371 25.9623 28.3777 25.845 28.1991 25.7648Z" fill="white"/>
<path d="M40.6004 56.5322C40.4322 56.0813 40.3393 55.6267 40.2017 55.185C40.3516 56.12 40.6212 57.0358 40.6196 57.9959C40.7392 57.799 40.8253 57.6064 40.8313 57.3711C40.8616 56.1606 40.7874 54.9545 40.7117 53.7476C40.6838 53.303 40.4888 52.9027 40.4031 52.4717C40.3329 52.1204 40.2603 51.7695 40.2201 51.4135C40.2081 51.3074 40.1886 51.1838 40.3437 51.1687C40.4908 51.1543 40.5219 51.2636 40.5518 51.3832C41.1578 53.8018 41.2806 56.2619 41.1865 58.7407C41.1718 59.1323 41.1989 59.525 41.1467 59.9154C41.1327 60.017 41.1299 60.1147 40.9872 60.1239C40.9039 60.1287 40.9074 60.2036 40.913 60.2626C40.9206 60.3823 40.913 60.5182 41.0586 60.5605C41.1746 60.5944 41.2101 60.6434 41.1714 60.7598C41.1451 60.8396 41.1842 60.9149 41.2041 60.9919C41.2451 61.1456 41.2782 61.3013 41.3034 61.4584C41.3121 61.5186 41.3831 61.6239 41.2033 61.6151C41.108 61.6103 41.0259 61.7614 40.9561 61.8579C40.9162 61.9153 40.8871 61.9544 40.8241 61.883C40.7767 61.8288 40.7292 61.8627 40.6842 61.895C40.5817 61.9684 40.48 62.0433 40.3756 62.1135C40.2711 62.1837 40.1499 62.2949 40.0964 62.0553C39.9689 62.1422 39.9533 62.2662 39.9122 62.3743C39.8815 62.454 39.8556 62.5401 39.7894 62.5991C39.7145 62.6665 39.7324 62.7188 39.7986 62.777C39.8875 62.8567 39.9465 62.968 39.931 63.078C39.8975 63.3172 40.0279 63.5086 40.0877 63.7207C40.1116 63.8053 40.1694 63.7969 40.2264 63.7961C40.6592 63.7986 41.0888 63.7225 41.4944 63.5716C41.6052 63.5289 41.6985 63.4588 41.7244 63.3404C41.8536 62.7491 41.9461 62.1566 41.8684 61.5461C41.8062 61.0533 41.669 60.5677 41.7045 60.0641C41.7276 59.7232 41.6837 59.3899 41.62 59.0553C41.5119 58.4919 41.5932 57.9289 41.663 57.3695C41.8668 55.7376 41.9066 54.1001 41.8839 52.4565C41.8787 52.0977 41.7491 51.7687 41.6343 51.4366C41.5378 51.1575 41.5546 51.1208 41.8297 51.0024C41.9393 50.9554 42.0494 50.9091 42.1606 50.8652C42.3687 50.7855 42.411 50.809 42.4142 51.0311C42.4246 51.7552 42.4385 52.4793 42.4389 53.2037C42.4429 58.6922 42.4453 64.1813 42.4461 69.6708C42.4461 69.9252 42.4461 69.9256 42.1873 69.9256C40.732 69.9256 39.2767 69.9232 37.8218 69.9284C37.6691 69.9284 37.6184 69.8945 37.62 69.7322C37.6679 65.0481 37.713 60.3638 37.7556 55.6794C37.7556 55.543 37.7747 55.4063 37.7847 55.2707C37.8668 55.2707 37.8752 55.3249 37.8911 55.3632C38.3696 56.5366 38.8843 57.6961 39.1977 58.9305C39.3572 59.5529 39.3859 60.1893 39.4226 60.8256C39.4278 60.9185 39.427 61.0122 39.4406 61.1047C39.4541 61.1972 39.4326 61.322 39.5889 61.3145C39.728 61.3077 39.8321 61.2467 39.868 61.1051C39.8987 60.9855 39.8732 60.8659 39.8492 60.7491C39.6782 59.9313 39.5099 59.1143 39.3245 58.2974C39.1607 57.5797 38.8413 56.9066 38.6332 56.2001C38.2468 54.8891 37.8465 53.5817 37.6049 52.2333C37.5343 51.8409 37.5191 51.4637 37.7727 51.1073C37.9721 50.8282 37.9274 50.4849 37.9091 50.1595C37.9035 50.0606 37.8293 50.018 37.7436 50.024C37.4206 50.0475 37.3349 49.8246 37.305 49.5702C37.2404 49.0164 37.2321 48.4562 37.1025 47.9107C36.9227 47.1532 36.8293 46.3825 36.7795 45.6058C36.756 45.2381 36.6412 45.1783 37.1384 44.9973C37.0391 44.8693 36.8888 44.8259 36.7683 44.7417C36.6168 44.6361 36.5128 44.5161 36.5435 44.3127C36.565 44.1684 36.63 44.1165 36.7735 44.1496C37.0319 44.2094 37.2899 44.2776 37.5594 44.2617C37.7747 44.2489 37.9804 44.2146 38.1523 44.036C38.0626 43.9782 37.9808 44.0129 37.9023 44.0252C37.6196 44.0687 37.3369 44.105 37.0498 44.0679C36.9841 44.0591 36.9067 44.0603 36.8832 43.9842C36.8569 43.8972 36.937 43.8725 36.9932 43.8434C37.1555 43.7581 37.128 43.6592 37.0052 43.5723C36.6862 43.3462 36.766 43.1736 37.0626 42.9615C37.1822 42.8745 37.3273 42.839 37.4561 42.7713C37.4908 42.7529 37.5359 42.7338 37.5339 42.6895C37.5339 42.6269 37.4713 42.6273 37.4298 42.6209C37.2269 42.5898 37.0215 42.5699 36.8194 42.5336C36.6878 42.5101 36.5873 42.4431 36.5734 42.2884C36.5522 42.0576 36.5778 42.0249 36.8078 42.0129C37.0379 42.0009 37.2632 41.9922 37.5255 41.9048C37.4059 41.8403 37.3194 41.8582 37.2388 41.8494C37.0937 41.8335 36.947 41.8275 36.803 41.8036C36.7209 41.7896 36.612 41.7729 36.5917 41.6788C36.569 41.5727 36.6802 41.5372 36.7512 41.5037C36.8561 41.4555 36.8708 41.3841 36.8664 41.2805C36.8473 41.0551 36.842 40.8287 36.8505 40.6026C36.8616 40.4228 36.9362 40.3778 37.0973 40.3901C37.2285 40.4005 37.3608 40.3925 37.5494 40.3925C37.3501 40.2546 37.4298 40.1561 37.5275 40.0735C37.9153 39.74 38.3342 39.4442 38.7783 39.1904C39.0075 39.0624 39.2675 39.0811 39.5079 39.0054C39.6236 38.9687 39.677 39.1078 39.7428 39.188C39.8086 39.2681 39.7599 39.3239 39.7141 39.3822C39.661 39.4499 39.602 39.5133 39.551 39.5815C39.5163 39.6282 39.4713 39.6828 39.5279 39.741C39.5493 39.7628 39.5771 39.777 39.6073 39.7817C39.6375 39.7864 39.6683 39.7812 39.6953 39.7669C39.7545 39.7369 39.8077 39.6964 39.8524 39.6473C40.0079 39.4711 40.1957 39.4256 40.4266 39.4519C40.6331 39.4759 40.844 39.4571 41.0534 39.4571C41.0574 39.4739 41.0613 39.4906 41.0657 39.5078L40.2711 40.0504C40.4306 40.0823 40.5147 40.0153 40.6 39.9659C40.8468 39.8223 41.0873 39.6684 41.3369 39.5297C41.4716 39.4547 41.6291 39.3702 41.6666 39.6353C41.6715 39.6509 41.6797 39.6651 41.6909 39.677C41.702 39.6888 41.7156 39.6981 41.7308 39.7039C41.9302 39.7737 41.842 39.8439 41.7356 39.9188C41.6431 39.9842 41.553 40.0532 41.4334 40.06C41.3867 40.0628 41.3333 40.0664 41.3233 40.1242C41.322 40.1475 41.3268 40.1708 41.3373 40.1918C41.3477 40.2128 41.3633 40.2307 41.3827 40.2438C41.4598 40.3085 41.5576 40.3433 41.6582 40.3419C41.7304 40.3447 41.8257 40.3419 41.8404 40.4264C41.8552 40.5109 41.7531 40.5309 41.6933 40.5632C41.6352 40.5949 41.5718 40.6161 41.5063 40.6258C41.4222 40.6373 41.342 40.5428 41.2475 40.6333C41.0737 40.7992 40.8221 40.8821 40.7519 41.1545C40.661 41.5073 40.437 41.7753 40.1722 42.0181C39.7623 42.3941 39.3624 42.7812 38.9689 43.1855C39.1475 43.2122 39.3018 43.1508 39.4473 43.0723C39.8676 42.847 40.1674 42.4906 40.4545 42.1225C40.6866 41.8251 40.8831 41.5025 41.1052 41.158C41.2085 41.3945 41.2021 41.6198 41.1961 41.8359C41.1805 42.4414 41.0535 43.0388 40.8213 43.5982C40.736 43.8047 40.6662 44.0077 40.7938 44.2258C40.8385 44.3023 40.8257 44.3972 40.8022 44.4802C40.6487 45.018 40.665 45.5711 40.6531 46.1217C40.6443 46.5136 40.6467 46.9068 40.6132 47.2967C40.584 47.712 40.4391 48.1107 40.1949 48.4478C39.9346 48.7983 39.8556 49.1555 40.0111 49.5642C40.04 49.6526 40.0577 49.7442 40.0638 49.837C40.0821 50.0024 40.0311 50.0447 39.872 49.9921C39.7129 49.9394 39.5905 49.8214 39.4733 49.7018C39.4334 49.6619 39.4015 49.5858 39.3329 49.6145C39.2579 49.6464 39.2759 49.7245 39.2851 49.7907C39.3401 50.1991 39.4397 50.6002 39.5821 50.9869C39.6724 51.2291 39.7178 51.4859 39.7161 51.7444C39.7161 52.1164 39.7217 52.4884 39.7304 52.8608C39.7304 52.9238 39.6933 53.0295 39.8449 53.0016C39.9067 52.99 39.9079 53.0917 39.9114 53.1483C39.9354 53.5127 39.9513 53.878 39.984 54.2416C39.9888 54.2954 39.8819 54.5099 40.1184 54.4031C40.1355 54.3955 40.1886 54.4561 40.2181 54.4908C40.3421 54.6379 40.3963 54.8161 40.4254 55.0008C40.4988 55.4661 40.5661 55.9322 40.6347 56.3963C40.6411 56.4361 40.6646 56.476 40.6004 56.5322ZM38.8544 49.5682C38.7464 49.9346 38.5917 50.2879 38.5414 50.6715C38.5179 50.8513 38.4597 51.0211 38.3257 51.1535C38.2885 51.1917 38.2603 51.2377 38.2433 51.2882C38.2262 51.3388 38.2207 51.3925 38.2273 51.4454C38.2432 51.7317 38.2005 52.0148 38.175 52.2982C38.1611 52.4577 38.1352 52.6148 38.1499 52.7743C38.1862 53.1272 38.3676 53.2635 38.7113 53.2005C38.7706 53.1931 38.8293 53.1819 38.8871 53.1671C39.0147 53.1272 39.0917 53.1862 39.1463 53.2895C39.1899 53.3713 39.218 53.4605 39.2292 53.5526C39.3038 54.1507 39.309 54.7571 39.4238 55.3516C39.4852 55.6734 39.5378 55.9964 39.5969 56.3325C39.6571 56.289 39.6367 56.2555 39.6327 56.2264C39.5729 55.5594 39.5131 54.8923 39.4525 54.2249C39.36 53.1806 39.2563 52.1388 38.8899 51.1436C38.7823 50.8505 38.7807 50.5495 38.8417 50.2425C38.8902 50.0207 38.8946 49.7916 38.8544 49.5682ZM39.6658 62.5078L39.4158 61.8767C39.3915 62.1298 39.5247 62.3204 39.6658 62.5078Z" fill="white"/>
<path d="M42.3846 47.2696C42.3101 47.6285 42.336 47.9395 42.3049 48.2465C42.2734 48.5655 42.2435 48.8797 42.1853 49.1935C42.1382 49.4383 42.0102 49.6165 41.8181 49.7624C41.7398 49.8233 41.6652 49.8888 41.5948 49.9586C41.4636 50.0858 41.452 50.2218 41.5756 50.3621C41.6374 50.4327 41.6929 50.5076 41.7036 50.6045C41.712 50.6791 41.7136 50.7568 41.6295 50.7915C41.5561 50.8214 41.4983 50.7776 41.4572 50.7237C41.2543 50.4668 41.1331 50.1548 41.1095 49.8282C41.0645 49.1947 41.1179 48.5754 41.3288 47.9658C41.901 46.3111 42.2539 44.6058 42.452 42.867C42.4764 42.6093 42.5299 42.3551 42.6115 42.1094C42.6312 42.0319 42.6704 41.9608 42.7256 41.9029C42.8077 42.1617 42.8053 42.4133 42.836 42.6605C42.9377 43.5301 43.1063 44.3905 43.1897 45.2629C43.2539 45.9311 43.261 46.6014 43.2802 47.2712C43.283 47.3007 43.279 47.3305 43.2684 47.3581C43.2578 47.3858 43.241 47.4107 43.2192 47.4307C43.092 47.5476 42.972 47.6724 42.8396 47.7828C42.6869 47.91 42.6171 47.8908 42.5437 47.7102C42.4895 47.5818 42.4496 47.4511 42.3846 47.2696Z" fill="white"/>
<path d="M40.0042 27.6667C40.1059 27.6738 40.1721 27.6778 40.2383 27.6838C40.5493 27.7117 40.5572 27.7169 40.505 28.0319C40.4867 28.1435 40.5138 28.2133 40.6202 28.2476C40.7586 28.2926 40.8136 28.3816 40.7638 28.5219C40.7291 28.6192 40.4875 28.7639 40.4049 28.7376C40.3037 28.7053 40.3714 28.6423 40.3866 28.5945C40.4117 28.5147 40.5289 28.4282 40.381 28.3672C40.2614 28.3178 40.1502 28.3373 40.0828 28.4769C39.9879 28.6762 39.9524 28.6762 39.8292 28.4976C39.7743 28.4068 39.7131 28.3199 39.6462 28.2376C39.5301 28.1124 39.4887 27.9912 39.5688 27.8254C39.649 27.6595 39.7785 27.6659 39.9205 27.6659C39.96 27.6675 39.9998 27.6667 40.0042 27.6667Z" fill="white"/>
<path d="M48.6828 28.3062C48.4508 28.4438 48.2239 28.4916 48.0074 28.5614C47.1877 28.8249 46.3675 29.0885 45.5266 29.2791C45.4486 29.2939 45.3695 29.3027 45.2902 29.3054C45.2579 29.3074 45.2216 29.301 45.214 29.2587C45.2111 29.2424 45.2139 29.2256 45.2219 29.2111C45.2299 29.1966 45.2426 29.1853 45.2579 29.179C45.3169 29.1495 45.3786 29.1256 45.4421 29.1076C46.4193 28.8684 47.4058 28.6603 48.3611 28.3365C48.4635 28.2968 48.5749 28.2863 48.6828 28.3062Z" fill="white"/>
<path d="M39.2324 38.9336C38.5697 39.0405 38.0549 39.3722 37.5661 39.7558C37.4254 39.8662 37.2898 39.9843 37.1275 40.0664C37.0346 40.1134 36.9417 40.1238 36.8883 40.0189C36.8393 39.9233 36.9182 39.8718 36.988 39.8319C37.4935 39.5417 37.9804 39.2191 38.5003 38.9548C38.6125 38.8953 38.7369 38.8624 38.8639 38.8587C38.9908 38.8551 39.1169 38.8807 39.2324 38.9336Z" fill="white"/>
<path d="M42.3371 32.8148C42.0781 32.8137 41.8235 32.7476 41.5967 32.6227C41.5369 32.5912 41.477 32.5457 41.4942 32.4692C41.5113 32.3926 41.5847 32.3739 41.6513 32.3747C42.0169 32.3794 42.3734 32.4544 42.7278 32.5341C42.7721 32.5445 42.8227 32.5668 42.8283 32.6183C42.8351 32.6781 42.786 32.71 42.7406 32.7379C42.6158 32.8152 42.4762 32.8136 42.3371 32.8148Z" fill="white"/>
<path d="M37.3726 39.0273C37.4886 39.0249 37.5831 39.015 37.6086 39.1119C37.6314 39.2 37.5429 39.2315 37.4827 39.2678C37.3275 39.3583 37.1681 39.4424 36.9858 39.4611C36.8606 39.4739 36.7255 39.4564 36.6956 39.3152C36.6629 39.1613 36.7917 39.1159 36.9161 39.0943C37.0795 39.0668 37.2438 39.0457 37.3726 39.0273Z" fill="white"/>
<path d="M40.3365 63.0074C40.3365 62.954 40.3365 62.9077 40.3365 62.8611C40.3365 62.7933 40.3405 62.7203 40.4195 62.6988C40.4984 62.6773 40.5024 62.7666 40.5391 62.8049C40.7209 62.9891 40.7723 63.2131 40.7356 63.4627C40.7237 63.5425 40.703 63.633 40.616 63.6541C40.5164 63.6788 40.4916 63.5788 40.4534 63.5134C40.3611 63.3616 40.3202 63.1842 40.3365 63.0074Z" fill="white"/>
<path d="M43.7644 40.0409C43.76 40.1205 43.7361 40.2002 43.6051 40.1966C43.4279 40.1894 43.175 40.0568 43.1758 39.9644C43.1758 39.9011 43.4498 39.696 43.5442 39.688C43.6386 39.68 43.7592 39.8549 43.7644 40.0409Z" fill="white"/>
<path d="M42.3292 36.8084C42.334 36.9403 42.0104 37.3742 41.9 37.4037C41.8032 37.4296 41.7678 37.3638 41.7893 37.2957C41.8566 37.0809 41.9487 36.8749 42.1049 36.7067C42.1387 36.6705 42.1814 36.6526 42.228 36.6876C42.2729 36.7171 42.3081 36.7591 42.3292 36.8084Z" fill="white"/>
<path d="M50.8121 27.9451C50.7607 27.9419 50.7077 27.9578 50.6842 27.9029C50.6663 27.8602 50.6958 27.8263 50.7213 27.7977C50.834 27.6768 50.9803 27.5923 51.1413 27.555C51.1805 27.5446 51.2222 27.5496 51.2579 27.5689C51.2936 27.5882 51.3206 27.6205 51.3333 27.659C51.3684 27.7447 51.2871 27.7718 51.2321 27.8008C51.1003 27.87 50.9586 27.9186 50.8121 27.9451Z" fill="white"/>
<path d="M39.2305 24.6546C39.4787 24.4419 39.762 24.508 40.033 24.9077C39.7401 24.8718 39.499 24.7415 39.2305 24.6546Z" fill="white"/>
<path d="M42.2595 26.4661C42.3666 26.4509 42.414 26.4681 42.4112 26.5513C42.4084 26.6433 42.418 26.7417 42.3256 26.799C42.2906 26.8213 42.2706 26.7823 42.2535 26.7544C42.2268 26.7102 42.2842 26.6134 42.1854 26.6206C42.1486 26.6221 42.113 26.6346 42.0835 26.6567C42.0539 26.6787 42.0317 26.7092 42.0197 26.7441C42.0034 26.795 41.9994 26.8556 41.9285 26.8504C41.8676 26.846 41.8449 26.7922 41.8262 26.7421C41.814 26.7144 41.8132 26.6831 41.824 26.6549C41.8348 26.6267 41.8564 26.6039 41.8839 26.5915C42.0014 26.5294 42.1283 26.487 42.2595 26.4661Z" fill="white"/>
<path d="M39.6784 27.2577C39.6333 27.2529 39.5839 27.2693 39.5692 27.2179C39.5596 27.184 39.5899 27.1585 39.6174 27.1402C39.7693 27.0352 39.9371 26.9553 40.1143 26.9035C40.1573 26.8919 40.2139 26.8784 40.2382 26.9298C40.2625 26.9812 40.2239 27.031 40.1817 27.0641C40.0345 27.173 39.8606 27.2399 39.6784 27.2577Z" fill="white"/>
<path d="M42.1975 26.1195C42.0382 26.143 41.9102 26.1633 41.7807 26.1813C41.6939 26.1936 41.6086 26.1956 41.5572 26.1016C41.5456 26.0856 41.5387 26.0666 41.5374 26.0469C41.536 26.0271 41.5403 26.0074 41.5496 25.99C41.5739 25.9502 41.6138 25.9537 41.654 25.9653C41.8286 26.0167 42.0035 26.0653 42.1975 26.1195Z" fill="white"/>
<path d="M44.3634 31.119C44.3335 31.2134 44.302 31.3265 44.2606 31.4376C44.2562 31.4502 44.2491 31.4616 44.2399 31.4712C44.2307 31.4809 44.2195 31.4884 44.2072 31.4934C44.1948 31.4984 44.1816 31.5008 44.1683 31.5003C44.155 31.4998 44.1419 31.4965 44.13 31.4906C44.073 31.4699 44.0794 31.4205 44.0902 31.3751C44.1134 31.259 44.1661 31.1508 44.2431 31.0609C44.2638 31.0366 44.2889 31.0115 44.3259 31.0211C44.363 31.0306 44.3586 31.0673 44.3634 31.119Z" fill="white"/>
<path d="M41.8591 27.253C41.8463 27.3297 41.8287 27.42 41.7317 27.4204C41.6119 27.4204 41.5635 27.3241 41.5544 27.2207C41.5464 27.1324 41.6139 27.0953 41.6957 27.0953C41.7952 27.0965 41.8559 27.1436 41.8591 27.253Z" fill="white"/>
<path d="M42.251 49.8772C42.2725 50.0273 42.312 50.1727 42.1312 50.2366C42.0693 50.2585 41.979 50.2509 41.9714 50.1667C41.9591 49.9818 42.1028 49.9323 42.251 49.8772Z" fill="white"/>
<path d="M41.7111 38.0556C41.751 37.9246 41.8057 37.7973 41.9546 37.7458C41.9814 37.7366 42.0041 37.7518 42.0145 37.7817C42.0324 37.8328 41.8548 38.1358 41.787 38.1641C41.771 38.1709 41.7471 38.1765 41.7351 38.1689C41.6972 38.1418 41.7051 38.0995 41.7111 38.0556Z" fill="white"/>
<path d="M40.9677 63.4631C40.8662 63.3488 40.8845 63.2408 40.8861 63.1393C40.8861 63.0867 40.8749 63.0031 40.9581 63.0059C41.0298 63.0079 41.0378 63.0879 41.0454 63.1421C41.0633 63.2484 41.0223 63.3436 40.9677 63.4631Z" fill="white"/>
<path d="M41.2139 62.9343C41.225 62.8625 41.1955 62.7575 41.3057 62.7479C41.3855 62.7412 41.413 62.8242 41.405 62.89C41.395 62.9698 41.3819 63.0848 41.2853 63.0932C41.2095 63.0995 41.2234 62.9982 41.2139 62.9343Z" fill="white"/>
<path d="M50.3358 28.1001C50.3142 28.1824 50.2559 28.2148 50.176 28.2199C50.1065 28.2243 50.0334 28.2104 50.0322 28.1265C50.031 28.0426 50.1053 28.0278 50.1732 28.0243C50.2411 28.0207 50.3046 28.0211 50.3358 28.1001Z" fill="white"/>
<path d="M41.5337 63.4319C41.5175 63.5067 41.4589 63.5384 41.3801 63.5384C41.3346 63.5384 41.2724 63.5273 41.2823 63.4723C41.3001 63.3733 41.3912 63.3535 41.4759 63.3436C41.5254 63.3381 41.5393 63.3776 41.5337 63.4319Z" fill="white"/>
<path d="M39.3885 28.0646C39.4554 28.0697 39.4784 28.1143 39.4788 28.1704C39.4802 28.1817 39.4792 28.1932 39.4759 28.2042C39.4725 28.2152 39.4669 28.2253 39.4594 28.2339C39.4519 28.2426 39.4427 28.2496 39.4324 28.2545C39.422 28.2593 39.4107 28.262 39.3993 28.2622C39.338 28.2662 39.2975 28.2368 39.2979 28.1735C39.2973 28.1475 39.3062 28.1222 39.3229 28.1021C39.3395 28.0821 39.3628 28.0688 39.3885 28.0646Z" fill="white"/>
<path d="M34.0107 12.7759C33.3924 12.7759 32.8369 12.3461 32.7012 11.7178C32.5454 10.9939 33.0053 10.2801 33.7292 10.1218C35.7776 9.67945 37.8863 9.45325 40.0025 9.45325C40.744 9.45325 41.3447 10.0539 41.3447 10.7954C41.3447 11.5368 40.744 12.1375 40.0025 12.1375C38.0798 12.1375 36.1596 12.3411 34.2972 12.7457C34.2017 12.7659 34.1062 12.7759 34.0132 12.7759H34.0107Z" fill="#F2786F"/>
<path d="M5.70196 40.0712C5.20683 40.0712 4.80469 39.6691 4.80469 39.174C4.80217 24.2748 14.2172 10.8811 28.2317 5.84685C28.3297 5.81166 28.4328 5.79407 28.5358 5.79407C28.9128 5.79407 29.2546 6.03284 29.3828 6.38973C29.5512 6.85722 29.3074 7.37246 28.8399 7.53834C15.5367 12.3187 6.59923 25.0313 6.59923 39.1715C6.59923 39.6666 6.19709 40.0687 5.70196 40.0687V40.0712Z" fill="#EE4036"/>
<path d="M32.8666 6.34964C32.4469 6.34964 32.0799 6.05055 31.9894 5.64087C31.8839 5.1558 32.193 4.67826 32.6781 4.5727C35.1361 4.03986 37.6671 3.77094 40.2031 3.77094C40.6982 3.77094 41.1029 4.17307 41.1029 4.6682C41.1029 5.16334 40.7007 5.56547 40.2031 5.56547C37.7953 5.56547 35.39 5.82184 33.0576 6.32702C32.9948 6.33959 32.9294 6.34713 32.8666 6.34713V6.34964Z" fill="#EE4036"/>
</g>
</svg>
