<svg width="18" height="16" viewBox="0 0 18 16" fill="none" xmlns="http://www.w3.org/2000/svg">
<rect x="3.09082" y="9.69843" width="2.47291" height="5.56404" fill="#3882C7"/>
<rect x="7.41797" y="7.84375" width="2.47291" height="7.41872" fill="#3882C7"/>
<rect x="11.7461" y="5.98907" width="2.47291" height="9.2734" fill="#3882C7"/>
<path d="M0.405711 15.6875H16.9046C17.0122 15.6875 17.1154 15.6448 17.1915 15.5687C17.2676 15.4926 17.3103 15.3894 17.3103 15.2818C17.3103 15.1742 17.2676 15.071 17.1915 14.9949C17.1154 14.9188 17.0122 14.8761 16.9046 14.8761H14.8719V5.91662C14.8719 5.80902 14.8291 5.70583 14.753 5.62974C14.6769 5.55366 14.5737 5.51091 14.4661 5.51091H12.015C11.9074 5.51091 11.8042 5.55366 11.7281 5.62974C11.652 5.70583 11.6093 5.80902 11.6093 5.91662V14.8761H10.2865V7.89446C10.2865 7.78686 10.2437 7.68367 10.1676 7.60758C10.0916 7.5315 9.98836 7.48875 9.88076 7.48875H7.42959C7.32199 7.48875 7.21879 7.5315 7.14271 7.60758C7.06662 7.68367 7.02388 7.78686 7.02388 7.89446V14.8761H5.70109V9.87231C5.70109 9.7647 5.65834 9.66151 5.58226 9.58542C5.50617 9.50934 5.40298 9.46659 5.29538 9.46659H2.8442C2.7366 9.46659 2.63341 9.50934 2.55732 9.58542C2.48124 9.66151 2.43849 9.7647 2.43849 9.87231V14.8761H0.405711C0.29811 14.8761 0.194916 14.9188 0.11883 14.9949C0.0427444 15.071 0 15.1742 0 15.2818C0 15.3894 0.0427444 15.4926 0.11883 15.5687C0.194916 15.6448 0.29811 15.6875 0.405711 15.6875ZM12.4207 6.32233H14.0604V14.8761H12.4207V6.32233ZM7.8353 8.30017H9.47505V14.8761H7.8353V8.30017ZM3.24992 10.278H4.88967V14.8761H3.24992V10.278ZM2.41841 8.7069C2.40273 8.65597 2.39725 8.60245 2.40226 8.5494C2.40727 8.49635 2.42268 8.4448 2.44762 8.39771C2.47255 8.35062 2.50652 8.3089 2.54758 8.27493C2.58864 8.24097 2.63599 8.21542 2.68692 8.19976C6.99112 6.88392 10.8034 4.3109 13.6339 0.811422H11.9981C11.8905 0.811422 11.7873 0.768678 11.7112 0.692592C11.6351 0.616507 11.5924 0.513313 11.5924 0.405711C11.5924 0.29811 11.6351 0.194916 11.7112 0.11883C11.7873 0.0427445 11.8905 1.60338e-09 11.9981 0H14.4661C14.5737 0 14.6769 0.0427445 14.753 0.11883C14.8291 0.194916 14.8719 0.29811 14.8719 0.405711V2.87379C14.8719 2.98139 14.8291 3.08458 14.753 3.16067C14.6769 3.23675 14.5737 3.2795 14.4661 3.2795C14.3585 3.2795 14.2553 3.23675 14.1793 3.16067C14.1032 3.08458 14.0604 2.98139 14.0604 2.87379V1.56987C12.7103 3.18843 11.1482 4.61775 9.41646 5.81925C7.42843 7.19961 5.2389 8.26423 2.92548 8.97538C2.87455 8.9911 2.82102 8.99663 2.76796 8.99164C2.71489 8.98665 2.66333 8.97124 2.61623 8.9463C2.56912 8.92136 2.5274 8.88737 2.49344 8.84629C2.45949 8.8052 2.43397 8.75783 2.41834 8.70687L2.41841 8.7069Z" fill="#3882C7"/>
</svg>
