<svg width="20" height="27" viewBox="0 0 20 27" fill="none" xmlns="http://www.w3.org/2000/svg">
<mask id="path-1-outside-1_198_22345" maskUnits="userSpaceOnUse" x="0" y="0" width="20" height="27" fill="black">
<rect fill="white" width="20" height="27"/>
<path d="M2.17 20.89C2.85 20.35 3.16 20.1 3.1 20.14C5.06 18.52 6.6 17.19 7.72 16.15C8.86 15.11 9.82 14.02 10.6 12.88C11.38 11.74 11.77 10.63 11.77 9.55C11.77 8.73 11.58 8.09 11.2 7.63C10.82 7.17 10.25 6.94 9.49 6.94C8.73 6.94 8.13 7.23 7.69 7.81C7.27 8.37 7.06 9.17 7.06 10.21H2.11C2.15 8.51 2.51 7.09 3.19 5.95C3.89 4.81 4.8 3.97 5.92 3.43C7.06 2.89 8.32 2.62 9.7 2.62C12.08 2.62 13.87 3.23 15.07 4.45C16.29 5.67 16.9 7.26 16.9 9.22C16.9 11.36 16.17 13.35 14.71 15.19C13.25 17.01 11.39 18.79 9.13 20.53H17.23V24.7H2.17V20.89Z"/>
</mask>
<path d="M2.17 20.89C2.85 20.35 3.16 20.1 3.1 20.14C5.06 18.52 6.6 17.19 7.72 16.15C8.86 15.11 9.82 14.02 10.6 12.88C11.38 11.74 11.77 10.63 11.77 9.55C11.77 8.73 11.58 8.09 11.2 7.63C10.82 7.17 10.25 6.94 9.49 6.94C8.73 6.94 8.13 7.23 7.69 7.81C7.27 8.37 7.06 9.17 7.06 10.21H2.11C2.15 8.51 2.51 7.09 3.19 5.95C3.89 4.81 4.8 3.97 5.92 3.43C7.06 2.89 8.32 2.62 9.7 2.62C12.08 2.62 13.87 3.23 15.07 4.45C16.29 5.67 16.9 7.26 16.9 9.22C16.9 11.36 16.17 13.35 14.71 15.19C13.25 17.01 11.39 18.79 9.13 20.53H17.23V24.7H2.17V20.89Z" fill="#3882C7"/>
<path d="M2.17 20.89L0.926236 19.3238L0.17 19.9243V20.89H2.17ZM3.1 20.14L1.82583 18.5984L4.2094 21.8041L3.1 20.14ZM7.72 16.15L6.37208 14.6725L6.36556 14.6784L6.3591 14.6844L7.72 16.15ZM11.2 7.63L9.65808 8.90376L9.65808 8.90376L11.2 7.63ZM7.69 7.81L6.09659 6.60121L6.09 6.61L7.69 7.81ZM7.06 10.21V12.21H9.06V10.21H7.06ZM2.11 10.21L0.110553 10.163L0.0623876 12.21H2.11V10.21ZM3.19 5.95L1.48566 4.90347L1.47894 4.91441L1.47236 4.92544L3.19 5.95ZM5.92 3.43L5.06381 1.62248L5.0514 1.62846L5.92 3.43ZM15.07 4.45L13.6441 5.85248L13.6499 5.85837L13.6558 5.86421L15.07 4.45ZM14.71 15.19L16.2701 16.4415L16.2767 16.4331L14.71 15.19ZM9.13 20.53L7.9099 18.9453L3.25388 22.53H9.13V20.53ZM17.23 20.53H19.23V18.53H17.23V20.53ZM17.23 24.7V26.7H19.23V24.7H17.23ZM2.17 24.7H0.17V26.7H2.17V24.7ZM3.41376 22.4562C3.75424 22.1858 4.00674 21.9844 4.168 21.8543C4.24538 21.7919 4.31379 21.7363 4.36201 21.6958C4.37481 21.685 4.39182 21.6706 4.41004 21.6547C4.41732 21.6484 4.4654 21.6068 4.51937 21.5528C4.5355 21.5367 4.56409 21.5076 4.59793 21.4697C4.62002 21.445 4.69938 21.3561 4.78234 21.2289C4.82004 21.1711 4.91143 21.0262 4.98599 20.822C5.03083 20.6992 5.25162 20.0907 4.95663 19.3744C4.56793 18.4305 3.70897 18.1853 3.30229 18.1454C2.94043 18.1099 2.66174 18.1843 2.58067 18.2064C2.37771 18.2617 2.22994 18.3381 2.20277 18.3519C2.14805 18.3796 2.10583 18.4041 2.08414 18.417C2.03944 18.4435 2.00492 18.4664 1.9906 18.4759L4.2094 21.8041C4.19883 21.8111 4.16733 21.8321 4.12495 21.8572C4.1044 21.8694 4.06315 21.8934 4.00923 21.9207C3.98285 21.9341 3.83569 22.0102 3.63316 22.0654C3.55231 22.0875 3.27378 22.1618 2.91205 22.1263C2.50549 22.0865 1.64661 21.8413 1.25795 20.8975C0.962994 20.1812 1.18377 19.5729 1.22855 19.4502C1.30305 19.2462 1.39434 19.1014 1.4319 19.0439C1.51456 18.9171 1.59345 18.8289 1.61489 18.8049C1.64807 18.7677 1.67583 18.7395 1.69094 18.7244C1.76081 18.6545 1.82422 18.6036 1.78924 18.633C1.77496 18.645 1.73462 18.6781 1.657 18.7407C1.50826 18.8606 1.26577 19.0542 0.926236 19.3238L3.41376 22.4562ZM4.37417 21.6816C6.34719 20.0508 7.92043 18.6932 9.0809 17.6156L6.3591 14.6844C5.27957 15.6868 3.77281 16.9892 1.82583 18.5984L4.37417 21.6816ZM9.06792 17.6275C10.3088 16.4955 11.374 15.2906 12.2506 14.0094L8.94939 11.7506C8.26598 12.7494 7.41118 13.7245 6.37208 14.6725L9.06792 17.6275ZM12.2506 14.0094C13.1949 12.6292 13.77 11.1322 13.77 9.55H9.77C9.77 10.1278 9.56508 10.8508 8.94939 11.7506L12.2506 14.0094ZM13.77 9.55C13.77 8.43812 13.5121 7.2886 12.7419 6.35623L9.65808 8.90376C9.65945 8.90542 9.66508 8.91243 9.67362 8.92891C9.68241 8.94586 9.69593 8.97609 9.71021 9.0242C9.73953 9.12296 9.77 9.29056 9.77 9.55H13.77ZM12.7419 6.35624C11.8821 5.31538 10.6696 4.94 9.49 4.94V8.94C9.67223 8.94 9.74092 8.96793 9.73911 8.9672C9.73729 8.96646 9.72348 8.96045 9.70404 8.94633C9.68436 8.93204 9.66853 8.91641 9.65808 8.90376L12.7419 6.35624ZM9.49 4.94C8.13647 4.94 6.93375 5.49773 6.09662 6.60123L9.28338 9.01877C9.30921 8.98473 9.32667 8.96892 9.33327 8.9634C9.33681 8.96043 9.33879 8.95912 9.33931 8.95878C9.33982 8.95845 9.34003 8.95835 9.34034 8.9582C9.34066 8.95804 9.34236 8.95723 9.34604 8.95598C9.34976 8.95471 9.35655 8.95265 9.36709 8.9504C9.38797 8.94595 9.42734 8.94 9.49 8.94V4.94ZM6.09 6.61C5.31144 7.64809 5.06 8.93779 5.06 10.21H9.06C9.06 9.40221 9.22857 9.09191 9.29 9.01L6.09 6.61ZM7.06 8.21H2.11V12.21H7.06V8.21ZM4.10945 10.257C4.14357 8.80696 4.44719 7.74649 4.90764 6.97455L1.47236 4.92544C0.572813 6.43351 0.156434 8.21304 0.110553 10.163L4.10945 10.257ZM4.89434 6.99652C5.40973 6.15719 6.04012 5.59241 6.7886 5.23154L5.0514 1.62846C3.55988 2.34759 2.37027 3.46281 1.48566 4.90347L4.89434 6.99652ZM6.77617 5.23747C7.62418 4.83579 8.58792 4.62 9.7 4.62V0.619998C8.05208 0.619998 6.49582 0.944211 5.06383 1.62252L6.77617 5.23747ZM9.7 4.62C11.7576 4.62 12.9474 5.14409 13.6441 5.85248L16.4959 3.04752C14.7926 1.31591 12.4024 0.619998 9.7 0.619998V4.62ZM13.6558 5.86421C14.4486 6.65704 14.9 7.71191 14.9 9.22H18.9C18.9 6.80809 18.1314 4.68296 16.4842 3.03578L13.6558 5.86421ZM14.9 9.22C14.9 10.8639 14.3518 12.4238 13.1433 13.9468L16.2767 16.4331C17.9882 14.2762 18.9 11.8561 18.9 9.22H14.9ZM13.1499 13.9385C11.8087 15.6104 10.0705 17.2818 7.9099 18.9453L10.3501 22.1147C12.7095 20.2982 14.6913 18.4096 16.2701 16.4415L13.1499 13.9385ZM9.13 22.53H17.23V18.53H9.13V22.53ZM15.23 20.53V24.7H19.23V20.53H15.23ZM17.23 22.7H2.17V26.7H17.23V22.7ZM4.17 24.7V20.89H0.17V24.7H4.17Z" fill="#0A59A3" mask="url(#path-1-outside-1_198_22345)"/>
</svg>
