<svg width="20" height="28" viewBox="0 0 20 28" fill="none" xmlns="http://www.w3.org/2000/svg">
<mask id="path-1-outside-1_198_22414" maskUnits="userSpaceOnUse" x="0" y="0" width="20" height="28" fill="black">
<rect fill="white" width="20" height="28"/>
<path d="M2.53 9.28C2.61 7.14 3.31 5.49 4.63 4.33C5.95 3.17 7.74 2.59 10 2.59C11.5 2.59 12.78 2.85 13.84 3.37C14.92 3.89 15.73 4.6 16.27 5.5C16.83 6.4 17.11 7.41 17.11 8.53C17.11 9.85 16.78 10.93 16.12 11.77C15.46 12.59 14.69 13.15 13.81 13.45V13.57C14.95 13.95 15.85 14.58 16.51 15.46C17.17 16.34 17.5 17.47 17.5 18.85C17.5 20.09 17.21 21.19 16.63 22.15C16.07 23.09 15.24 23.83 14.14 24.37C13.06 24.91 11.77 25.18 10.27 25.18C7.87 25.18 5.95 24.59 4.51 23.41C3.09 22.23 2.34 20.45 2.26 18.07H7.24C7.26 18.95 7.51 19.65 7.99 20.17C8.47 20.67 9.17 20.92 10.09 20.92C10.87 20.92 11.47 20.7 11.89 20.26C12.33 19.8 12.55 19.2 12.55 18.46C12.55 17.5 12.24 16.81 11.62 16.39C11.02 15.95 10.05 15.73 8.71 15.73H7.75V11.56H8.71C9.73 11.56 10.55 11.39 11.17 11.05C11.81 10.69 12.13 10.06 12.13 9.16C12.13 8.44 11.93 7.88 11.53 7.48C11.13 7.08 10.58 6.88 9.88 6.88C9.12 6.88 8.55 7.11 8.17 7.57C7.81 8.03 7.6 8.6 7.54 9.28H2.53Z"/>
</mask>
<path d="M2.53 9.28C2.61 7.14 3.31 5.49 4.63 4.33C5.95 3.17 7.74 2.59 10 2.59C11.5 2.59 12.78 2.85 13.84 3.37C14.92 3.89 15.73 4.6 16.27 5.5C16.83 6.4 17.11 7.41 17.11 8.53C17.11 9.85 16.78 10.93 16.12 11.77C15.46 12.59 14.69 13.15 13.81 13.45V13.57C14.95 13.95 15.85 14.58 16.51 15.46C17.17 16.34 17.5 17.47 17.5 18.85C17.5 20.09 17.21 21.19 16.63 22.15C16.07 23.09 15.24 23.83 14.14 24.37C13.06 24.91 11.77 25.18 10.27 25.18C7.87 25.18 5.95 24.59 4.51 23.41C3.09 22.23 2.34 20.45 2.26 18.07H7.24C7.26 18.95 7.51 19.65 7.99 20.17C8.47 20.67 9.17 20.92 10.09 20.92C10.87 20.92 11.47 20.7 11.89 20.26C12.33 19.8 12.55 19.2 12.55 18.46C12.55 17.5 12.24 16.81 11.62 16.39C11.02 15.95 10.05 15.73 8.71 15.73H7.75V11.56H8.71C9.73 11.56 10.55 11.39 11.17 11.05C11.81 10.69 12.13 10.06 12.13 9.16C12.13 8.44 11.93 7.88 11.53 7.48C11.13 7.08 10.58 6.88 9.88 6.88C9.12 6.88 8.55 7.11 8.17 7.57C7.81 8.03 7.6 8.6 7.54 9.28H2.53Z" fill="#3882C7"/>
<path d="M2.53 9.28L0.531396 9.20528L0.453837 11.28H2.53V9.28ZM4.63 4.33L5.95023 5.83233L5.95023 5.83233L4.63 4.33ZM13.84 3.37L12.9592 5.16558L12.9657 5.16881L12.9724 5.172L13.84 3.37ZM16.27 5.5L14.555 6.52899L14.5633 6.54286L14.5719 6.5566L16.27 5.5ZM16.12 11.77L17.678 13.024L17.6854 13.0149L17.6926 13.0056L16.12 11.77ZM13.81 13.45L13.1647 11.557L11.81 12.0188V13.45H13.81ZM13.81 13.57H11.81V15.0115L13.1775 15.4674L13.81 13.57ZM16.63 22.15L14.9181 21.1157L14.9118 21.1264L16.63 22.15ZM14.14 24.37L13.2587 22.5747L13.2521 22.5779L13.2456 22.5811L14.14 24.37ZM4.51 23.41L3.23173 24.9483L3.24235 24.957L4.51 23.41ZM2.26 18.07V16.07H0.191644L0.261129 18.1372L2.26 18.07ZM7.24 18.07L9.23948 18.0246L9.19506 16.07H7.24V18.07ZM7.99 20.17L6.52039 21.5266L6.53367 21.5409L6.54722 21.5551L7.99 20.17ZM11.89 20.26L10.4447 18.8776L10.4433 18.879L11.89 20.26ZM11.62 16.39L10.4373 18.0028L10.4674 18.0249L10.4983 18.0458L11.62 16.39ZM7.75 15.73H5.75V17.73H7.75V15.73ZM7.75 11.56V9.56H5.75V11.56H7.75ZM11.17 11.05L12.1317 12.8036L12.1411 12.7984L12.1505 12.7932L11.17 11.05ZM11.53 7.48L12.9442 6.06579L12.9442 6.06578L11.53 7.48ZM8.17 7.57L6.62808 6.29624L6.61126 6.31659L6.59499 6.33738L8.17 7.57ZM7.54 9.28V11.28H9.3713L9.53226 9.45579L7.54 9.28ZM4.5286 9.35471C4.59291 7.63463 5.13059 6.55262 5.95023 5.83233L3.30977 2.82767C1.48941 4.42738 0.627094 6.64537 0.531396 9.20528L4.5286 9.35471ZM5.95023 5.83233C6.81066 5.07619 8.08324 4.59 10 4.59V0.589999C7.39676 0.589999 5.08934 1.2638 3.30977 2.82767L5.95023 5.83233ZM10 4.59C11.2748 4.59 12.2372 4.81141 12.9592 5.16558L14.7209 1.57442C13.3228 0.888593 11.7252 0.589999 10 0.589999V4.59ZM12.9724 5.172C13.7519 5.54735 14.2434 6.00966 14.555 6.52899L17.985 4.47101C17.2166 3.19034 16.0881 2.23265 14.7076 1.568L12.9724 5.172ZM14.5719 6.5566C14.9232 7.12124 15.11 7.76137 15.11 8.53H19.11C19.11 7.05863 18.7368 5.67876 17.9681 4.4434L14.5719 6.5566ZM15.11 8.53C15.11 9.51008 14.8703 10.1233 14.5474 10.5344L17.6926 13.0056C18.6897 11.7367 19.11 10.1899 19.11 8.53H15.11ZM14.562 10.516C14.1073 11.0809 13.6403 11.3948 13.1647 11.557L14.4553 15.343C15.7397 14.9052 16.8127 14.0991 17.678 13.024L14.562 10.516ZM11.81 13.45V13.57H15.81V13.45H11.81ZM13.1775 15.4674C13.969 15.7312 14.5167 16.1356 14.91 16.66L18.11 14.26C17.1833 13.0244 15.931 12.1688 14.4425 11.6726L13.1775 15.4674ZM14.91 16.66C15.2505 17.114 15.5 17.7911 15.5 18.85H19.5C19.5 17.1489 19.0895 15.566 18.11 14.26L14.91 16.66ZM15.5 18.85C15.5 19.7651 15.2902 20.5001 14.9182 21.1158L18.3418 23.1842C19.1298 21.8799 19.5 20.4149 19.5 18.85H15.5ZM14.9118 21.1264C14.5733 21.6945 14.054 22.1842 13.2587 22.5747L15.0213 26.1653C16.426 25.4758 17.5667 24.4855 18.3482 23.1736L14.9118 21.1264ZM13.2456 22.5811C12.5024 22.9527 11.5331 23.18 10.27 23.18V27.18C12.0069 27.18 13.6176 26.8673 15.0344 26.1589L13.2456 22.5811ZM10.27 23.18C8.19644 23.18 6.7676 22.6743 5.77765 21.863L3.24235 24.957C5.1324 26.5057 7.54356 27.18 10.27 27.18V23.18ZM5.78824 21.8718C4.92689 21.156 4.32561 19.9882 4.25887 18.0028L0.261129 18.1372C0.354392 20.9118 1.25311 23.304 3.23176 24.9482L5.78824 21.8718ZM2.26 20.07H7.24V16.07H2.26V20.07ZM5.24052 18.1154C5.26878 19.3591 5.63496 20.5673 6.52039 21.5266L9.45961 18.8134C9.38504 18.7327 9.25122 18.5409 9.23948 18.0246L5.24052 18.1154ZM6.54722 21.5551C7.51606 22.5643 8.81107 22.92 10.09 22.92V18.92C9.80681 18.92 9.63738 18.8811 9.54767 18.849C9.46791 18.8205 9.44281 18.7954 9.43278 18.7849L6.54722 21.5551ZM10.09 22.92C11.2538 22.92 12.44 22.5804 13.3367 21.641L10.4433 18.879C10.4554 18.8664 10.464 18.8672 10.4365 18.8772C10.3996 18.8908 10.2952 18.92 10.09 18.92V22.92ZM13.3353 21.6424C14.1889 20.75 14.55 19.6252 14.55 18.46H10.55C10.55 18.7748 10.4711 18.85 10.4447 18.8776L13.3353 21.6424ZM14.55 18.46C14.55 17.0461 14.0643 15.6301 12.7417 14.7342L10.4983 18.0458C10.5049 18.0503 10.5008 18.0484 10.4938 18.0401C10.4869 18.0318 10.4876 18.0297 10.4932 18.0421C10.5057 18.0699 10.55 18.1891 10.55 18.46H14.55ZM12.8027 14.7772C11.6789 13.953 10.1765 13.73 8.71 13.73V17.73C9.92346 17.73 10.3611 17.947 10.4373 18.0028L12.8027 14.7772ZM8.71 13.73H7.75V17.73H8.71V13.73ZM9.75 15.73V11.56H5.75V15.73H9.75ZM7.75 13.56H8.71V9.56H7.75V13.56ZM8.71 13.56C9.92698 13.56 11.1151 13.3611 12.1317 12.8036L10.2083 9.29637C9.98487 9.41892 9.53302 9.56 8.71 9.56V13.56ZM12.1505 12.7932C13.5716 11.9938 14.13 10.5904 14.13 9.16H10.13C10.13 9.37897 10.0907 9.43359 10.1068 9.40177C10.1153 9.38507 10.1312 9.36076 10.1542 9.33708C10.1767 9.31387 10.1925 9.30514 10.1895 9.30685L12.1505 12.7932ZM14.13 9.16C14.13 8.06148 13.8146 6.93613 12.9442 6.06579L10.1158 8.89421C10.0957 8.87411 10.0909 8.85692 10.0965 8.87267C10.1051 8.8967 10.13 8.98242 10.13 9.16H14.13ZM12.9442 6.06578C12.0843 5.20584 10.977 4.88 9.88 4.88V8.88C10.0414 8.88 10.1163 8.90315 10.134 8.90959C10.1426 8.9127 10.1411 8.91305 10.1339 8.90848C10.1265 8.90379 10.1199 8.89828 10.1158 8.89421L12.9442 6.06578ZM9.88 4.88C8.70036 4.88 7.48791 5.25538 6.62808 6.29624L9.71192 8.84376C9.70147 8.85641 9.68564 8.87204 9.66596 8.88633C9.64652 8.90045 9.63271 8.90646 9.63089 8.9072C9.62908 8.90793 9.69777 8.88 9.88 8.88V4.88ZM6.59499 6.33738C5.95871 7.1504 5.63588 8.1053 5.54774 9.10421L9.53226 9.45579C9.56412 9.0947 9.66129 8.9096 9.74501 8.80262L6.59499 6.33738ZM7.54 7.28H2.53V11.28H7.54V7.28Z" fill="#0A59A3" mask="url(#path-1-outside-1_198_22414)"/>
</svg>
