<svg width="137" height="53" viewBox="0 0 137 53" fill="none" xmlns="http://www.w3.org/2000/svg">
<path d="M31.265 0.462417C12.4711 -3.01628 -3.6838 13.6658 0.736052 32.572C2.95266 42.0539 10.3437 49.4988 19.8119 51.7739C26.5937 53.4037 33.0931 52.3788 38.4898 49.533C39.0846 49.2195 39.2024 48.4174 38.7271 47.9421L36.5525 45.7675C36.252 45.467 35.7952 45.3908 35.4118 45.5735C32.5915 46.9153 29.4345 47.6601 26.1027 47.6337C14.3625 47.5399 4.86562 37.9208 4.91708 26.1802C4.96815 14.5402 14.3786 5.06886 25.9955 4.9188C37.9077 4.76522 47.6807 14.4483 47.6336 26.3609C47.6167 30.6319 46.3397 34.611 44.1561 37.9456C43.9165 38.3117 43.4003 38.3647 43.0908 38.0552L33.3743 28.3383C36.8306 27.2408 39.3348 23.9841 39.2947 20.1601C39.2464 15.543 35.3564 11.7666 30.739 11.7666H21.4625C19.2969 11.7666 18.2124 14.3847 19.7436 15.9158C20.235 16.4072 20.9012 16.683 21.596 16.683H30.7673C32.6936 16.683 34.3061 18.1929 34.376 20.1177C34.4494 22.1445 32.8224 23.8163 30.8117 23.8163H23.7034C23.0376 23.8163 22.7045 24.6212 23.1751 25.0918L42.9588 44.8755C43.4691 45.3857 44.2975 45.39 44.8085 44.8806C50.6684 39.0435 53.7967 30.4665 52.0825 21.2568C50.1173 10.7005 41.8244 2.41702 31.265 0.462417Z" fill="url(#paint0_linear_149_1298)"/>
<path d="M17.1934 39.8248L24.2666 32.7845C24.5216 32.5307 24.5216 32.1183 24.2666 31.8645L17.1934 24.8243C16.7841 24.4169 16.0864 24.7068 16.0864 25.2842V39.3648C16.0864 39.9422 16.7841 40.2321 17.1934 39.8248Z" fill="url(#paint1_linear_149_1298)"/>
<path d="M133.689 40.0905H128.495L130.423 31.0188L125.184 40.0905H123.052L121.555 31.0188L119.628 40.0905H117.677L120.988 24.4418H125.706L127.135 32.9919L132.079 24.4418H137L133.689 40.0905Z" fill="black"/>
<path d="M115.557 40.0905H110.341L113.652 24.4418H118.868L115.557 40.0905Z" fill="black"/>
<path d="M108.404 40.0905H103.188L104.231 35.1918H100.965L99.9218 40.0905H94.7056L97.4951 26.8911C97.6614 26.1503 98.0168 25.5606 98.5611 25.1221C99.1054 24.6686 99.7404 24.4418 100.466 24.4418H109.266C110.007 24.4418 110.551 24.6686 110.899 25.1221C111.262 25.5606 111.36 26.1503 111.193 26.8911L108.404 40.0905ZM102.825 26.4149L101.373 33.2414H104.639L106.091 26.4149H102.825Z" fill="black"/>
<path d="M93.0604 40.0905H81.9702L85.2814 24.4418H90.4977L87.5947 38.1401H93.4687L93.0604 40.0905Z" fill="black"/>
<path d="M71.7292 40.0905C70.9883 40.0905 70.4364 39.8713 70.0736 39.4328C69.7258 38.9793 69.6351 38.382 69.8014 37.6412L72.0694 26.8911C72.2357 26.1503 72.591 25.5606 73.1353 25.1221C73.6796 24.6686 74.3146 24.4418 75.0404 24.4418H83.6812L83.273 26.4149H77.399L74.7682 38.1401H80.7782L80.37 40.0905H71.7292Z" fill="black"/>
<path d="M59.0382 40.0906C58.2974 40.0906 57.7455 39.8713 57.3826 39.4329C57.0349 38.9793 56.9442 38.382 57.1105 37.6412L59.3784 26.8911C59.5448 26.1503 59.9001 25.5606 60.4444 25.1222C60.9887 24.6686 61.6237 24.4418 62.3494 24.4418H70.9903L70.5821 26.4149H64.7081L63.6648 31.2909H68.2234L67.8152 33.2414H63.2566L62.2134 38.1401H68.0873L67.6791 40.0906H59.0382Z" fill="black"/>
<defs>
<linearGradient id="paint0_linear_149_1298" x1="52.5501" y1="3.18834" x2="-0.876879" y2="4.22595" gradientUnits="userSpaceOnUse">
<stop stop-color="#3A6FA0"/>
<stop offset="0.99" stop-color="#3882C7"/>
</linearGradient>
<linearGradient id="paint1_linear_149_1298" x1="24.4578" y1="25.5672" x2="15.9445" y2="25.6572" gradientUnits="userSpaceOnUse">
<stop stop-color="#3A6FA0"/>
<stop offset="0.99" stop-color="#3882C7"/>
</linearGradient>
</defs>
</svg>
