<svg width="20" height="21" viewBox="0 0 20 21" fill="none" xmlns="http://www.w3.org/2000/svg">
<path d="M14.6574 19.7029C14.645 19.7384 14.6412 19.7762 14.6464 19.8134C14.6515 19.8506 14.6654 19.886 14.687 19.9167C14.7086 19.9474 14.7372 19.9726 14.7704 19.99C14.8036 20.0075 14.8405 20.0168 14.878 20.0171H19.0848C19.2562 20.017 19.4216 19.9545 19.5503 19.8413C19.6789 19.728 19.762 19.5719 19.784 19.4019C19.8882 18.5012 19.6698 17.5928 19.1676 16.8379C18.6654 16.083 17.9118 15.5305 17.0408 15.2787C17.3741 15.054 17.6265 14.7283 17.7607 14.3494C17.895 13.9706 17.904 13.5586 17.7866 13.1742C17.6691 12.7898 17.4313 12.4533 17.1082 12.2142C16.7852 11.9751 16.3938 11.846 15.9919 11.846C15.5899 11.846 15.1986 11.9751 14.8755 12.2142C14.5524 12.4533 14.3147 12.7898 14.1972 13.1742C14.0797 13.5586 14.0888 13.9706 14.2231 14.3494C14.3573 14.7283 14.6097 15.054 14.9429 15.2787C14.5972 15.3776 14.2671 15.525 13.9627 15.7166C13.936 15.7336 13.913 15.7558 13.8951 15.7819C13.8771 15.808 13.8646 15.8374 13.8583 15.8684C13.852 15.8994 13.8519 15.9314 13.8582 15.9624C13.8645 15.9935 13.877 16.0229 13.8949 16.049C14.5905 17.0463 14.8837 18.2696 14.7159 19.4738C14.7043 19.552 14.6847 19.6288 14.6574 19.7029Z" fill="#3882C7"/>
<path d="M5.8302 15.7041C5.53048 15.518 5.20631 15.3745 4.86703 15.2777C5.20031 15.053 5.45263 14.7272 5.58687 14.3484C5.7211 13.9695 5.73015 13.5576 5.61268 13.1732C5.49521 12.7888 5.25743 12.4523 4.93435 12.2132C4.61126 11.9741 4.21995 11.845 3.81801 11.845C3.41608 11.845 3.02476 11.9741 2.70168 12.2132C2.37859 12.4523 2.14081 12.7888 2.02334 13.1732C1.90587 13.5576 1.91492 13.9695 2.04915 14.3484C2.18339 14.7272 2.43572 15.053 2.76899 15.2777C1.89771 15.5295 1.14393 16.082 0.64163 16.8372C0.139325 17.5923 -0.0789687 18.5011 0.0255457 19.402C0.0475247 19.5719 0.130552 19.728 0.259143 19.8412C0.387734 19.9544 0.553109 20.0169 0.724425 20.0172H4.90863C4.94614 20.0168 4.98303 20.0075 5.01623 19.9901C5.04944 19.9726 5.07801 19.9475 5.09958 19.9168C5.12114 19.8861 5.13509 19.8507 5.14025 19.8136C5.14542 19.7764 5.14166 19.7386 5.12929 19.7032C5.10198 19.6283 5.08239 19.5508 5.0708 19.4719C4.90283 18.2635 5.199 17.0364 5.89964 16.0377C5.91762 16.0114 5.93012 15.9818 5.93637 15.9506C5.94262 15.9194 5.9425 15.8873 5.93601 15.8561C5.92953 15.8249 5.91681 15.7954 5.89863 15.7693C5.88045 15.7432 5.85717 15.721 5.8302 15.7041Z" fill="#3882C7"/>
<path d="M6.23313 20.0171H13.5519C13.7222 20.0156 13.8864 19.9531 14.0146 19.8409C14.1427 19.7287 14.2264 19.5742 14.2503 19.4055C14.2783 19.2107 14.2924 19.0142 14.2927 18.8174C14.2914 17.8463 13.9695 16.9029 13.377 16.1335C12.7845 15.3642 11.9545 14.812 11.016 14.5628C11.4123 14.3183 11.718 13.9512 11.8867 13.5171C12.0555 13.0831 12.078 12.6059 11.951 12.1579C11.8239 11.7099 11.5541 11.3156 11.1826 11.0349C10.8111 10.7541 10.3582 10.6022 9.89252 10.6022C9.42686 10.6022 8.9739 10.7541 8.60241 11.0349C8.23092 11.3156 7.96116 11.7099 7.83408 12.1579C7.70701 12.6059 7.72955 13.0831 7.89829 13.5171C8.06703 13.9512 8.37275 14.3183 8.76906 14.5628C7.83048 14.8119 7.00045 15.3641 6.4079 16.1334C5.81535 16.9028 5.49344 17.8463 5.49219 18.8174C5.49246 19.0142 5.50657 19.2107 5.53441 19.4055C5.5584 19.5742 5.6421 19.7287 5.77032 19.8409C5.89853 19.9532 6.06275 20.0157 6.23313 20.0171Z" fill="#3882C7"/>
<path d="M5.54549 3.85018C5.36907 3.85599 5.20185 3.93025 5.07925 4.05723C4.95664 4.18421 4.88829 4.35394 4.88867 4.53045V5.47813C4.88835 5.65489 4.95693 5.82482 5.07985 5.95183C5.20278 6.07885 5.37037 6.15295 5.54705 6.1584L5.70343 6.16309C5.79804 6.50644 5.93461 6.83681 6.11003 7.14675L6.00369 7.26247C5.88244 7.39109 5.81621 7.56198 5.81914 7.73871C5.82206 7.91545 5.89389 8.08406 6.01933 8.2086L6.68865 8.87792C6.81339 9.00299 6.98193 9.07457 7.15854 9.07749C7.33516 9.08041 7.50597 9.01444 7.63477 8.89356L7.7505 8.78565C8.06033 8.96169 8.39071 9.09878 8.73415 9.19381L8.73884 9.3502C8.74406 9.52695 8.81809 9.69468 8.94515 9.81766C9.07222 9.94064 9.24228 10.0091 9.41911 10.0086H10.3668C10.5436 10.0091 10.7137 9.94064 10.8408 9.81766C10.9678 9.69468 11.0419 9.52695 11.0471 9.3502L11.0518 9.19381C11.3951 9.0992 11.7255 8.96264 12.0354 8.78722L12.1511 8.89356C12.2799 9.01444 12.4508 9.08041 12.6274 9.07749C12.804 9.07457 12.9725 9.00299 13.0973 8.87792L13.7666 8.2086C13.892 8.08406 13.9639 7.91545 13.9668 7.73871C13.9697 7.56198 13.9035 7.39109 13.7822 7.26247L13.6743 7.14675C13.8504 6.83692 13.9874 6.50653 14.0825 6.16309L14.2404 6.1584C14.4168 6.15259 14.5841 6.07833 14.7067 5.95135C14.8293 5.82436 14.8976 5.65464 14.8972 5.47813V4.53045C14.8976 4.35394 14.8293 4.18421 14.7067 4.05723C14.5841 3.93025 14.4168 3.85599 14.2404 3.85018H14.2389L14.0825 3.84548C13.9879 3.50214 13.8513 3.17177 13.6759 2.86183L13.7822 2.7461C13.9035 2.61749 13.9697 2.4466 13.9668 2.26986C13.9639 2.09313 13.892 1.92452 13.7666 1.79998L13.0973 1.13066C12.9727 1.00522 12.8041 0.933387 12.6274 0.930466C12.4506 0.927544 12.2798 0.993768 12.1511 1.11502L12.0354 1.22293C11.7256 1.04689 11.3952 0.909799 11.0518 0.814764L11.0471 0.65838C11.0419 0.481625 10.9678 0.313894 10.8408 0.190917C10.7137 0.0679393 10.5436 -0.000562647 10.3668 3.48128e-06H9.41911C9.24228 -0.000562647 9.07222 0.0679393 8.94515 0.190917C8.81809 0.313894 8.74406 0.481625 8.73884 0.65838L8.73415 0.814764C8.39081 0.909374 8.06044 1.04594 7.7505 1.22136L7.63477 1.11502C7.50616 0.993768 7.33527 0.927544 7.15853 0.930466C6.9818 0.933387 6.81319 1.00522 6.68865 1.13066L6.01933 1.79998C5.89389 1.92452 5.82206 2.09313 5.81914 2.26986C5.81621 2.4466 5.88244 2.61749 6.00369 2.7461L6.1116 2.86183C5.93556 3.17166 5.79847 3.50204 5.70343 3.84548L5.54549 3.85018ZM9.81602 2.73344C10.2575 2.73344 10.6891 2.86436 11.0563 3.10966C11.4234 3.35496 11.7095 3.70361 11.8785 4.11152C12.0474 4.51944 12.0916 4.96829 12.0055 5.40133C11.9194 5.83437 11.7068 6.23215 11.3945 6.54435C11.0823 6.85655 10.6846 7.06917 10.2515 7.1553C9.81849 7.24144 9.36964 7.19723 8.96172 7.02827C8.55381 6.8593 8.20516 6.57317 7.95986 6.20606C7.71456 5.83895 7.58364 5.40734 7.58364 4.96582C7.58364 4.37375 7.81883 3.80594 8.23749 3.38729C8.65614 2.96863 9.22395 2.73344 9.81602 2.73344Z" fill="#3882C7"/>
<path d="M17.5795 2.22757C17.49 2.14677 17.3729 2.10337 17.2523 2.10628C17.1317 2.10919 17.0169 2.15819 16.9313 2.24321L16.4378 2.73675C16.3924 2.78192 16.3568 2.83591 16.3332 2.8954C16.3095 2.95488 16.2983 3.01858 16.3003 3.08256C16.3023 3.14654 16.3174 3.20943 16.3447 3.26734C16.3719 3.32525 16.4108 3.37694 16.4589 3.41921C16.7782 3.7064 16.9902 4.09383 17.0598 4.51764C17.1294 4.94145 17.0526 5.37632 16.8419 5.75058L16.6256 5.62548C16.5631 5.5894 16.4916 5.57207 16.4196 5.57558C16.3476 5.57908 16.2781 5.60326 16.2194 5.64523C16.1608 5.6872 16.1154 5.74518 16.0889 5.81224C16.0623 5.87929 16.0556 5.95257 16.0696 6.02332L16.3813 7.60029C16.3917 7.65276 16.4132 7.70241 16.4443 7.7459C16.4754 7.78939 16.5155 7.82573 16.5618 7.85247C16.6082 7.87922 16.6597 7.89575 16.7129 7.90097C16.7661 7.90618 16.8198 7.89996 16.8705 7.88272L18.3907 7.36493C18.459 7.3417 18.5191 7.29928 18.5639 7.24275C18.6087 7.18622 18.6363 7.11798 18.6433 7.04619C18.6503 6.97441 18.6365 6.90212 18.6036 6.83797C18.5706 6.77383 18.5198 6.72055 18.4573 6.68451L18.2409 6.5594C18.6547 5.874 18.8151 5.06523 18.6943 4.27378C18.5734 3.48232 18.179 2.75827 17.5795 2.22757Z" fill="#3882C7"/>
<path d="M2.20639 7.78101C2.29594 7.8618 2.41304 7.90521 2.53361 7.9023C2.65419 7.89939 2.76906 7.85039 2.85461 7.76537L3.34815 7.27183C3.39351 7.22666 3.42912 7.17267 3.45276 7.11318C3.4764 7.0537 3.48758 6.99 3.4856 6.92602C3.48362 6.86204 3.46853 6.79915 3.44125 6.74124C3.41398 6.68333 3.37511 6.63164 3.32704 6.58937C3.0077 6.30218 2.79574 5.91474 2.72612 5.49094C2.6565 5.06713 2.73337 4.63225 2.94406 4.258L3.16034 4.3831C3.22283 4.41912 3.29439 4.43637 3.36643 4.43278C3.43848 4.42918 3.50796 4.40491 3.56657 4.36285C3.62518 4.32079 3.67042 4.26274 3.69689 4.19563C3.72336 4.12853 3.72993 4.05522 3.71581 3.98448L3.40461 2.40907C3.39421 2.35661 3.37271 2.30699 3.34157 2.26351C3.31043 2.22004 3.27036 2.18372 3.22404 2.15699C3.17772 2.13026 3.12623 2.11374 3.073 2.10853C3.01978 2.10333 2.96606 2.10955 2.91544 2.1268L1.39523 2.64443C1.32695 2.66766 1.2668 2.71008 1.222 2.76661C1.1772 2.82314 1.14963 2.89138 1.1426 2.96317C1.13558 3.03495 1.14938 3.10724 1.18237 3.17139C1.21536 3.23553 1.26613 3.28881 1.32861 3.32485L1.54505 3.44996C1.13145 4.13528 0.971133 4.94388 1.09196 5.73516C1.21279 6.52645 1.60712 7.25035 2.20639 7.78101Z" fill="#3882C7"/>
</svg>
