<svg width="35" height="35" viewBox="0 0 35 35" fill="none" xmlns="http://www.w3.org/2000/svg">
<circle cx="17.5" cy="17.5" r="17.5" fill="#3882C7"/>
<path d="M19.5958 4.73915C10.5309 3.06126 2.7388 11.1076 4.87065 20.2267C5.9398 24.8002 9.50476 28.3911 14.0716 29.4885C17.3427 30.2746 20.4776 29.7803 23.0806 28.4076C23.3675 28.2564 23.4243 27.8695 23.1951 27.6403L22.1462 26.5914C22.0013 26.4465 21.7809 26.4097 21.596 26.4978C20.2356 27.145 18.7129 27.5043 17.1059 27.4916C11.4432 27.4463 6.86249 22.8067 6.88731 17.1438C6.91194 11.5294 11.4509 6.961 17.0542 6.88863C22.7999 6.81455 27.5137 11.485 27.491 17.2309C27.4828 19.291 26.8669 21.2102 25.8137 22.8186C25.6981 22.9952 25.4491 23.0208 25.2998 22.8715L20.6132 18.1847C22.2803 17.6553 23.4882 16.0845 23.4689 14.24C23.4456 12.0131 21.5693 10.1916 19.3421 10.1916H14.8677C13.8232 10.1916 13.3001 11.4543 14.0386 12.1929C14.2757 12.4299 14.597 12.5629 14.9322 12.5629H19.3558C20.2849 12.5629 21.0627 13.2912 21.0964 14.2196C21.1318 15.1972 20.3471 16.0036 19.3772 16.0036H15.9486C15.6275 16.0036 15.4668 16.3918 15.6938 16.6188L25.2362 26.1611C25.4823 26.4073 25.8819 26.4093 26.1284 26.1636C28.9548 23.3482 30.4637 19.2112 29.6369 14.769C28.689 9.67736 24.689 5.68193 19.5958 4.73915Z" fill="white"/>
<path d="M12.8093 23.725L16.221 20.3292C16.344 20.2068 16.344 20.0079 16.221 19.8855L12.8093 16.4897C12.6119 16.2933 12.2754 16.4331 12.2754 16.7116V23.5031C12.2754 23.7817 12.6119 23.9215 12.8093 23.725Z" fill="white"/>
</svg>
