<svg width="10" height="14" viewBox="0 0 10 14" fill="none" xmlns="http://www.w3.org/2000/svg">
<path d="M8.8121 0.299744H1.28211C0.668844 0.299744 0.130371 0.820668 0.130371 1.43727V12.9389C0.130371 13.1453 0.186006 13.3174 0.275669 13.4503C0.382899 13.6091 0.555555 13.7002 0.740698 13.7001C0.915741 13.7001 1.10211 13.6197 1.27421 13.4679L4.64313 10.5144C4.74717 10.4227 4.89663 10.3701 5.05203 10.3701C5.20737 10.3701 5.35652 10.4227 5.46087 10.5147L8.81852 13.4675C8.99124 13.6197 9.16476 13.7002 9.33949 13.7002C9.63499 13.7002 9.92301 13.4649 9.92301 12.939V1.43727C9.92301 0.820668 9.42536 0.299744 8.8121 0.299744Z" fill="#3882C7"/>
</svg>
