<svg width="20" height="20" viewBox="0 0 20 20" fill="none" xmlns="http://www.w3.org/2000/svg">
<path d="M19.2857 4.78571L15.9786 0.778571C15.5719 0.286161 14.967 0.000892857 14.3286 0H13.5714V3.57143C13.5714 4.75491 12.6121 5.71429 11.4286 5.71429H5.71429C4.5308 5.71429 3.57143 4.75491 3.57143 3.57143V0H2.14286C0.959375 0 0 0.959375 0 2.14286V17.8571C0 19.0406 0.959375 20 2.14286 20H2.85714V12.8571C2.85714 11.6737 3.81652 10.7143 5 10.7143H15C16.1835 10.7143 17.1429 11.6737 17.1429 12.8571V20H17.8571C19.0406 20 20 19.0406 20 17.8571V6.37143C19.9969 5.76562 19.7371 5.18973 19.2857 4.78571Z" fill="#3882C7"/>
<path d="M5.71429 4.28571H11.4286C11.8232 4.28571 12.1429 3.96607 12.1429 3.57143V0H5V3.57143C5 3.96607 5.31964 4.28571 5.71429 4.28571Z" fill="#A6D4FF"/>
<path d="M15.7147 17.5428H4.28613V20H15.7147V17.5428Z" fill="#A6D4FF"/>
<path d="M15.7147 14.6858H4.28613V16.1144H15.7147V14.6858Z" fill="#A6D4FF"/>
<path d="M15.0004 12.1428H5.00042C4.60578 12.1428 4.28613 12.4625 4.28613 12.8571V13.2571H15.7147V12.8571C15.7147 12.4625 15.3951 12.1428 15.0004 12.1428Z" fill="#A6D4FF"/>
</svg>
