<svg width="35" height="35" viewBox="0 0 35 35" fill="none" xmlns="http://www.w3.org/2000/svg">
<path d="M34.1199 17.4255C34.1198 17.2083 34.0561 16.9959 33.9364 16.8146C33.8168 16.6334 33.6465 16.4912 33.4469 16.406L11.5214 6.80875C11.3154 6.71776 11.0866 6.69165 10.8654 6.73386C10.6441 6.77606 10.441 6.88459 10.2828 7.04509C10.1247 7.20551 10.0192 7.41028 9.98016 7.63212C9.94117 7.85395 9.97066 8.08236 10.0646 8.28696L14.1723 17.2803L9.92892 26.2136C9.83242 26.4167 9.79991 26.6444 9.8358 26.8665C9.87158 27.0885 9.9741 27.2943 10.1296 27.4567L10.1412 27.4684C10.2986 27.6265 10.4998 27.7336 10.7187 27.7759C10.9377 27.8182 11.1644 27.7939 11.3694 27.7059L33.4377 18.442C33.6384 18.3579 33.81 18.2167 33.9312 18.036C34.0524 17.8553 34.1181 17.643 34.1199 17.4255ZM13.1864 24.5381L16.0961 18.409L20.7956 18.4428C20.9431 18.4464 21.0899 18.4205 21.2273 18.3668C21.3647 18.313 21.4902 18.2325 21.5961 18.1298C21.7021 18.027 21.7867 17.9043 21.8447 17.7686C21.9028 17.633 21.9333 17.4871 21.9345 17.3396C21.9356 17.1919 21.9074 17.0457 21.8514 16.9092C21.7954 16.7727 21.7127 16.6487 21.6084 16.5445C21.5039 16.4403 21.3798 16.3579 21.2432 16.3022C21.1066 16.2464 20.9603 16.2185 20.8127 16.2199L16.1199 16.1895L13.3039 10.0209L30.1914 17.4073L13.1864 24.5381Z" fill="white"/>
</svg>
