<svg width="27" height="26" viewBox="0 0 27 26" fill="none" xmlns="http://www.w3.org/2000/svg">
<path d="M17.1047 17.3601C17.165 16.726 17.1468 16.0944 17.0551 15.4777L18.4807 14.8423C18.3461 14.1517 18.1343 13.4704 17.8406 12.8112C17.547 12.1524 17.1823 11.5394 16.7596 10.9769L15.3331 11.6119C14.9362 11.1317 14.4789 10.6959 13.9674 10.3163L14.5266 8.85937C13.9426 8.46662 13.3114 8.13465 12.6376 7.87609C11.9667 7.61847 11.2775 7.44033 10.5766 7.34167L10.017 8.79999C9.38297 8.73967 8.7513 8.75791 8.13459 8.84955L7.50291 7.43098C6.09182 7.70824 4.77331 8.30672 3.64135 9.16188L4.26881 10.5711C3.78769 10.9681 3.35193 11.4258 2.97227 11.9368L1.5191 11.3795C1.12261 11.9621 0.790174 12.5938 0.531147 13.267C0.274457 13.9403 0.0986549 14.6314 0 15.3276L1.45691 15.8868C1.3966 16.5208 1.41483 17.1525 1.50647 17.7692L0.0808876 18.4041C0.215545 19.0952 0.427349 19.7759 0.720975 20.4352C1.01507 21.0944 1.3793 21.7069 1.80244 22.2694L3.22802 21.6345C3.62498 22.1151 4.08225 22.5509 4.59423 22.9305L4.03503 24.3884C4.61901 24.7816 5.25022 25.1131 5.92397 25.3717C6.59491 25.6293 7.2841 25.8074 7.98497 25.9061L8.54463 24.4478C9.17864 24.5076 9.81032 24.4894 10.427 24.3977L11.0587 25.8159C12.4698 25.5386 13.7892 24.9401 14.9207 24.0849L14.2928 22.6757C14.7735 22.2788 15.2097 21.8215 15.5893 21.31L17.0416 21.8673C17.4381 21.2847 17.7705 20.6531 18.0295 19.9803C18.2881 19.307 18.4634 18.6154 18.5621 17.9188L17.1047 17.3601ZM13.2319 18.1395C12.3945 20.322 9.94684 21.4115 7.76381 20.5741C5.58359 19.7371 4.49277 17.2899 5.3297 15.1078C6.1671 12.9257 8.61477 11.8363 10.7964 12.6728C12.9785 13.5097 14.0688 15.9578 13.2319 18.1395Z" fill="#3882C7"/>
<path d="M24.9985 5.74209C24.9985 5.45968 24.9695 5.18335 24.9199 4.91498L26.0126 4.28377C25.748 3.27759 25.2225 2.3766 24.5038 1.66498L23.4083 2.29758C22.9903 1.93943 22.5059 1.6589 21.9762 1.47187V0.208064C21.4937 0.0757445 20.9882 0 20.465 0C19.9418 0 19.4369 0.0766796 18.9539 0.208064V1.47234C18.4241 1.65937 17.9402 1.94037 17.5218 2.29805L16.4258 1.66544C15.7081 2.37707 15.1821 3.27805 14.917 4.28424L16.0101 4.91544C15.9606 5.18429 15.9311 5.45968 15.9311 5.74255C15.9311 6.02543 15.9606 6.30129 16.0101 6.56967L14.917 7.20087C15.1821 8.20706 15.7081 9.10851 16.4258 9.81967L17.5213 9.18706C17.9398 9.54521 18.4237 9.82574 18.9534 10.0128V11.277C19.4364 11.4089 19.9414 11.4851 20.4646 11.4851C20.9878 11.4851 21.4937 11.4084 21.9757 11.277V10.0128C22.5055 9.82574 22.9899 9.54474 23.4079 9.18706L24.5033 9.81967C25.222 9.10804 25.7475 8.20706 26.0122 7.20087L24.9195 6.56967C24.9695 6.30035 24.9985 6.02496 24.9985 5.74209ZM20.4655 7.85826C19.2966 7.85826 18.3489 6.91098 18.3489 5.74255C18.3489 4.57413 19.2966 3.62638 20.4655 3.62638C21.633 3.62638 22.5807 4.57366 22.5807 5.74209C22.5807 6.91052 21.633 7.85826 20.4655 7.85826Z" fill="#A6D4FF"/>
</svg>
